<?xml version="1.0" encoding="UTF-8"?>
<svg id="_图层_1" data-name="图层 1" xmlns="http://www.w3.org/2000/svg" version="1.1" viewBox="0 0 1100 1000">
  <defs>
    <style>
      .cls-1 {
        fill: #32343b;
      }

      .cls-1, .cls-2, .cls-3, .cls-4, .cls-5 {
        stroke-width: 0px;
      }

      .cls-2 {
        fill: #575548;
      }

      .cls-3 {
        fill: #646568;
      }

      .cls-6 {
        stroke: #814194;
      }

      .cls-6, .cls-7 {
        opacity: .8;
        stroke-width: 10px;
      }

      .cls-6, .cls-7, .cls-8 {
        fill: none;
        stroke-miterlimit: 10;
      }

      .cls-7 {
        stroke: #6bc3c0;
      }

      .cls-8 {
        stroke: #afabae;
        stroke-width: 1px;
      }

      .cls-4 {
        fill: #afabae;
      }

      .cls-5, .cls-9 {
        fill: #fff;
      }

      .cls-9 {
        font-family: SimHei, SimHei;
        font-size: 16px;
        isolation: isolate;
      }
    </style>
  </defs>
  <g id="_进攻-隐世修所" data-name="进攻-隐世修所">
    <g id="Body">
      <polygon class="cls-1" points="949.7 275 964.4 275 964.4 272.9 949.7 272.9 949.7 241.4 925.6 241.4 925.6 275 943.5 275 949.7 275"/>
      <path class="cls-1" d="M966.6,531v-73.6h31.4v-143.7h-38.7v-6.3h22v-31.5h-56.7v-84h-152.2v-80.8h-56.7V35.7L669.6,1h-2.1l-73.5,67.2v44.1h-60.9v-3.1h-35.7v82.9h-120.7v64h-113.3v40.9H101.8v112.3h19.9v97.6h43v78.7h6.3v66.1h-32.5v23.1h-4.2v90.1h34c0,.1,79.3.1,79.3.1h15.7v-32.5h8.4v49.3h-24.1v39.9h161.6v137.5l54.6,39.9h108.1l63-39.9v-80.8h-56.7v-65.1h144.8v-51.1h0v-69.6h-31.5v-5.2h32.5v-50.4h7.3v38.8h73.5v-24.1h27.3l92.3-55.6h73.5v-65.1h-31.5ZM894.2,233v74.5h10.5v6.3h-28.3v-65.1h-47.2v15.7h-56.7v-31.5h121.7ZM497.5,236.1h89.1v-76.6h88.3v72.4h49.3v121.7h-73.5v16.8h-15.7v-42l-25.2-24.1h-23.1v-48.3h-65.1v48.3h-22l-25.2,24.1v11.5h-16.8v-18.9h-48.3v-85h88.2ZM473.3,474.3v48.3h32.5v65.1h-48.3v-31.5h-24.1v-9.4h24.1v-116.5h-24.1v-4.2h24.1v-35.7h-80.8v-5.2h63v-11.5h17.8v-4.2h16.8v95.5h54.6v9.4h-55.6ZM497.5,664.3v35.7h96.5v32.5h7.3v4.2h-23.1v28.3h-64v-32.5h-32.5v-56.7h-16.8v-15.7h56.7v4.2h-24.1ZM352.7,335.8h-6.3v42h6.3v12.6h0v35.7h39.9v4.2h-24.1v21h-80.8v-42h24.1v-112.3h40.9v38.8ZM263.5,700v-7.3h-15.7v-16.8h-40.9v-39.9h40.9v-56.7h-40.9v-72.4h80.8v-26.2h80.8v66.1h24.1v9.4h-24.1v169h76.6v7.3h-35.7v32.5h-65.1v-89.2h-72.4v24.1h-8.4ZM440.8,878.4v-73.5h109.1v73.5h-109.1ZM667.5,692.6h-9.4l-23.1,22v22h-14.7v-4.2h6.3v-68.2h-55.6v-4.2h56.7v-72.4h-40.9v-113.3h-25.2v-9.4h73.5v-64h15.7v15.7h121.7v-119.6h56.7v32.5h-39.9v112.3h39.9v16.8h-65.1v-16.8h-31.5v24.1h-9.4v-24.1h-79.8v55.6h8.4v8.4h7.3v80.8h6.3v5.2h-28.3v95.5h30.4v5.2ZM832.2,586.6h-59.8v-23.1h-40.9v38.8h-7.3v-10.5h-36.8v-5.2h1.2l10.5-11.5v-69.3h24.1v-23.1h9.4v11.5h31.5v-4.2h79.8v33.6h65.1v-66.1h16.8v73.5h-1l-92.3,55.6Z"/>
    </g>
    <g id="Bombsite">
      <rect class="cls-2" x="101.7" y="297" width="161.6" height="113.3"/>
      <rect class="cls-2" x="498.4" y="334.8" width="111.2" height="101.8"/>
      <rect class="cls-2" x="880.4" y="313.8" width="117.5" height="100.7"/>
      <polygon class="cls-1" points="593.5 361.4 514.8 361.4 514.8 401.4 538.8 401.4 538.8 417.1 569.4 417.1 569.4 401.4 593.5 401.4 593.5 361.4"/>
      <polygon class="cls-1" points="198.8 377.3 198.8 393 248.2 393 248.2 408.8 262.8 408.8 262.8 393 262.8 390.8 262.8 377.3 198.8 377.3"/>
      <rect class="cls-1" x="102.3" y="361.6" width="48.2" height="47.1"/>
      <rect class="cls-1" x="102.4" y="346.7" width="7.3" height="14.9"/>
      <rect class="cls-1" x="175.7" y="297.3" width="14.8" height="14.9"/>
      <polygon class="cls-1" points="932.7 360.5 870.1 376.4 874.6 394.3 937.1 378.3 932.7 360.5"/>
      <rect class="cls-1" x="982.7" y="314.3" width="14.9" height="13.6"/>
    </g>
    <g id="Lines">
      <path class="cls-4" d="M916.7,583.5l7.5,12.4-12.1,7.2-7.5-12.4,12.1-7.2M917,582l-13.9,8.3,8.5,14.2,13.9-8.3-8.5-14.2h0Z"/>
      <path class="cls-4" d="M803.9,653.8v21h-6.3v-21h6.3M805,652.7h-8.4v23.1h8.4v-23.1Z"/>
      <path class="cls-4" d="M796.6,661.1v13.6h-3.1v-13.6h3.1M797.6,660.1h-5.2v15.7h5.2v-15.7Z"/>
      <path class="cls-4" d="M723.1,673.7v12.6h-13.6v-12.6h13.6M724.2,672.7h-15.7v14.7h15.7v-14.7Z"/>
      <path class="cls-4" d="M658,637v13.6h-20v-13.6h20M659.1,636h-22.1v15.7h22.1v-15.7Z"/>
      <path class="cls-4" d="M723.1,692.6v120.7h-79.8v-15.7h65.1v-104.9h14.7M724.2,691.6h-16.8v104.9h-65.1v17.8h81.9v-122.8Z"/>
      <path class="cls-4" d="M723.1,692.6v120.7h-87.1v-24h64.1v-96.7h23M724.2,691.6h-25.2v96.7h-64v26.1h89.2v-26.1h0v-96.7Z"/>
      <path class="cls-4" d="M593,798.6v13.6h-13.6v-13.6h13.6M594,797.6h-15.7v15.7h15.7v-15.7Z"/>
      <path class="cls-4" d="M425.1,733.6v14.7h-14.8v-14.7h14.8M426.1,732.5h-16.9v16.8h16.9v-16.8Z"/>
      <path class="cls-4" d="M429.7,733.6c1.5,0,2.6,1.2,2.6,2.6s-1.2,2.6-2.6,2.6-2.6-1.2-2.6-2.6h0c0-1.4,1.3-2.5,2.6-2.6M429.7,732.5c-2,0-3.7,1.7-3.7,3.7s1.7,3.7,3.7,3.7,3.7-1.7,3.7-3.7h0c.1-2-1.6-3.7-3.7-3.7q.1,0,0,0Z"/>
      <path class="cls-4" d="M463.9,661.1v13.6h-13.6v-13.6h13.6M464.9,660.1h-15.7v15.7h15.7v-15.7Z"/>
      <path class="cls-4" d="M481.7,675.8v7.3h-31.5v-7.3h31.5M482.8,674.8h-33.6v9.4h33.6v-9.4Z"/>
      <path class="cls-4" d="M384.1,620.2v14.7h-14.8v-14.7h14.8M385.2,619.2h-16.9v16.8h16.9v-16.8Z"/>
      <path class="cls-4" d="M391.5,628.6v6.3h-6.3v-6.3h6.3M392.5,627.6h-8.4v8.4h8.4v-8.4Z"/>
      <path class="cls-4" d="M452.4,537.4c2.3,0,4.2,1.8,4.2,4.2s-1.8,4.2-4.2,4.2-4.2-1.8-4.2-4.2h0c0-2.3,1.9-4.1,4.2-4.2M452.4,536.4c-2.9,0-5.2,2.3-5.2,5.2s2.3,5.2,5.2,5.2,5.2-2.3,5.2-5.2h0c0-2.8-2.4-5.2-5.2-5.2h0Z"/>
      <path class="cls-4" d="M456.5,496.4v12.6h-14.7v-12.6h14.7M457.6,495.3h-16.8v14.7h16.8v-14.7Z"/>
      <path class="cls-4" d="M432.4,430.3v14.7h-38.8v-14.7h38.8M433.5,429.2h-40.9v16.8h40.9v-16.8Z"/>
      <path class="cls-4" d="M432.4,427.1v17.8h-38.8v-17.8h38.8M433.5,426.1h-40.9v19.9h40.9v-19.9Z"/>
      <path class="cls-4" d="M425.1,430.3v9.4h-24.1v-9.4h24.1M426.1,429.2h-26.2v11.5h26.2v-11.5Z"/>
      <path class="cls-4" d="M238.3,492.2v13.6h-13.6v-13.6h13.6M239.3,491.1h-15.7v15.7h15.7v-15.7Z"/>
      <path class="cls-4" d="M286.5,676.9v14.7h-13.6v-14.7h13.6M287.6,675.8h-15.7v16.8h15.7v-16.8Z"/>
      <path class="cls-4" d="M294.9,676.9v6.3h-7.3v-6.3h7.3M296,675.8h-9.4v8.4h9.4v-8.4Z"/>
      <polyline class="cls-8" points="207.2 578.7 207.2 619.7 222.4 619.7"/>
      <path class="cls-4" d="M262.4,377.8v14.7h-63v-14.7h63M263.5,376.7h-65.1v16.8h65.1v-16.8Z"/>
      <path class="cls-4" d="M262.4,393.5v14.7h-13.6v-14.7h13.6M263.5,392.5h-15.7v16.8h15.7v-16.8Z"/>
      <path class="cls-4" d="M190,298v13.6h-13.6v-13.6h13.6M191,297h-15.7v15.7h15.7v-15.7Z"/>
      <path class="cls-4" d="M150.1,362.1v46.2h-47.2v-46.2h47.2M151.2,361h-49.3v48.3h49.3v-48.3Z"/>
      <path class="cls-4" d="M109.1,347.4v13.6h-6.2v-13.6h6.2M110.2,346.3h-8.4v15.7h8.4v-15.7Z"/>
      <path class="cls-4" d="M359,766.1v13.6h-13.6v-13.6h13.6M360,765h-15.7v15.7h15.7v-15.7Z"/>
      <path class="cls-4" d="M585.6,574v12.6h-14.7v-12.6h14.7M586.7,573h-16.8v14.7h16.8v-14.7Z"/>
      <path class="cls-4" d="M488,394.6v70.3h-13.6v-70.3h13.6M489.1,393.5h-15.7v72.4h15.7v-72.4Z"/>
      <path class="cls-4" d="M568.8,302.2v1h-29.4v-1h29.4M569.9,301.2h-31.5v3.1h31.5v-3.1Z"/>
      <path class="cls-4" d="M593,362.1v38.8h-24.1v15.7h-29.4v-15.7h-24.1v-38.8h77.7M594,361h-79.8v40.9h24.1v15.7h31.5v-15.7h24.1v-40.9Z"/>
      <path class="cls-4" d="M633.9,451.3v12.7h-14.7v-12.7h14.7M635,450.2h-16.8v14.8h16.8v-14.8Z"/>
      <path class="cls-4" d="M634,442.9v7.3h-6.5v-7.3h6.5M635.1,441.8h-8.6v9.4h8.6v-9.4Z"/>
      <path class="cls-4" d="M658,441.8v15.7h-14.7v-15.7h14.7M659.1,440.8h-16.8v17.8h16.8v-17.8Z"/>
      <path class="cls-4" d="M577.1,637v23.1h-62.9v-23.1h62.9M578.2,636h-65v25.2h65v-25.2Z"/>
      <path class="cls-4" d="M570.9,644.3v18.9h-49.4v-18.9h49.4M572,643.3h-51.5v21h51.5v-21Z"/>
      <path class="cls-4" d="M310.7,377.8v30.4h-13.6v-30.4h13.6M311.7,376.7h-15.7v32.5h15.7v-32.5Z"/>
      <path class="cls-4" d="M310.7,362.1v14.7h-13.6v-14.7h13.6M311.7,361h-15.7v16.8h15.7v-16.8Z"/>
      <path class="cls-4" d="M279.2,257.1v14.7h-14.8v-14.7h14.8M280.2,256.1h-16.9v16.8h16.9v-16.8Z"/>
      <path class="cls-4" d="M715.8,51.4v23.1h-5.2v-23.1h5.2M716.8,50.4h-7.3v25.2h7.3v-25.2Z"/>
      <path class="cls-4" d="M607.6,55.4v21.2h-13.6v-8l13.6-13.2M608.6,52.9l-15.7,15.2v9.4h15.7v-24.7Z"/>
      <path class="cls-4" d="M586.7,256.1v7.3h-65.1v-7.3h65.1M587.7,255h-67.2v9.4h67.2v-9.4Z"/>
      <path class="cls-4" d="M738.6,318v13.6h-13.6v-13.6h13.6M739.7,316.9h-15.7v15.7h15.7v-15.7Z"/>
      <path class="cls-4" d="M730.1,310.6v6.3h-5.1v-6.3h5.1M731.2,309.6h-7.2v8.4h7.2v-8.4Z"/>
      <path class="cls-4" d="M876.3,248.7v13.6h-12.6v-13.6h12.6M877.4,247.7h-14.7v15.7h14.7v-15.7Z"/>
      <path class="cls-4" d="M997,314.8v12.6h-13.6v-12.6h13.6M998.1,313.8h-15.7v14.7h15.7v-14.7Z"/>
      <path class="cls-4" d="M997,325.3v2.1h-13.6v-2.1h13.6M998.1,324.3h-15.7v4.2h15.7v-4.2Z"/>
      <path class="cls-4" d="M924.6,442.9v14.7h-15.7v13.6h-14.7v-28.3h30.4M925.6,441.8h-32.5v30.4h16.8v-13.6h15.7v-16.8Z"/>
      <path class="cls-4" d="M841.7,442.9v11.5h-11.6v-11.5h11.6M842.7,441.8h-13.7v13.6h13.7v-13.6Z"/>
      <path class="cls-4" d="M936.1,308.5v4.2h-30.4v-4.2h30.4M937.2,307.5h-32.5v6.3h32.5v-6.3Z"/>
      <path class="cls-4" d="M959.2,309.6v2.1h-22v-2.1h22M960.3,308.5h-24.1v4.2h24.1v-4.2Z"/>
      <path class="cls-4" d="M932.3,361.1l4.3,16.8-61.5,15.6-4.3-16.8,61.5-15.6M933,359.8l-63.5,16.2,4.8,18.8,63.5-16.2-4.8-18.8h0Z"/>
      <line class="cls-8" x1="392" y1="551.3" x2="410.2" y2="540.7"/>
      <line class="cls-8" x1="434" y1="550" x2="417" y2="560.1"/>
      <line class="cls-8" x1="230.8" y1="675.4" x2="248" y2="692.3"/>
    </g>
    <g id="Outlines">
      <path class="cls-3" d="M949.8,241.4v31.5h14.7v2.1h-38.8v-33.6h24.1M950.8,240.3h-26.2v35.7h41v-4.2h-14.8v-31.5h0Z"/>
      <path class="cls-3" d="M669.6,1l46.2,34.6v75.6h56.7v80.8h152.2v84h56.7v31.5h-22v6.3h38.7v143.7h-31.4v73.6h31.5v65.1h-73.5l-92.3,55.6h-27.3v24.1h-73.5v-38.8h-7.3v50.4h-32.5v5.2h31.5v69.6h0v51.1h-144.8v65.1h56.7v80.8l-63,39.9h-108.1l-54.6-39.9v-137.5h-161.6v-39.9h24.1v-49.3h-8.4v32.5h-15.7c0,.1-79.4.1-79.4.1h0c0-.1-33.9-.1-33.9-.1v-90.3h4.2v-23.1h32.5v-66.1h-6.3v-78.7h-43v-97.6h-19.9v-112.3h161.6v-40.9h113.3v-64h120.7v-82.9h35.7v3.1h60.9v-44.1L667.5,1h2.1M409.3,321.1h48.3v18.9h16.8v-11.5l25.2-24.1h22v-48.3h65.1v48.3h23.1l25.2,24.1v42h15.7v-16.8h73.5v-121.7h-49.3v-72.4h-88.3v76.6h-177.2v85M772.4,264.5h56.7v-15.7h47.2v65.1h28.3v-6.3h-10.5v-74.5h-121.7v31.5M650.7,416.6v-15.7h-15.7v64h-73.5v9.4h25.2v113.3h40.9v72.4h-56.7v4.2h55.6v68.2h-6.3v4.2h14.7v-22l23.1-22h9.4v-5.2h-30.4v-95.5h28.3v-5.2h-6.3v-80.8h-7.3v-8.4h-8.4v-55.6h79.8v24.1h9.4v-24.1h31.5v16.8h65.1v-16.8h-39.9v-112.3h39.9v-32.5h-56.7v119.6h-121.7M287.6,451.3h80.8v-21h24.1v-4.2h-39.9v-35.7h0v-12.6h-6.3v-42h6.3v-38.8h-40.9v112.3h-24.1v42M376.8,390.4h80.8v35.7h-24.1v4.2h24.1v116.5h-24.1v9.4h24.1v31.5h48.3v-65.1h-32.5v-48.3h55.6v-9.4h-54.6v-95.5h-16.8v4.2h-17.8v11.5h-63v5.2M843.8,523.7v-33.6h-79.8v4.2h-31.5v-11.5h-9.4v23.1h-24.1v69.3l-10.5,11.5h-1.2v5.2h36.8v10.5h7.3v-38.8h40.9v23.1h59.8l92.3-55.6h1v-73.6h-16.9v66.1h-65M206.8,579.3h40.9v56.7h-40.9v39.9h40.9v16.8h15.7v7.3h8.4v-24.1h72.4v89.2h65.1v-32.5h35.7v-7.3h-76.6v-169h24.1v-9.4h-24.1v-66.1h-80.8v26.2h-80.8v72.4M464.9,675.8h16.8v56.7h32.5v32.5h64v-28.3h23.1v-4.2h-7.3v-32.5h-96.5v-35.7h24v-4.2h-56.6v15.7M440.8,878.4h109.1v-73.5h-109.1v73.5M669.9,0h-2.9l-.3.3-73.5,67.2-.3.3v43.4h-58.8v-3.1h-37.8v82.9h-120.7v64h-113.3v40.9H100.8v114.4h19.9v97.6h43v78.7h6.3v64h-32.5v23.1h-4.2v92.3h33.9c0,.1,81.6.1,81.6.1h15.7v-32.5h6.2v47.1h-24.1v42h161.6v136.8l.4.3,54.6,39.9.3.2h108.7l.3-.2,63-40,.5-.3v-82.5h-56.7v-62.7h144.8v-122.8h-31.4v-3h32.5v-50.5h5.1v38.8h75.7v-24.1h26.4l.2-.2,92.1-55.4h74.2v-67.2h-31.5v-71.4h31.5v-145.9h-38.8v-4.2h22v-33.6h-56.7v-84h-152.2v-80.8h-56.7V35.2l-.4-.3L670.3.2l-.4-.2h0ZM587.7,160.7h86.1v72.4h49.3v119.6h-73.5v16.8h-13.5v-41.3l-.3-.3-25.2-24.1-.3-.3h-22.5v-48.3h-67.2v48.3h-21.4l-.3.3-25.2,24.1-.3.3v10.8h-14.6v-18.9h-48.3v-82.9h177.4v-76.5h-.2ZM773.5,234.1h119.6v74.5h10.5v4.2h-26.2v-65.1h-49.4v15.7h-54.5v-29.4h0ZM773.5,298.1h54.5v30.4h-39.9v114.5h39.9v14.5h-62.9v-16.8h-33.6v24.1h-7.3v-24.1h-81.9v57.7h8.4v8.4h7.3v80.8h6.3v3.1h-28.3v97.7h30.4v3h-8.8l-.3.3-23.1,22-.3.3v21.4h-12.6v-2.1h6.3v-70.3h-55.6v-2.1h56.7v-74.5h-40.9v-113.3h-25.2v-7.2h73.5v-64h13.6v15.7h123.8v-119.6h0ZM312.8,298.1h38.8v36.7h-6.3v44.2h6.3v48.2h39.9v2.1h-24.1v21h-78.7v-39.9h24.1v-112.3h0ZM458.6,370.6h14.7v95.5h54.6v7.2h-55.6v50.5h32.5v63h-46.2v-31.5h-24.1v-7.2h24.1v-118.8h-24.1v-2.1h24.1v-37.8h-80.8v-3h63v-11.5h17.8v-4.2h0ZM909.9,458.6h14.7v71.4h-.2l-.2.2-92.2,55.4h-58.5v-23.1h-43.1v38.8h-5.1v-10.5h-36.7v-3.1h.5l.3-.3,10.5-11.5.3-.3v-68.6h24.1v-23.1h7.2v11.5h33.6v-4.2h77.6v33.6h67.3v-66.1h0ZM288.6,481.7h78.7v66.1h24.1v7.3h-24.1v171.1h76.6v5.2h-35.7v32.5h-63v-89.2h-74.6v24.1h-6.2v-7.3h-15.7v-16.8h-40.9v-37.8h40.9v-58.8h-40.9v-70.3h80.8v-26.2ZM466,661.1h54.5v2.1h-24v37.8h96.5v32.5h7.3v2h-23.1v28.3h-61.9v-32.4h-32.5v-56.7h-16.8v-13.6ZM441.9,806h106.9v71.3h-106.9v-71.3h0Z"/>
    </g>
    <g id="Callouts">
      <text class="cls-9" transform="translate(170.6 612.1)"><tspan x="0" y="0">C区 小房间</tspan></text>
      <text class="cls-9" transform="translate(158 721.7)"><tspan x="0" y="0">C区 长道</tspan></text>
      <text class="cls-9" transform="translate(366.7 513.7)"><tspan x="0" y="0">C区 车库</tspan></text>
      <text class="cls-9" transform="translate(336.6 284.3)"><tspan x="0" y="0">C区 小道</tspan></text>
      <text class="cls-9" transform="translate(372.1 408.8)"><tspan x="0" y="0">C区 窗口</tspan></text>
      <text class="cls-9" transform="translate(273.4 762.3)"><tspan x="0" y="0">C区 大厅</tspan></text>
      <text class="cls-9" transform="translate(395.3 612.1)"><tspan x="0" y="0">中区 门</tspan></text>
      <text class="cls-9" transform="translate(509.5 558.5)"><tspan x="0" y="0">中区 庭院</tspan></text>
      <text class="cls-9" transform="translate(644.9 479.1)"><tspan x="0" y="0">A区 下水道</tspan></text>
      <text class="cls-9" transform="translate(814.3 612.1)"><tspan x="0" y="0">A区 长道</tspan></text>
      <text class="cls-9" transform="translate(632.3 762.4)"><tspan x="0" y="0">A区 花园</tspan></text>
      <text class="cls-9" transform="translate(659.4 649.1)"><tspan x="0" y="0">A区 大厅</tspan></text>
      <text class="cls-9" transform="translate(899.9 295.4)"><tspan x="0" y="0">A区 塔楼</tspan></text>
      <text class="cls-9" transform="translate(681.5 387.8)"><tspan x="0" y="0">A区 小道</tspan></text>
      <text class="cls-9" transform="translate(522.1 287.9)"><tspan x="0" y="0">B区 后房</tspan></text>
      <text class="cls-9" transform="translate(509.4 684.3)"><tspan x="0" y="0">中区 窗口</tspan></text>
      <text class="cls-9" transform="translate(612.4 126.9)"><tspan x="0" y="0">守方 重生点</tspan></text>
      <text class="cls-9" transform="translate(475.4 927.2)"><tspan x="0" y="0">攻方 重生点</tspan></text>
      <path id="C" class="cls-5" d="M183.8,339.6c4.1,0,7.2,1.8,8.6,4.8.2.4.3.9.3,1.5,0,1-.8,2-1.9,2h-.2c-.9,0-1.7-.5-2-1.4-.8-2-2.7-3.3-4.9-3.1-3.5,0-5.6,2.8-5.6,7.3s2.2,7.3,5.6,7.3,4.1-1.3,4.8-3.3c.3-.9,1.2-1.5,2.1-1.5,1-.1,1.9.6,2,1.7v.2c0,.6-.2,1.2-.4,1.7-1.5,3-4.6,4.8-8.6,4.8-6.2,0-10.1-4.2-10.1-11.1s4-11,10.3-11Z"/>
      <path id="B" class="cls-5" d="M546.9,390.2v-16.8c-.1-1.2.7-2.2,1.9-2.3h7.6c4,0,6.5,2.1,6.5,5.4s-1.7,4.3-4,4.6h0c2.8.2,5,2.5,5,5.2s-2.8,6.1-7.5,6.1h-7.2c-1.2.1-2.2-.7-2.2-1.9-.1-.1-.1-.2-.1-.3ZM554.7,380c2.4,0,3.8-1,3.8-2.8s-1.2-2.7-3.3-2.7h-3.7v5.6h3.1ZM555.3,389.1c2.6,0,4-1,4-3.1s-1.5-3-4.1-3h-3.8v6.2h3.9Z"/>
      <path id="A" class="cls-5" d="M975.1,370.8c-1.2,0-1.9-.6-2.3-2l-1.2-3.4h-7.8l-1.2,3.4c-.4,1.4-1,2-2.3,2-1.2.1-2.2-.8-2.2-2h0c0-.6.1-1,.3-1.5l5.9-16c.5-1.9,2.5-2.9,4.4-2.4,1.2.3,2.1,1.3,2.4,2.4l5.9,16c.2.4.3.9.3,1.4,0,1.2-.9,2.1-2.1,2.1h-.2ZM970.7,361.9l-2.8-8.8h-.1l-2.8,8.8h5.8Z"/>
    </g>
    <g id="Barrier">
      <line class="cls-7" x1="267.9" y1="733.7" x2="267.9" y2="698.9"/>
      <line class="cls-7" x1="444" y1="728.6" x2="482.8" y2="728.6"/>
      <line class="cls-7" x1="593" y1="701" x2="593" y2="660.1"/>
      <line class="cls-7" x1="633.9" y1="714.2" x2="723.9" y2="714.2"/>
      <line class="cls-6" x1="527.9" y1="470.1" x2="562.5" y2="470.1"/>
      <line class="cls-6" x1="923" y1="506.9" x2="969.8" y2="506.9"/>
      <line class="cls-6" x1="814.7" y1="458.1" x2="814.7" y2="491.1"/>
      <line class="cls-6" x1="367.3" y1="487.6" x2="458.6" y2="487.6"/>
      <line class="cls-6" x1="207.8" y1="511.1" x2="163.8" y2="511.1"/>
    </g>
  </g>
</svg>