<?xml version="1.0" encoding="UTF-8"?>
<svg id="_图层_1" data-name="图层 1" xmlns="http://www.w3.org/2000/svg" version="1.1" viewBox="0 0 1100 1000">
  <defs>
    <style>
      .cls-1 {
        fill: #32343b;
      }

      .cls-1, .cls-2, .cls-3, .cls-4, .cls-5 {
        stroke-width: 0px;
      }

      .cls-2 {
        fill: #575548;
      }

      .cls-3 {
        fill: #646568;
      }

      .cls-6 {
        stroke: #814194;
      }

      .cls-6, .cls-7 {
        fill: none;
        opacity: .8;
        stroke-miterlimit: 10;
        stroke-width: 10px;
      }

      .cls-7 {
        stroke: #6bc3c0;
      }

      .cls-4 {
        fill: #afabae;
      }

      .cls-5, .cls-8 {
        fill: #fff;
      }

      .cls-8 {
        font-family: SimHei, SimHei;
        font-size: 16px;
        isolation: isolate;
      }
    </style>
  </defs>
  <g id="_进攻-霓虹町" data-name="进攻-霓虹町">
    <g id="Body">
      <path class="cls-1" d="M1075.7,391.3v-134.5h4.5v-37h-65v-40.4h-104.3v-16.8h-6.7v-10.1h48.2v-61.7h-214.1v61.7h-145.7v.2h-19.1V1.1h-87.4v216.4h-152.5v-59.4h-146.9v52.7h7.8v58.3h-104.3v-66.1H19.7v245.5h37v188.3h79.6v-35.9h63.9v17.9h-28v224.2h93v29.1h157v-9h20.2v15.7h-4.5v113.1h25.8v3.5h6.7l16.8-2.2h20.2l28,5.6h47.1v-132.3h190.6v-85.2h214.1v-118.8h52.7v-61.7h-34.8v-142.4h-69.5v37h-28v-118.8h81.8l69.5,49.3h21.3v-34.8h-4.5ZM835.8,488.8h-70.5v-47.1l13.3-25.8v-34.8h-17.9v-7.2l29.1-55.4h11.2v-18.2h4.5l13.5,27v85.1h52.7v35.9h-35.9v40.4h0ZM781.2,188.3h27.7v-59.4h9v23.5h58.3v10.1h-7.8v36l-12.3,14.5h-7.7v48.2h-43.7v12.3h-3.4v-63.9h-113.3v-21.3h93.4ZM544.3,273.5v-59.3l20.2-23.5v-2.2h96.4v94.2h40.4v62.8h-80.7v63.9h-19.1v-32.5h-97.4v28l22.3,21.5v13.2h4.5v4.5h-53.8v26.9h-10.1v-35.9h-61.7v35.9h-17.9v-130h59.4v-80.9h39.2v13.6h58.3ZM252.9,210.9v-17.9h35.9v67.2h125.6v58.4h-62.8v53.8h-75.1v-103.1h-50.4v-58.3h26.9ZM194.6,345.4v41.5h-86.3v-41.5h86.3ZM234.9,601h5.6v-80.7H108.2v-71.7h102l24.7,24.7h80.7v-40.4h4.5v114.3h28l39.2-40.4h89.7v58.3h-22.4v89.7h-9v-34.8h-91.9v16.8h-2.2v-16.8h-53.8v70.6h0v22.4h-17.9v-94.2h-44.8v-17.9ZM767.4,725.4h-78.4v95.3h-106.5v-25.8h-22.4v30.3h-224.2v-52.7h-56.1v-28h71.7v-53.8h34.8v37h59.4v-37h9v26.9h106.5v-62.8h95.3v53.8h228.7v-53.8h34.8v-7.8h5.6v25.8h-17.9v52.7h-140.2ZM935.7,547.2h7.8v53.8h-17.9v25.8h-5.6v-7.8h-70.6v52.7h-165.9v-68.4h-26.9v15.7h-95.3v-54.9h4.5v-107.6h-10.1v-12.3h-2.1v-4.5h108.6v-62.8h61.9v4.5h-32.8v152.5l26.9,28h71.7v-35.9h46v57.2h53.8l35.8-35.9h10.3ZM912.2,269.2v-61.7h77.4v61.7h-77.4Z"/>
    </g>
    <g id="Bombsite">
      <polygon class="cls-2" points="260.8 359.9 260.8 345.9 260.8 329.1 260.8 268.8 164.4 268.8 127.4 268.8 109.4 268.8 109.4 292.6 127.4 292.6 127.4 345.9 194.7 345.9 194.7 359.9 260.8 359.9"/>
      <polygon class="cls-2" points="1080.3 390.8 1076 390.8 1076 377.5 1076 373 1076 293.7 1076 268.8 1076 257.1 1080.4 257.1 1080.4 219.6 1016.4 219.6 1016.4 218.6 989.1 218.6 989.1 219.6 989.1 224.6 989.1 252.9 989.1 257.1 989.1 268.8 959.2 268.8 959.2 377.5 982.3 377.5 989 377.5 1057.2 426 1080.3 426 1080.3 390.8"/>
      <rect class="cls-1" x="1012.4" y="306.5" width="15.9" height="33.7"/>
      <rect class="cls-1" x="970.9" y="268.5" width="17.9" height="17.9"/>
      <rect class="cls-1" x="244.3" y="306.6" width="17" height="15.8"/>
      <rect class="cls-1" x="145.7" y="327.9" width="17" height="17.9"/>
    </g>
    <g id="Lines">
      <path class="cls-4" d="M718.1,283.7v15.7h-15.7v-15.7h15.7M719.2,282.6h-17.9v17.9h17.9v-17.9Z"/>
      <path class="cls-4" d="M717,300.4v9h-14.6v-9h14.6M718.1,299.3h-16.8v11.2h16.8v-11.2Z"/>
      <path class="cls-4" d="M713.6,440.6v15.7h-22.4v-15.7h22.4M714.7,439.5h-24.7v17.9h24.7v-17.9Z"/>
      <path class="cls-4" d="M700.2,431.6v6.8h-9v-6.7h9M701.3,430.6h-11.2v9h11.2v-9Z"/>
      <path class="cls-4" d="M852.7,333v15.7h-16.8v-15.7h16.8M853.9,331.8h-19.1v17.9h19.1v-17.9Z"/>
      <path class="cls-4" d="M988.4,269.1v16.8h-16.8v-16.8h16.8M989.5,267.9h-19.1v19.1h19.1v-19.1Z"/>
      <path class="cls-4" d="M1027.6,307.2v32.5h-14.6v-32.5h14.6M1028.8,306.1h-16.8v34.8h16.8v-34.8Z"/>
      <path class="cls-4" d="M852.7,448.5v34.6h-16.8v-34.6h16.8M853.9,447.4h-19.1v36.9h19.1v-36.9Z"/>
      <path class="cls-4" d="M987.3,663.7v26.9h-15.7v-26.9h15.7M988.4,662.6h-17.9v29.1h17.9v-29.1Z"/>
      <path class="cls-4" d="M987.3,663.7v16.8h-15.7v-16.8h15.7M988.4,662.6h-17.9v19.1h17.9v-19.1Z"/>
      <path class="cls-4" d="M987.3,710.8v39.2h-7.8v-39.2h7.8M988.4,709.6h-10.1v41.5h10.1v-41.5Z"/>
      <path class="cls-4" d="M987.3,771.3v9h-15.7v-9h15.7M988.4,770.2h-17.9v11.2h17.9v-11.2Z"/>
      <path class="cls-4" d="M745,725.3v17.9h-33.6v-17.9h33.6M746.1,724.2h-35.9v20.2h35.9v-20.2Z"/>
      <path class="cls-4" d="M728.2,725.3v17.9h-16.8v-17.9h16.8M729.3,724.2h-19.1v20.2h19.1v-20.2Z"/>
      <path class="cls-4" d="M279.9,754.5v16.8h-17.9v-16.8h17.9M281,753.4h-20.2v19.1h20.2v-19.1Z"/>
      <path class="cls-4" d="M264.1,827.4v15.7h-22.4v-15.7h22.4M265.2,826.2h-24.7v17.9h24.7v-17.9Z"/>
      <path class="cls-4" d="M204.7,825.2v2.1h1c0,.1,34.9,3.7,34.9,3.7v12.1h-68.4v-17.9h32.5M205.8,824.1h-34.8v20.2h70.6v-14.3l-35.9-3.7v-2.1h0Z"/>
      <path class="cls-4" d="M199.2,618.8v62.8h-27v-62.8h27M200.3,617.7h-29.3v65h29.3v-65Z"/>
      <path class="cls-4" d="M206.9,672.6v9h-5.6v-9h5.6M208,671.5h-7.8v11.2h7.8v-11.2Z"/>
      <path class="cls-4" d="M661,411.4v6.8h-9v-6.8h9M662.2,410.3h-11.2v9.1h11.2v-9.1Z"/>
      <path class="cls-4" d="M661,420.4v17.9h-10.1v-17.9h10.1M662.2,419.3h-12.3v20.2h12.3v-20.2Z"/>
      <path class="cls-4" d="M564.6,507.8v15.7h-16.8v-15.7h16.8M565.8,506.7h-19.1v17.9h19.1v-17.9Z"/>
      <path class="cls-4" d="M561.3,603.1v14.6h-33.6v-14.6h33.6M562.4,602h-35.9v16.8h35.9v-16.8Z"/>
      <path class="cls-4" d="M471.6,700.3v17.2h-15.8v-17.3h15.8M472.7,699.2h-18v19.4h18.2v-19.4h-.1Z"/>
      <path class="cls-4" d="M476.5,711.2c1.5,0,2.6,1.1,2.6,2.6s-1.1,2.6-2.6,2.6-2.6-1.1-2.6-2.6h0c-.1-1.5,1.1-2.6,2.6-2.6M476.5,710.1c-2,0-3.7,1.7-3.7,3.7s1.7,3.7,3.7,3.7,3.7-1.7,3.7-3.7h0c0-2-1.7-3.7-3.7-3.7Z"/>
      <path class="cls-4" d="M444.7,620v15.7h-15.7v-15.7h15.7M445.8,618.8h-17.9v17.9h17.9v-17.9Z"/>
      <path class="cls-4" d="M306.7,620v91.9h-9v-91.9h9M307.8,618.8h-11.2v94.2h11.2v-94.2Z"/>
      <path class="cls-4" d="M190.1,520.2v17.9h-16.8v-17.9h16.8M191.2,519.1h-19.1v20.2h19.1v-20.2Z"/>
      <path class="cls-4" d="M196.6,521.4c2.4,0,4.3,1.9,4.3,4.3s-1.9,4.3-4.3,4.3-4.3-1.9-4.3-4.3h0c0-2.4,1.9-4.3,4.3-4.3M196.6,520.3c-3,0-5.4,2.4-5.4,5.4s2.4,5.4,5.4,5.4,5.4-2.4,5.4-5.4h0c0-2.9-2.4-5.4-5.4-5.4h0Z"/>
      <path class="cls-4" d="M98.2,633.4v3.4h-23.5v-3.4h23.5M99.3,632.3h-25.8v5.6h25.8v-5.6Z"/>
      <path class="cls-4" d="M73.6,620v16.8h-16.8v-16.8h16.8M74.7,618.8h-19.1v19.1h19.1v-19.1Z"/>
      <path class="cls-4" d="M59.5,614.6c.9,0,1.6.7,1.6,1.6s-.7,1.6-1.6,1.6-1.6-.7-1.6-1.6h0c0-.9.7-1.6,1.6-1.6M59.5,613.5c-1.5,0-2.7,1.2-2.7,2.7s1.2,2.7,2.7,2.7,2.7-1.2,2.7-2.7h0c0-1.5-1.2-2.7-2.7-2.7h0Z"/>
      <path class="cls-4" d="M72.4,503.4v16.8h-15.7v-16.8h15.7M73.5,502.2h-17.9v19.1h17.9v-19.1Z"/>
      <path class="cls-4" d="M55.5,431.6v16.8h-16.7v-16.8h16.7M56.8,430.5h-19.1v19.1h18.9v-19.1h.1Z"/>
      <path class="cls-4" d="M37.6,408.1v40.4h-17.9v-40.4h17.9M38.7,407h-20.2v42.6h20.2v-42.6Z"/>
      <path class="cls-4" d="M37.6,408.1v22.4h-17.9v-22.4h17.9M38.7,407h-20.2v24.7h20.2v-24.7Z"/>
      <path class="cls-4" d="M64.5,313.9v17.9H19.7v-17.9h44.8M65.6,312.8H18.6v20.2h47.1v-20.2Z"/>
      <path class="cls-4" d="M90.3,202.9v15.7h-16.8v-15.7h16.8M91.4,201.8h-19.1v17.9h19.1v-17.9Z"/>
      <path class="cls-4" d="M90.3,219.7v9h-9v-9h9M91.4,218.6h-11.2v11.2h11.2v-11.2Z"/>
      <path class="cls-4" d="M162.1,328.5v16.8h-15.7v-16.8h15.7M163.2,327.4h-17.9v19.1h17.9v-19.1Z"/>
      <path class="cls-4" d="M193.4,386.8v16.8h-16.7v-16.8h16.7M194.6,385.7h-18.9v19.1h18.9v-19.1Z"/>
      <path class="cls-4" d="M260.8,307.2v14.6h-15.7v-14.6h15.7M261.9,306.1h-17.9v16.8h17.9v-16.8Z"/>
      <path class="cls-4" d="M305.5,243.3v15.7h-15.7v-15.7h15.7M306.7,242.2h-17.9v17.9h17.9v-17.9Z"/>
      <path class="cls-4" d="M387.5,421.5v16.8h-16.8v-16.8h16.8M388.6,420.4h-19.1v19.1h19.1v-19.1Z"/>
      <polygon class="cls-4" points="835.8 348.7 835.8 260.4 834.7 260.4 834.7 348.7 818.3 348.7 818.3 349.8 834.7 349.8 835.8 349.8 837.4 349.8 837.4 348.7 835.8 348.7"/>
      <rect class="cls-4" x="764.1" y="525.8" width="26.2" height="1.1"/>
      <rect class="cls-4" x="662.1" y="344.7" width="1.1" height="32.3"/>
      <rect class="cls-4" x="619.5" y="408.9" width="1.1" height="30.9"/>
      <polygon class="cls-4" points="528.6 565 565.8 565 565.8 563.9 528.6 563.9 528.6 506.7 527.5 506.7 527.5 565 528.6 565"/>
      <rect class="cls-4" x="885.1" y="618" width="1.1" height="37.8"/>
      <polygon class="cls-4" points="276.4 404.7 278.8 404.7 279.2 404.7 279.8 404.7 279.8 391.3 315.8 391.3 315.8 434.1 316.9 434.1 316.9 391.3 316.9 390.7 316.9 390.1 278.8 390.1 278.8 390.7 278.8 391.3 278.8 403.6 261.9 403.6 261.9 268.2 260.8 268.2 260.8 403.6 260.8 404.7 261.9 404.7 275.3 404.7 275.3 448.4 209.6 448.4 209.6 449.6 275.3 449.6 275.7 449.6 276.4 449.6 276.4 404.7"/>
      <path class="cls-4" d="M561.3,565v7.8h-7.8v-7.8h7.8M562.4,563.9h-10.1v10.1h10.1v-10.1Z"/>
      <rect class="cls-4" x="988.3" y="457.8" width="1.1" height="143"/>
    </g>
    <g id="Outlines">
      <path class="cls-3" d="M573.6,1.1v151.6h19.1v-.2h145.7v-61.7h214.1v61.7h-48.2v10.1h6.7v16.8h104.3v40.4h65v37h-4.5v134.5h4.5v34.8h-21.3l-69.5-49.3h-81.8v118.8h28v-37h69.5v142.4h34.8v61.7h-52.7v118.8h-214.1v85.2h-190.6v132.3h-47.1l-28-5.6h-20.2l-16.8,2.2h-6.7v-3.4h-25.8v-113.1h4.5v-15.7h-20.2v9h-157v-29.1h-93v-224.2h28v-17.9h-63.9v35.9H56.7v-188.3H19.7v-245.5h70.6v66.1h104.3v-58.3h-7.8v-52.7h146.9v59.4h152.5V1.1h87.6M687.8,209.6h113.2v63.9h3.4v-12.3h43.7v-48.2h7.7l12.3-14.5v-36h7.8v-10.1h-58.3v-23.5h-9v59.4h-121v21.3M486,273.5v-13.6h-39.2v80.8h-59.4v130h17.9v-35.9h61.7v35.9h10.1v-26.9h53.8v-4.5h-4.5v-13.2l-22.3-21.5v-28h97.4v32.5h19.1v-63.9h80.7v-62.8h-40.4v-94.2h-96.4v2.2l-20.2,23.5v59.4h-58.3M226,269.1h50.4v103.1h75.1v-53.8h62.8v-58.4h-125.6v-67.2h-35.9v17.9h-26.9v58.3M912.1,269.1h77.4v-61.7h-77.4v61.7M760.7,381.2h17.9v34.8l-13.3,25.8v47.1h70.6v-40.4h35.9v-35.9h-52.7v-85.1l-13.6-27h-4.5v18.2h-11.2l-29.1,55.4v7.2M108.2,386.8h86.3v-41.5h-86.3v41.5M553.3,443.9h2.1v12.3h10.1v107.6h-4.5v54.9h95.3v-15.7h26.9v68.4h165.9v-52.7h70.6v7.8h5.6v-25.8h17.9v-53.8h-18l-35.9,35.9h-53.8v-57.2h-46v35.9h-71.7l-26.9-28v-152.5h32.7v-4.5h-61.7v62.8h-108.6v4.5M235,473.1l-24.7-24.7h-102v71.7h132.3v80.7h-5.6v17.9h44.8v94.2h17.9v-22.4h0v-70.6h53.8v16.8h2.2v-16.8h91.9v34.8h9v-89.7h22.4v-58.3h-89.7l-39.2,40.4h-28v-114.3h-4.5v40.4h-80.7M656.6,708.5v-53.8h-95.3v62.8h-106.5v-26.9h-9v37h-59.4v-37h-34.8v53.8h-71.7v28h56.1v52.7h224.2v-30.3h22.4v25.8h106.5v-95.3h218.6v-52.6h17.9v-25.9h-5.6v7.8h-34.8v53.8h-228.7M574.7,0h-89.8v216.4h-150.1v-59.4h-149.2v55h7.8v55.9h-101.9v-66.1H18.6v247.9h37v188.3h82v-35.9h61.7v15.6h-28v226.6h93v29.1h159.3v-9h17.7v13.3h-4.5v115.5h25.8v3.4h8.1l16.7-2.2h20l27.9,5.6h48.5v-132.2h190.6v-85.2h214.1v-118.8h52.7v-64h-34.8v-142.4h-71.9v37h-25.7v-116.5h80.3l69.3,49.1.3.2h22.8v-37.1h-4.5v-132.2h4.5v-39.3h-65v-40.4h-104.3v-16.8h-6.7v-7.7h48.1v-64h-216.4v61.7h-145.7v.2h-16.7V0h0ZM810.1,130.2h6.6v23.5h58.3v7.7h-7.8v36.8l-11.8,13.7h-8.4v48.2h-43.7v12.3h-1.1v-63.9h-113.2v-18.9h121.1v-59.4h.1ZM565.8,189.6h94.1v94.2h40.4v60.4h-80.7v63.9h-16.7v-32.5h-99.8v29.7l.3.3,22,21.2v13.9h4.5v2.1h-53.8v26.9h-7.7v-35.9h-64v35.9h-15.6v-127.7h59.4v-80.8h36.9v13.6h60.7v-60.2l20-23.2.2-.3v-1.5h0ZM254.1,194.1h33.5v67.2h125.6v56.1h-62.8v53.8h-72.8v-103.1h-50.4v-55.9h26.9v-17.9h0ZM913.3,208.6h75v59.3h-75v-59.3h0ZM802.3,301.7h2.6l13,26.2v85.9h52.7v33.5h-35.9v40.4h-68.2v-45.6l13.2-25.6v-.2c.1,0,.1-36.2.1-36.2h-17.9v-5.7l28.7-54.5h11.7v-18.2h0ZM109.5,346.5h84v39.1h-84v-39.1h0ZM663.3,377.9h59.5v2.1h-32.7v154l.3.3,26.9,28,.3.3h73.4v-35.9h43.6v57.2h55.5l.3-.3,35.4-35.5h16.4v51.6h-17.9v25.8h-3.4v-7.8h-73v52.7h-163.5v-68.4h-29.3v15.7h-92.9v-52.6h4.5v-110h-10.1v-12.3h-2.1v-2.1h108.6v-62.8h0ZM316.9,434h2.1v114.3h29.7l.3-.3,38.9-40h88v55.9h-22.4v89.7h-6.6v-34.8h-150.3v73h0v20.1h-15.6v-94.2h-44.8v-15.6h5.6v-83.1H109.5v-69.4h100.3l24.3,24.3.3.3h82.4v-40.4h0ZM921.1,648.1h3.3v23.5h-17.9v52.7h-218.6v95.3h-104.1v-25.8h-24.8v30.3h-221.9v-52.7h-56.1v-25.8h71.7v-53.8h32.4v37h61.8v-37h6.6v26.9h108.9v-62.8h92.9v53.8h231.1v-53.8h34.8v-7.8h0Z"/>
    </g>
    <g id="Callouts">
      <text class="cls-8" transform="translate(475.1 661.6)"><tspan x="0" y="0">中区 坡底</tspan></text>
      <text class="cls-8" transform="translate(488.5 502.6)"><tspan x="0" y="0">中区 坡顶</tspan></text>
      <text class="cls-8" transform="translate(544.8 430.9)"><tspan x="0" y="0">中区 通风口</tspan></text>
      <text class="cls-8" transform="translate(404.6 488)"><tspan x="0" y="0">中区 邮箱</tspan></text>
      <text class="cls-8" transform="translate(321.6 456.6)"><tspan x="0" y="0">B区 塔楼</tspan></text>
      <text class="cls-8" transform="translate(728.2 306.4)"><tspan x="0" y="0">A区 塔楼</tspan></text>
      <text class="cls-8" transform="translate(399.8 294.7)"><tspan x="0" y="0">B区 台阶</tspan></text>
      <text class="cls-8" transform="translate(202.2 179.3)"><tspan x="0" y="0">B区 小巷</tspan></text>
      <text class="cls-8" transform="translate(25.5 251.4)"><tspan x="0" y="0">B区 后房</tspan></text>
      <text class="cls-8" transform="translate(241.9 345)"><tspan x="0" y="0">B区 高台</tspan></text>
      <text class="cls-8" transform="translate(793.2 339.4)"><tspan x="0" y="0">B区 高台</tspan></text>
      <text class="cls-8" transform="translate(935.6 198.4)"><tspan x="0" y="0">A区 后房</tspan></text>
      <text class="cls-8" transform="translate(827.5 121.9)"><tspan x="0" y="0">A区 屏幕</tspan></text>
      <text class="cls-8" transform="translate(488.2 100.4)"><tspan x="0" y="0">守方 重生点</tspan></text>
      <text class="cls-8" transform="translate(97.9 569.3)"><tspan x="0" y="0">B区 车库</tspan></text>
      <text class="cls-8" transform="translate(297.9 681.9)"><tspan x="0" y="0">B区 小道</tspan></text>
      <text class="cls-8" transform="translate(899.9 523.9)"><tspan x="0" y="0">A区 大道</tspan></text>
      <text class="cls-8" transform="translate(697 488)"><tspan x="0" y="0">A区 坡道</tspan></text>
      <text class="cls-8" transform="translate(191.4 736.4)"><tspan x="0" y="0">B区 大厅</tspan></text>
      <text class="cls-8" transform="translate(913.4 710)"><tspan x="0" y="0">A区 大厅</tspan></text>
      <text class="cls-8" transform="translate(473.7 922)"><tspan x="0" y="0">攻方 重生点</tspan></text>
      <text class="cls-8" transform="translate(718 696.7)"><tspan x="0" y="0">A区 下水道</tspan></text>
      <path id="B" class="cls-5" d="M188.7,310.4v-17.9c-.1-1.2.8-2.4,2-2.5h8.1c4.3,0,7,2.2,7,5.7s-1.8,4.6-4.3,4.9h0c3,.2,5.4,2.7,5.4,5.6s-3,6.6-8,6.6h-7.7c-1.2.1-2.4-.8-2.4-2-.1-.2-.1-.3-.1-.4ZM196.9,299.6c2.6,0,4-1.1,4-3s-1.2-2.9-3.5-2.9h-4v5.9h3.5ZM197.6,309.3c2.8,0,4.3-1.1,4.3-3.4s-1.6-3.3-4.4-3.3h-4v6.6h4.1Z"/>
      <path id="A" class="cls-5" d="M1040.9,268.3c-1.2,0-2-.7-2.5-2.1l-1.2-3.6h-8.3l-1.2,3.6c-.4,1.5-1.1,2.1-2.5,2.1-1.2.1-2.4-.9-2.4-2.1h0c0-.7.1-1.1.3-1.7l6.3-17c.6-2,2.7-3.1,4.7-2.6,1.2.3,2.1,1.3,2.6,2.6l6.3,17c.2.4.3,1,.3,1.6,0,1.2-1,2.2-2.2,2.2h-.2ZM1036.2,258.9l-2.9-9.4h-.1l-3,9.4h6.1Z"/>
    </g>
    <g id="Barrier">
      <line class="cls-7" x1="370.7" y1="694.1" x2="370.7" y2="615.4"/>
      <line class="cls-6" x1="689.1" y1="419.3" x2="778.6" y2="419.3"/>
      <line class="cls-7" x1="279.8" y1="654.7" x2="171" y2="654.7"/>
      <line class="cls-7" x1="642.8" y1="655.9" x2="642.8" y2="615.4"/>
      <line class="cls-7" x1="942.3" y1="595.3" x2="1006.3" y2="595.3"/>
      <line class="cls-6" x1="870.6" y1="423.8" x2="907.7" y2="423.8"/>
      <line class="cls-6" x1="529.8" y1="442.8" x2="554.7" y2="442.8"/>
      <line class="cls-6" x1="398.5" y1="471" x2="398.5" y2="506.7"/>
      <line class="cls-6" x1="55.7" y1="456.3" x2="109.5" y2="456.3"/>
    </g>
  </g>
</svg>