<?xml version="1.0" encoding="UTF-8"?>
<svg id="_图层_1" data-name="图层 1" xmlns="http://www.w3.org/2000/svg" version="1.1" viewBox="0 0 1100 1000">
  <defs>
    <style>
      .cls-1 {
        stroke-dasharray: 0 0 0 0 0 0 4.4 3.3;
      }

      .cls-1, .cls-2, .cls-3, .cls-4, .cls-5, .cls-6, .cls-7, .cls-8, .cls-9 {
        fill: none;
      }

      .cls-1, .cls-2, .cls-3, .cls-4, .cls-7, .cls-8, .cls-9 {
        stroke-miterlimit: 10;
      }

      .cls-1, .cls-2, .cls-5, .cls-7, .cls-8, .cls-9 {
        stroke-width: 1px;
      }

      .cls-1, .cls-2, .cls-6, .cls-7, .cls-8, .cls-9 {
        stroke: #afabae;
      }

      .cls-10 {
        fill: #32343b;
      }

      .cls-10, .cls-11, .cls-12, .cls-13, .cls-14 {
        stroke-width: 0px;
      }

      .cls-11 {
        fill: #575548;
      }

      .cls-12 {
        fill: #646568;
      }

      .cls-2 {
        stroke-dasharray: 0 0 0 0 0 0 3.9 2.9;
      }

      .cls-3 {
        stroke: #814194;
      }

      .cls-3, .cls-4 {
        opacity: .8;
        stroke-width: 10px;
      }

      .cls-4 {
        stroke: #6bc3c0;
      }

      .cls-5 {
        stroke: #646568;
      }

      .cls-13 {
        fill: #afabae;
      }

      .cls-14, .cls-15 {
        fill: #fff;
      }

      .cls-6 {
        stroke-miterlimit: 10;
        stroke-width: 1px;
      }

      .cls-15 {
        font-family: SimHei, SimHei;
        font-size: 16px;
        isolation: isolate;
      }

      .cls-8 {
        stroke-dasharray: 0 0 0 0 0 0 3.5 2.6;
      }

      .cls-9 {
        stroke-dasharray: 0 0 0 0 0 0 4.2 3.1;
      }
    </style>
  </defs>
  <g id="_进攻-深寒冬港" data-name="进攻-深寒冬港">
    <g id="Body">
      <path class="cls-10" d="M931.2,436.1v-15.6l59.6-20.9v-10h0v-153.2h-123.4v-11.5c-.1,0,4.1,0,4.1,0v-100.1l-19.9,6.3h-7.3l-17.7-2.1-55.5-22.9-10.4-11.5-17.8,6.3h-4.2l-10.6,9.4h-9.4l-12.5-9.4h-39.7v-32.2l15.7-19.1v-8.4h0V1h-134.9v40.1l22,28.2v29.3h-29.3l-9.4,19.9v14.6l-9.4,9.4-16.7,5.2v3.1l-1,2.1-24.1,14.8v23.9h-58.6l-17.8,9.1h-12.5l-15.7-11.2h-9.4v-1h-50.1l-6.3-5.2h-4.2l-10.5,6.3h-6.3l-29.3-40.8h-2.1l-19.9,11.4v39.5h-99.6l-17.7,28.3v78.2h17.8l38.7,32.4v35.9l-39.2,32.1h-27.7v142.2h0v82.6h125.5v25.1h51.2v-16.7h83.7v41.8h61.7v60.7h54.3v79.5h143.3v-30.3h5.2v43.3h-144.3v36.3h111.9v127.9h105.6v-131.1h54.4v-33.5h-80.5v-39.7h5.2v26.1h279.2v-27.2h1v-1h2.1v-106.3h-3.1v-2.4h0v-16.8h25.1v-231.1h-59.4ZM723,463.2v203.9h51.2v11.5h-60.7v-109.4h-97.2v-27.6h-25.1v-85.7h28.2v3.1h94.2v-105.6h78.3v54.4h28.2v55.4h-97.2ZM629.9,351.8v-27.6h34.5v77.5h-34.5v-49.9h0ZM835,236.3h-110.9v65.1h-9.4v-76.8h120.3v11.6h.1ZM576.6,269.8v82h-32.3v123.3h-5.3v-127.9h28.2v-72.2h-68.6l-46,22.4h-3.7v-27.6h127.7ZM404.2,425.6h-52.3v-73.2h-65.9v-5.2h185.1v5.2h-12.5v73.2h-54.4ZM517.1,425.6v-73.2h-28.2v-5.2h33.4v127.9h-5.1v-49.5h0ZM433.4,321v6.3h-175.7v25.1h-27.2v-84.7h191.4v53.3h11.5ZM249.3,467.3h154.8v27.5h111.9v92.8h33.5v33.5h74.2v79.5h-27.2v5.2h-79.5v-103.4h-34.5v-53.4h-233.2v-81.6h0ZM478.3,720.9v-69.3h-59l-8.9,8.7h-6.3v-25.4h81.6v71.1h0v15h-7.4ZM917.5,683.9h-92v-16.8h92v16.8ZM825.5,633.7h-64.8v-56.6h78.4v56.6h-13.6Z"/>
    </g>
    <g id="Lines_under_map" data-name="Lines under map">
      <rect class="cls-5" x="314.5" y="268.2" width="29.1" height="20.2"/>
      <rect class="cls-5" x="314.5" y="288.4" width="29.1" height="18.5"/>
      <rect class="cls-5" x="314.5" y="307" width="29.1" height="19.8"/>
      <path class="cls-5" d="M343.5,268.2l-29.1,20.2"/>
      <path class="cls-5" d="M343.5,288.4l-29.1,18.5"/>
      <path class="cls-5" d="M343.5,307l-29.1,19.3"/>
      <path class="cls-5" d="M343.5,288.4l-29.1-20.2"/>
      <path class="cls-5" d="M343.5,307l-29.1-18.5"/>
      <path class="cls-5" d="M343.5,326.4l-29.1-19.3"/>
    </g>
    <g id="Bombsite">
      <polygon class="cls-11" points="199.2 482.1 199.2 338.8 228.4 338.8 228.4 354.3 283.9 354.3 286 354.3 321.6 354.3 321.6 465.6 247.3 465.6 247.3 482.1 199.2 482.1"/>
      <path class="cls-11" d="M226.3,340.9v15.5h93.2v107.1h-74.2v16.4h-43.9v-139.1h25M230.5,336.7h-33.5v147.4h52.4v-16.4h74.2v-115.5h-93.2v-15.5h0Z"/>
      <rect class="cls-11" x="794.2" y="238.2" width="194.4" height="102.7"/>
      <path class="cls-11" d="M986.4,240.3v98.5h-190.1v-98.5h190.1M990.6,236.1h-198.5v106.9h198.6v-106.9h-.1Z"/>
      <rect class="cls-10" x="292.7" y="393.7" width="7.3" height="9.4"/>
      <rect class="cls-10" x="879.4" y="313.2" width="22" height="10.5"/>
      <polyline class="cls-10" points="947.2 280.9 962 281.8 961 296.7 946.2 295.6 947.2 280.9"/>
      <rect class="cls-10" x="964.1" y="328.9" width="27.1" height="14.6"/>
    </g>
    <g id="Hell_lines" data-name="Hell lines">
      <polyline class="cls-9" points="542.6 503.6 518.9 503.6 518.9 494.8"/>
      <line class="cls-7" x1="537.1" y1="475" x2="535" y2="475"/>
      <line class="cls-8" x1="532.4" y1="475" x2="527.6" y2="475"/>
      <line class="cls-7" x1="526.2" y1="475" x2="524.1" y2="475"/>
      <line class="cls-7" x1="226.2" y1="424.2" x2="226.2" y2="422.1"/>
      <line class="cls-2" x1="226.2" y1="419.2" x2="226.2" y2="413.8"/>
      <polyline class="cls-7" points="226.2 412.3 226.2 410.2 228.3 410.2"/>
      <line class="cls-1" x1="231.6" y1="410.2" x2="291.7" y2="410.2"/>
      <polyline class="cls-7" points="293.2 410.2 295.3 410.2 295.3 412.3"/>
      <line class="cls-2" x1="295.3" y1="415.2" x2="295.3" y2="420.7"/>
      <line class="cls-7" x1="295.3" y1="422.1" x2="295.3" y2="424.2"/>
    </g>
    <g id="Shapes">
      <rect class="cls-7" x="778" y="462.7" width="14.6" height="19.9"/>
      <rect class="cls-7" x="746.7" y="479.5" width="6.2" height="7.3"/>
      <rect class="cls-7" x="738.3" y="479.5" width="8.4" height="7.3"/>
      <rect class="cls-7" x="722.5" y="462.7" width="15.7" height="26.1"/>
      <rect class="cls-7" x="738.3" y="462.7" width="14.6" height="16.7"/>
      <path class="cls-13" d="M918.7,495.7v25.1h-89.9v-25.1h89.9M919.7,494.6h-92v27.2h92v-27.2h0Z"/>
      <path class="cls-13" d="M880,408.9v53.3h-59.7v-53.3h59.7M881,407.8h-61.8v55.4h61.8v-55.4h0Z"/>
      <path class="cls-13" d="M868.5,432.9v15.7h-48.2v-15.7h48.2M869.5,431.9h-50.3v17.8h50.3v-17.8h0Z"/>
      <path class="cls-13" d="M865.3,423.5v8.4h-45.1v-8.4h45.1M866.4,422.5h-47.2v10.5h47.2v-10.5h0Z"/>
      <rect class="cls-7" x="842.8" y="355" width="76.3" height="27.2"/>
      <rect class="cls-7" x="964.1" y="328.9" width="27.1" height="14.6"/>
      <rect class="cls-7" x="879.4" y="313.2" width="22" height="10.5"/>
      <rect class="cls-7" x="823" y="283.9" width="92" height="29.3"/>
      <polygon class="cls-7" points="791.6 308 774.9 308 774.9 354 791.6 354 791.6 308"/>
      <rect class="cls-7" x="752.9" y="678.1" width="12.5" height="7.3"/>
      <rect class="cls-7" x="705.9" y="660.4" width="8.4" height="8.4"/>
      <rect class="cls-7" x="699.6" y="645.7" width="14.6" height="14.6"/>
      <rect class="cls-7" x="691.1" y="645.7" width="8.4" height="6.3"/>
      <rect class="cls-7" x="687" y="568.8" width="27.2" height="77.1"/>
      <rect class="cls-7" x="538.5" y="705.3" width="8.4" height="6.3"/>
      <rect class="cls-7" x="430.7" y="682.3" width="14.6" height="13.5"/>
      <rect class="cls-7" x="405.7" y="548.5" width="77.5" height="53.4"/>
      <rect class="cls-7" x="304.3" y="601.8" width="14.6" height="15.5"/>
      <rect class="cls-7" x="318.8" y="601.8" width="6.4" height="8.4"/>
      <rect class="cls-7" x="108.7" y="610.2" width="8.5" height="9.4"/>
      <rect class="cls-7" x="108.7" y="619.6" width="16.8" height="12.5"/>
      <rect class="cls-7" x="187.2" y="510.8" width="15.7" height="14.6"/>
      <rect class="cls-7" x="156.9" y="510.8" width="30.3" height="76.3"/>
      <rect class="cls-7" x="292.7" y="393.7" width="7.3" height="9.4"/>
      <polyline class="cls-7" points="286.4 349.3 286.4 393.7 307.3 393.7 307.3 425.1 215.3 425.1 215.3 393.7 265.5 393.7 265.5 354 265.5 351.9 257.5 351.9"/>
      <rect class="cls-7" x="493.5" y="341.4" width="8.4" height="6.3"/>
      <rect class="cls-7" x="390.1" y="452.3" width="13.6" height="15.6"/>
      <rect class="cls-7" x="613.8" y="809.9" width="15.7" height="12.5"/>
      <rect class="cls-7" x="582.6" y="819.3" width="31.3" height="3.1"/>
      <rect class="cls-7" x="582.6" y="792.1" width="31.3" height="27.2"/>
      <rect class="cls-7" x="613.8" y="792.1" width="15.7" height="17.8"/>
      <rect class="cls-7" x="560.4" y="792.1" width="22" height="15.5"/>
      <rect class="cls-7" x="560.4" y="807.8" width="22" height="14.6"/>
      <rect class="cls-7" x="685.9" y="797.3" width="22.9" height="24.2"/>
      <rect class="cls-7" x="726.8" y="803.6" width="27.2" height="17.8"/>
      <rect class="cls-7" x="708.9" y="803.6" width="17.9" height="17.8"/>
      <rect class="cls-7" x="708.9" y="787.9" width="15.8" height="15.7"/>
      <rect class="cls-7" x="724.6" y="789" width="19.9" height="14.6"/>
      <rect class="cls-7" x="744.6" y="792.1" width="9.4" height="11.5"/>
      <polyline class="cls-7" points="696.4 796.8 696.4 791 691.1 788.9 689 782.7 681.8 782.7 681.8 789.4"/>
      <rect class="cls-13" x="681.3" y="720.5" width="1" height="74.6"/>
      <rect class="cls-13" x="633.1" y="721.5" width="1" height="70.3"/>
      <rect class="cls-7" x="367.1" y="326.8" width="6.3" height="6.3"/>
      <polyline class="cls-7" points="449.6 250.9 449.6 263 420.4 263 420.4 197.1 449.6 197.1 449.6 203"/>
      <line class="cls-7" x1="449.6" y1="191.5" x2="449.6" y2="196.7"/>
      <line class="cls-7" x1="449.6" y1="270.1" x2="449.6" y2="262.7"/>
      <rect class="cls-13" x="838.7" y="632.6" width="101.9" height="1"/>
      <rect class="cls-13" x="851.7" y="607.5" width="139.2" height="1"/>
      <polygon class="cls-13" points="967.4 463.2 966.8 463.2 932.3 463.2 932.3 436.1 931.2 436.1 931.2 463.2 931.2 463.8 931.2 464.3 966.8 464.3 966.8 553.2 919.7 553.2 919.7 521.3 917.6 521.3 917.6 553.2 915.5 553.2 915 553.2 914.5 553.2 914.5 578.3 839.1 578.3 839.1 579.3 915.5 579.3 915.5 578.8 915.5 578.3 915.5 554.2 967.8 554.2 967.8 553.7 967.8 553.2 967.8 463.2 967.4 463.2"/>
      <path class="cls-13" d="M914.5,564.7v13.6h-13.6v-13.6h13.6M915.5,563.6h-15.7v15.7h15.7v-15.7h0Z"/>
      <circle class="cls-7" cx="896.2" cy="574.7" r="3.2"/>
      <circle class="cls-7" cx="910.7" cy="560.1" r="3.2"/>
      <circle class="cls-7" cx="963" cy="549.4" r="3.2"/>
      <circle class="cls-7" cx="963" cy="542" r="3.2"/>
      <circle class="cls-7" cx="725.3" cy="491.6" r="1.8"/>
      <circle class="cls-7" cx="730" cy="491.6" r="1.8"/>
      <circle class="cls-7" cx="725.3" cy="496.2" r="1.8"/>
      <circle class="cls-7" cx="775.1" cy="465.5" r="1.8"/>
      <circle class="cls-7" cx="755.6" cy="465.6" r="1.8"/>
      <circle class="cls-7" cx="755.6" cy="470.4" r="1.8"/>
      <polyline class="cls-7" points="964 343.5 930.6 343.5 930.6 382.2 919 382.2 829.3 382.2 829.3 346.2"/>
      <line class="cls-7" x1="776.9" y1="308" x2="759.7" y2="308"/>
      <rect class="cls-13" x="723.8" y="257.2" width="267.2" height="1"/>
      <rect class="cls-6" x="946.7" y="281.3" width="14.8" height="14.8" transform="translate(604 1222.1) rotate(-86.3)"/>
      <polyline class="cls-7" points="292.8 189.5 292.8 232.6 358.6 232.6 358.6 188.5"/>
      <line class="cls-7" x1="420.4" y1="267.8" x2="420.4" y2="191.5"/>
      <line class="cls-7" x1="478.8" y1="221.7" x2="478.8" y2="191.5"/>
      <polyline class="cls-7" points="530.3 246.3 478.8 246.3 478.8 243"/>
      <polyline class="cls-7" points="567.8 99.7 567.8 114.6 536.5 114.6 536.5 105"/>
      <rect class="cls-7" x="549.9" y="98.1" width="17.8" height="16.5"/>
      <rect class="cls-7" x="668.2" y="100.1" width="31.4" height="14.4"/>
      <rect class="cls-7" x="683.9" y="106.1" width="15.7" height="8.4"/>
      <rect class="cls-7" x="683.9" y="100.1" width="9.4" height="6.1"/>
      <line class="cls-7" x1="668.2" y1="113.8" x2="668.2" y2="162.1"/>
      <line class="cls-7" x1="567.8" y1="113.7" x2="567.8" y2="162.1"/>
      <line class="cls-7" x1="478.8" y1="241.6" x2="478.8" y2="247.4"/>
      <rect class="cls-7" x="978.8" y="653" width="12.5" height="14.6"/>
      <rect class="cls-7" x="986.1" y="645.7" width="5.2" height="7.3"/>
      <circle class="cls-7" cx="974.8" cy="663.4" r="3.2"/>
      <rect class="cls-7" x="576.1" y="324.7" width="54.5" height="26.5"/>
      <rect class="cls-7" x="606.5" y="306.9" width="34.5" height="17.8"/>
      <rect class="cls-7" x="698.5" y="443.9" width="15.7" height="15.7"/>
      <rect class="cls-7" x="682.9" y="443.9" width="15.7" height="15.7"/>
      <polyline class="cls-7" points="517.6 474.4 517.6 564.2 543.7 564.2 543.7 474.4"/>
      <polygon class="cls-13" points="460.4 292.8 463.8 299.3 463.8 299.3 464.3 300.3 499.5 282.3 558.9 282.3 558.9 323.4 550.3 346.2 551.1 346.5 559.9 323.6 559.9 323.6 559.9 281.3 559.4 281.3 558.9 281.3 499.2 281.3 499.2 281.3 499.2 281.3 464.8 298.8 461.5 292.3 460.4 292.8"/>
      <rect class="cls-7" x="867.9" y="173.1" width="4.2" height="6.3"/>
      <rect class="cls-7" x="858.5" y="179.3" width="13.6" height="16.7"/>
      <line class="cls-7" x1="858.3" y1="196.1" x2="746.1" y2="196.1"/>
      <polyline class="cls-7" points="730.3 107.9 734 112.9 743.6 109.8 744.6 105.6 739.3 100.2"/>
      <polyline class="cls-7" points="744.6 105.6 746.5 104.2 747.5 100 752.9 110.5 757.6 111.7 763.2 110.8 767.5 108.9 769.4 103.5"/>
      <path class="cls-7" d="M788.3,112.4l9.6,9.8h3.3l2.4-2.2c.3-.2.7,0,.6.3l-1,7.9,3.8,1.9,3.3,1.6,2.1-1.2,2.1-2.7,2.3-3.7"/>
      <polyline class="cls-7" points="831.3 129 834.2 135.1 838.5 137.2 844.5 138 848.4 137.2 850.1 134.5 850.1 131"/>
      <path class="cls-7" d="M847.9,137.3l4,2.2,2.2,4.4s3,1.4,3.1,1.5,3.7,1.9,3.7,1.9l2.6-.9,4.3-2,4.3-3"/>
      <polyline class="cls-7" points="236.1 194.3 251.1 159.6 251.1 156.4 248.7 153.4"/>
      <polyline class="cls-7" points="236.8 172.5 241.6 172 244.6 170.1 246.2 167.1 245.1 161.4 241.8 157.4"/>
      <polyline class="cls-7" points="245.4 162.8 248.6 160.2 251.1 156.3"/>
      <polyline class="cls-7" points="262.6 154.1 260.4 156.7 257 158.6 253.7 158.6 251.1 157.4"/>
      <polyline class="cls-7" points="119.3 238.8 124.2 236.4 125.9 233.2 125.5 226.5 124.9 223.9 122.6 222.3"/>
      <line class="cls-7" x1="829.3" y1="343" x2="829.3" y2="346.8"/>
      <rect class="cls-13" x="406.1" y="576.2" width="76.9" height="1"/>
      <path class="cls-13" d="M373.9,549v14.6h-14.6v-14.6h14.6M374.9,547.9h-16.7v16.7h16.7v-16.7h0Z"/>
      <path class="cls-13" d="M326.7,577.2v24.1h-75.3v-24.1h75.3M327.7,576.2h-77.4v26.1h77.4v-26.1h0Z"/>
      <rect class="cls-13" x="449.1" y="215.4" width="1" height="22"/>
      <line class="cls-7" x1="606.5" y1="281.3" x2="606.5" y2="306.9"/>
      <rect class="cls-13" x="479.2" y="219.6" width="12.8" height="1"/>
      <rect class="cls-13" x="479.2" y="242.6" width="12.8" height="1"/>
      <polygon class="cls-13" points="495.2 351.8 495.2 367 459.6 367 459.6 352.4 458.6 352.4 458.6 367 458.6 367.4 458.6 368.1 496.2 368.1 496.2 367.6 496.2 367 496.2 351.8 495.2 351.8"/>
      <rect class="cls-13" x="470.8" y="350.3" width="18.2" height="1"/>
    </g>
    <g id="Outlines">
      <path class="cls-12" d="M682.3,1v40.1h0v8.4l-15.7,19.1v32h39.7l12.5,9.4h9.4l10.6-9.4h4.2l17.8-6.3,10.4,11.5,55.5,22.9,17.7,2.1h7.3l19.9-6.3v100h-4.2v11.5h123.4v153.2h0v10l-59.6,20.9v15.6h59.6v231.1h-25.1v16.8h0v2.4h3.1v106.3h-2.1v1h-1v27.2h-279.2v-26.1h-5.2v39.7h80.5v33.5h-54.4v131h-105.6v-127.7h-111.9v-36.3h144.3v-43.3h-5.2v30.3h-143.3v-79.5h-54.3v-60.7h-61.7v-41.8h-83.7v16.7h-51.2v-25.1h-125.7v-82.6h0v-142.2h27.7l39.2-32.1v-35.9l-38.7-32.4h-17.8v-78.1l17.7-28.4h99.4v-39.5l19.9-11.4h2.1l29.3,40.8h6.3l10.5-6.3h4.2l6.3,5.2h50.1v1h9.4l15.7,11.2h12.5l17.8-9.1h58.6v-23.9l24.1-14.8,1-2.1v-3.1l16.7-5.2,9.4-9.4v-14.6l9.4-19.9h29.3v-29.3l-22-28.2V1h135.1M714.6,301.6h9.4v-65.1h110.9v-11.5h-120.4v76.6M230.5,352.4h27.2v-25.1h175.7v-6.3h-11.4v-53.3h-191.4v84.7M449,297.4h3.7l46-22.4h68.6v72.2h-28.2v127.9h5.3v-123.3h32.3v-82h-127.6v27.6M629.9,401.5h34.5v-77.5h-34.5v77.5M488.8,352.4h28.2v122.7h5.1v-127.9h-33.4v5.2M285.9,352.4h65.9v73.2h106.7v-73.2h12.5v-5.2h-185.1v5.2M619.5,459.1v-3.1h-28.2v85.7h25.1v27.6h97.2v109.4h60.7v-11.5h-51.2v-203.9h97.2v-55.4h-28.2v-54.4h-78.3v105.6h-94.2M249.3,549h233.2v53.4h34.5v103.4h79.5v-5.2h27.2v-79.5h-74.2v-33.5h-33.5v-92.9h-111.9v-27.5h-154.8v81.7M760.7,633.7h78.4v-56.6h-78.4v56.6M404.1,660.1h6.3l8.9-8.7h59v69.3h7.3v-15h0v-71.1h-81.6v25.4M825.5,683.9h92v-16.8h-92v16.8M683.4,0h-137.2v41.5l.2.3,21.8,27.9v27.8h-28.9l-.3.6-9.4,19.9v.2c-.1,0-.1,14.4-.1,14.4l-8.9,8.9-16.5,5.1-.7.2v3.7l-.8,1.6-23.7,14.6-.5.3v23.4h-57.9c0,.1-17.6,9.1-17.6,9.1h-11.9l-15.4-11-.3-.2h-8.7v-1h-50.8l-6-5-.3-.2h-5.1c0,.1-10.2,6.3-10.2,6.3h-5.4l-29-40.4-.3-.4h-3.1c0,.1-19.9,11.5-19.9,11.5l-.5.3v39h-99l-.3.5-17.7,28.4-.2.2v79.6h18.5l38,31.8v34.8l-38.5,31.5h-28.3v227h125.5v25.1h53.4v-16.7h81.5v41.8h61.7v60.7h54.3v79.5h145.5v-30.3h3v41.3h-144.3v38.5h111.9v127.9h107.8v-131h54.4v-35.7h-80.5v-37.6h3v26.1h281.4v-27.2h1v-1h2.1v-108.3h-3.1v-2.4h0v-14.6h25.1v-233.2h-59.6v-13.7l58.8-20.7.7-.2v-11.8h0v-153.3h-123.2v-9.3c-.1,0,4.1,0,4.1,0v-102.6l-1.5.4-19.7,6.2h-7.1l-17.5-2.1-55.1-22.9-10.2-11.3-.5-.5-.7.2-17.6,6.2h-4.4l-.3.3-10.2,9.2h-8.6l-12.2-9.2-.3-.2h-39v-30.6l15.4-18.8.2-.3V0h.2ZM715.8,225.9h118.1v9.3c.1,0-110.9,0-110.9,0v65.1h-7.2v-74.5h.1ZM231.5,268.7h189.2v53.3h11.4v4.2h-175.7v25.1h-25v-82.6h.1ZM450.1,270.8h125.4v79.8h-32.3v123.3h-3.1v-125.6h28.2v-74.3h-70.2c0,.1-45.8,22.4-45.8,22.4h-2.3v-25.5h.1ZM631,325.2h32.3v75.3h-32.3v-75.3h0ZM489.9,348.3h31.3v125.6h-2.9v-122.6h-28.2v-3h-.1ZM287,348.3h182.9v3h-12.5v73.2h-104.5v-73.2h-65.9v-3h0ZM714.9,354.5h76.1v54.4h28.2v53.2h-97.2v206h51.2v9.4h-58.5v-109.3h-97.2v-27.6h-25.1v-83.6h26v3.1h96.4v-105.7h0ZM250.5,468.5h152.6v27.5h111.9v92.8h33.5v33.5h74.2v77.3h-27.2v5.2h-77.3v-103.4h-34.5v-53.4h-233.2v-79.4h0ZM761.8,578.3h76.2v54.4h-76.2v-54.4h0ZM405.2,635.8h79.4v83.9h-5.1v-69.3h-60.5l-.3.3-8.6,8.4h-4.7v-23.2h-.1ZM826.5,668.2h89.8v14.6h-89.8v-14.6h0Z"/>
    </g>
    <g id="Callouts">
      <text class="cls-15" transform="translate(581.9 197.1)"><tspan x="0" y="0">守方 重生点</tspan></text>
      <text class="cls-15" transform="translate(609.7 857.6)"><tspan x="0" y="0">攻方 重生点</tspan></text>
      <text class="cls-15" transform="translate(893.7 601.3)"><tspan x="0" y="0">A区 带状区</tspan></text>
      <text class="cls-15" transform="translate(841.9 513.9)"><tspan x="0" y="0">A区 高台</tspan></text>
      <text class="cls-15" transform="translate(739 333.1)"><tspan x="0" y="0">A区 屏幕</tspan></text>
      <text class="cls-15" transform="translate(859.2 253.3)"><tspan x="0" y="0">A区 高台</tspan></text>
      <text class="cls-15" transform="translate(641.7 435.6)"><tspan x="0" y="0">中区 平台</tspan></text>
      <text class="cls-15" transform="translate(559.6 340.9)"><tspan x="0" y="0">中区 锅炉</tspan></text>
      <text class="cls-15" transform="translate(465.9 318.4)"><tspan x="0" y="0">B区 厨房</tspan></text>
      <text class="cls-15" transform="translate(324.4 341.4)"><tspan x="0" y="0">B区 大堂</tspan></text>
      <text class="cls-15" transform="translate(234.4 215.4)"><tspan x="0" y="0">B区 后房</tspan></text>
      <text class="cls-15" transform="translate(136 253.3)"><tspan x="0" y="0">B区 雪人</tspan></text>
      <text class="cls-15" transform="translate(461.2 387.2)"><tspan x="0" y="0">B区 雪堆</tspan></text>
      <text class="cls-15" transform="translate(492.7 489.8)"><tspan x="0" y="0">B区 管道</tspan></text>
      <text class="cls-15" transform="translate(576.3 614.9)"><tspan x="0" y="0">中区 蓝箱</tspan></text>
      <text class="cls-15" transform="translate(140.8 578.3)"><tspan x="0" y="0">B区 黄箱</tspan></text>
      <text class="cls-15" transform="translate(375.6 594.2)"><tspan x="0" y="0">B区 绿箱</tspan></text>
      <text class="cls-15" transform="translate(406.8 673.5)"><tspan x="0" y="0">B区 车库</tspan></text>
      <text class="cls-15" transform="translate(406.8 460.1)"><tspan x="0" y="0">B区 橙箱</tspan></text>
      <text class="cls-15" transform="translate(216.1 649.4)"><tspan x="0" y="0">B区 小房间</tspan></text>
      <text class="cls-15" transform="translate(433 237.4)"><tspan x="0" y="0">B区 小屋</tspan></text>
      <text class="cls-15" transform="translate(821 443.9)"><tspan x="0" y="0">A区 管道</tspan></text>
      <path id="A" class="cls-14" d="M925.9,324.7c0-.4.1-.8.3-1.5l5.9-15.9c.6-1.8,1.7-2.5,3.3-2.5s2.8.7,3.5,2.5l5.9,15.9c.2.5.3.9.3,1.5,0,1.3-.9,2.1-2.2,2.1s-1.9-.5-2.3-2l-1.2-3.3h-7.7l-1.2,3.3c-.4,1.5-1,2-2.3,2s-2.3-.8-2.3-2.1h0ZM938.2,318l-2.8-8.8h-.1l-2.8,8.8h5.8Z"/>
      <path id="B" class="cls-14" d="M225.3,380.2v-16.7c0-1.5.8-2.3,2.2-2.3h7.1c4,0,6.5,2.1,6.5,5.3s-1.8,4.3-4,4.6h0c2.9.3,5,2.4,5,5.2s-2.8,6.2-7.4,6.2h-7.2c-1.4,0-2.2-.8-2.2-2.3h0ZM233,370c2.4,0,3.8-1,3.8-2.8s-1.3-2.7-3.2-2.7h-3.7v5.5h3.1ZM233.6,379.2c2.6,0,4-1,4-3.1s-1.5-3-4.1-3h-3.8v6.2h3.9Z"/>
    </g>
    <g id="Barrier">
      <line class="cls-4" x1="480.4" y1="711.6" x2="480.4" y2="742.4"/>
      <line class="cls-4" x1="517" y1="682.5" x2="485.6" y2="682.5"/>
      <line class="cls-4" x1="623.8" y1="656.8" x2="714.7" y2="656.8"/>
      <line class="cls-4" x1="774.2" y1="673.5" x2="826.5" y2="673.5"/>
      <line class="cls-4" x1="917.5" y1="673.5" x2="966.2" y2="673.5"/>
      <line class="cls-3" x1="790.2" y1="361.2" x2="991.9" y2="361.2"/>
      <line class="cls-3" x1="296.4" y1="639.9" x2="296.4" y2="548.5"/>
      <line class="cls-3" x1="398.4" y1="452.3" x2="398.4" y2="425.6"/>
      <line class="cls-3" x1="470" y1="351.4" x2="489.9" y2="351.4"/>
      <line class="cls-3" x1="518.2" y1="351.4" x2="543.2" y2="351.4"/>
      <line class="cls-3" x1="575.6" y1="348.5" x2="629.9" y2="348.5"/>
      <line class="cls-3" x1="714.9" y1="356.6" x2="663.3" y2="356.6"/>
      <line class="cls-3" x1="879.4" y1="313.2" x2="901.4" y2="313.2"/>
    </g>
  </g>
</svg>