<?xml version="1.0" encoding="UTF-8"?>
<svg id="_图层_1" data-name="图层 1" xmlns="http://www.w3.org/2000/svg" version="1.1" viewBox="0 0 1100 1000">
  <defs>
    <style>
      .cls-1 {
        fill: #32343b;
      }

      .cls-1, .cls-2, .cls-3, .cls-4, .cls-5 {
        stroke-width: 0px;
      }

      .cls-2 {
        fill: #575548;
      }

      .cls-3 {
        fill: #646568;
      }

      .cls-6 {
        opacity: .8;
      }

      .cls-4 {
        fill: #afabae;
      }

      .cls-7 {
        stroke: #814194;
      }

      .cls-7, .cls-8 {
        stroke-width: 10px;
      }

      .cls-7, .cls-8, .cls-9 {
        fill: none;
        stroke-miterlimit: 10;
      }

      .cls-8 {
        stroke: #6bc3c0;
      }

      .cls-9 {
        stroke: #afabae;
        stroke-width: 1px;
      }

      .cls-5, .cls-10 {
        fill: #fff;
      }

      .cls-10 {
        font-family: SimHei, SimHei;
        font-size: 16px;
        isolation: isolate;
      }
    </style>
  </defs>
  <g id="_进攻-日落之城" data-name="进攻-日落之城">
    <g id="Body">
      <path class="cls-1" d="M1021.4,405.6h-32v-32h32v-95.9h-63.9v4h-32v-12h-5.9l-18.1-17.9v-6h-12v-32h36v-34c-2.1-23.5-27.9-30-27.9-30h-186.8l-9-9.1V24.1h-92.8l-43-9.2-30-10.8-33.9-3-12.1,11h-23.8l-32,6.8-3,7.1-3.1,6.1-4.8,5-2.1,1.1-27,25-11.9,28v106.9h32v48h-228.8c-22.8,5.5-27,29-27,29v50.9h24v16h-103.9v95.9h32v63.9h-32v63.9h40v32h-29v79.9h148.8v-32h32v79.9h57.9l6-6,11,10.9-11,11.1v32l19,19h27.9v-3h128.9v209.7h143.8v-82.9l127.8-126.9h0v-63.9h-32v-63.9h127.9v-119.2h0v-40.6h32v18.9l13,13h98.9v-127.8h0ZM957.5,346.8v122.8h-180.8c-8.3-3.7-11.1-10.8-11.1-10.8v-10.1c4.2-9.1,11.1-11,11.1-11h148.8v-99.9h32v9.1h0ZM781.7,597.4v-36h-79.9v4h-63.9v-32h16v-95.9h-56.9l-23-23.2v-10h0v-30.7h-8v-32h8v-32h143.8v227.7h63.9v-4h32v63.9h-32ZM574,533.4v-55.9h32v24h-16v95.9h16v24h-32v-87.9ZM833.7,213.9v32h-4v63.9h-16v63.9h-32v-24h-16v-16h16v-55.9l-32-32h-71.9v-32h20.1s135.7,0,135.7,0h0ZM446.1,133.9h32v32h127.8v-32h32v127.9h-159.8v16h-32v-143.9h0ZM382.2,277.8v63.9h135.8v32h-71.9v53.9h2v10h-98.8l-31-30.9v-128.9h63.9ZM230.4,325.7h56v165.8h-16v-149.8h-40v-16h0ZM206.4,405.6v63.9h-8v-16h-47.9v16h-8v-63.9h63.9ZM238.4,597.4h-71.9v-32h41.9v-16.9l-5-16,28.8-13.9,7.1,14.9h62s96.8,0,96.8,0v-63.9h47.9v95.9h64.9v32h-128.8v96.9l-10.9,10-11.1-11,6-6v-89.9h-127.8,0ZM701.8,757.2v31.9l-47.1,48h-62.8v11h-18v-99.8h0v-23h-127.8v-63.9h196.8l27-30v-33.9h32v159.8h0Z"/>
    </g>
    <g id="Bombsite">
      <rect class="cls-2" x="174.5" y="398.5" width="63.9" height="87"/>
      <rect class="cls-2" x="78.5" y="373.7" width="159.8" height="63.9"/>
      <rect class="cls-2" x="861" y="309.7" width="64.5" height="59.9"/>
      <rect class="cls-2" x="813.7" y="317.6" width="111.8" height="120.7"/>
      <rect class="cls-1" x="142.9" y="406.1" width="63.1" height="46.7"/>
      <rect class="cls-1" x="204.3" y="437.1" width="17.4" height="15.9"/>
      <rect class="cls-1" x="221.7" y="437.1" width="8.4" height="8"/>
      <rect class="cls-1" x="864.1" y="388.3" width="37.6" height="15.1" transform="translate(-35.8 699.5) rotate(-42.4)"/>
      <rect class="cls-1" x="199.2" y="437.1" width="6.4" height="31.6"/>
      <rect class="cls-1" x="143.3" y="437.1" width="6.2" height="31.6"/>
    </g>
    <g id="Lines">
      <path class="cls-4" d="M891.8,378.1l9.5,10.4-27.1,24.8-9.5-10.4,27.1-24.8M891.8,376.7l-28.5,26.1,10.8,11.9,28.5-26.1-10.8-11.9h0Z"/>
      <path class="cls-4" d="M804.7,422.6v15h-14v-15h14M805.7,421.6h-16v17h16v-17h0Z"/>
      <path class="cls-4" d="M860.6,302.7v14h-46.9v-7h16v-7h30.9M861.5,301.7h-32.9v7h-16v9h48.9v-16h0Z"/>
      <polyline class="cls-9" points="778.2 469 765 482.3 753.2 470.5 766.2 457.5"/>
      <path class="cls-4" d="M1021.5,405.6v15h-15v-15h15M1022.5,404.6h-17v17h17v-17h0Z"/>
      <path class="cls-4" d="M1021.5,421.6v7h-7v-7h7M1022.5,420.6h-9v9h9v-9h0Z"/>
      <path class="cls-4" d="M804.8,597.4v15h-14v-15h14M805.8,596.4h-16v17h16v-17h0Z"/>
      <path class="cls-4" d="M509,774.2v15h-14v-15h14M510,773.2h-16v17h16v-17h0Z"/>
      <path class="cls-4" d="M469.1,638.3v7h-14v-7h14M470.1,637.3h-16v9h16v-9h0Z"/>
      <path class="cls-4" d="M477.1,646.3v15h-29.9v-15h29.9M478.1,645.3h-31.9v17h31.9v-17h0Z"/>
      <path class="cls-4" d="M347.3,466.6c1,0,1.9.8,1.9,1.9v34.1c0,1-.8,1.9-1.9,1.9h-10.2c-1,0-1.9-.8-1.9-1.9v-34.1c0-1,.8-1.9,1.9-1.9h10.2M347.3,465.6h-10.2c-1.6,0-2.9,1.3-2.9,2.9v34.1c0,1.6,1.3,2.9,2.9,2.9h10.2c1.6,0,2.9-1.3,2.9-2.9v-34.1c0-1.6-1.3-2.9-2.9-2.9h0Z"/>
      <path class="cls-4" d="M325.4,624.4c1,0,1.9.8,1.9,1.9v38.2c0,1-.8,1.9-1.9,1.9h-10.2c-1,0-1.9-.8-1.9-1.9v-38.2c0-1,.8-1.9,1.9-1.9h10.2M325.4,623.4h-10.2c-1.6,0-2.9,1.3-2.9,2.9v38.2c0,1.6,1.3,2.9,2.9,2.9h10.2c1.6,0,2.9-1.3,2.9-2.9v-38.2c0-1.6-1.3-2.9-2.9-2.9h0Z"/>
      <path class="cls-4" d="M181.4,597.4v15h-14v-15h14M182.4,596.4h-16v17h16v-17h0Z"/>
      <path class="cls-4" d="M221.4,437.6v14.9h-15v-14.9h15M222.4,436.6h-16.9v16.9h16.9v-16.9h0Z"/>
      <path class="cls-4" d="M229.4,437.6v7h-7v-7h7M230.4,436.6h-9v9h9v-9h0Z"/>
      <path class="cls-4" d="M270.3,382.6v14h-15v-14h15M271.3,381.6h-17v16h17v-16h0Z"/>
      <path class="cls-4" d="M261.3,302.7v7h-7v-7h7M262.3,301.7h-9v9h9v-9h0Z"/>
      <path class="cls-4" d="M275.3,310.7v15h-36v-15h36M276.3,309.7h-38v17h38v-17h0Z"/>
      <path class="cls-4" d="M461.1,277.7v30.9h-14v-30.9h14M462.1,276.7h-16v32.9h16v-32.9h0Z"/>
      <path class="cls-4" d="M716.8,294.8v15h-14v-15h14M717.8,293.8h-16v17h16v-17h0Z"/>
      <path class="cls-4" d="M828.7,190.9v23h-14v-23h14M829.7,189.9h-16v25h16v-25h0Z"/>
      <polyline class="cls-9" points="713.5 149.2 701.9 160.9 690.8 149.8 702.3 138.4"/>
      <path class="cls-4" d="M574,574.4v14h-15v-14h15M575,573.4h-17v16h17v-16h0Z"/>
      <path class="cls-4" d="M509,373.6v14.9h-62.9v-14.9h62.9M510,372.6h-64.9v16.9h64.9v-16.9h0Z"/>
      <path class="cls-4" d="M513.7,459.6l9.5,9.5-21.7,21.7-9.5-9.5,21.7-21.7M513.7,458.2l-23.1,23.1,10.9,10.9,23.1-23.1-10.9-10.9h0Z"/>
      <path class="cls-4" d="M507.5,465.8l9.5,9.5-9.5,9.5-9.5-9.5,9.5-9.5M507.5,464.3l-10.9,10.9,10.9,10.9,10.9-10.9-10.9-10.9h0Z"/>
      <rect class="cls-4" x="477.9" y="276.8" width="159.9" height="1"/>
      <rect class="cls-4" x="526" y="277.1" width="1" height="2.7"/>
      <rect class="cls-4" x="526.5" y="278.8" width="31.5" height="1"/>
      <rect class="cls-4" x="557" y="277.3" width="1" height="2"/>
      <rect class="cls-4" x="230.1" y="436.6" width="40.7" height="1"/>
      <rect class="cls-4" x="574" y="436.6" width="23.2" height="1"/>
      <rect class="cls-4" x="717.7" y="404.6" width="16.1" height="1"/>
      <rect class="cls-4" x="732.8" y="340.7" width="1" height="64.4"/>
      <rect class="cls-4" x="733.3" y="340.7" width="32.6" height="1"/>
      <polyline class="cls-9" points="895.1 245.4 895.1 254.8 917.1 276.3 926 276.3"/>
      <polyline class="cls-9" points="533.5 1000 533.5 993.4 516.4 993.4"/>
      <path class="cls-4" d="M564,993.9v5.1h-14v-5.1h14M565,992.9h-16v7.1h16v-7.1h0Z"/>
      <rect class="cls-4" x="533.6" y="993.9" width="15.8" height="1"/>
      <path class="cls-4" d="M613.9,993.9v5h-14v-5h14M614.9,992.9h-16v7h16v-7h0Z"/>
      <polyline class="cls-9" points="630.4 999.5 630.4 993.4 647.5 993.4"/>
      <rect class="cls-4" x="614.4" y="993.9" width="15.9" height="1"/>
      <path class="cls-9" d="M509.7,991.5s9-1.5,8.9,7.8"/>
      <path class="cls-9" d="M654.4,991.4s-9.1-1.2-9.1,7.8"/>
      <rect class="cls-4" x="221.4" y="435.6" width="49.1" height="1.1"/>
      <rect class="cls-4" x="78.3" y="372.7" width="96.1" height="1"/>
      <path class="cls-4" d="M133.5,341.7v15h-14v-15h14M134.5,340.7h-16v17h16v-17h0Z"/>
      <path class="cls-4" d="M253.4,294.8v15h-14v-15h14M254.4,293.8h-16v17h16v-17h0Z"/>
      <path class="cls-4" d="M149.5,662.3v15h-14v-15h14M150.5,661.3h-16v17h16v-17h0Z"/>
      <path class="cls-4" d="M485.1,550.4v15h-14v-15h14M486.1,549.5h-16v17h16v-17h0Z"/>
    </g>
    <g id="Outlines">
      <path class="cls-3" d="M502.1,1.1l33.9,3,30,10.8,43,9.2h92.8v116.8l9,9.1h186.8s25.8,6.5,27.9,30v34h-36v32h12v6l18.1,17.9h5.9v12h32v-4h63.9v95.9h-32v32h32v127.8h-98.9l-13-13v-18.9h-32v40.6h0v119.2h-127.9v63.9h32v63.9l-127.8,126.9v82.9h-143.8v-209.7h-128.9v3h-27.9l-19-19v-32l11-11.1-11-10.9-6,6h-57.9v-79.9h-32v32H89.6v-79.9h29v-32h-40v-63.9h32v-63.9h-32v-95.9h103.9v-16h-24v-50.9s4.2-23.5,27-29h228.7v-48h-32v-106.9l11.9-28,27-25,2.1-1.1,4.8-5,3.1-6.1,3-7.1,32-6.8h23.8l12.1-11M478.1,165.9v-32h-32v143.9h32v-16h159.8v-127.9h-32v32h-127.8M677.8,245.8h71.9l32,32v55.9h-16v16h16v24h32v-63.9h16v-63.9h4v-32h-135.7s-20.1,0-20.1,0v32M349.3,437.5h98.8v-10h-2v-53.9h71.9v-32h-135.8v-63.9h-63.9v128.9l31,30.9M565.9,373.6h8v30.7h0v10l23,23.2h56.9v95.9h-16v32h63.9v-4h79.9v36h32v-63.9h-32v4h-63.9v-227.7h-143.8v32h-8v32M230.3,341.7h40v149.8h16v-165.8h-56v16M776.7,469.5h180.8v-131.9h-32v99.9h-148.8s-6.9,1.9-11.1,11v10.1s2.8,7.1,11.1,10.8M142.4,469.5h8v-16h47.9v16h8v-63.9h-63.9v63.9M239.3,533.4l-7.1-14.9-28.8,13.9,5,16v16.9h-41.9v32h199.8v89.9l-6,6,11.1,11,10.9-10v-96.9h128.8v-32h-64.9v-95.9h-47.9v63.9h-96.8s-62,0-62,0M573.9,621.3h32v-24h-16v-95.9h16v-24h-32v143.8M446.1,725.2h127.8v23h0v99.8h18v-11h62.8l47.1-48v-191.7h-32v33.9l-27,30h-196.8v63.9M501.7,0l-.3.3-11.8,10.7h-23.7s-32,6.8-32,6.8h-.5c0,.1-.2.6-.2.6l-3,7-3,5.9-4.6,4.7-2,1h-.1c0,0,0,.1,0,.1l-27,25h-.2c0,.1,0,.4,0,.4l-11.9,28v.2c0,0,0,108.1,0,108.1h32v45.9h-227.9c-23.2,5.6-27.7,29.6-27.8,29.8h0v52.2h24v13.9h-103.9v98h32v61.8h-32v66h40v29.9h-29v82h150.9v-32h29.9v79.9h57.2s1.8,0,1.8,0h.4s.3-.3.3-.3l5.3-5.3,9.5,9.5-10.2,10.3-.3.3v32.8l.3.3,19,19,.3.3h29.3v-3h126.8v209.7h145.9v-83.5l127.5-126.6.3-.3v-65.4h-32v-61.8h127.9v-159.8h29.9v18.3l.3.3,13,13,.3.3h100.4v-129.9h-32v-29.9h32v-98h-66v4h-29.9v-12h-6.5l-17.5-17.3v-6.7h-12v-29.9h36v-35.1c-.9-9.9-6.2-18.4-15.2-24.6-6.8-4.6-13.2-6.3-13.5-6.3h-.1s-186.5,0-186.5,0l-8.4-8.5V23h-93.7l-42.8-9.1-30-10.8h-.1s-.1,0-.1,0L502.2,0h-.5s0,0,0,0ZM606.9,134.9h29.9v125.8h-159.8v16h-29.9v-141.8h29.9v32h129.9v-32h0ZM678.9,214.9h19.1s134.6,0,134.6,0v29.9h-4v63.9h-16v63.9h-29.9v-24h-16v-13.9h16v-57.4l-.3-.3-32-32-.3-.3h-71.3v-29.9h0ZM319.3,278.8h61.8v63.9h135.8v29.9h-71.9v56h2v7.9h-97.3l-30.4-30.3v-127.4h0ZM575,310.8h141.7v227.7h66v-4h29.9v61.8h-29.9v-36h-82v4h-61.8v-29.9h16v-98h-57.5l-22.4-22.6v-10.6s0,0,0,0v-30.8h-8v-29.9h8v-32h0ZM231.4,326.7h53.9v163.7h-13.9v-149.8h-40v-13.9h0ZM926.6,338.7h29.9v129.8h-179.5c-7-3.2-9.8-8.9-10.2-10v-9.7c3.6-7.7,9.3-9.9,10.2-10.2h149.7v-99.9h0ZM143.5,406.7h61.8v61.8h-5.9v-16h-50v16h-5.9v-61.8h0ZM399.2,470.6h45.8v95.9h64.9v29.9h-128.8v97.5l-9.8,9-9.6-9.5,5.2-5.3.3-.3v-91.4h-199.7v-29.9h41.9v-18.1h0c0-.1-4.7-15.2-4.7-15.2l27.1-13.1,6.6,14,.3.6h63.7s96.8,0,96.8,0v-63.9h0ZM575,478.6h29.9v21.9h-16v98h16v21.9h-29.9v-141.7h0ZM670.9,598.4h29.9v190.3l-46.5,47.4h-63.4v11h-15.9v-99.8h0v-23h-127.8v-61.8h196.2l.3-.3,27-30,.3-.3v-33.3h0Z"/>
    </g>
    <g id="Callouts">
      <text class="cls-10" transform="translate(498.6 75.6)"><tspan x="0" y="0">守方 重生点</tspan></text>
      <text class="cls-10" transform="translate(728.3 186.3)"><tspan x="0" y="0">A区 巷道</tspan></text>
      <text class="cls-10" transform="translate(945.9 499.8)"><tspan x="0" y="0">A区 拐角</tspan></text>
      <text class="cls-10" transform="translate(775 507.6)"><tspan x="0" y="0">A区 大道</tspan></text>
      <text class="cls-10" transform="translate(668.6 278.4)"><tspan x="0" y="0">A区 小道</tspan></text>
      <text class="cls-10" transform="translate(807.7 638.3)"><tspan x="0" y="0">A区 大厅</tspan></text>
      <text class="cls-10" transform="translate(373.3 759.7)"><tspan x="0" y="0">B区 大厅</tspan></text>
      <text class="cls-10" transform="translate(481.2 628)"><tspan x="0" y="0">中区 坡底</tspan></text>
      <text class="cls-10" transform="translate(578.9 554.9)"><tspan x="0" y="0">中区 红砖路</tspan></text>
      <text class="cls-10" transform="translate(478.1 447.9)"><tspan x="0" y="0">中区 庭院</tspan></text>
      <text class="cls-10" transform="translate(480.1 316.9)"><tspan x="0" y="0">中区 坡顶</tspan></text>
      <text class="cls-10" transform="translate(308.5 523.7)"><tspan x="0" y="0">B区 市场</tspan></text>
      <text class="cls-10" transform="translate(208.3 625.7)"><tspan x="0" y="0">B区 大道</tspan></text>
      <text class="cls-10" transform="translate(187.4 271.4)"><tspan x="0" y="0">B区 奶茶店</tspan></text>
      <text class="cls-10" transform="translate(536.9 952.5)"><tspan x="0" y="0">攻方 重生点</tspan></text>
      <path id="B" class="cls-5" d="M102.3,413.8v-16c0-1.4.8-2.2,2.1-2.2h6.7c3.8,0,6.2,2,6.2,5.1s-1.7,4.1-3.8,4.4h0c2.8.3,4.8,2.3,4.8,5s-2.7,5.8-7.1,5.8h-6.9c-1.3,0-2.1-.8-2.1-2.2h0ZM109.6,404.1c2.3,0,3.6-1,3.6-2.7s-1.1-2.6-3.1-2.6h-3.5v5.3h3.1ZM110.3,412.9c2.5,0,3.8-1,3.8-3s-1.4-2.9-3.9-2.9h-3.6v5.9h3.7Z"/>
      <path id="A" class="cls-5" d="M837.8,429.8c-1.1,0-1.8-.6-2.2-1.9l-1.1-3.2h-7.4l-1.1,3.2c-.4,1.3-1,1.9-2.2,1.9s-2.1-.8-2.1-2,0-.8.3-1.4l5.6-15.2c.6-1.7,1.6-2.4,3.3-2.4s2.6.8,3.2,2.4l5.6,15.2c.2.5.3,1,.3,1.4,0,1.2-.8,2-2.2,2h0ZM833.7,421.4l-2.6-8.4h0l-2.7,8.4h5.5Z"/>
    </g>
    <g class="cls-6">
      <line class="cls-7" x1="117.1" y1="579.6" x2="167.5" y2="579.6"/>
      <line class="cls-7" x1="517" y1="347.1" x2="567.4" y2="347.1"/>
      <line class="cls-7" x1="716.4" y1="451.5" x2="766.7" y2="451.5"/>
      <line class="cls-7" x1="956.5" y1="400.1" x2="990.5" y2="400.1"/>
      <line class="cls-8" x1="797.7" y1="597.4" x2="797.7" y2="662.6"/>
      <line class="cls-8" x1="462.1" y1="596.3" x2="462.1" y2="662.3"/>
      <line class="cls-8" x1="374.2" y1="630.1" x2="374.2" y2="660.6"/>
      <line class="cls-8" x1="366.3" y1="697.8" x2="338.8" y2="725.2"/>
      <line class="cls-7" x1="403.6" y1="436.6" x2="403.6" y2="470.6"/>
    </g>
  </g>
</svg>