<?xml version="1.0" encoding="UTF-8"?>
<svg id="_图层_1" data-name="图层 1" xmlns="http://www.w3.org/2000/svg" version="1.1" viewBox="0 0 1100 1000">
  <defs>
    <style>
      .cls-1 {
        stroke: #afabae;
        stroke-width: 1.1px;
      }

      .cls-1, .cls-2, .cls-3 {
        fill: none;
        stroke-miterlimit: 10;
      }

      .cls-4 {
        fill: #32343b;
      }

      .cls-4, .cls-5, .cls-6, .cls-7, .cls-8 {
        stroke-width: 0px;
      }

      .cls-5 {
        fill: #575548;
      }

      .cls-6 {
        fill: #646568;
      }

      .cls-2 {
        stroke: #814194;
      }

      .cls-2, .cls-3 {
        opacity: .8;
        stroke-width: 10px;
      }

      .cls-3 {
        stroke: #6bc3c0;
      }

      .cls-7 {
        fill: #afabae;
      }

      .cls-8, .cls-9 {
        fill: #fff;
      }

      .cls-9 {
        font-family: SimHei, SimHei;
        font-size: 16px;
        isolation: isolate;
      }
    </style>
  </defs>
  <g id="_进攻-深海明珠" data-name="进攻-深海明珠">
    <g id="Body">
      <path class="cls-4" d="M1026.6,438.8h-77.1v25.4h-19v-52.8h76.1v-82.4h-33.9v-6.3h50.8v-106.7l-138.4-138.4h-195.6v-7.2c0-38.1-27.9-69.1-62.3-69.1s-62.3,30.9-62.3,69.1v104.4h-109.9l-102.6,35.9h-53.8v31.7h0v84.5h-10.6v-67.6H111.4v58.1h18v9.5h-28.6l-15.9-15.9h-27.5v226.8l-42.3,41.6v28.5h42.3v112h-3.2v82.4h136.3v-33.8h71.9v114.1h197.6l24.3,24.4v91.8h205v-141.6h77.2l91.9-91.8v-130.1h59.2v-16.9h27.5v16.9h78.2l61.3-87.7v-50.7l-58.1-58.1h0ZM118.8,609h-23.2v-43.3h23.2v43.3ZM824.7,109.1h29.6l14.8,22.2v24.3l50.7,50.7h29.6v19h-85.6l-27.5-27.5,10.6-10.6-20.1-20.1v-1h-2.1v-57.1h0ZM722.3,118.6h88.8v2.1h-88.8v-2.1ZM681,231.7v-88.8h10.6v21.1h76.1l6.4-4.2h10.5v43.3l2.7,2.7h0l20.6,20.6,11.6-11.6,13.7,13.7-11.6,11.6,25.4,25.4h9.5v50.7h-63.3l-41.3-21.1h-28.5v112h-59.2v-61.7l-14.8-30.2v-58.1l-4.2-12.7v-12.6h35.9ZM512,462.1v-48.6h14.8l68.7-33.8h30.6v-16.9h6.3v76.1h109.9v19h-18v50.7h-108.8v55h-35.9v-101.4h-67.6,0ZM340.8,242.3h10.6v84.5h-10.6v-84.5ZM287.9,479v-69.7h10.6v25.4h42.3v-67.6h63.4v-101.4h40.2v21.1h93v-55h74v-25.4h8.5v-63.4h10.6v59.2h29.6v10.6h-38v24.7c-.1.1-.2.3-.3.5l-23.3,74c-.4,1.4-1.4,2.5-2.7,3.2,0,0-.2,0-.3,0l-105.6,30.3c-.2,0-.4.2-.5.3h-.5v116.2h-76.1v29.6h-124.7v-12.7h0ZM156.9,290.9h99.3v35.9h-99.3v-35.9ZM326.6,773.3c-5.7,0-10.3-4.6-10.3-10.3s4.6-10.3,10.3-10.3,10.3,4.6,10.3,10.3-4.6,10.3-10.3,10.3ZM408.4,622.7v211.4h-40.2v-114.1h-211.4v-220.9h-17v-33.8h55v-9.5h63.4v23.3h-16.9v61.3h83.6l35.8,25.4h66.6v-33.8h114.2v3.2h15.9l2,2.7v3.5l-15.7,13.8h-38.1v84.6h-7.4l-15.9-16.9h-73.9,0ZM718,800.2h-12.3l-8.9-16.9h-165.8v77.2l-23.3,23.2h-2.1l-22.2-22.2v-2.1l11.6-10.6v-109.9h-21.1v-71.9h39.1l45.5,46.5h61.3v10.6h-4.2v48.6h102.5v27.4h0ZM979,557.2l-82.4,21.1h-131v206l-8.5,15.9h-13.7v-76.1h-79.2v-35.9h33.8v-93h-33.8v-43.3h10.6v11.6h141.6v-51.8l-21.1-20.1v-126.8h78.2v47.5h9.5v51.8h-25.4v31.6l121.6,42.3v19h0Z"/>
    </g>
    <g id="Bombsite">
      <polygon class="cls-5" points="1007.5 328.1 973.4 328.1 973.4 265 967.9 265 967.9 250.2 973.7 250.2 949.4 225.2 949.4 224.6 944.7 224.6 873.4 224.6 873.4 364.8 949.4 364.8 949.4 364.8 1007.5 364.8 1007.5 328.1"/>
      <polygon class="cls-4" points="939.4 281.9 889.4 281.9 889.4 303.1 889.6 303.1 889.6 319.3 905.4 319.3 905.4 303.1 939.4 303.1 939.4 281.9"/>
      <polygon class="cls-5" points="258.3 326.7 165.3 326.7 165.3 455.3 165.3 455.8 165.3 465.4 195.1 465.4 195.1 455.8 258.3 455.8 258.3 326.7"/>
      <polygon class="cls-4" points="157.4 350.4 157.4 326.2 192 326.2 192 343.2 189.8 343.5 194.1 362.8 178 366.6 174.3 350.5 157.4 350.4"/>
      <rect class="cls-4" x="235.6" y="379.1" width="16.9" height="19.9"/>
      <rect class="cls-4" x="198.6" y="440.4" width="15.8" height="15.8"/>
    </g>
    <g id="Lines">
      <path class="cls-7" d="M769.8,527.6v14.8h-14.8v-14.8h14.8M770.8,526.5h-16.9v16.9h16.9v-16.9h0Z"/>
      <path class="cls-7" d="M622.8,508.5v53.9h-7.4v-53.9h7.4M623.9,507.5h-9.5v56.1h9.5v-56.1h0Z"/>
      <path class="cls-7" d="M605.9,563.5v55.9h-16.8v-55.9h16.8M607,562.4h-18.9v58h18.9v-58h0Z"/>
      <line class="cls-1" x1="559.8" y1="561" x2="580.4" y2="552.7"/>
      <path class="cls-7" d="M473.9,722v15.9h-14.8v-15.9h14.8M475,721h-16.9v18h16.9v-18h0Z"/>
      <path class="cls-7" d="M495.1,738.9v7.4h-7.4v-7.4h7.4M496.1,737.8h-9.5v9.5h9.5v-9.5h0Z"/>
      <path class="cls-7" d="M490.7,922.8v20.1h-6.3v-20.1h6.3M491.8,921.7h-8.4v22.2h8.4v-22.2h0Z"/>
      <path class="cls-7" d="M552.1,980.9v18h-67.6v-18h67.6M553.1,979.9h-69.8v20.1h69.8v-20.1h0Z"/>
      <path class="cls-7" d="M689.5,980.9v18h-85.6v-18h85.6M690.5,979.9h-87.7v20.1h87.7v-20.1h0Z"/>
      <path class="cls-7" d="M689.5,926v20.1h-5.3v-20.1h5.3M690.6,924.9h-7.4v22.2h7.4v-22.2h0Z"/>
      <polyline class="cls-1" points="794.6 765.3 794.6 714.1 764.6 714.1"/>
      <path class="cls-7" d="M858.6,702v16.8h-15.9v-16.8h15.9M859.7,700.9h-18v18.9h18v-18.9h0Z"/>
      <line class="cls-1" x1="791.5" y1="600.5" x2="791.5" y2="681.9"/>
      <path class="cls-7" d="M1032,521l13.7,7.9-19.5,33.7-13.7-7.9,19.5-33.7M1031.6,519.6l-20.5,35.6,15.5,9,20.5-35.6-15.5-9h0Z"/>
      <path class="cls-7" d="M938.9,282.4v20h-33.8v15.8h-14.8v-35.9h48.6M939.9,281.3h-50.7v38h16.9v-15.8h33.8v-22.2h0Z"/>
      <path class="cls-7" d="M976.9,250.7v71.9h-3.2v-58.2h-5.2v-13.7h8.5M978,249.7h-10.6v15.8h5.2v58.2h5.3v-74h0Z"/>
      <rect class="cls-7" x="977.8" y="249.7" width="7.6" height="1.1"/>
      <path class="cls-7" d="M824.8,110.2v9.5h-14.8v-9.5h14.8M825.8,109.1h-16.9v11.6h16.9v-11.6h0Z"/>
      <path class="cls-7" d="M824.8,120.7v7.3h-7.4v-7.3h7.4M825.8,119.7h-9.5v9.4h9.5v-9.4h0Z"/>
      <path class="cls-7" d="M658.7,178.9v23.2h-28.5v-23.2h28.5M659.8,177.8h-30.6v25.4h30.6v-25.4h0Z"/>
      <path class="cls-7" d="M795.2,365.9v15.9h-14.8v-15.9h14.8M796.2,364.8h-16.9v18h16.9v-18h0Z"/>
      <polyline class="cls-1" points="682.5 406.3 682.5 429.7 690.2 439.6"/>
      <rect class="cls-7" x="408" y="490.6" width="71.2" height="1.1"/>
      <polygon class="cls-7" points="360.8 499 360.8 490.6 359.8 490.6 359.8 500.1 360 500.1 360.8 500.1 457 500.1 457 499 360.8 499"/>
      <path class="cls-7" d="M563.7,462.1v14.8h-15.8v-14.8h15.8M564.7,461h-17.9v16.9h17.9v-16.9h0Z"/>
      <path class="cls-7" d="M422.1,250.7v14.8h-16.9v-14.8h16.9M423.2,249.6h-19v17h19v-17h0Z"/>
      <path class="cls-7" d="M429.5,259.2v6.4h-6.3v-6.4h6.3M430.6,258.1h-8.4v8.5h8.4v-8.5h0Z"/>
      <path class="cls-7" d="M287.9,379.6v19h-34.8v-19h34.8M289,378.6h-36.9v21.1h36.9v-21.1h0Z"/>
      <path class="cls-7" d="M287.9,379.6v19h-51.8v-19h51.8M289,378.6h-53.9v21.1h53.9v-21.1h0Z"/>
      <path class="cls-7" d="M106.2,406v15.8h-48.6v-15.8h48.6M107.2,405h-50.7v18h50.7v-18h0Z"/>
      <path class="cls-7" d="M213.8,440.9v14.8h-14.7v-14.8h14.7M214.9,439.8h-16.8v16.9h16.8v-16.9h0Z"/>
      <path class="cls-7" d="M56.5,593.1v14.8h-7.4v-14.8h7.4M57.6,592.1h-9.5v16.9h9.5v-16.9h0Z"/>
      <path class="cls-7" d="M305.8,491.6v14.8h-16.8v-14.8h16.8M306.8,490.6h-18.9v16.9h18.9v-16.9h0Z"/>
      <rect class="cls-7" x="324.9" y="719.2" width="1.1" height="33.7"/>
      <rect class="cls-7" x="315.2" y="719.2" width="1.1" height="103.3"/>
      <path class="cls-7" d="M123.1,744.2v15.9h-31.7v-15.9h31.7M124.1,743.1h-33.8v18h33.8v-18h0Z"/>
      <rect class="cls-7" x="458.1" y="738.6" width="1" height="98.6"/>
      <path class="cls-7" d="M72.3,390.2v14.8h-14.8v-14.8h14.8M73.4,389.1h-16.9v16.9h16.9v-16.9h0Z"/>
      <path class="cls-7" d="M80.8,398.7v6.3h-7.4v-6.3h7.4M81.9,397.6h-9.5v8.4h9.5v-8.4h0Z"/>
      <path class="cls-7" d="M114.6,761.1v7.4h-14.8v-7.4h14.8M115.7,760.1h-16.9v9.5h16.9v-9.5h0Z"/>
      <path class="cls-7" d="M173.7,326.8v23.2h-15.8v-23.2h15.8M174.8,325.7h-17.9v25.3h17.9v-25.3h0Z"/>
      <path class="cls-7" d="M191.7,326.8v15.9h-16.9v-15.9h16.9M192.8,325.7h-19v18h19v-18h0Z"/>
      <path class="cls-7" d="M191.7,326.8v15.9h-2.7l.3,1.3,4.2,18.5-15.4,3.5-3.4-15-.2-.8h-16.6v-23.2h33.7M192.8,325.7h-35.8v25.3h16.8l3.6,16.1,17.4-3.9-4.4-19.5h2.4v-18h0Z"/>
      <circle class="cls-1" cx="178" cy="347.2" r="3.7"/>
      <polygon class="cls-7" points="297.4 326.5 297.4 368 289 368 288.9 368 287.9 368 287.9 409.9 289 409.9 289 369.1 297.4 369.1 298.5 369.1 298.5 368 298.5 326.5 297.4 326.5"/>
      <rect class="cls-7" x="340.8" y="326.5" width="1" height="42.6"/>
    </g>
    <g id="Outlines">
      <path class="cls-6" d="M627.1,1.1c34.4,0,62.3,30.9,62.3,69.1v7.2h195.6l138.4,138.4v106.7h-50.8v6.3h33.9v82.4h-76.1v52.8h19v-25.4h77.1l58.1,58.1v50.7l-61.3,87.7h-78.2v-16.9h-27.5v16.9h-59.2v130.1l-91.9,91.8h-77.2v141.6h-205v-91.8l-24.3-24.4h-197.6v-114.1h-71.9v33.8H54.4v-82.4h3.2v-112H15.3v-28.5l42.3-41.6v-226.8h27.5l15.9,15.9h28.6v-9.5h-18v-58.1h176.5v67.6h10.6v-84.5h0v-31.7h53.8l102.6-35.9h109.9v-104.4c0-38.1,27.9-69.1,62.3-69.1M824.7,166.2h2.1v1l20.1,20.1-10.6,10.6,27.5,27.5h85.6v-19h-29.6l-50.7-50.7v-24.3l-14.8-22.2h-29.6v57.1M722.3,120.7h88.8v-2.1h-88.8v2.1M444.3,286.6v-21.1h-40.2v101.4h-63.4v67.6h-42.3v-25.4h-10.6v82.4h124.7v-29.6h76.1v-116.2h.5c.1-.1.3-.2.5-.3l105.6-30.3c0,0,.2,0,.3,0,1.3-.7,2.3-1.8,2.7-3.2l23.3-74c0-.2.2-.4.3-.5v-24.7h38v-10.6h-29.6v-59.2h-10.6v63.4h-8.5v25.4h-74v55h-93M664.1,407.1h59.2v-112h28.5l41.3,21.1h63.3v-50.7h-9.5l-25.4-25.4,11.6-11.6-13.7-13.7-11.6,11.6-20.6-20.6h0l-2.7-2.7v-43.3h-10.5l-6.4,4.2h-76.1v-21.1h-10.6v88.8h-35.9v12.6l4.2,12.7v58.1l14.8,30.2v61.7M340.8,326.8h10.6v-84.5h-10.6v84.5M156.9,326.8h99.3v-35.9h-99.3v35.9M512,462.1h67.6v101.4h35.9v-55h108.8v-50.7h18v-19h-109.9v-76.1h-6.3v16.9h-30.6l-68.7,33.8h-14.8v48.6M674.7,563.5v-11.6h-10.6v43.3h33.8v93h-33.8v35.9h79.2v76.1h13.7l8.5-15.9v-206h131l82.4-21.1v-19l-121.6-42.3v-31.6h25.4v-51.8h-9.5v-47.5h-78.2v126.8l21.1,20.1v51.8h-141.6M139.9,499h17v220.9h211.4v114.1h40.2v-211.4h73.9l15.9,16.9h7.4v-84.6h38.1l15.7-13.8v-3.5l-2-2.7h-15.9v-3.2h-114.2v33.8h-66.6l-35.8-25.4h-83.6v-61.3h16.9v-23.3h-63.4v9.5h-55v33.8M95.6,609h23.2v-43.3h-23.2v43.3M473.9,738.9h21.1v109.9l-11.6,10.6v2.1l22.2,22.2h2.1l23.3-23.2v-77.2h165.8l8.9,16.9h12.3v-27.4h-102.5v-48.6h4.2v-10.6h-61.3l-45.5-46.5h-39.1v71.9M326.6,773.3c5.7,0,10.3-4.6,10.3-10.3s-4.6-10.3-10.3-10.3-10.3,4.6-10.3,10.3,4.6,10.3,10.3,10.3M627.1,0c-35,0-63.4,31.5-63.4,70.2v103.3h-109.2c0,0-102.4,35.9-102.4,35.9h-54.8v33.9h0v82.3h-8.3v-67.6H110.3v60.3h18v7.3h-27l-15.5-15.5-.3-.3h-29v227.4l-41.9,41.3-.3.3v30.1h42.3v109.8h-3.2v84.6h138.5v-33.8h69.7v114.1h198.2l23.7,23.8v92.5h207.2v-141.6h76.5l.3-.3,91.9-91.8.3-.3v-129.5h59.2v-16.9h25.3v16.9h79.9l.3-.5,61.3-87.7.2-.3v-51.5l-.3-.3-58.1-58.1-.3-.3h-78.7v25.4h-16.8v-50.6h76.1v-84.6h-33.9v-4.1h50.8v-108.3l-.3-.3-138.4-138.4-.3-.3h-194.9v-6.1c0-38.7-28.4-70.2-63.4-70.2h0ZM825.9,110.2h27.9l14.3,21.4v24.4l.3.3,50.7,50.7.3.3h28.9v16.8h-84l-26.4-26.4,9.8-9.8.8-.8-.8-.8-19.8-19.8v-1.7h-2.1v-54.9h0ZM620.9,144h8.3v59.2h29.6v8.4h-38v25.5c-.1.2-.2.3-.3.5l-23.3,74c-.3,1.1-1.1,2-2.1,2.6l-105.6,30.4c-.2,0-.4.1-.5.2h-1.2v116.2h-76.1v29.6h-122.5v-80.2h8.3v25.4h44.5v-67.6h63.4v-101.4h37.9v21.1h95.2v-55h74v-25.4h8.5v-63.4h0ZM682.1,144h8.3v21.1h77.5l.3-.2,6.1-4h9.1v42.7l.3.3,1.9,1.9.8.8,20.6,20.6.8.8.8-.8,10.8-10.8,12.2,12.2-10.9,10.9-.8.8.8.8,25.4,25.4.3.3h8.9v48.5h-62l-41-21h-.2c0-.1-29.9-.1-29.9-.1v112h-57v-61.1c-.1,0-14.8-30-14.8-30v-58.2c0,0-4.2-12.6-4.2-12.6v-11.3h35.9v-88.8h0ZM341.9,243.4h8.3v82.3h-8.3v-82.3h0ZM158,292h97.1v33.7h-97.1v-33.7h0ZM627.2,363.8h4.1v76.1h109.9v16.8h-18v50.7h-108.8v55h-33.7v-101.4h-67.6v-46.4h14.2c0-.1,68.5-33.8,68.5-33.8h31.5v-16.9h0ZM796.3,366h76v47.5h9.5v49.6h-25.4v33.5l.7.3,120.8,42.1v17.4l-81.5,20.9h-132v206.8l-8.1,15.1h-11.9v-76.1h-79.2v-33.7h33.8v-95.2h-33.8v-41.1h8.4v11.6h143.8v-53.4l-.3-.3-20.8-19.8v-125.2h0ZM196,456.8h61.2v21h-16.9v63.5h84.4l35.5,25.2.3.2h68v-33.8h111.9v3.2h16.4l1.4,2v2.7l-15,13.2h-38.8v84.6h-5.8l-15.6-16.6-.3-.3h-75.5v211.4h-37.9v-114.1h-211.4v-220.9h-17v-31.6h55v-9.5h0ZM96.7,566.7h21v41.1h-21v-41.1h0ZM475,668.2h37.5l45.1,46.2.3.3h60.6v8.3h-4.2v50.8h102.5v25.2h-10.5l-8.6-16.3-.3-.6h-167.6v77.8l-22.6,22.6h-1.2l-21.5-21.5v-1.2l11.3-10.3.4-.3v-111.5h-21.1v-69.6h0ZM326.6,772.2c-5.1,0-9.2-4.1-9.2-9.2s4.1-9.2,9.2-9.2,9.2,4.1,9.2,9.2-4.1,9.2-9.2,9.2h0Z"/>
    </g>
    <g id="Callouts">
      <text class="cls-9" transform="translate(548.1 934.7)"><tspan x="0" y="0">攻方 重生点</tspan></text>
      <text class="cls-9" transform="translate(587.2 65.4)"><tspan x="0" y="0">守方 重生点</tspan></text>
      <text class="cls-9" transform="translate(890.5 162.9)"><tspan x="0" y="0">A区 隐藏</tspan></text>
      <text class="cls-9" transform="translate(960.6 298.9)"><tspan x="0" y="0">A区 低地</tspan></text>
      <text class="cls-9" transform="translate(985.7 507.3)"><tspan x="0" y="0">A区 主门</tspan></text>
      <text class="cls-9" transform="translate(628.3 752.7)"><tspan x="0" y="0">中区 高地</tspan></text>
      <text class="cls-9" transform="translate(777.9 700.5)"><tspan x="0" y="0">A区 餐厅</tspan></text>
      <text class="cls-9" transform="translate(549 649.5)"><tspan x="0" y="0">中区 广场</tspan></text>
      <text class="cls-9" transform="translate(732.8 507.1)"><tspan x="0" y="0">A区 画架</tspan></text>
      <text class="cls-9" transform="translate(732.8 345.5)"><tspan x="0" y="0">A区 小道</tspan></text>
      <text class="cls-9" transform="translate(783.8 193.4)"><tspan x="0" y="0">A区 花店</tspan></text>
      <text class="cls-9" transform="translate(597.8 225.2)"><tspan x="0" y="0">守方 排水沟</tspan></text>
      <text class="cls-9" transform="translate(403 226.6)"><tspan x="0" y="0">守方 唱片店</tspan></text>
      <text class="cls-9" transform="translate(567.1 346.8)"><tspan x="0" y="0">中区 路口</tspan></text>
      <text class="cls-9" transform="translate(328.8 349.4)"><tspan x="0" y="0">B区 地道</tspan></text>
      <text class="cls-9" transform="translate(284.9 522.2)"><tspan x="0" y="0">B区 小道</tspan></text>
      <text class="cls-9" transform="translate(525.7 508.2)"><tspan x="0" y="0">中区 门</tspan></text>
      <text class="cls-9" transform="translate(410.9 754.3)"><tspan x="0" y="0">中区 商店</tspan></text>
      <text class="cls-9" transform="translate(289.5 850.1)"><tspan x="0" y="0">B区 夜店</tspan></text>
      <text class="cls-9" transform="translate(82 730.4)"><tspan x="0" y="0">B区 坡道</tspan></text>
      <text class="cls-9" transform="translate(73.6 544.1)"><tspan x="0" y="0">B区 主门</tspan></text>
      <text class="cls-9" transform="translate(65.2 365.1)"><tspan x="0" y="0">B区 屏幕</tspan></text>
      <text class="cls-9" transform="translate(161.9 279.1)"><tspan x="0" y="0">B区 走廊</tspan></text>
      <text class="cls-9" transform="translate(280.8 392.2)"><tspan x="0" y="0">B区 塔楼</tspan></text>
      <path id="B" class="cls-8" d="M193.9,397.8v-16.9c0-1.5.8-2.3,2.3-2.3h7.1c4.1,0,6.6,2.1,6.6,5.4s-1.8,4.3-4.1,4.7h0c2.9.3,5.1,2.5,5.1,5.3s-2.9,6.2-7.5,6.2h-7.3c-1.4,0-2.3-.9-2.3-2.4h0ZM201.7,387.5c2.4,0,3.8-1.1,3.8-2.9s-1.2-2.7-3.3-2.7h-3.7v5.6h3.2,0ZM202.3,396.8c2.6,0,4-1.1,4-3.2s-1.4-3.1-4.1-3.1h-3.8v6.3h3.9Z"/>
      <path id="A" class="cls-8" d="M946.2,344c-1.2,0-1.9-.6-2.3-2l-1.1-3.4h-7.8l-1.1,3.4c-.4,1.4-1.1,2-2.3,2s-2.3-.9-2.3-2.1,0-.9.3-1.4l5.9-16.1c.6-1.8,1.7-2.5,3.5-2.5s2.8.8,3.4,2.6l5.9,16.1c.2.5.3,1.1.3,1.4,0,1.3-.9,2.1-2.3,2.1h0ZM941.8,335l-2.8-8.8h-.1l-2.9,8.8h5.8Z"/>
    </g>
    <g id="Barrier">
      <line class="cls-2" x1="881.8" y1="418.7" x2="931.5" y2="418.7"/>
      <line class="cls-2" x1="723.2" y1="477.9" x2="796.3" y2="477.9"/>
      <line class="cls-2" x1="56.5" y1="503" x2="158" y2="503"/>
      <line class="cls-2" x1="519.6" y1="461" x2="518.7" y2="532.9"/>
      <line class="cls-3" x1="261.1" y1="822.4" x2="369.4" y2="822.4"/>
      <line class="cls-3" x1="407.4" y1="702" x2="475" y2="702"/>
      <line class="cls-3" x1="764.6" y1="640.6" x2="859.7" y2="640.6"/>
      <line class="cls-3" x1="712.2" y1="723" x2="712.2" y2="773.9"/>
    </g>
  </g>
</svg>