<svg width="64" height="64" viewBox="0 0 64 64" fill="none" xmlns="http://www.w3.org/2000/svg">
<rect width="64" height="64" rx="32" fill="#FF4C52"/>
<path d="M15.5934 16H9L24.8425 44.7962L30.5201 34.1343C27.2967 36.0297 25.0867 33.709 24.3846 32.3118L15.5934 16Z" fill="#0F1923"/>
<path fill-rule="evenodd" clip-rule="evenodd" d="M41.9643 21.4425C42.9731 21.4425 43.9353 21.6413 44.8134 22.0015C47.5313 23.1165 49.4443 25.779 49.4443 28.8861C49.4443 31.9063 47.6368 34.5063 45.0395 35.6734C44.1015 36.0949 43.0605 36.3295 41.9643 36.3295C39.0233 36.3295 36.4787 34.6406 35.2566 32.1842L32.3524 37.5263L26.7654 47.8034L30.0621 54L37.0958 40.7889C38.574 41.3753 40.1868 41.6978 41.8753 41.6978C49.0064 41.6978 54.7874 35.9452 54.7874 28.8489C54.7874 22.725 50.4822 17.6018 44.7193 16.3127C43.8042 16.108 42.8524 16 41.8753 16C40.5881 16 39.4197 16.1685 38.2465 16.5174L38.6365 22.2088C39.6208 21.7345 40.7973 21.4425 41.9643 21.4425Z" fill="#0F1923"/>
<ellipse cx="42.3639" cy="28.8365" rx="3.57143" ry="3.55396" fill="white"/>
<path d="M37.1529 26.5476L36.6097 19.9134C36.464 18.1339 34.4804 17.1455 32.972 18.1007L27.645 21.474C27.0053 21.8791 27.038 22.8229 27.7041 23.1828C28.6566 23.6973 29.0199 24.8811 28.52 25.8413L25.9513 30.7751C25.69 31.2771 25.8717 31.8959 26.3631 32.1767C28.2554 33.2585 30.6662 32.604 31.7516 30.7138L33.6612 27.3884C33.9487 26.8877 34.5892 26.7174 35.0874 27.009L35.7773 27.4128C36.417 27.7873 37.2134 27.2864 37.1529 26.5476Z" fill="white"/>
</svg>
