<?xml version="1.0" encoding="UTF-8"?>
<svg id="_图层_1" data-name="图层 1" xmlns="http://www.w3.org/2000/svg" version="1.1" viewBox="0 0 1100 1000">
  <defs>
    <style>
      .cls-1 {
        fill: #32343b;
      }

      .cls-1, .cls-2, .cls-3, .cls-4, .cls-5, .cls-6 {
        stroke-width: 0px;
      }

      .cls-2 {
        fill: #575548;
      }

      .cls-3, .cls-7, .cls-8, .cls-9, .cls-10 {
        fill: none;
      }

      .cls-4 {
        fill: #646568;
      }

      .cls-7 {
        stroke: #814194;
      }

      .cls-7, .cls-8 {
        opacity: .8;
        stroke-width: 10px;
      }

      .cls-7, .cls-8, .cls-10 {
        stroke-miterlimit: 10;
      }

      .cls-8 {
        stroke: #6bc3c0;
      }

      .cls-9 {
        stroke-miterlimit: 10;
        stroke-width: 1.1px;
      }

      .cls-9, .cls-10 {
        stroke: #afabae;
      }

      .cls-10 {
        stroke-width: 1.1px;
      }

      .cls-5 {
        fill: #afabae;
      }

      .cls-6, .cls-11 {
        fill: #fff;
      }

      .cls-11 {
        font-family: SimHei, SimHei;
        font-size: 16px;
        isolation: isolate;
      }
    </style>
  </defs>
  <g id="_进攻-微风岛屿" data-name="进攻-微风岛屿">
    <g id="Body">
      <path class="cls-1" d="M95.8,406.4v1h41.5v56.4h-34v164.9h16v69.1h127.6v56.3c7.2,38.5,39.4,54.4,39.4,54.4h12.7c8.7,3.3,8.6,10.6,8.6,10.6v56.4l12.8,64.9,130.8,51.1h8.5l79.8,6.4v1.1h7.4l14.9-8.5h2.1v-70.2c-11.8-.3-13.8-34-13.8-34v-3.9c0-1.6.4-3.2,1.1-4.7l4.3-8.5v-4.3h61.7v-14.9h9.7v10.5h10.5c20.8.7,34.6,4.8,40.8,7,2.3.9,4.5,2.1,6.3,3.7l39,35.2c1.4,1.3,3.2,2.1,5.1,2.3l11.6,1.6h12.6l20.8-2c.7-.1,1.4-.3,2-.7,21.7-13.6,25.6-23.9,25.6-23.9v-76.6h-1.2v-41.5l-6.5-11.5,33.1-21.1h0l30.7-19.6h122.5l-2.1-18.1v-10.6l3.1-16v-30.8h-25.4v-46.8h27.7v-2.1c15.7-9.4,52.1-108.5,52.1-108.5h23.4v-76.6l-173.4-113.8h-58.5v-52.1h0v-28.7h0v-45.7c-10.4-20.8-20.8-39.8-31.4-55-17.7-25.3-33.5-40.7-33.5-40.7h-56.4V.6h-118.1l-26.6,54.2h-55.3v10.6h-14.9v-10.6h-183l-16,21.3v3.2l11.7,8.6v2l-23.4,29.9h-3.2l-2.1-2.1h-4.3l-75.5,43.6h-123.4l-29.8,28.7v201l54.1,15.3h0ZM690.4,340.4v10.6h-10v7.4h-13.4v43.6h13.4v62.9h-8.5v34h8.5v62.8h0v9.6h-56v-48.9h53.8v-21.3h-8.5v-38.3h8.5v-5.3h-23.4v-16h-67.7v-160.6h-84v-35.1h0v-41.5h10.6v8.5l80.8,29.8h85.1v97.9h10.6ZM697.4,627.6v-8.5h23.8v8.5h-23.8ZM490.4,591.4v72.3h-63.8l-128.7-115.9v-113.8h146.8v59.6h34v97.9h11.7ZM572.3,798.9h-91.5v-10.6h11.7v-30.8h70.2v30.8h9.6v10.6h0ZM523.4,874.4h-9.6v-9.6h9.6v9.6ZM479.8,864.8v9.6h-9.6v-9.6h9.6ZM272.4,628.7v6.4h-5.3v-6.4h5.3ZM476.6,245.7v6.4h-8.5v-6.4h8.5ZM506.4,135.9v30h90.4v9.6h-83v6.4h-10.6v-6.4h-77.7l-10.6,18.1v36.2h16v16h14.9v6.4h-30.8v4.3h-101.1v-81.9h1.1l36.2-44.7h2.1l13.8,12.8h34v-5.3h6.4v5.3h84v-9.6h14.9v3h0ZM330.8,113.7l-26.6,29.7-7.3-7.3,26.6-29.7s7.3,7.3,7.3,7.3ZM180.9,408.5h53.2v-1.1l20.2-21.3v-2.1l-11.7-11.7v-2.1c6.7-8.9,68.1-46.8,68.1-46.8h2.1v-13.8h101.1v70.2h-114.9c-31,8.1-36.2,40.4-36.2,40.4v43.6h-47.9v4.3h-6.4v-4.3h-27.7v-55.3h0ZM184.1,629.7l24.5-22.3v-109.6h6.4v2.1h33v116.8h0v38.5h-63.8v-25.5h0ZM325.6,769.1v-1.1h-12.8c-18.6-3-22.3-20.2-22.3-20.2v-119.1h18.1v10.6l119.1,103.3v45.6h17v10.6h-17v66h9.6v9.6h-38.3c-5.7-108.4-73.4-105.3-73.4-105.3ZM617,812.7v-13.8h-7.4v-9.6h14.9v-127.6h-59.6v-70.2h59.6v-7.4h56v35.1h0v188.3h-53.8v5.3h-9.6ZM911.7,622.3h-86.2l-18.4,75.5h0l-36.8,23.4h0l-22.4-36v-24.7h-7.9v-87h0v-65.1h-24.5v-95.7h24.9v-4.3h9.6v47.9h-32.3v50h32.3v13.8l28.7,26.6h77.2v60.6h55.7v14.9h0ZM789.3,245.7h-6.4l-34,20.2v108.4h-8.5v-5.2h-5.3v-19.1h-4.3v-9.6h9.6v-102.1h48.9v7.4h0ZM739.3,209.6v-34h-83v-8.5h92.5v16l26.6,21.3h13.8v5.3h-50ZM506.4,91.5v14.9h-14.9v-14.9h14.9Z"/>
    </g>
    <g id="Bombsite">
      <rect class="cls-2" x="110.7" y="227.6" width="112.8" height="113.8"/>
      <polyline class="cls-2" points="861.1 530.8 1015.4 530.8 1035.6 481.8 1059.1 481.8 1059.1 404 1057.8 403.1 860.6 403.1 831.4 431.3 831.4 501.4 861.1 530.8"/>
      <rect class="cls-1" x="847.4" y="436.7" width="59.8" height="60.5"/>
      <rect class="cls-1" x="930.2" y="436.7" width="59.4" height="60.5"/>
      <rect class="cls-1" x="906.9" y="459" width="23.3" height="16"/>
      <path class="cls-1" d="M153.3,271.7l5.1-2.4,3.5-.5,5,.4,4.1,1.4,3.5,1.9,2.7,2.9,2.2,3.3,1.2,3s.6,3.5.6,3.7-.4,3.5-.4,3.5l-.9,4.1-.2,1.3,16.1,15.8-11.3,11.4-17.1-17.3-4.5.5-3.8-.4-2.9-1.3-4.8-2.7-1.9-2.2-2.2-2.9-1.2-3.4-1.1-3.7.2-3.5,1.4-4.8,1.6-3,2.6-3,2.4-2.1h0Z"/>
    </g>
    <g id="Lines">
      <polygon class="cls-10" points="739.8 809 744 809 753 795 754.8 792.5 754.8 783.2 752.5 776 741.8 770.7 733.4 770.7 724.8 781.4 724.8 785.7 726.2 786.6 726.2 789.8 722 796.3 722 803.7 727.2 806.6 739.8 809"/>
      <path class="cls-5" d="M763.6,852.6l.6.5v5.3l-6.2,10.2-7.2,3.4h-.3c0,.1-.2.3-.2.3l-1.6,2.6h-12.6l-5-5v-9.4l2.8-3.9h14.7l15-4M763.8,851.4l-15.5,4.3h-14.9l-3.2,4.6v10.1l5.6,5.6h13.5l1.9-3,7.6-3.5,6.5-10.7v-6.2l-1.5-1.2h0Z"/>
      <path class="cls-5" d="M703.2,657.4v2.1h-22.8v-2.1h22.8M704.2,656.3h-24.9v4.3h24.9v-4.3h0Z"/>
      <path class="cls-5" d="M740,657.4v2.1h-23v-2.1h23M741,656.3h-25.1v4.3h25.1v-4.3h0Z"/>
      <path class="cls-5" d="M747.9,660.6v6.4h-14.9v-6.4h14.9M748.9,659.5h-17v8.5h17v-8.5h0Z"/>
      <path class="cls-5" d="M730.9,660.6v8.5h-6.4v-8.5h6.4M732,659.5h-8.5v10.6h8.5v-10.6h0Z"/>
      <line class="cls-10" x1="725.5" y1="669.6" x2="748.3" y2="679.2"/>
      <line class="cls-10" x1="737.7" y1="667.5" x2="737.7" y2="674.7"/>
      <line class="cls-10" x1="731.6" y1="667.5" x2="731.6" y2="672.1"/>
      <path class="cls-5" d="M887.2,685v28.7h-12.8v-28.7h12.8M888.3,684h-14.9v30.8h14.9v-30.8h0Z"/>
      <path class="cls-5" d="M876.6,547.8v13.8h-20.6v-13.8h20.6M877.6,546.8h-22.8v16h22.8v-16h0Z"/>
      <path class="cls-5" d="M814.9,531.9v14.9h-13.8v-14.9h13.8M815.9,530.8h-16v17h16v-17h0Z"/>
      <path class="cls-5" d="M823.4,540.4v6.4h-7.4v-6.4h7.4M824.4,539.3h-9.6v8.5h9.6v-8.5h0Z"/>
      <path class="cls-5" d="M754.2,425.5v5.3h-4.3v-5.3h4.3M755.3,424.4h-6.4v7.4h6.4v-7.4h0Z"/>
      <path class="cls-5" d="M770.2,410.6v13.8h-20.2v-13.8h20.2M771.3,409.5h-22.3v16h22.3v-16h0Z"/>
      <path class="cls-5" d="M763.8,410.6v13.8h-13.8v-13.8h13.8M764.9,409.5h-16v16h16v-16h0Z"/>
      <polyline class="cls-10" points="773.9 297.7 773.9 410.1 749.3 410.1"/>
      <rect class="cls-9" x="806.1" y="344.3" width="60.4" height="22.3" transform="translate(-48.7 149.4) rotate(-9.9)"/>
      <rect class="cls-9" x="847.3" y="325.7" width="15.7" height="15" transform="translate(-44.6 152.3) rotate(-9.9)"/>
      <rect class="cls-9" x="840.9" y="335.3" width="7.2" height="7.4" transform="translate(-45.8 150.6) rotate(-9.9)"/>
      <polyline class="cls-10" points="860.9 402.8 831.4 431.3 831.4 501.4 861.5 531.2"/>
      <path class="cls-5" d="M906.3,437.2v59.6h-58.5v-59.6h58.5M907.4,436.1h-60.6v61.7h60.6v-61.7h0Z"/>
      <path class="cls-5" d="M989.3,437.2v59.6h-58.5v-59.6h58.5M990.4,436.1h-60.6v61.7h60.6v-61.7h0Z"/>
      <line class="cls-10" x1="907.1" y1="459" x2="930.2" y2="459"/>
      <line class="cls-10" x1="930.1" y1="475.1" x2="907.2" y2="475.1"/>
      <line class="cls-10" x1="745.3" y1="373.7" x2="745.3" y2="409.2"/>
      <line class="cls-10" x1="731.4" y1="346.3" x2="710.7" y2="346.3"/>
      <line class="cls-10" x1="689.9" y1="340.9" x2="701" y2="325.5"/>
      <path class="cls-5" d="M826.6,205.3v3.2h-37.2v-3.2h37.2M827.6,204.2h-39.4v5.3h39.4v-5.3h0Z"/>
      <path class="cls-5" d="M826.6,239.3v3.2h-37.2v-3.2h37.2M827.6,238.3h-39.4v5.3h39.4v-5.3h0Z"/>
      <path class="cls-5" d="M711.8,68.1v4.3h-7.4v-4.3h7.4M712.9,67h-9.6v6.4h9.6v-6.4h0Z"/>
      <path class="cls-5" d="M742.5,68.1v5.3h-9.6v-5.3h9.6M743.6,67h-11.7v7.4h11.7v-7.4h0Z"/>
      <polyline class="cls-10" points="773.5 80.3 758.1 80.3 754.7 67.3"/>
      <path class="cls-5" d="M491.5,95.7v6.4h-4.3v-6.4h4.3M492.6,94.7h-6.4v8.5h6.4v-8.5h0Z"/>
      <path class="cls-5" d="M408.5,55.3v4.3h-6.4v-4.3h6.4M409.6,54.2h-8.5v6.4h8.5v-6.4h0Z"/>
      <path class="cls-5" d="M580.8,175.5v20.2h-14.9v-20.2h14.9M581.9,174.4h-17v22.3h17v-22.3h0Z"/>
      <path class="cls-5" d="M580.8,175.5v12.8h-14.9v-12.8h14.9M581.9,174.4h-17v14.9h17v-14.9h0Z"/>
      <path class="cls-5" d="M503.2,267v5.3h-9.6v-5.3h9.6M504.3,265.9h-11.7v7.4h11.7v-7.4h0Z"/>
      <path class="cls-5" d="M503.2,260.6v5.3h-13.8v-5.3h13.8M504.3,259.5h-16v7.4h16v-7.4h0Z"/>
      <path class="cls-5" d="M503.2,252.1v13.8h-13.8v-13.8h13.8M504.3,251h-16v16h16v-16h0Z"/>
      <path class="cls-5" d="M517.5,322l1.5,14.9-14.9,1.5-1.5-14.9,14.9-1.5M518.4,320.8l-17,1.7,1.7,17,17-1.7-1.7-17h0Z"/>
      <path class="cls-5" d="M538.2,336.7l4.9,2.3-5.6,11.9-4.9-2.3,5.6-11.9M537.7,335.3l-6.6,13.8,6.9,3.3,6.6-13.8-6.9-3.3h0Z"/>
      <path class="cls-5" d="M571.3,357.4v6.4h-5.3v-6.4h5.3M572.3,356.3h-7.4v8.5h7.4v-8.5h0Z"/>
      <path class="cls-5" d="M587.2,357.4v14.9h-14.9v-14.9h14.9M588.3,356.3h-17v17h17v-17h0Z"/>
      <path class="cls-5" d="M482,318.3l2.7,12.9-28.1,5.9-2.7-12.9,28.1-5.9M482.8,317l-30.2,6.3,3.1,15,30.2-6.3-3.1-15h0Z"/>
      <path class="cls-5" d="M467,379.7v60.6h-22.3v-4.1h18.1v-56.5h4.3M468.1,378.7h-6.4v56.5h-18.1v6.3h24.5v-62.8h0Z"/>
      <path class="cls-5" d="M412.8,379.7v17h-13.8v-17h13.8M413.8,378.7h-16v19.1h16v-19.1h0Z"/>
      <path class="cls-5" d="M132,554.2v13.7h-28.7v-13.7h28.7M133,553.1h-30.8v15.8h30.8v-15.8h0Z"/>
      <path class="cls-5" d="M116,554.2v13.7h-12.8v-13.7h12.8M117.1,553.1h-14.9v15.8h14.9v-15.8h0Z"/>
      <path class="cls-5" d="M184.1,629.7v7.4h-64.9v-7.4h64.9M185.1,628.7h-67v9.6h67v-9.6h0Z"/>
      <path class="cls-5" d="M109.6,196.8v29.8h-29.8v-29.8h29.8M110.7,195.7h-31.9v31.9h31.9v-31.9h0Z"/>
      <path class="cls-5" d="M143.7,224.6v2h-33v-2h33M144.7,223.5h-35.1v4.1h35.1v-4.1h0Z"/>
      <path class="cls-5" d="M109.6,342.5v29.8h-29.8v-29.8h29.8M110.7,341.5h-31.9v31.9h31.9v-31.9h0Z"/>
      <path class="cls-5" d="M82,227.6v113.8h-2v-113.8h2M83,226.6h-4.1v115.9h4.1v-115.9h0Z"/>
      <path class="cls-5" d="M163.2,269.2c9.7,0,17.4,7.9,17.4,17.4s-7.9,17.4-17.4,17.4-17.4-7.9-17.4-17.4,7.9-17.4,17.4-17.4M163.2,268.2c-10.2,0-18.5,8.3-18.5,18.5s8.3,18.5,18.5,18.5,18.5-8.3,18.5-18.5-8.2-18.5-18.5-18.5h0Z"/>
      <path class="cls-5" d="M163.2,269.2c9.7,0,17.4,7.9,17.4,17.4s-.4,4.7-1.4,6.9l-.3.6.5.5,15.6,15.6-10.4,10.4-16.8-16.8-.4-.4h-.5c-1.3.3-2.4.5-3.7.5-9.7,0-17.4-7.9-17.4-17.4s7.9-17.4,17.4-17.4M163.2,268.2c-10.2,0-18.5,8.3-18.5,18.5s8.3,18.5,18.5,18.5,2.7-.1,3.9-.4l17.4,17.6,11.9-11.9-16.4-16.4c1-2.2,1.5-4.8,1.5-7.3.1-10.2-8.1-18.5-18.4-18.5h0Z"/>
      <path class="cls-5" d="M163.2,269.2c9.7,0,17.4,7.9,17.4,17.4s-.4,4.7-1.4,6.9l-.3.6.5.5,3.5,3.5-10.4,10.4-4.6-4.6-.4-.4h-.5c-1.3.3-2.4.5-3.7.5-9.7,0-17.4-7.9-17.4-17.4s7.8-17.6,17.3-17.6M163.2,268.2c-10.2,0-18.5,8.3-18.5,18.5s8.3,18.5,18.5,18.5,2.7-.1,3.9-.4l5.4,5.3,11.9-11.9-4.3-4.3c1-2.2,1.5-4.8,1.5-7.3,0-10.1-8.2-18.4-18.5-18.4h0Z"/>
      <path class="cls-5" d="M263.9,189.3v16h-13.8v-16h13.8M264.9,188.3h-16v18.1h16v-18.1h0Z"/>
      <path class="cls-5" d="M269.2,189.3v67h-4.3v-67h4.3M270.2,188.3h-6.4v69.1h6.4v-69.1h0Z"/>
      <path class="cls-5" d="M367,256.4v15.8h-39.4v-15.8h39.4M368.1,255.3h-41.5v18h41.5v-18h0Z"/>
      <path class="cls-5" d="M359.6,256.4v16h-31.9v-16h31.9M360.7,255.3h-34v18.1h34v-18.1h0Z"/>
      <polyline class="cls-10" points="461.9 417.5 456.9 417.5 454.8 425 445.2 434.6 445.2 435.7"/>
      <rect class="cls-5" x="445" y="251" width="43.8" height="1.1"/>
      <path class="cls-5" d="M678.5,509.5v12.8h-53v-12.8h53M679.6,508.5h-55.1v14.9h55.1v-14.9h0Z"/>
      <line class="cls-10" x1="669.7" y1="570.5" x2="669.7" y2="585"/>
      <line class="cls-10" x1="645.2" y1="570.7" x2="645.2" y2="584.5"/>
      <polygon class="cls-5" points="185.9 628.7 185 628.7 185 629.3 185.9 629.3 185.9 628.7"/>
      <path class="cls-5" d="M491.6,136.2v6.4h-6.4v-4.3h3.2v-2.1h3.2M492.7,135.1h-5.3v2.1h-3.2v6.4h8.5v-8.5h0Z"/>
      <rect class="cls-3" x="479.8" y="54.2" width="11.7" height="5.3"/>
      <path class="cls-5" d="M490.5,55.3v5.3h-4.3v-2.1h-5.3v-3.2h9.6M491.6,54.2h-11.7v5.3h5.3v2.1h6.4v-7.4h0Z"/>
      <path class="cls-5" d="M371,613.7l10.3,9.4-2.3,2.7-10.3-9.4,2.3-2.7M371,612.2l-3.7,4.1,11.9,10.7,3.7-4.1-11.9-10.7h0Z"/>
      <path class="cls-5" d="M894.6,707.4v6.4h-6.4v-6.4h6.4M895.7,706.3h-8.5v8.5h8.5v-8.5h0Z"/>
      <path class="cls-5" d="M978,698.9l1.8,14.9h-9.6v-14.9h7.8M979,697.8h-9.9v17h11.9l-2-17h0Z"/>
      <path class="cls-5" d="M910.6,622.3v13.8h-13.8v-13.8h13.8M911.7,621.2h-16v16h16v-16h0Z"/>
      <path class="cls-5" d="M506.4,509.6v6.3h-7.4v-6.3h7.4M507.5,508.6h-9.6v8.4h9.6v-8.4h0Z"/>
      <path class="cls-5" d="M485.1,524.4v6.4h-6.4v-6.4h6.4M486.2,523.3h-8.5v8.5h8.5v-8.5h0Z"/>
      <path class="cls-5" d="M568.1,494.6v13.8h-25.8l.6,1.5c1,2.2,1.5,4.6,1.5,6.9,0,9.4-7.7,17-17,17s-12.8-3.9-15.5-10l-.3-.6h-32.9v-28.7h40.5v7.2l1.5-.6c2.1-.9,4.4-1.4,6.6-1.4,3.3,0,6.6,1,9.4,2.8l1.6,1.1v-9.1l29.9.2M569.1,493.6h-31.9v8.3c-2.9-1.9-6.3-3-9.9-3s-4.9.5-7,1.4v-6.7h-42.7v30.8h33.2c2.9,6.3,9.1,10.6,16.5,10.6s18.1-8.1,18.1-18.1-.5-5.1-1.6-7.4h25.3v-16h0Z"/>
      <path class="cls-5" d="M96.9,274.4v27.7h-13.8v-27.7h13.8M97.9,273.4h-16v29.8h16v-29.8h0Z"/>
      <path class="cls-5" d="M78.8,296.8v7.4h-7.4v-7.4h7.4M79.8,295.7h-9.6v9.6h9.6v-9.6h0Z"/>
      <path class="cls-5" d="M78.8,305.3v42.5h-14.9v-42.5h14.9M79.8,304.2h-17v44.7h17v-44.7h0Z"/>
      <path class="cls-5" d="M78.8,348.9v6.4h-6.4v-6.4h6.4M79.8,347.8h-8.5v8.5h8.5v-8.5h0Z"/>
      <rect class="cls-5" x="143.9" y="226.6" width="70" height="1.1"/>
      <ellipse class="cls-10" cx="527.2" cy="517" rx="17.6" ry="17.7"/>
      <rect class="cls-5" x="478.1" y="508.6" width="33.5" height="1.1"/>
      <path class="cls-5" d="M602.8,441.4v12.8h-13.8v-12.8h13.8M603.8,440.4h-16v14.9h16v-14.9h0Z"/>
    </g>
    <g id="Outlines">
      <path class="cls-4" d="M705.3,1.1v67h56.4s15.8,15.4,33.5,40.7c10.6,15.2,21,34.1,31.4,55v45.7h0v28.7h0v52.1h58.5l173.4,113.8v76.6h-23.4s-36.4,99.1-52.1,108.5v2.1h-27.7v46.8h25.4v30.8l-3.1,16v10.6l2.1,18.1h-122.4l-30.7,19.6-33.1,21.1,6.5,11.5v41.5h1.2v76.6s-3.9,10.3-25.6,23.9c-.6.4-1.3.6-2,.7l-20.8,2h-12.6l-11.6-1.6c-1.9-.2-3.6-1.1-5.1-2.3l-39-35.2c-1.8-1.6-3.9-3-6.3-3.7-6.2-2.2-20-6.3-40.8-7h-10.5v-10.5h-9.7v14.9h-61.7v4.3l-4.3,8.5c-.7,1.5-1.1,3.1-1.1,4.7v3.9s2,33.7,13.8,34v70.2h-2.1l-14.9,8.5h-7.4v-1.1l-79.7-6.4h-8.5l-130.8-51.1-12.8-64.9v-56.4s.2-7.3-8.6-10.6h-12.7s-32.1-15.8-39.4-54.4v-56.3h-127.6v-69.1h-16v-164.9h34v-56.4h-41.5v-1l-54.2-15v-201l29.8-28.7h123.4l75.5-43.6h4.3l2.1,2.1h3.2l23.4-29.9v-2l-11.7-8.6v-3.2l16-21.3h183v10.6h14.9v-10.6h55.3l26.6-54.2,118-.3M491.5,106.4h14.9v-14.9h-14.9v14.9M304.3,143.4l26.6-29.7-7.3-7.3-26.6,29.7,7.3,7.3M313.9,256.4h101.1v-4.3h30.8v-6.4h-14.9v-16h-16v-36.2l10.6-18.1h77.7v6.4h10.6v-6.4h83v-9.6h-90.4v-33h-14.9v9.6h-84v-5.3h-6.4v5.3h-34l-13.8-12.8h-2.1l-36.2,44.7h-1.1v81.9M656.4,175.5h83v34h50v-5.3h-13.8l-26.6-21.3v-16h-92.5v8.5M503.2,245.7h0v35.1h84v160.6h67.7v16h23.4v5.3h-8.5v38.3h8.5v21.3h-53.8v48.9h56v-9.6h0v-62.8h-8.5v-34h8.5v-62.9h-13.4v-43.6h13.4v-7.4h10v-10.6h-10.6v-97.9h-85.1l-80.8-29.8v-8.5h-10.6v41.6M730.9,350h4.3v19.1h5.3v5.2h8.5v-108.4l34-20.2h6.4v-7.4h-48.9v102.1h-9.6v9.6M468.1,252.1h8.5v-6.4h-8.5v6.4M180.9,463.8h27.7v4.3h6.4v-4.3h47.9v-43.6s5.2-32.3,36.2-40.4h114.9v-70.2h-101.1v13.8h-2.1s-61.4,37.9-68.1,46.8v2.1l11.7,11.7v2.1l-20.2,21.3v1.1h-53.2v55.3M715.5,508.5h24.5v65.1h0v87h7.9v24.7l22.4,36h0l36.8-23.4,18.4-75.5h86.2v-14.9h-55.7v-60.6h-77.2l-28.7-26.6v-13.8h-32.3v-50h32.3v-47.9h-9.6v4.3h-24.9v95.7M426.6,663.8h63.8v-72.3h-11.7v-97.9h-34v-59.6h-146.9v113.8l128.8,115.9M184.1,655.2h63.8v-38.5h0v-116.8h-33v-2.1h-6.4v109.6l-24.5,22.3v25.5M565,661.6h59.6v127.6h-14.9v9.6h7.4v13.8h9.7v-5.3h53.8v-188.3h0v-35.1h-56v7.4h-59.6v70.2M697.5,627.6h23.8v-8.5h-23.8v8.5M312.9,768h12.8v1.1h.6c6.7,0,67.3,2.9,72.9,105.3h38.3v-9.6h-9.6v-66h17v-10.6h-17v-45.6l-119.1-103.3v-10.6h-18.1v119.1c-.2,0,3.5,17.2,22.2,20.2M267.2,635h5.3v-6.4h-5.3v6.4M481,798.9h91.5v-10.6h-9.6v-30.8h-70.2v30.8h-11.7v10.6M513.8,874.4h9.6v-9.6h-9.6v9.6M470.2,874.4h9.6v-9.6h-9.6v9.6M706.5,0h-119.9l-.3.6-26.3,53.6h-55.7v10.6h-12.7v-10.6h-184.7l-.3.4-16,21.3-.2.3v4.1l.4.3,11.3,8.2v1.1l-22.9,29.1h-2.1l-1.8-1.8-.3-.3h-5.2c0,.1-75.3,43.5-75.3,43.5h-123.6l-.3.3-29.8,28.7-.3.3v202.4l.9.2,53.4,14.8v1.2h41.5v54.1h-34v167.1h16v69.1h127.6v55.3h0c3.8,20.2,14.5,34.1,22.8,42.3,8.9,8.8,16.9,12.8,17.2,13h.2c0,.1,12.8.1,12.8.1,7.7,3,7.7,9.3,7.7,9.5v56.4h0v.2l12.8,64.9v.6c.1,0,.6.2.6.2l130.8,51.1h.2c0,.1,8.7.1,8.7.1l78.6,6.3h0v1.2h9c0-.1,14.7-8.4,14.7-8.4h3v-72.4h-1.1c-8.8-.2-12.2-23.8-12.8-32.9v-3.9c0-1.4.3-2.9,1-4.1l4.3-8.5v-.2c.1,0,.1-3.4.1-3.4h61.7v-14.9h7.4v10.5h11.7c20.5.7,34.1,4.7,40.4,6.9,2.2.9,4.1,2,6,3.5l39,35.2c1.6,1.4,3.5,2.3,5.6,2.7l11.1,1.6h0c0,.1,1.1.1,1.1.1h12.8c0-.1,20.2-2,20.2-2,.9-.1,1.8-.4,2.6-.9,21.8-13.6,26-24,26.1-24.5v-.2c.1,0,.1-77.9.1-77.9h-1.2v-40.8c-.1,0-6.1-10.5-6.1-10.5l32.2-20.5,30.4-19.4h123.4v-1.3c-.1,0-2.2-18-2.2-18v-10.4l3.1-15.8h0v-32.1h-25.4v-44.6h27.7v-2.7c15.6-10.8,48.2-98.3,51.8-108h23.7v-78.3l-.5-.3-173.4-113.8-.3-.2h-57.8v-80.9h0v-45.2c-12.3-24.3-22.3-41.7-31.6-55.1-17.6-25.1-33.5-40.7-33.6-41l-.3-.3h-55.7l.2-67h0ZM492.7,92.6h12.7v12.7h-12.7v-12.7h0ZM298.4,136l25.1-28,5.7,5.7-25.1,28-5.7-5.7h0ZM351.6,130.9h1.2l13.5,12.4.3.3h35.6v-5.3h4.1v5.3h86.3v-9.6h12.7v33h90.4v7.3h-83v6.4h-8.4v-6.4h-79.4l-.3.5-10.6,18.1v.2c-.1,0-.1,37.5-.1,37.5h16v16h14.9v4.1h-30.8v4.3h-98.8v-79.7h.5l.3-.4,35.6-44.1h0ZM657.5,168.2h90.3v15.4l.4.3,26.6,21.3.3.2h13.1v3.1h-47.8v-34h-83v-6.3h0ZM504.4,205.4h8.4v8.2l.7.2,80.8,29.8h.2c0,.1,84.1.1,84.1.1v97.9h10.6v8.4h-10v7.4h-13.4v45.8h13.4v53.1h-23.3v-16h-67.7v-160.6h-84v-35.1h0v-39.3h0ZM741.6,239.4h46.7v5.2h-5.7c0,.1-34,20.3-34,20.3l-.5.3v108h-6.3v-5.2h-5.3v-19.1h-4.3v-7.3h9.6v-102.1h-.1ZM469.3,246.9h6.3v4.1h-6.3v-4.1h0ZM314,310.7h98.8v68h-114c-16.4,4.3-25.5,15.3-30.4,23.7-5.2,9.1-6.6,17.2-6.6,17.6h0v42.7h-47.9v4.3h-4.1v-4.3h-27.7v-53.1h53.2v-1.7l19.9-21,.3-.3v-3.1l-.3-.3-11.4-11.4v-1.3c7.3-8.9,62.9-43.4,67.2-46.2h2.9v-13.6h.1ZM741.6,409.6h7.3v45.6h-32.3v-41.4h24.9v-4.3h.1ZM299,435.2h144.6v59.6h34v97.9h11.7v70.1h-62.2l-128.1-115.3v-112.2h0ZM209.7,499h4.1v2.1h33v116.8h0v36.4h-61.6v-23.9l24-22,.3-.3v-109h.1ZM741.2,507.5h7.8v13.2l.3.3,28.7,26.6.3.3h76.6v60.6h55.7v12.7h-85.9l-.2.9-18.3,75.1-35.4,22.6-21.7-34.8v-25.4h-8v-152h.1ZM625.6,523.5h53.7v46.7h-53.7v-46.7h0ZM625.6,585.2h53.7v35.1h0v186h-53.8v5.3h-7.4v-13.8h-7.4v-7.3h14.9v-129.9h-59.6v-68h59.6v-7.4h.1ZM698.6,620.3h21.6v6.3h-21.6v-6.3h0ZM291.5,629.8h15.8v10l.4.3,118.7,103v46.3h17v8.4h-17v68.2h9.6v7.3h-36.2c-5.9-100.1-64.4-105.1-73.4-105.3v-1.1h-13.8c-17-2.8-21-17.7-21.4-19.3v-117.9h.2ZM268.2,629.8h3.1v4.1h-3.1v-4.1h0ZM493.7,758.5h68v30.8h9.6v8.4h-89.2v-8.4h11.7v-30.8h0ZM514.9,866h7.3v7.3h-7.3v-7.3h0ZM471.3,866h7.3v7.3h-7.3v-7.3h0Z"/>
    </g>
    <g id="Callouts">
      <text class="cls-11" transform="translate(715.5 752.6)"><tspan x="0" y="0">A区 大厅</tspan></text>
      <text class="cls-11" transform="translate(676.9 572.4)"><tspan x="0" y="0">A区 大堂</tspan></text>
      <text class="cls-11" transform="translate(871.8 671.1)"><tspan x="0" y="0">A区 商店</tspan></text>
      <text class="cls-11" transform="translate(806.7 331.4)"><tspan x="0" y="0">黄箱</tspan></text>
      <text class="cls-11" transform="translate(905.9 518.1)"><tspan x="0" y="0">A区 金字塔</tspan></text>
      <text class="cls-11" transform="translate(640.9 486.3)"><tspan x="0" y="0">中区 木门</tspan></text>
      <text class="cls-11" transform="translate(690.2 399)"><tspan x="0" y="0">A区 开关</tspan></text>
      <text class="cls-11" transform="translate(693.2 686.2)"><tspan x="0" y="0">A区 绳索</tspan></text>
      <text class="cls-11" transform="translate(493.2 314.8)"><tspan x="0" y="0">中区 坡顶</tspan></text>
      <text class="cls-11" transform="translate(325 296.8)"><tspan x="0" y="0">B区 隧道</tspan></text>
      <text class="cls-11" transform="translate(422.3 216)"><tspan x="0" y="0">中区 高台</tspan></text>
      <text class="cls-11" transform="translate(509.2 525.5)"><tspan x="0" y="0">中区 柱子</tspan></text>
      <text class="cls-11" transform="translate(493.3 633)"><tspan x="0" y="0">中区 坡底</tspan></text>
      <text class="cls-11" transform="translate(571.8 582.4)"><tspan x="0" y="0">中区 滑道</tspan></text>
      <text class="cls-11" transform="translate(346.8 668.1)"><tspan x="0" y="0">中区 大炮</tspan></text>
      <text class="cls-11" transform="translate(137.9 674.5)"><tspan x="0" y="0">B区 窗口</tspan></text>
      <text class="cls-11" transform="translate(125.6 531.9)"><tspan x="0" y="0">B区 大道</tspan></text>
      <text class="cls-11" transform="translate(312.2 416.5)"><tspan x="0" y="0">拐角</tspan></text>
      <text class="cls-11" transform="translate(255.4 239.4)"><tspan x="0" y="0">B区 墙</tspan></text>
      <text class="cls-11" transform="translate(379.4 100.1)"><tspan x="0" y="0">守方 拱门</tspan></text>
      <text class="cls-11" transform="translate(688.3 323.4)"><tspan x="0" y="0">A区 铁门</tspan></text>
      <text class="cls-11" transform="translate(768.7 228.2)"><tspan x="0" y="0">A区 桥</tspan></text>
      <text class="cls-11" transform="translate(38.9 296.4)"><tspan x="0" y="0">B区 后房</tspan></text>
      <text class="cls-11" transform="translate(269.7 791.1)"><tspan x="0" y="0">攻方 蛇形道</tspan></text>
      <text class="cls-11" transform="translate(559.7 139)"><tspan x="0" y="0">守方 重生点</tspan></text>
      <text class="cls-11" transform="translate(448 931.7)"><tspan x="0" y="0">攻方 重生点</tspan></text>
      <path class="cls-6" d="M127,256.1v-17c0-1.5.9-2.3,2.2-2.3h7.2c4,0,6.6,2.1,6.6,5.4s-1.8,4.4-4,4.7h0c3,.3,5.1,2.4,5.1,5.3s-2.9,6.3-7.6,6.3h-7.3c-1.5,0-2.3-.9-2.2-2.3h0ZM134.7,245.8c2.4,0,3.8-1.1,3.8-2.9s-1.3-2.8-3.3-2.8h-3.7v5.6h3.2ZM135.4,255.1c2.7,0,4-1.2,4-3.2s-1.5-3.1-4.1-3.1h-3.8v6.3h3.9Z"/>
      <path class="cls-6" d="M1028.5,455.6c-1.2,0-1.9-.6-2.3-2l-1.2-3.4h-7.9l-1.2,3.4c-.4,1.4-1.1,2-2.3,2s-2.2-.9-2.2-2.1.1-.9.3-1.5l6-16.2c.6-1.8,1.7-2.6,3.5-2.6s2.8.9,3.4,2.6l6,16.2c.2.5.3,1.1.3,1.5-.1,1.3-1,2.1-2.3,2.1h0ZM1024,446.7l-2.9-8.9h-.1l-2.9,8.9h5.9Z"/>
    </g>
    <g id="Barrier">
      <line class="cls-8" x1="798.2" y1="752.6" x2="773.8" y2="717.6"/>
      <line class="cls-8" x1="740" y1="656.3" x2="679.3" y2="656.3"/>
      <line class="cls-8" x1="490.4" y1="650" x2="564.9" y2="650"/>
      <line class="cls-8" x1="299" y1="536.1" x2="245.8" y2="536.1"/>
      <line class="cls-8" x1="242.7" y1="654.2" x2="242.7" y2="699.6"/>
      <line class="cls-7" x1="136.1" y1="417.5" x2="180.9" y2="417.5"/>
      <line class="cls-7" x1="399" y1="310.7" x2="399" y2="256.5"/>
      <line class="cls-7" x1="507.6" y1="180.8" x2="507.6" y2="205.4"/>
      <line class="cls-7" x1="740.4" y1="282.8" x2="680.5" y2="282.8"/>
      <line class="cls-7" x1="877.6" y1="553.1" x2="1008.2" y2="553.1"/>
      <line class="cls-7" x1="737.7" y1="456.3" x2="737.7" y2="508.5"/>
    </g>
  </g>
</svg>