<?xml version="1.0" encoding="UTF-8"?>
<svg id="_图层_1" data-name="图层 1" xmlns="http://www.w3.org/2000/svg" version="1.1" viewBox="0 0 1100 1000">
  <defs>
    <style>
      .cls-1, .cls-2, .cls-3 {
        stroke-width: 1.1px;
      }

      .cls-1, .cls-2, .cls-3, .cls-4, .cls-5 {
        fill: none;
        stroke-miterlimit: 10;
      }

      .cls-1, .cls-3 {
        stroke: #afabae;
      }

      .cls-6 {
        fill: #32343b;
      }

      .cls-6, .cls-7, .cls-8, .cls-9 {
        stroke-width: 0px;
      }

      .cls-7 {
        fill: #575548;
      }

      .cls-2 {
        stroke: #646568;
      }

      .cls-3 {
        stroke-dasharray: 0 0 0 0 0 0 5.8 1.9;
      }

      .cls-10 {
        opacity: .8;
      }

      .cls-8 {
        fill: #afabae;
      }

      .cls-4 {
        stroke: #814194;
      }

      .cls-4, .cls-5 {
        stroke-width: 10px;
      }

      .cls-5 {
        stroke: #6bc3c0;
      }

      .cls-9, .cls-11 {
        fill: #fff;
      }

      .cls-11 {
        font-family: SimHei, SimHei;
        font-size: 16px;
        isolation: isolate;
      }
    </style>
  </defs>
  <g id="_进攻-亚海悬城" data-name="进攻-亚海悬城">
    <g id="Body">
      <path class="cls-6" d="M973.6,457.8h-45v-36.9h55.9v-218.4h-158.2v-92.8h-111.9v-12.7h-45.3v13.7h-8.4V0h-135v111.8h-195.1v60.1h13.7v7.4h-196.2v29.5h-6.3v-14.8h-60.1v109.7h60.1v-14.8h6.3v63.3h196.2v7.4h-112.9v117.1h7.4v5.3h-13.7v149.8h111.8v253.2h67.5v115h42.2l23.2-27.4v-7.4h40.1v-106.5h11.6v-1.1h160.3v-21.1h62.2v-77h-15.8v-45.4h93.9v-202.5h-25.3v-8.4h149.8v-14.8h23.2v14.8h48.5v-45.4h-44.6ZM886.3,246.8h-52.7v98.1h-13.7v23.2h-9.5v-15.8h-35.9v-7.4h22.2v-52.6l-15.8-22.2v-22.2h-10.5v-5.3h16.9v-5.3h2.1v2.1h97v7.3h0ZM789.3,148.6v57.1h-2.1v-3.2h-50.6v40.1h17.9v5.3h-41.1v-99.3h75.9ZM669,247.9v36.9h59.1v60.1h22.2v7.4h-67.5v61.2h15.8v14.9h-105.5v-68.6h-30.6v-44.3h38v-53.8h-28.5l-15.8-15.8v-12.6l14.8-14.9h60.1v-43.2h-14.8v-3.2h44.3v-22.2h8.4v98h0ZM374.7,171.9h36.9v-23.2h30.6v23.2h142.4v3.2h-59.1v70.7h-15.8v10.5h-3.2v-16.9h-80.2v15.8h-7.4v-32.7h-36.9v-43.2h-7.4v-7.4h0ZM268.2,482.1v-5.3h8.4v-64.3h45.4v23.2h82.2v-75.9h-29.4v-7.4h21.1v-32.7h23.2v-41.1h7.4v27.4h0v24.3h54.9l25.3-24.3v-15.8h3.2v69.6h-36.9v150.8h-4.2v-28.5h-79.1v21.1h-44.3v-21.1h-77ZM691.2,759.5h-121.3v-29.5h-82.3v7.4h-105.5v-203.6h29.5v30.6h57v-30.6h4.2v36.9h81.2l15.8,15.8v112.8h121.3v60.2h0ZM769.3,511.6h-25.3v135h-105.5v-181.4h36.9v23.2h60.1v-60.1h-14.8v-14.9h89.7v-15.8h9.5v23.2h70.7v36.9h-92.8v-22.2h-39v67.5h10.5v8.5h0Z"/>
    </g>
    <g id="Bombsite">
      <rect class="cls-7" x="148.3" y="178.8" width="128.7" height="140"/>
      <rect class="cls-7" x="833.6" y="247.4" width="151.6" height="91.2"/>
      <rect class="cls-6" x="224.6" y="180.4" width="13.7" height="14.1"/>
      <polygon class="cls-6" points="202.5 248.3 216.2 248.3 216.2 256.2 220.9 261 219.5 262.7 219.4 276.8 205.6 276.8 205.6 265.3 201.7 261.1 202.5 260.2 202.5 248.3"/>
      <rect class="cls-6" x="857.1" y="278.6" width="13.7" height="43"/>
      <rect class="cls-6" x="969.9" y="322.7" width="13.9" height="15"/>
      <rect class="cls-6" x="969.6" y="247.8" width="14" height="14"/>
      <rect class="cls-6" x="262.9" y="305.5" width="13.9" height="12.9"/>
      <rect class="cls-6" x="917.7" y="285.3" width="13.7" height="13.7"/>
      <rect class="cls-6" x="932.4" y="289.6" width="13.8" height="13.7"/>
    </g>
    <g id="Lines">
      <path class="cls-8" d="M820.7,617.1v13.7h-12.2v-13.7h12.2M821.8,616h-14.3v15.8h14.3v-15.8h0Z"/>
      <path class="cls-8" d="M806.9,624.5v6.3h-5.8v-6.3h5.8M808,623.4h-7.9v8.4h7.9v-8.4h0Z"/>
      <path class="cls-8" d="M757.9,572.8v12.7h-12.2v-12.7h12.2M758.9,571.7h-14.3v14.8h14.3v-14.8h0Z"/>
      <path class="cls-8" d="M820.7,513.1v7h-7v-7h7M821.8,512h-9.1v9.1h9.1v-9.1h0Z"/>
      <path class="cls-8" d="M820.7,513.1v12.2h-12.2v-12.2h12.2M821.8,512h-14.3v14.3h14.3v-14.3h0Z"/>
      <path class="cls-8" d="M984,391.9v27.4h-28.3v-27.4h28.3M985.1,390.8h-30.4v29.5h30.4v-29.5h0Z"/>
      <path class="cls-8" d="M969.6,391.9v28h-13.8v-28h13.8M970.6,390.8h-15.9v30.1h15.9v-30.1h0Z"/>
      <path class="cls-8" d="M983.2,323.3v13.8h-12.8v-13.8h12.8M984.2,322.3h-14.9v15.9h14.9v-15.9h0Z"/>
      <path class="cls-8" d="M983.2,248.3v12.9h-13v-12.9h13M984.2,247.3h-15.1v15h15.1v-15h0Z"/>
      <path class="cls-8" d="M983.2,226.2v11.7h-14v-11.7h14M984.2,225.1h-16.1v13.8h16.1v-13.8h0Z"/>
      <rect class="cls-1" x="932.4" y="289.6" width="13.8" height="13.7"/>
      <rect class="cls-1" x="917.7" y="285.3" width="13.7" height="13.7"/>
      <path class="cls-8" d="M870.3,279v42.2h-12.7v-42.2h12.7M871.4,278h-14.8v44.3h14.8v-44.3h0Z"/>
      <path class="cls-8" d="M779.6,249.5v11.6h-30.6v-11.6h30.6M780.6,248.4h-32.7v13.7h32.7v-13.7h0Z"/>
      <path class="cls-8" d="M779.6,263v6.5h-7.4v-6.5h7.4M780.6,261.9h-9.5v8.6h9.5v-8.6h0Z"/>
      <path class="cls-8" d="M788.7,335l5.9,3.9-3.3,5-5.9-3.9,3.3-5M788.4,333.5l-4.4,6.6,7.7,5.1,4.4-6.6-7.7-5.1h0Z"/>
      <path class="cls-8" d="M793.6,338.7c1.5,0,2.7,1.3,2.7,2.7s-1.3,2.7-2.7,2.7-2.7-1.3-2.7-2.7,1.3-2.7,2.7-2.7M793.6,337.7c-2.1,0-3.8,1.7-3.8,3.8s1.7,3.8,3.8,3.8,3.8-1.7,3.8-3.8-1.7-3.8-3.8-3.8h0Z"/>
      <path class="cls-8" d="M712.1,232.6v12.7h-11.6v-12.7h11.6M713.1,231.5h-13.7v14.8h13.7v-14.8h0Z"/>
      <path class="cls-8" d="M592.1,88.3c2.6,0,4.7,2.1,4.7,4.7s-2.1,4.7-4.7,4.7-4.7-2.1-4.7-4.7,2.1-4.7,4.7-4.7M592.1,87.2c-3.2,0-5.8,2.5-5.8,5.8s2.5,5.8,5.8,5.8,5.8-2.5,5.8-5.8-2.6-5.8-5.8-5.8h0Z"/>
      <path class="cls-8" d="M532.1,515.9c2.7,0,5,2.2,5,5s-2.2,5-5,5-5-2.2-5-5,2.2-5,5-5M532.1,514.9c-3.3,0-6,2.6-6,6s2.6,6,6,6,6-2.6,6-6-2.6-6-6-6h0Z"/>
      <rect class="cls-1" x="525.2" y="556.4" width="14.9" height="13.3"/>
      <path class="cls-8" d="M583.8,647.7v12.7h-12.1v-12.7h12.1M584.9,646.6h-14.2v14.8h14.2v-14.8h0Z"/>
      <path class="cls-8" d="M731,679.4v33.3h-2.1v-33.3h2.1M732,678.4h-4.2v35.4h4.2v-35.4h0Z"/>
      <path class="cls-8" d="M680.4,837.6v18.6h-24.9v-18.6h24.9M681.5,836.5h-27v20.7h27v-20.7h0Z"/>
      <path class="cls-8" d="M455.3,786.1c5.8,0,10.4,4.6,10.4,10.4s-4.6,10.4-10.4,10.4-10.4-4.6-10.4-10.4,4.7-10.4,10.4-10.4M455.3,785c-6.3,0-11.5,5.2-11.5,11.5s5.2,11.5,11.5,11.5,11.5-5.2,11.5-11.5-5.2-11.5-11.5-11.5h0Z"/>
      <path class="cls-8" d="M386.3,860.5l6.9,6.9v9.7l-6.9,6.9h-9.7l-6.9-6.9v-9.7l6.9-6.9h9.7M386.8,859.5h-10.5l-7.5,7.5v10.5l7.5,7.5h10.5l7.5-7.5v-10.5l-7.5-7.5h0Z"/>
      <path class="cls-8" d="M253.7,541.1v29.4h-27v-29.4h27M254.8,540.1h-29.1v31.5h29.1v-31.5h0Z"/>
      <path class="cls-8" d="M312.7,211v1.1h-33.8v107.6h33.8v2.1h-163.5v-2.1h128.7v-108.6h34.8M313.9,209.9h-36.9v108.6h-128.7v4.2h165.6v-4.2h-33.8v-105.5h33.8v-3.2h0Z"/>
      <path class="cls-8" d="M276,306v11.6h-12.7v-11.6h12.7M277.1,305h-14.8v13.7h14.8v-13.7h0Z"/>
      <path class="cls-8" d="M237.8,180.8v13.1h-12.7v-13.1h12.7M238.9,179.7h-14.8v15.2h14.8v-15.2h0Z"/>
      <path class="cls-8" d="M147.1,224.7v47.5h-4.1v-47.5h4.1M148.2,223.6h-6.2v49.6h6.2v-49.6h0Z"/>
      <polygon class="cls-1" points="141.8 294.8 135 294.8 128.7 301.7 128.7 303.8 141.8 303.8 141.8 294.8"/>
      <path class="cls-8" d="M215.7,248.9v7.6l.3.3,4.3,4.3-1.2,1.2-.3.3v13.7h-12.7v-11.4l-.3-.3-3.5-3.5.3-.3.3-.3v-11.5h12.7M216.7,247.9h-14.8v12.1l-1.1,1.1,4.2,4.2v12h14.8v-14.3l1.9-1.9-5.1-5.1v-8.1h0Z"/>
      <path class="cls-8" d="M306.9,243l6.9,8.3v36.1c0,1.5-1.2,2.6-2.6,2.6h-8.4c-1.5,0-2.6-1.2-2.6-2.6v-36l6.9-8.4M306.9,241.5l-7.9,9.7v36.3c0,2,1.7,3.7,3.7,3.7h8.4c2,0,3.7-1.7,3.7-3.7v-36.4h0l-7.9-9.6h0Z"/>
      <path class="cls-8" d="M395.5,343.6v8.2h-8.2v-1.7c0-3.6,3-6.5,6.5-6.5h1.7M396.6,342.5h-2.7c-4.2,0-7.6,3.4-7.6,7.6v2.7h10.3v-10.3h0Z"/>
      <rect class="cls-1" x="396.6" y="298.1" width="22.7" height="3.2"/>
      <polyline class="cls-1" points="396.7 298.1 383 298.1 383 245.3 404.5 245.3"/>
      <line class="cls-1" x1="249" y1="319.1" x2="249" y2="322.3"/>
      <polyline class="cls-1" points="609.8 428.3 609.8 503.7 570.2 503.7"/>
      <polyline class="cls-1" points="569.7 645.1 609.8 645.1 609.8 540.6 570.2 540.6"/>
      <rect class="cls-1" x="638.7" y="647.6" width="14.2" height="13.3"/>
      <line class="cls-1" x1="781.6" y1="299.6" x2="781.6" y2="344.9"/>
      <line class="cls-1" x1="742.6" y1="299.6" x2="742.6" y2="345.4"/>
      <rect class="cls-1" x="612.9" y="429.3" width="12.7" height="14.2"/>
      <rect class="cls-1" x="548.4" y="421.4" width="44.9" height="2.2"/>
      <rect class="cls-1" x="473" y="421.4" width="43.8" height="2.2"/>
      <rect class="cls-1" x="495.7" y="423.5" width="13.8" height="14.8"/>
      <rect class="cls-1" x="492.7" y="414" width="14.8" height="7.3"/>
      <rect class="cls-1" x="474.1" y="406.6" width="12.2" height="14.8"/>
      <polyline class="cls-1" points="520 423.5 516.8 423.5 516.8 421.4 520 421.4"/>
      <line class="cls-3" x1="522" y1="421.4" x2="544.3" y2="421.4"/>
      <polyline class="cls-1" points="545.2 421.4 548.4 421.4 548.4 423.5 545.2 423.5"/>
      <line class="cls-3" x1="543.3" y1="423.5" x2="521" y2="423.5"/>
      <rect class="cls-8" x="887" y="246.4" width="97.3" height=".9"/>
      <path class="cls-8" d="M264,361.2v13.9h-13.9v-13.9h13.9M265,360.1h-16v16h16v-16h0Z"/>
      <path class="cls-8" d="M264,376.9v5.4h-5.4v-5.4h5.4M265,375.8h-7.5v7.5h7.5v-7.5h0Z"/>
      <rect class="cls-1" x="427.7" y="317.3" width="41.8" height="11.9"/>
      <rect class="cls-1" x="585.3" y="300.1" width="14.3" height="14.3"/>
      <rect class="cls-1" x="593.3" y="293.7" width="6.4" height="6.4"/>
      <circle class="cls-1" cx="690.2" cy="359.5" r="6.1"/>
      <circle class="cls-1" cx="690.2" cy="406.3" r="6.1"/>
      <rect class="cls-1" x="715.8" y="468.7" width="19" height="18.8"/>
      <rect class="cls-1" x="707" y="478.7" width="8.8" height="8.8"/>
      <rect class="cls-1" x="331.7" y="158.3" width="12.7" height="12.7"/>
      <path class="cls-8" d="M1012.9,459.4c2.2,0,4.1,1.8,4.1,4.1s-1.8,4.1-4.1,4.1-4.1-1.8-4.1-4.1,1.8-4.1,4.1-4.1M1012.9,458.3c-2.8,0-5.2,2.3-5.2,5.2s2.3,5.2,5.2,5.2,5.2-2.3,5.2-5.2-2.4-5.2-5.2-5.2h0Z"/>
      <path class="cls-8" d="M820.7,542v10.5h-1.1v-10.5h1.1M821.8,540.9h-3.2v12.7h3.2v-12.7h0Z"/>
    </g>
    <g id="Outlines">
      <path class="cls-2" d="M973.9,457.8h-45v-36.9h55.9v-218.4h-158.2v-92.8h-111.9v-12.7h-45.3v13.7h-8.4V0h-135v111.8h-195.1v60.1h13.7v7.4h-196.2v29.5h-6.3v-14.8h-60.1v109.7h60.1v-14.8h6.3v63.3h196.2v7.4h-112.9v117.1h7.4v5.3h-13.7v149.8h111.8v253.2h67.5v115h42.2l23.2-27.4v-7.4h40.1v-106.5h11.6v-1.1h160.3v-21.1h62.2v-77h-15.8v-45.4h93.9v-202.5h-25.3v-8.4h149.8v-14.8h23.2v14.8h48.5v-45.4h-44.6ZM886.7,246.8h-52.7v98.1h-13.7v23.2h-9.5v-15.8h-35.9v-7.4h22.2v-52.6l-15.8-22.2v-22.2h-10.5v-5.3h16.9v-5.3h2.1v2.1h97v7.3h0ZM789.5,148.6v57.1h-2.1v-3.2h-50.6v40.1h17.9v5.3h-41.1v-99.3h75.9ZM669.4,247.9v36.9h59.1v60.1h22.3v7.4h-67.5v61.2h15.7v14.9h-105.5v-68.6h-30.6v-44.3h38v-53.8h-28.5l-15.8-15.8v-12.6l14.8-14.9h60.1v-43.2h-14.8v-3.2h44.3v-22.2h8.4v98h0ZM374.9,171.9h36.9v-23.2h30.6v23.2h142.4v3.2h-59.1v70.7h-15.8v10.5h-3.2v-16.9h-80.2v15.8h-7.4v-32.7h-36.9v-43.2h-7.4v-7.4h0ZM268.5,482.1v-5.3h8.4v-64.3h45.4v23.2h82.2v-75.9h-29.4v-7.4h21.1v-32.7h23.2v-41.1h7.4v27.4h0v24.3h54.9l25.3-24.3v-15.8h3.2v69.6h-36.9v150.8h-4.2v-28.5h-79.1v21.1h-44.3v-21.1h-77ZM691.5,759.5h-121.3v-29.5h-82.3v7.4h-105.5v-203.6h29.5v30.6h57v-30.6h4.2v36.9h81.2l15.8,15.8v112.8h121.3v60.2h0ZM769.5,511.6h-25.3v135h-105.5v-181.4h36.9v23.2h60.1v-60.1h-14.8v-14.9h89.7v-15.8h9.5v23.2h70.7v36.9h-92.8v-22.2h-39v67.5h10.5v8.5h0Z"/>
    </g>
    <g id="Callouts">
      <text class="cls-11" transform="translate(548.3 123.6)"><tspan x="0" y="0">守方 重生点</tspan></text>
      <text class="cls-11" transform="translate(742.6 225.6)"><tspan x="0" y="0">A区 窗口</tspan></text>
      <text class="cls-11" transform="translate(895.3 225.6)"><tspan x="0" y="0">A区 高台</tspan></text>
      <text class="cls-11" transform="translate(944.3 479.9)"><tspan x="0" y="0">A区 酒庄</tspan></text>
      <text class="cls-11" transform="translate(815.3 481.4)"><tspan x="0" y="0">A区 大道</tspan></text>
      <text class="cls-11" transform="translate(755.9 658.3)"><tspan x="0" y="0">A区 大厅</tspan></text>
      <text class="cls-11" transform="translate(587.7 676.3)"><tspan x="0" y="0">中区 坡顶</tspan></text>
      <text class="cls-11" transform="translate(505.5 397) scale(.9 1)"><tspan x="0" y="0">中区 坡底</tspan></text>
      <text class="cls-11" transform="translate(508.1 484.3) scale(.9 1)"><tspan x="0" y="0">中区 庭院</tspan></text>
      <text class="cls-11" transform="translate(565.3 523.8) scale(.9 1)"><tspan x="0" y="0">中区 窄道</tspan></text>
      <text class="cls-11" transform="translate(530.2 282.2) scale(.9 1)"><tspan x="0" y="0">中区 披萨</tspan></text>
      <text class="cls-11" transform="translate(678.5 268.5) scale(.9 1)"><tspan x="0" y="0">A区 花园</tspan></text>
      <text class="cls-11" transform="translate(718 383.5) scale(.9 1)"><tspan x="0" y="0">A区 树木</tspan></text>
      <text class="cls-11" transform="translate(400.7 521.1) scale(.9 1)"><tspan x="0" y="0">B区 小房间</tspan></text>
      <text class="cls-11" transform="translate(643.9 448.3) scale(.9 1)"><tspan x="0" y="0">A区 小房间</tspan></text>
      <text class="cls-11" transform="translate(83 266.5) scale(.9 1)"><tspan x="0" y="0">B区 船屋</tspan></text>
      <text class="cls-11" transform="translate(281.1 569.7) scale(.9 1)"><tspan x="0" y="0">B区 大厅</tspan></text>
      <text class="cls-11" transform="translate(295.4 394.6) scale(.9 1)"><tspan x="0" y="0">B区 大道</tspan></text>
      <text class="cls-11" transform="translate(425.7 274.3) scale(.9 1)"><tspan x="0" y="0">中区 市场</tspan></text>
      <text class="cls-11" transform="translate(417.4 828.3)"><tspan x="0" y="0">攻方 重生点</tspan></text>
      <path id="B" class="cls-9" d="M174.3,229.6v-16.9c0-1.5.8-2.3,2.2-2.3h7.2c4,0,6.5,2.1,6.5,5.4s-1.8,4.3-4,4.6h0c3,.3,5.1,2.4,5.1,5.3s-2.8,6.2-7.5,6.2h-7.3c-1.4.1-2.2-.7-2.2-2.3h0ZM182.1,219.5c2.4,0,3.8-1.1,3.8-2.8s-1.3-2.7-3.3-2.7h-3.7v5.6h3.2ZM182.8,228.7c2.6,0,4-1.2,4-3.2s-1.5-3.1-4.1-3.1h-3.8v6.2h3.9Z"/>
      <path id="A" class="cls-9" d="M901.6,309.4c-1.2,0-1.9-.6-2.3-2l-1.2-3.4h-7.8l-1.2,3.4c-.4,1.4-1.1,2-2.3,2s-2.2-.8-2.2-2.1.1-.8.3-1.5l5.9-16c.6-1.8,1.7-2.5,3.5-2.5s2.7.8,3.4,2.5l5.9,16c.2.5.3,1.1.3,1.5,0,1.3-.9,2.1-2.3,2.1h0ZM897.2,300.5l-2.8-8.9h-.1l-2.8,8.9h5.8Z"/>
    </g>
    <g id="Barrier">
      <g class="cls-10">
        <line class="cls-5" x1="276.6" y1="476.8" x2="238.8" y2="476.8"/>
      </g>
      <g class="cls-10">
        <line class="cls-5" x1="822.2" y1="569.7" x2="742.6" y2="569.7"/>
      </g>
      <g class="cls-10">
        <line class="cls-5" x1="387.3" y1="536.1" x2="387.3" y2="503.2"/>
      </g>
      <g class="cls-10">
        <line class="cls-5" x1="673.2" y1="699.4" x2="673.2" y2="644.9"/>
      </g>
      <g class="cls-10">
        <line class="cls-4" x1="344.1" y1="357" x2="374.9" y2="357"/>
      </g>
      <g class="cls-10">
        <line class="cls-4" x1="509.8" y1="357" x2="562.7" y2="357"/>
      </g>
      <g class="cls-10">
        <line class="cls-4" x1="698.8" y1="421.3" x2="720.9" y2="421.3"/>
      </g>
      <g class="cls-10">
        <line class="cls-4" x1="889.3" y1="438.3" x2="930.4" y2="438.3"/>
      </g>
      <g class="cls-10">
        <line class="cls-4" x1="297.3" y1="357" x2="328.2" y2="357"/>
      </g>
      <g class="cls-10">
        <line class="cls-4" x1="243.1" y1="357" x2="273.9" y2="357"/>
      </g>
    </g>
  </g>
</svg>