<?xml version="1.0" encoding="UTF-8"?>
<svg id="_图层_1" data-name="图层 1" xmlns="http://www.w3.org/2000/svg" xmlns:xlink="http://www.w3.org/1999/xlink" version="1.1" viewBox="0 0 1100 1000">
  <defs>
    <style>
      .cls-1, .cls-2, .cls-3, .cls-4, .cls-5, .cls-6, .cls-7 {
        stroke-width: 0px;
      }

      .cls-1, .cls-5 {
        fill: #32343b;
      }

      .cls-2 {
        fill: #575548;
      }

      .cls-3 {
        fill: url(#_未命名的渐变_2);
      }

      .cls-3, .cls-5 {
        opacity: .4;
      }

      .cls-3, .cls-5, .cls-8 {
        isolation: isolate;
      }

      .cls-4 {
        fill: #646568;
      }

      .cls-9 {
        stroke: #814194;
      }

      .cls-9, .cls-10 {
        opacity: .8;
        stroke-width: 10px;
      }

      .cls-9, .cls-10, .cls-11 {
        fill: none;
        stroke-miterlimit: 10;
      }

      .cls-10 {
        stroke: #6bc3c0;
      }

      .cls-11 {
        stroke: #afabae;
        stroke-width: 1px;
      }

      .cls-6 {
        fill: #afabae;
      }

      .cls-7, .cls-8 {
        fill: #fff;
      }

      .cls-8 {
        font-family: SimHei, SimHei;
        font-size: 16px;
      }
    </style>
    <linearGradient id="_未命名的渐变_2" data-name="未命名的渐变 2" x1="10476.5" y1="-2642.7" x2="10506.8" y2="-2642.7" gradientTransform="translate(-10412.1 -2289.3) scale(1 -1)" gradientUnits="userSpaceOnUse">
      <stop offset="0" stop-color="#575548"/>
      <stop offset=".2" stop-color="#32343b"/>
      <stop offset=".7" stop-color="#32343b"/>
      <stop offset="1" stop-color="#575548"/>
    </linearGradient>
  </defs>
  <g id="_进攻-幽邃地窟" data-name="进攻-幽邃地窟">
    <g id="Body">
      <rect class="cls-1" x="36.4" y="534.4" width="8.3" height="52.1"/>
      <polygon class="cls-1" points="887.4 181.3 896.7 181.3 896.7 173 896.7 171.9 896.7 164.6 828 164.6 828 173 887.4 173 887.4 181.3"/>
      <path class="cls-1" d="M1059.2,431.3v-120.8h-68.8v-34.4h34.4v-68.7h-137.5v34.4h-121.9v-2.1h2.1v-64.6h-2.1v-2.1h36.5v-85.4h-103.1V1.1h-206.2v86.5h-138.5v119.8h34.4v43.8h-205.2v34.4h17.7v16.7H51l-8.5,16.7h-14.4v189.6h103.1v103.1H28.1v52.1h59.3v42.7h116.8v50h2.1v2.1h-6.2v41.9l-36.5,36.2v59.4h190.6v-34.4h103.1v137.5h223.9v-137.5h68.8v34.4h137.5v-137.5h-34.4v-86.5h34.4v34.4h137.5v-34.4h17.7v-34.4h12.5v-34.4h-72.9v-34.4h77.1v-68.7h-16.7v-68.7h16.7,0ZM907.6,276h31.8v68.8h-86.5v129.2h-8.3v-11.5l-8.3-38.8v-76.8h-2.1v-2.1h2.1v-68.8h71.3ZM664.5,431.3v60.4h-52.1v-43.7h-34.4v29.1c-1.9,1.1-3.1,3.1-3.1,5.4s1.2,4.3,3.1,5.4v32.7c-1.9,1.1-3.1,3.1-3.1,5.4s1.2,4.3,3.1,5.4v32.7c-1.9,1.1-3.1,3.1-3.1,5.4s1.2,4.3,3.1,5.4v62.5h-52.2v-34.3h19.9v-136.5l7.3-2.1v-32.3l-7.3-3.5v-27.7h-1.1v-107.3h34.4v107.3l4.2,5.2h22.9l6.2-8.3v-4.1l32.6-49h159.1v2.1h-2.1v84.4h-137.5,0ZM735.3,173v2.1h-2.1v64.6h2.1v2.1h-2.1v68.7h-86.5v-34.4l-34.4-34.4h-103.1v86.5h-86.5v-155.3l16.4-16.6h294v16.7h2.1ZM319.7,285.4v129.2h-51.1v-60.4l-19.8-19.8v-48.9h70.9ZM184.3,465.6h187.5v-68.7h-17.8v-34.4h120.9v172.9h-93.9v59.4h-161.3v16.7h-35.5v-145.9h0ZM139.5,671.9v-8.3h103.1v16.6h-8.4v-8.2h-94.7ZM234.2,756.2v-59.5h8.4v61.5h-8.4v-2.1h0ZM311.4,827.1l-16.7-16.7v-104.1h34.4v-43.6l25.3-16.9h60.1v-77h60.4v69.8h-16.7v67.7h119.8v-16.7h17.7v59.4h8.3v17.7h-8.3v60.4h-69.8v-34.4h-103.1v34.4h-111.4ZM491.5,964.6v-68.8h69.8v68.8h-69.8ZM804,629.2v16.7h-2.1v-16.7h2.1ZM784.5,603.1h-16.9v189.6h-103.1v-26h-9.4v-17.7h9.4v-25h34.4v-120.8h-86.5v-94.8h103.1v-60.4h52.1v86.4h77.1v-8.3h8.3v8.3h34.7l34.1,34.4v34.4h-137.2ZM1024.9,500h-68.8v-68.7h68.8v68.7Z"/>
    </g>
    <g id="Bombsite">
      <polygon class="cls-2" points="1059.3 361.5 887.4 361.5 887.4 411.8 887.4 431.3 887.4 483.3 956.2 483.3 956.2 431.3 1024.8 431.3 1024.8 483.3 1042.6 483.3 1042.6 431.3 1059.3 431.3 1059.3 361.5"/>
      <rect class="cls-1" x="905.7" y="397.4" width="101.9" height="34.1"/>
      <rect class="cls-1" x="940.1" y="431.6" width="16.5" height="33.5"/>
      <rect class="cls-1" x="905.7" y="431.9" width="34.2" height="15.5"/>
      <rect class="cls-1" x="923.3" y="447.2" width="16.7" height="8.5"/>
      <rect class="cls-2" x="53.1" y="319.8" width="95.9" height="84.3"/>
      <rect class="cls-2" x="53.1" y="392.7" width="28" height="55.1"/>
      <rect class="cls-1" x="64.5" y="371.7" width="32.6" height="17.9"/>
      <rect class="cls-1" x="79.1" y="389" width="18.4" height="84.1"/>
      <rect class="cls-1" x="64" y="447.8" width="18.4" height="25.4"/>
      <rect class="cls-1" x="97.3" y="389" width="15.6" height="16.7"/>
      <circle class="cls-1" cx="117.7" cy="392.4" r="3.8"/>
      <circle class="cls-1" cx="117.7" cy="401.1" r="3.8"/>
      <rect class="cls-5" x="53.1" y="319.8" width="95.9" height="15.6"/>
      <rect class="cls-5" x="64" y="389.1" width="15.2" height="59.2"/>
      <rect class="cls-3" x="64.5" y="335.4" width="30.2" height="35.9"/>
    </g>
    <g id="Lines">
      <rect class="cls-6" x="525.9" y="827" width="1.1" height="69"/>
      <path class="cls-6" d="M174.9,856.2v30.2h21.8v9.4h-20.8s-12.5,0-12.5,0v-39.6h11.4M175.9,855.2h-13.5v41.7h12.5s22.9,0,22.9,0v-11.5h-21.8v-30.2h0Z"/>
      <path class="cls-6" d="M297.2,812.8l10.6,10.6-23.2,23.2-10.6-10.6,23.2-23.2M297.2,811.3l-24.7,24.7,12,12,24.7-24.7-12-12h0Z"/>
      <rect class="cls-6" x="241.6" y="680" width="1.1" height="17"/>
      <path class="cls-6" d="M329.1,672.9v33.4h-33.4v-33.4h33.4M330.1,671.9h-35.4v35.4h35.4v-35.4h0Z"/>
      <rect class="cls-6" x="354.1" y="594.4" width="1" height="51.6"/>
      <rect class="cls-6" x="87.1" y="663.5" width="52.6" height="1.1"/>
      <path class="cls-6" d="M120.8,646.8v16.7h-14.6v-16.7h14.6M121.8,645.8h-16.6v18.8h16.6v-18.8h0Z"/>
      <path class="cls-6" d="M201,449v16.6h-15.7v-16.6h15.7M202,447.9h-17.8v18.7h17.8v-18.7h0Z"/>
      <path class="cls-6" d="M370.7,337.5v25h-15.7v-25h15.7M371.8,336.5h-17.7v27.1h17.7v-27.1h0Z"/>
      <path class="cls-6" d="M425.7,148.2l10.9,10.9-10.7,10.7-10.9-10.9,10.7-10.7M425.7,146.7l-12.1,12.1,12.3,12.3,12.1-12.1-12.3-12.3h0Z"/>
      <path class="cls-6" d="M534.3,1v11.5h-28.1V1h28.1M535.3,0h-30.2v13.6h30.2V0h0Z"/>
      <path class="cls-6" d="M611.3,1v11.5h-28.1V1h28.1M612.4,0h-30.2v13.6h30.2V0h0Z"/>
      <path class="cls-6" d="M675.9,1v11.5h-28.1V1h28.1M677,0h-30.2v13.6h30.2V0h0Z"/>
      <path class="cls-6" d="M698.8,1v9.4h-6.3V1h6.3M699.9,0h-8.4v11.5h8.4V0h0Z"/>
      <path class="cls-6" d="M732.2,139.6v16.7h-15.6v-16.7h15.6M733.2,138.6h-17.7v18.8h17.7v-18.8h0Z"/>
      <path class="cls-6" d="M715.5,147.9v8.4h-7.3v-8.4h7.3M716.5,146.9h-9.4v10.5h9.4v-10.5h0Z"/>
      <path class="cls-6" d="M568.6,277.1v16.7h-15.6v-16.7h15.6M569.7,276h-17.7v18.8h17.7v-18.8h0Z"/>
      <path class="cls-6" d="M800.9,329.2v15.7h-15.6v-15.7h15.6M801.9,328.1h-17.7v17.7h17.7v-17.7h0Z"/>
      <path class="cls-6" d="M784.2,337.5v7.3h-7.3v-7.3h7.3M785.3,336.5h-9.4v9.4h9.4v-9.4h0Z"/>
      <path class="cls-6" d="M508.2,483.3v15.6h-33.3v-15.6h33.3M509.2,482.3h-35.4v17.7h35.4v-17.7h0Z"/>
      <path class="cls-6" d="M490.5,500v7.3h-7.3v-7.3h7.3M491.5,499h-9.4v9.4h9.4v-9.4h0Z"/>
      <path class="cls-6" d="M482.2,500v16.7h-7.3v-16.7h7.3M483.2,499h-9.4v18.7h9.4v-18.7h0Z"/>
      <path class="cls-6" d="M578,698.9v7.3h-15.7v-7.3h15.7M579.1,697.9h-17.7v9.4h17.7v-9.4h0Z"/>
      <path class="cls-6" d="M594.7,672.9v16.7h-15.6v-16.7h15.6M595.7,671.9h-17.7v18.8h17.7v-18.8h0Z"/>
      <path class="cls-6" d="M826.9,828.1v23.9h-33.3v-23.9h33.3M828,827.1h-35.4v26h35.4v-26h0Z"/>
      <path class="cls-6" d="M826.9,843.7v8.3h-33.3v-8.3h33.3M828,842.7h-35.4v10.4h35.4v-10.4h0Z"/>
      <path class="cls-6" d="M1024.9,672.9v33.4h-76v-33.4h76M1025.9,671.8h-78.1v35.5h78.1v-35.5h0Z"/>
      <path class="cls-6" d="M998.8,672.9v6.3h-15.6v-6.3h15.6M999.8,671.8h-17.7v8.3h17.7v-8.3h0Z"/>
      <path class="cls-6" d="M920.7,603.1v16.6h-14.6v-16.6h14.6M921.7,602h-16.7v18.7h16.7v-18.7h0Z"/>
      <path class="cls-6" d="M1059.3,553.1v15.7h-33.4v-15.7h33.4M1060.3,552.1h-35.5v17.8h35.5v-17.8h0Z"/>
      <path class="cls-6" d="M1024.9,207.3v33.4h-33.4v-33.4h33.4M1025.9,206.2h-35.4v35.5h35.4v-35.5h0Z"/>
      <path class="cls-6" d="M665.5,636.4h-87.7v1h68.9v17.7h17.7v16.7h1v-34.4h0v-1ZM664.5,654.2h-16.7v-16.7h16.7v16.7Z"/>
      <rect class="cls-6" x="800.9" y="602.9" width="1" height="137.7"/>
      <rect class="cls-6" x="956.2" y="672.3" width="1" height="34.4"/>
      <rect class="cls-6" x="851.9" y="473.7" width="1" height="52.5"/>
      <path class="cls-6" d="M910.7,534.5l11.3,11.3-11.6,11.6-11.3-11.4,11.5-11.5M910.7,533l-13,13,12.8,12.9,13.1-13.1-12.8-12.8h0Z"/>
      <path class="cls-6" d="M906.1,396.9h-1v51h17.7v8.3h16.7v9.4h17.6v-1h-16.6v-32.3h17.1v-1h-51.4v-33.3h101v33.4h1v-34.5h-102.1ZM923.8,455.2v-7.3h15.6v7.3h-15.6ZM939.4,432.3v14.6h-33.3v-14.6h33.3Z"/>
      <rect class="cls-6" x="990.8" y="224" width="34.8" height="1"/>
      <rect class="cls-6" x="698.8" y="103.2" width="103.2" height="1"/>
      <rect class="cls-6" x="492" y="86.5" width="69.3" height="1"/>
      <polygon class="cls-6" points="86.4 336.5 251.2 336.5 250.3 334.4 86.4 334.4 86.4 336.5"/>
      <rect class="cls-6" x="39.5" y="318.6" width="2.1" height="16.4"/>
      <rect class="cls-6" x="70.8" y="336.5" width="1" height="35.1"/>
      <rect class="cls-6" x="86.4" y="336.1" width="1" height="35.6"/>
      <rect class="cls-6" x="63.5" y="370.9" width="34.4" height="1"/>
      <rect class="cls-6" x="63.5" y="371.5" width="1" height="102.4"/>
      <rect class="cls-6" x="64.2" y="472.9" width="33.2" height="1"/>
      <rect class="cls-6" x="96.8" y="371.2" width="1" height="102.8"/>
      <rect class="cls-6" x="97.5" y="421.9" width="33.7" height="1"/>
      <rect class="cls-6" x="130.1" y="405.2" width="1" height="17.2"/>
      <rect class="cls-6" x="97.5" y="405.2" width="33.2" height="1"/>
      <rect class="cls-6" x="97.3" y="388.5" width="16.1" height="1"/>
      <rect class="cls-6" x="112.4" y="389" width="1" height="16.3"/>
      <circle class="cls-11" cx="117.7" cy="392.4" r="3.9" transform="translate(-282 482) rotate(-85.9)"/>
      <circle class="cls-11" cx="117.7" cy="401.1" r="3.9" transform="translate(-290.7 490.1) rotate(-85.9)"/>
      <path class="cls-6" d="M202,372.1l11.3,11.3-11.3,11.3-11.3-11.3,11.3-11.3M202,370.6l-12.7,12.7,12.7,12.7,12.7-12.7-12.7-12.7h0Z"/>
      <path class="cls-6" d="M220.3,379.2l11.3,11.3-11.3,11.3-11.3-11.3,11.3-11.3M220.3,377.8l-12.7,12.7,12.7,12.7,12.7-12.7-12.7-12.7h0Z"/>
      <path class="cls-6" d="M324.6,664.1c1.9,0,3.5,1.6,3.5,3.5s-1.6,3.5-3.5,3.5-3.5-1.6-3.5-3.5,1.6-3.5,3.5-3.5M324.6,663.1c-2.5,0-4.6,2.1-4.6,4.6s2.1,4.6,4.6,4.6,4.6-2.1,4.6-4.6-2.1-4.6-4.6-4.6h0Z"/>
      <path class="cls-6" d="M315.4,664.1c1.9,0,3.5,1.6,3.5,3.5s-1.6,3.5-3.5,3.5-3.5-1.6-3.5-3.5,1.6-3.5,3.5-3.5M315.4,663.1c-2.5,0-4.6,2.1-4.6,4.6s2.1,4.6,4.6,4.6,4.6-2.1,4.6-4.6-2.1-4.6-4.6-4.6h0Z"/>
      <rect class="cls-6" x="379.1" y="594.4" width="1" height="8.7"/>
      <rect class="cls-6" x="379.1" y="637.5" width="1" height="8.4"/>
      <rect class="cls-6" x="27" y="334.4" width="44.8" height="2.1"/>
    </g>
    <g id="Outlines">
      <g>
        <path class="cls-4" d="M44.7,534.4v52.1h-8.3v-52.1h8.3M45.8,533.3h-10.5v54.3h10.5v-54.3h0Z"/>
        <path class="cls-4" d="M896.7,164.6v16.7h-9.4v-8.3h-59.4v-8.3h68.7M897.8,163.5h-70.9v10.5h59.4v8.3h11.6v-18.9h0Z"/>
        <path class="cls-4" d="M698.8,1.1v86.5h103.1v85.4h-36.5v2.1h2.1v64.6h-2.1v2.1h121.9v-34.4h137.5v68.7h-34.4v34.4h68.8v120.8h-16.7v68.7h16.7v68.7h-77.1v34.4h72.9v34.4h-12.5v34.4h-17.7v34.4h-137.5v-34.4h-34.4v86.5h34.4v137.5h-137.5v-34.4h-68.8v137.5h-223.9v-137.5h-103.1v34.4h-190.6v-59.4l36.5-36.2v-41.9h6.2v-2.1h-2.1v-50h-116.8v-42.7H28.1v-52.1h103.1v-103.1H28.1v-189.6h14.4l8.5-16.7h150v-16.7h-17.7v-34.4h205.2v-43.8h-34.4v-119.8h138.5V1.1h206.2M422.8,328.1h86.5v-86.5h103.1l34.4,34.4v34.4h86.5v-68.7h2.1v-2.1h-2.1v-64.6h2.1v-2.1h-2.1v-16.7h-294l-16.4,16.6v155.3M834.2,346.9h2.1v76.8l8.3,38.8v11.5h8.3v-129.2h86.5v-68.8h-103.1v68.8h-2.1v2.1M268.6,414.6h51.1v-129.2h-70.9v48.9l19.8,19.8v60.4M544.7,401h1.1v27.7l7.3,3.5v32.3l-7.3,2.1v136.5h-19.9v34.3h52.2v-62.5c-1.9-1.1-3.1-3.1-3.1-5.4s1.2-4.3,3.1-5.4v-32.7c-1.9-1.1-3.1-3.1-3.1-5.4s1.2-4.3,3.1-5.4v-32.7c-1.9-1.1-3.1-3.1-3.1-5.4s1.2-4.3,3.1-5.4v-29.1h34.4v43.7h52.1v-60.4h137.5v-84.4h2.1v-2.1h-159.1l-32.6,49v4.1l-6.2,8.3h-22.9l-4.2-5.2v-107.3h-34.4v107.3M354,396.9h17.8v68.7h-187.5v145.9h35.5v-16.7h161.3v-59.4h93.9v-172.9h-120.9v34.4M956.1,500h68.8v-68.7h-68.8v68.7M612.4,603.1h86.5v120.8h-34.4v25h-9.4v17.7h9.4v26h103.1v-189.6h154.1v-34.4l-34.1-34.4h-34.7v-8.3h-8.3v8.3h-77.1v-86.4h-52.1v60.4h-103.1v94.8M311.4,827.1h111.4v-34.4h103.1v34.4h69.8v-60.4h8.3v-17.7h-8.3v-59.4h-17.7v16.7h-119.8v-67.7h16.7v-69.8h-60.4v77h-60.1l-25.3,16.9v43.6h-34.4v104.1l16.7,16.7M801.9,645.8h2.1v-16.7h-2.1v16.7M139.5,671.9h94.7v8.2h8.4v-16.6h-103.1v8.3M234.2,758.3h8.4v-61.5h-8.4v61.5M491.5,964.6h69.8v-68.8h-69.8v68.8M699.9,0h-208.4v86.5h-138.5v122h34.4v41.6h-205.2v36.6h17.7v14.5H50.3l-.3.6-8.2,16.1h-14.8v191.8h103.1v100.9H27v54.3h59.3v42.7h116.8v49.9h-4.2v42.5l-36.1,35.9-.3.3v60.9h192.8v-34.4h100.9v137.5h226.1v-137.5h66.6v34.4h139.7v-139.7h-34.4v-84.3h32.2v34.4h139.7v-34.4h17.7v-34.4h12.5v-36.6h-72.9v-32.2h77.1v-70.9h-16.7v-66.6h16.7v-123h-68.8v-32.2h34.4v-70.9h-139.7v34.4h-117.6v-66.6h34.4v-87.6h-103.1V0h0ZM439.6,157.4h292.5v16.7h0v135.3h-84.3v-33.7l-.3-.3-34.4-34.4-.3-.3h-104.7v86.5h-84.3v-153.7l15.7-15.9h0ZM837.4,277.1h100.9v66.6h-86.5v129.2h-6.1v-10.5h0c0-.1-8.3-38.8-8.3-38.8v-146.4h0ZM249.9,286.5h68.7v127h-48.9v-59.8l-.3-.3-19.5-19.5v-47.4h0ZM545.7,294.9h32.2v106.6l.2.3,4.2,5.2.3.4h24l.3-.4,6.2-8.3.2-.3v-4.2l32.1-48.2h155.4v84.3h-137.5v60.4h-49.9v-43.7h-36.5v29.6c-1.9,1.4-3.1,3.6-3.1,6s1.2,4.6,3.1,6v31.5c-1.9,1.4-3.1,3.6-3.1,6s1.2,4.6,3.1,6v31.5c-1.9,1.4-3.1,3.6-3.1,6s1.2,4.6,3.1,6v60.8h-50v-32.2h19.9v-136.7l6.5-1.9.8-.2v-33.8l-.6-.3-6.7-3.2v-28.1h-1.1v-105.1h0ZM355.1,363.6h118.7v170.7h-93.9v59.4h-161.3v16.7h-33.3v-143.7h187.5v-70.9h-17.8v-32.2h0ZM957.2,432.3h66.6v66.6h-66.6v-66.6h0ZM716.6,449h49.9v86.4h79.3v-8.3h6.1v8.3h35.3l33.4,33.7v32.8h-154.1v189.6h-100.9v-26h-9.4v-15.5h9.4v-25h34.4v-123h-86.5v-92.6h103.1v-60.4h0ZM415.6,569.8h58.2v67.6h-16.7v69.9h122v-16.7h15.5v59.4h8.3v15.5h-8.3v60.4h-67.6v-34.4h-105.3v34.4h-109.9l-16.1-16.1v-102.5h34.4v-44.1l24.5-16.4h60.9v-77h0ZM140.6,664.6h101v14.4h-6.3v-8.2h-94.7v-6.1h0ZM235.3,697.9h6.3v59.4h-6.3v-59.4h0ZM492.6,896.9h67.6v66.6h-67.6v-66.6h0Z"/>
      </g>
    </g>
    <g id="Callouts">
      <text class="cls-8" transform="translate(555 55)"><tspan x="0" y="0">守方 重生点</tspan></text>
      <text class="cls-8" transform="translate(580.2 941.5)"><tspan x="0" y="0">攻方 重生点</tspan></text>
      <text class="cls-8" transform="translate(200 859.8)"><tspan x="0" y="0">B区 大厅</tspan></text>
      <text class="cls-8" transform="translate(102.9 696)"><tspan x="0" y="0">B区 高台</tspan></text>
      <text class="cls-8" transform="translate(263.4 640.5)"><tspan x="0" y="0">B区 大道</tspan></text>
      <text class="cls-8" transform="translate(402.5 560.4)"><tspan x="0" y="0">中区 拐角</tspan></text>
      <text class="cls-8" transform="translate(188.3 278.4)"><tspan x="0" y="0">B区 瞭望台</tspan></text>
      <text class="cls-8" transform="translate(475 460.8)"><tspan x="0" y="0">中区 图书馆</tspan></text>
      <text class="cls-8" transform="translate(488.9 683.6)"><tspan x="0" y="0">中区 坡底</tspan></text>
      <text class="cls-8" transform="translate(535.8 271.5)"><tspan x="0" y="0">中区 坡顶</tspan></text>
      <text class="cls-8" transform="translate(344.9 319.1)"><tspan x="0" y="0">B区 小道</tspan></text>
      <text class="cls-8" transform="translate(573.5 544.6)"><tspan x="0" y="0">中区 天桥</tspan></text>
      <text class="cls-8" transform="translate(661.4 479.1)"><tspan x="0" y="0">A区 通风口</tspan></text>
      <text class="cls-8" transform="translate(771.7 510.4)"><tspan x="0" y="0">A区 瞭望台</tspan></text>
      <text class="cls-8" transform="translate(791.5 819)"><tspan x="0" y="0">A区 大厅</tspan></text>
      <text class="cls-8" transform="translate(925.8 659.5)"><tspan x="0" y="0">A区 大道</tspan></text>
      <text class="cls-8" transform="translate(1009 479.1)"><tspan x="0" y="0">A区 窄桥</tspan></text>
      <text class="cls-8" transform="translate(756.8 302.2)"><tspan x="0" y="0">A区 小道</tspan></text>
      <text class="cls-8" transform="translate(900.5 251.7)"><tspan x="0" y="0">A区 保安室</tspan></text>
      <text class="cls-8" transform="translate(836.5 177.6)"><tspan x="0" y="0">A区 密道</tspan></text>
      <text class="cls-8" transform="translate(28.7 569)"><tspan x="0" y="0">中区 险路</tspan></text>
      <path id="B" class="cls-7" d="M156.2,394v-16.6c0-1.5.8-2.3,2.2-2.3h7c4,0,6.5,2.1,6.5,5.3s-1.7,4.3-4,4.6h0c2.9.3,5,2.4,5,5.3s-2.8,6.1-7.4,6.1h-7.2c-1.4,0-2.2-.9-2.2-2.3h0ZM163.9,383.9c2.4,0,3.7-1.1,3.7-2.8s-1.2-2.7-3.3-2.7h-3.7v5.5h3.2,0ZM164.5,393c2.6,0,3.9-1.1,3.9-3.1s-1.4-3.1-4.1-3.1h-3.7v6.2h3.8Z"/>
      <path id="A" class="cls-7" d="M1039.8,391.4c-1.2,0-1.8-.6-2.3-2l-1.1-3.3h-7.7l-1.1,3.4c-.4,1.4-1.1,2-2.3,2s-2.2-.9-2.2-2.1,0-.8.3-1.4l5.8-15.8c.6-1.7,1.7-2.5,3.4-2.5s2.7.8,3.3,2.5l5.8,15.8c.2.5.3,1.1.3,1.4,0,1.3-.9,2.1-2.3,2.1h0ZM1035.5,382.6l-2.8-8.7h-.1l-2.8,8.7h5.7Z"/>
    </g>
    <g id="Barrier">
      <line class="cls-10" x1="203.2" y1="753.5" x2="235.3" y2="753.5"/>
      <line class="cls-10" x1="241.5" y1="711.4" x2="295.8" y2="711.4"/>
      <line class="cls-10" x1="603" y1="757" x2="656.2" y2="757"/>
      <line class="cls-10" x1="766.5" y1="769.8" x2="888.4" y2="769.8"/>
      <line class="cls-9" x1="27" y1="510.4" x2="185.3" y2="510.4"/>
      <line class="cls-9" x1="507.9" y1="298.7" x2="545.7" y2="298.7"/>
      <line class="cls-9" x1="578" y1="350" x2="645.1" y2="350"/>
      <line class="cls-9" x1="428" y1="327" x2="428" y2="363.6"/>
      <line class="cls-9" x1="920.7" y1="584.8" x2="983.2" y2="584.8"/>
      <line class="cls-9" x1="762.4" y1="430.2" x2="762.4" y2="449"/>
    </g>
  </g>
</svg>