<?xml version="1.0" encoding="UTF-8"?>
<svg id="_图层_1" data-name=" 图层 1" xmlns="http://www.w3.org/2000/svg" version="1.1" viewBox="0 0 1100 1000">
  <defs>
    <style>
      .cls-1, .cls-2, .cls-3, .cls-4, .cls-5, .cls-6, .cls-7 {
        fill: none;
      }

      .cls-1, .cls-2, .cls-3, .cls-7, .cls-8 {
        stroke: #b0adb0;
      }

      .cls-1, .cls-8 {
        stroke-width: 1.5px;
      }

      .cls-2 {
        stroke-miterlimit: 4;
        stroke-width: 1.5px;
      }

      .cls-3 {
        stroke-miterlimit: 4;
        stroke-width: 1.5px;
      }

      .cls-9 {
        fill: #575548;
      }

      .cls-9, .cls-10, .cls-11, .cls-12 {
        stroke-width: 0px;
      }

      .cls-4 {
        stroke: #656569;
        stroke-width: 1.6px;
      }

      .cls-5 {
        stroke: #814194;
      }

      .cls-5, .cls-6 {
        opacity: .8;
        stroke-miterlimit: 10;
        stroke-width: 10px;
      }

      .cls-5, .cls-6, .cls-13 {
        isolation: isolate;
      }

      .cls-10 {
        fill: #b0adb0;
      }

      .cls-6 {
        stroke: #6bc3c0;
      }

      .cls-7 {
        stroke-dasharray: 0 5.1;
        stroke-width: 1.5px;
      }

      .cls-11, .cls-8 {
        fill: #33353b;
      }

      .cls-12, .cls-13 {
        fill: #fff;
      }

      .cls-13 {
        font-family: SimHei, SimHei;
        font-size: 16px;
      }
    </style>
  </defs>
  <g id="Body">
    <path class="cls-11" d="M1002.7,210.5h-105.1v8.1h-15.2v-16.2h-58.3c-31.8.5-48,28.2-48,51.4v19.6h-14.3v-78h-144.9V46.4L583.4.8h-92.2s-7,10.1-7,10.1v113.5h-232.1l-29.4,28.5v34.3H55.5v56.8h0v40.5h39.5v-19.3h7.1v30.5h-31.4v112.3l29.4,28.4h17.2v23.3h-23.3v86.1h133.7v-31.4h30.4v77h-23.3v102.7c.3,35.7,29,54.1,53.6,54.4h77.1v7.1h-2v55.7h2v7.1h-8.1v16.8c.2,28.7,22.8,41.5,45.5,41.8h73v97.7c0,13.5,10.8,24.3,24.3,24.3h45.6c13.5,0,24.3-10.8,24.3-24.3v-144.2h-4.1v-19.3h207.7c17,0,23.3-13.9,23.3-19.1v-113.6h-24.4v-86.2h31.6v24.3h101.3v-79h-23.3v-33h0v-44h30.4v23.1c0,3.4,6.1,8.3,9.1,8.3h59.3c20-.1,33.9-14.1,33.9-31.4v-79h-31.4v-15.2h31.4v-46.6l13-9.2h8l10.4-4v-48.7c.2-20.2-30-48.3-43.8-47.6ZM714.2,241.9v62.8h112.5v14.2h-127.7v-58.8l-4-3h-78.1v-15.3s97.4,0,97.4,0ZM594.4,339.1l22.4-22.3v-36.4s58.9,0,58.9,0v19.3h-24.5s-11-.1-11,15.2v91.2h15.2v47.4l-21.3,21.6h-94.3v-18.3h23.3v-102.3h-23.4v-15.3h54.6ZM457.8,305.1v-133.2h116.6v144h-19.3v-24.3h-79v24.3h-18.3v-10.8ZM492.3,339.1v15.3h-8.1v42.6h-69.9v27.4h-38.5v-92.9h0v-43h20.2l10.3-11.2h8v38.7l23.3,23.1h54.7ZM278.4,226.7h4.1v-16.2h7.2v16.2h62.7l23.4-27.3v-27.4s38.6,0,38.6,0v81.2h-7l-11.3-12.1h-67.8v102.3h23.2v14.2h-68.9v-41.6h19.3v-75h-23.4v-14.2ZM181.2,226.7h66.9v14.2h-66.9v-14.2ZM179.1,351.3h17.2v-39.4h-17.2v-15.3h53.7v70h-53.7v-15.3ZM86.9,240.9v-22.3h46.6v22.3h-46.6ZM344.3,631l-19.8,19.8-11.7-11.7v-32.4h0v-117.5l-29.4-29.4h-95.2v15.2h-23.4v-38.5h31.4v-15.2h109.4v-31.4h22.3v66.9h175.3v18.3h-27.3v101.3h-23.3v31.5h-14.4v-31.4h-94v54.7ZM640.2,764.8h-113.5v46.6h4v18.3h-104.8c-10.1,0-14.9-11.2-14.9-11.2h-10v-7.1h2v-55.7h-2v-7.1h6.1v-59.8h-44.6l-13.9-13.9,35.9-35.9h91.6s38.6,0,38.6,0v94.3h110.3v-39.5h15.3v71ZM733.7,755.3c-4.1,0-7.4-3.3-7.4-7.4s3.3-7.4,7.4-7.4,7.4,3.3,7.4,7.4-3.3,7.4-7.4,7.4ZM834.8,537.8h-23.3v7.1h-7v8.1h-31.6v-23.3h-51.6l-11.1,8.2v85h-16.3v44.5h16.3v10.3h-31.5v50.6h-7.1v-74h-65.9c0,0-12.1,0-12.1,0v-14.4h23.2v-102.2h-23.2v-15.4h78.1c17.2,0,31.3-16.3,31.3-30v-72.2h-15.2v-14.3h27.8c11.2,0,10.7-12.6,10.7-12.6v-42.2s38.6,0,38.6,0v124.7h14.4c6.6.3,24.7,3.3,24.1,26.9v12.6h31.4v22.3ZM952.3,428.4h-70v-61.8h70v61.8ZM988.1,284.4l-.7,1.2-1.6,2.9h-49.6v30.4h-60.9v-14.2h7.1v-54.7h14.2v8.1h66.4s13.8,7.7,26.6,23.8l-1.5,2.5Z"/>
  </g>
  <g id="Bombsite">
    <path class="cls-9" d="M951.7,366.5v14.3h-.4s0,46.6,0,46.6h-10.7s-28,0-28,0v33.8h-.7c0,0,0,23.1,0,23.1l1.8,4.4,3.9,3,4.1,1.5,9.3-.2h53.2c0,.1,6.8-1.1,6.8-1.1l8.3-3.1,6.9-5,4.7-5.6,3-5.5,1.9-8.1v-14s0-18.3,0-18.3l.2-17.6-.3-33.6h-31.5v-14.5h-32.5Z"/>
    <path class="cls-9" d="M102.2,240.1v54.5h-32.1v21.8h0v34.9h126.9v-40.8h-16.8v-13.9h52.6v-56.4H102.2Z"/>
  </g>
  <rect class="cls-11" x="117" y="340.5" width="15.5" height="15.5" transform="translate(-157.4 109) rotate(-30)"/>
  <g id="Lines">
    <g>
      <rect class="cls-10" x="117.8" y="186.8" width="1.1" height="32.3"/>
      <rect class="cls-10" x="132.9" y="239.6" width="49.2" height="1.2"/>
      <rect class="cls-10" x="221.6" y="186.4" width="1.1" height="40.9"/>
    </g>
    <path class="cls-7" d="M134.6,227.3h46"/>
    <g>
      <rect class="cls-8" x="188.4" y="240.1" width="15.1" height="16.1"/>
      <rect class="cls-8" x="70" y="294.8" width="16.9" height="17"/>
      <rect class="cls-8" x="86.9" y="294.9" width="8.3" height="10"/>
    </g>
    <g>
      <rect class="cls-2" x="106.1" y="352.8" width="15.5" height="15.5" transform="translate(-165 105.3) rotate(-30)"/>
      <rect class="cls-2" x="117" y="340.5" width="15.5" height="15.5" transform="translate(-157.4 109) rotate(-30)"/>
      <rect class="cls-1" x="197.1" y="406" width="14.7" height="16.1"/>
    </g>
    <rect class="cls-10" x="93.2" y="530.2" width="135.3" height="1.2"/>
    <g>
      <rect class="cls-1" x="257.4" y="537.2" width="16.4" height="15.8"/>
      <rect class="cls-1" x="385.3" y="623.5" width="14.7" height="16.3"/>
      <g>
        <rect class="cls-1" x="475.3" y="560.3" width="17.4" height="15.2"/>
        <circle class="cls-1" cx="537.1" cy="586.9" r="12.8" transform="translate(-183.7 250.2) rotate(-22.5)"/>
        <rect class="cls-1" x="513.9" y="639.8" width="33.3" height="14.4"/>
        <rect class="cls-1" x="513.9" y="654.2" width="10.6" height="9"/>
        <rect class="cls-1" x="360.5" y="289.2" width="16" height="14.4"/>
      </g>
    </g>
    <rect class="cls-10" x="491.5" y="352.8" width="49.2" height="1.6"/>
    <g>
      <g>
        <path class="cls-7" d="M493.1,339.9h46"/>
        <path class="cls-7" d="M828,305.4h46"/>
        <path class="cls-7" d="M828,318.1h46"/>
      </g>
      <g>
        <rect class="cls-1" x="512.5" y="828.8" width="14.4" height="16.2"/>
        <g>
          <rect class="cls-1" x="475.3" y="908.9" width="5.9" height="16.7"/>
          <rect class="cls-1" x="513.3" y="994.1" width="16.7" height="5.8"/>
          <polygon class="cls-1" points="564.2 955.2 571.1 955.2 571.1 970.4 564.1 970.4 564.2 955.2"/>
        </g>
        <rect class="cls-1" x="540.6" y="474.2" width="13.6" height="32.9"/>
      </g>
    </g>
    <path class="cls-10" d="M654.2,450.5v23.2h-23.4v1.2h24.6v-24.5h-1.2Z"/>
    <g>
      <rect class="cls-1" x="639.4" y="358.4" width="15.3" height="48.5"/>
      <rect class="cls-1" x="639.4" y="351.2" width="8.9" height="7.2"/>
      <polygon class="cls-3" points="792.6 408.3 820.2 398.6 824.8 412 797.2 421.7 792.6 408.3"/>
      <g>
        <rect class="cls-1" x="764.1" y="459.7" width="16" height="17.1"/>
        <circle class="cls-1" cx="733.7" cy="747.9" r="7.4"/>
        <rect class="cls-1" x="709.4" y="647.4" width="9.7" height="16"/>
      </g>
    </g>
    <rect class="cls-10" x="708.6" y="621.7" width="1.6" height="49.2"/>
    <g>
      <rect class="cls-1" x="758" y="593.2" width="15.7" height="14.5"/>
      <rect class="cls-1" x="548" y="353.6" width="16" height="31.1"/>
      <g>
        <rect class="cls-1" x="540.6" y="353.6" width="7.4" height="15.9"/>
        <rect class="cls-1" x="559.1" y="155.8" width="14.5" height="17"/>
        <rect class="cls-1" x="494.3" y="0" width="15.6" height="6"/>
        <rect class="cls-1" x="521.7" y="0" width="15.6" height="6"/>
        <rect class="cls-1" x="564.3" y="0" width="16.1" height="6"/>
        <circle class="cls-1" cx="550.2" cy="3.1" r="2.8"/>
        <rect class="cls-1" x="812.4" y="289.5" width="13.5" height="16"/>
        <rect class="cls-1" x="920.1" y="318.1" width="15.2" height="16.9"/>
      </g>
    </g>
    <rect class="cls-8" x="999" y="380.9" width="16.9" height="15.9"/>
    <rect class="cls-8" x="968.5" y="444.4" width="14.1" height="15.7"/>
  </g>
  <g id="Outlines">
    <path class="cls-4" d="M490.8,0l-7.4,10.7v112.9h-231.6l-29.9,29v33.9H54.7v58.4h0v40.5h41.1v-19.3h5.5v28.8h-31.4v113.5l29.9,28.9h16.7v21.7h-23.3v87.7h135.3v-31.4h28.8v75.4h-23.3v103.5c.3,36.2,29.4,54.9,54.4,55.2h76.3v5.5h-2v57.3h2v5.5h-8.1v17.6c.2,29.2,23.2,42.3,46.3,42.7h72.2v96.9c0,13.9,11.2,25.1,25.1,25.1h45.6c13.9,0,25.1-11.2,25.1-25.1v-145h-4.1v-17.7h206.9c17.3,0,24.1-14.1,24.1-19.9v-114.4h-24.4v-84.6h29.9v24.3h102.9v-80.6h-23.3v-33h0v-42.4h28.8v22.3c0,3.9,6.4,9.1,9.9,9.1h59.3c20.4-.1,34.7-14.4,34.7-32.2v-79.8h-31.4v-13.6h31.4v-46.9l12.5-8.8h7.9l11.1-4.3v-49.2c0-4.2-1.2-8.7-3.2-13.1-4.1-8.9-11.6-17.8-19.4-24.5-7.7-6.5-16.1-11.1-21.9-10.8h-105.9v8.1h-13.6v-16.2h-59.1c-32.3.5-48.8,28.6-48.8,52.2v18.8h-12.6v-78h-144.9V46.2L583.8,0h-93ZM376.5,172.8h37v79.5h-5.9l-11.3-12.1h-68.9v103.9h23.2v12.6h-67.3v-39.9h19.3v-76.6h-23.4v-12.6h4.1v-16.2h5.5v16.2h63.9l23.8-27.8v-26.9ZM458.6,172.8h114.9v142.3h-17.7v-24.3h-80.6v24.3h-16.6v-142.3ZM87.7,219.4h45v20.7h-45v-20.7ZM182,227.5h65.3v12.6h-65.3v-12.6ZM617.7,242.7h95.7v62.8h112.5v12.6h-126.1v-58.4l-4.6-3.4h-77.5v-13.6ZM883.2,250.8h12.6v8.1h67c.2.1.3.2.9.6.5.3,1.1.7,1.9,1.2,1.3.9,2.9,2,4.8,3.4,3.1,2.4,6.9,5.6,10.9,9.7,2.4,2.4,4.8,5.2,7.3,8.2l-1.2,2.1-.7,1.2-1.4,2.4h-50v30.4h-59.3v-12.6h7.1v-54.7ZM406.6,278.1h6.9v38.2l23.8,23.6h54.2v13.6h-8.1v42.6h-69.9v27.4h-36.9v-92.9h0v-41.4h19.8l10.3-11.2ZM617.7,281.2h57.2v17.7h-23.7c-.3,0-.8,0-1.3.1-3.1.5-10.5,3.1-10.5,15.9v92h15.2v46.3l-20.8,21.1h-93.1v-16.7h23.3v-103.9h-23.4v-13.6h54.2l22.9-22.8v-35.9ZM179.9,297.4h52.1v68.4h-52.1v-13.6h17.2v-41.1h-17.2v-13.7ZM727.1,352.1h36.9v124.7h15.2c3.2.1,9.2,1,14.3,4.6,2.5,1.8,4.8,4.3,6.5,7.8,1.7,3.5,2.7,8,2.5,13.8h0v13.4h31.4v20.7h-23.3v7.1h-7v8.1h-29.9v-23.3h-52.7l-11.6,8.6v84.6h-16.3v46.2h16.3v8.6h-31.5v50.6h-5.5v-74h-67.5c0,0-10.4,0-10.4,0v-12.7h23.2v-103.8h-23.2v-13.7h77.3c17.6,0,32.1-16.6,32.1-30.9v-73h-15.2v-12.6h27c7.2,0,9.9-4.9,11-8.8.4-1.5.6-3.4.6-4.6h0s0-41.3,0-41.3ZM883.2,367.3h68.3v60.2h-68.3v-60.2ZM306.6,390.6h20.7v66.9h175.3v16.7h-27.3v101.3h-23.3v31.5h-12.8v-31.4h-95.7v55.2l-19,19-10.9-10.9v-31.3h0v-118.7l-29.9-29.8h-96.3v15.2h-21.7v-36.9h31.4v-15.2h109.4v-31.4ZM384.9,639.8h90.4s38.6,0,38.6,0v94.3h111.9v-39.5h13.6v69.4h-113.5v48.2h4v16.7h-104c-1.9,0-3.6-.4-5.1-1.1-1.2-.5-2.3-1.2-3.3-2-1.9-1.6-3.4-3.5-4.4-5-.4-.6-.7-1.1-.9-1.6q-.3-.6-.5-1l-.2-.5h-9.7v-5.5h2v-57.3h-2v-5.5h6.1v-61.4h-45l-13.1-13.1,35.1-35.1Z"/>
  </g>
  <g id="Callouts">
    <text class="cls-13" transform="translate(504.5 73.6)"><tspan x="0" y="0">守方 重生点</tspan></text>
    <text class="cls-13" transform="translate(652.9 223.6)"><tspan x="0" y="0">A区 大堂</tspan></text>
    <text class="cls-13" transform="translate(801 256.7)"><tspan x="0" y="0">A区 画架</tspan></text>
    <text class="cls-13" transform="translate(957.6 244.1)"><tspan x="0" y="0">A区 洞穴</tspan></text>
    <text class="cls-13" transform="translate(789.1 374.8)"><tspan x="0" y="0">A区 花园</tspan></text>
    <text class="cls-13" transform="translate(750.3 577.7)"><tspan x="0" y="0">A区 大道</tspan></text>
    <text class="cls-13" transform="translate(703.8 774.9)"><tspan x="0" y="0">A区 大厅</tspan></text>
    <text class="cls-13" transform="translate(532.9 702.6)"><tspan x="0" y="0">中区 坡顶</tspan></text>
    <text class="cls-13" transform="translate(507 558.5)"><tspan x="0" y="0">中区 喷泉</tspan></text>
    <text class="cls-13" transform="translate(613.8 502.9)"><tspan x="0" y="0">中区 拐角</tspan></text>
    <text class="cls-13" transform="translate(453.9 431.1)"><tspan x="0" y="0">中区 坡底</tspan></text>
    <text class="cls-13" transform="translate(477 319.5)"><tspan x="0" y="0">中区 窗户</tspan></text>
    <text class="cls-13" transform="translate(331.9 266.7)"><tspan x="0" y="0">B区 奖杯</tspan></text>
    <text class="cls-13" transform="translate(318.3 425.4)"><tspan x="0" y="0">B区 小道</tspan></text>
    <text class="cls-13" transform="translate(347.7 605.9)"><tspan x="0" y="0">中区 青砖路</tspan></text>
    <text class="cls-13" transform="translate(259.4 693.8)"><tspan x="0" y="0">B区 大厅</tspan></text>
    <text class="cls-13" transform="translate(118.7 505.9)"><tspan x="0" y="0">B区 大道</tspan></text>
    <text class="cls-13" transform="translate(39.3 238.2)"><tspan x="0" y="0">B区 下坡</tspan></text>
    <text class="cls-13" transform="translate(134.6 213.7)"><tspan x="0" y="0">B区 高台</tspan></text>
    <text class="cls-13" transform="translate(252.5 169.5)"><tspan x="0" y="0">B区 健身房</tspan></text>
    <text class="cls-13" transform="translate(480.1 943.1)"><tspan x="0" y="0">攻方 重生点</tspan></text>
    <text class="cls-13" transform="translate(657.1 361.7)"><tspan x="0" y="0">A区 小道</tspan></text>
    <path class="cls-12" d="M131.3,311.9h9.3c5.9,0,9.5-3,9.5-7.9s-2.8-6.4-6.5-6.7v-.2c2.9-.4,5.2-3,5.2-6s-3.3-6.9-8.4-6.9h-9.1c-1.8,0-2.9,1.1-2.9,3v21.6c0,1.9,1.1,3,2.9,3h0ZM134.2,295.8v-7.2h4.7c2.7,0,4.2,1.3,4.2,3.5s-1.8,3.7-4.8,3.7h-4.2ZM134.2,307.6v-8h4.8c3.4,0,5.3,1.4,5.3,4s-1.8,4.1-5.1,4.1h-5Z"/>
    <path class="cls-12" d="M933.5,472.9c1.5,0,2.4-.8,2.9-2.6l1.5-4.3h10l1.5,4.4c.5,1.8,1.4,2.5,3,2.5s2.9-1.1,2.9-2.7,0-1.1-.4-1.8l-7.6-20.5c-.8-2.3-2.2-3.3-4.4-3.3s-3.5,1-4.3,3.3l-7.5,20.5c-.2.7-.4,1.4-.4,1.8,0,1.7,1.1,2.7,2.9,2.7h0ZM939.1,461.5l3.6-11.3h.1l3.7,11.3h-7.4Z"/>
  </g>
  <g id="Barrier">
    <line class="cls-5" x1="166.4" y1="441.4" x2="115.9" y2="441.4"/>
    <line class="cls-5" x1="409.3" y1="458.4" x2="409.3" y2="422.8"/>
    <line class="cls-5" x1="541.4" y1="344.2" x2="490.8" y2="344.2"/>
    <line class="cls-5" x1="689.3" y1="416.7" x2="653.9" y2="416.7"/>
    <line class="cls-5" x1="883.9" y1="505.3" x2="801.8" y2="505.3"/>
    <line class="cls-6" x1="774.5" y1="672.6" x2="708.6" y2="672.6"/>
    <line class="cls-6" x1="673.2" y1="723.4" x2="638.7" y2="723.4"/>
    <line class="cls-6" x1="314.5" y1="586.5" x2="256.6" y2="586.5"/>
    <line class="cls-6" x1="365.6" y1="660.2" x2="339.6" y2="633.6"/>
  </g>
</svg>