<?xml version="1.0" encoding="UTF-8"?>
<svg id="_图层_1" data-name="图层 1" xmlns="http://www.w3.org/2000/svg" version="1.1" viewBox="0 0 1100 1000">
  <defs>
    <style>
      .cls-1 {
        fill: #32343b;
      }

      .cls-1, .cls-2, .cls-3, .cls-4, .cls-5 {
        stroke-width: 0px;
      }

      .cls-2 {
        fill: #575548;
      }

      .cls-3 {
        fill: #646568;
      }

      .cls-6 {
        opacity: .8;
      }

      .cls-7 {
        stroke: #afabae;
        stroke-width: .5px;
      }

      .cls-7, .cls-8, .cls-9 {
        fill: none;
        stroke-miterlimit: 10;
      }

      .cls-4 {
        fill: #afabae;
      }

      .cls-8 {
        stroke: #814194;
      }

      .cls-8, .cls-9 {
        stroke-width: 10px;
      }

      .cls-9 {
        stroke: #6bc3c0;
      }

      .cls-5, .cls-10 {
        fill: #fff;
      }

      .cls-10 {
        font-family: SimHei, SimHei;
        font-size: 16px;
        isolation: isolate;
      }
    </style>
  </defs>
  <g id="_进攻-盐海矿镇" data-name="进攻-盐海矿镇">
    <g id="Body">
      <path class="cls-1" d="M902.3,519.3v-29.8h88.3v-58.5h-29.8v-7.3h29.8v-154h-59.5v28.8h-7.2v-43.1h-87.3v-29.8h36v-117.1h-146.9v28.8h-58.5V57h-90.4V.5h-65.7v56.5h-78.1v80.1h-118.1v-28.8h-145.9v88.3h36v28.8h-95.5v58.5h0v88.3h88.3v29.8h-28.8v58.5h36v28.8h-35.9v74h138.6v-29.9h7.2v74.6h-28.8v116.5h117.1v68.8h-28.8v107.3l126.3,44.3v51.3l2.6,3.1h95.5l2.1-3.1v-56.9c10.6-3.9,17.3-9.3,17.3-9.3l71.6-46.8v-5.6h36v-79.6h-28.8v-44.7h117.1v-117.1h117.1v-88.3h-35.9v-28.8h7.2,0ZM931.1,328.2v102.7h-117.1v-58.6h7.2v51.4h102.7v-95.5h7.2ZM792.4,225.5v29.8h-37v58.5h117.1v28.8h-117.1v74h-58.5v-29.8h-74v95.5h15.4v7.2h-30.8s-28.8,0-28.8,0v-4.1h26.7v-54.4h-33.9v-29.3h22.6v-59.1h-29.8v-28.8h74v-88.3h58.5v-29.8h80.1v-28.8h8.2v58.5h7.2,0ZM491.5,243v-47.3l30.3-57h56.5l30.3,56.5v88.8h-117.1v-41h0ZM249.1,196.7h7.2v-29.8h7.2v29.8h139.7v28.8h58.5v66.3h0v22h74v28.8h-44.2v29.8h-7.2v-22.6h-81.1v22.6h-58.6v-9.2h0v-49.3h-29.8v-14.4h29.8v-44.2h-88.3v-29.8h-7.2v-28.8h0ZM168.9,284h117.1v29.8h-109.9v28.8h-7.2v-58.5h0ZM344.5,659h29.8v-169.5h-125.3v-28.8h125.3v-59.6h28.8v22.6h37.5l21.5-22.6h17.6c0,0,48.7,0,48.7,0v29.7h-37v88.3h28.8v28.8h-28.8v58.5h28.8v68.6h0v19.8h-58.6v-28.8h-117.1v-7.2h0ZM638.4,832.1v9.7h-176.7v-48.3h0v-67.8h6.2v27.8h140.7v-88.3h29.8v166.9ZM843.8,548v29.8h-29.8v-29.8h-88.3v146.9h-28.8v-58.5h-118.1v-29.8h28.8v-87.8h6.2v29.3h83.2v-58.5h-30.3v-44.2h59.1v44.2h60.7c.6.5,54.9,29.8,54.9,29.8h9.8v28.8h-7.2Z"/>
    </g>
    <g id="Bombsite">
      <rect class="cls-2" x="821.2" y="342.6" width="102.8" height="81.2"/>
      <polygon class="cls-2" points="288.1 416.4 288.1 410 303.2 410 303.2 364.9 288.1 364.9 288.1 358 316.6 358 316.6 343.6 288.1 343.6 273.6 343.6 229.4 343.6 229.4 372.5 243.9 372.5 243.9 401.9 229.4 401.9 229.4 431.4 286 431.4 288.1 431.4 316.8 431.4 316.8 416.4 288.1 416.4"/>
    </g>
    <g id="Lines">
      <path class="cls-4" d="M563.6,983.6l12.1,10.2v5.6h-24.1v-5.6l12.1-10.2M563.6,983l-12.6,10.7v6.4h25.1v-6.4l-12.6-10.7h0Z"/>
      <path class="cls-4" d="M555.6,881.3l7.5,13.3-7.5,13.3h-15l-7.5-13.3,7.5-13.3h15M555.9,880.8h-15.6l-7.8,13.9,7.8,13.9h15.6l7.8-13.9-7.8-13.9h0Z"/>
      <polygon class="cls-7" points="467.5 915.6 458.3 912.3 454.5 923 449.2 927.4 464.2 932.6 463.7 926.3 467.5 915.6"/>
      <polygon class="cls-7" points="644.8 894.3 637.5 899.1 643.6 907.6 644.1 913.5 655.7 905.9 650.8 902.8 644.8 894.3"/>
      <path class="cls-4" d="M597.3,841.8v5.6h-6.2v-5.6h6.2M597.8,841.3h-7.2v6.7h7.2v-6.7h0Z"/>
      <path class="cls-4" d="M377.4,819.7v4.1h-3.1v-4.1h3.1M378,819.2h-4.1v5.1h4.1v-5.1h0Z"/>
      <path class="cls-4" d="M651.7,739.6v28.8h-13.4v-28.8h13.4M652.2,739.1h-14.4v29.8h14.4v-29.8h0Z"/>
      <path class="cls-4" d="M776.5,739.6v13.9h-13.4v-13.9h13.4M777,739.1h-14.4v14.9h14.4v-14.9h0Z"/>
      <path class="cls-4" d="M740.6,681v13.3h-14.9v-13.3h14.9M741.1,680.5h-15.9v14.4h15.9v-14.4h0Z"/>
      <path class="cls-4" d="M608.6,738v15.4h-58.1v-15.4h58.1M609.1,737.5h-59.1v16.5h59.1v-16.5h0Z"/>
      <path class="cls-4" d="M545.7,738c2.1,0,3.8,1.7,3.8,3.8s-1.7,3.8-3.8,3.8-3.8-1.7-3.8-3.8,1.7-3.8,3.8-3.8M545.7,737.5c-2.4,0-4.4,2-4.4,4.4s2,4.4,4.4,4.4,4.4-2,4.4-4.4-2-4.4-4.4-4.4h0Z"/>
      <path class="cls-4" d="M461.7,666.1v13.9h-13.9v-13.9h13.9M462.2,665.6h-14.9v14.9h14.9v-14.9h0Z"/>
      <path class="cls-4" d="M322.5,718v6.7h-14.4v-6.7h14.4M323,717.5h-15.4v7.7h15.4v-7.7h0Z"/>
      <path class="cls-4" d="M535.1,644.1v13.3h-14.9v-13.3h14.9M535.6,643.6h-15.9v14.3h15.9v-14.3h0Z"/>
      <path class="cls-4" d="M879.2,622.5v13.9h-13.3v-13.9h13.3M879.7,622h-14.4v14.9h14.4v-14.9h0Z"/>
      <path class="cls-4" d="M182.8,548.5v14.9h-13.9v-14.9h13.9M183.3,548h-14.9v15.9h14.9v-15.9h0Z"/>
      <path class="cls-4" d="M271.1,489.5v14.9h-14.3v-14.9h14.3M271.6,488.9h-15.4v15.9h15.4v-15.9h0Z"/>
      <path class="cls-4" d="M271.1,341v2.1h-42.1v29.8h14.4v28.8h-14.4v30.3h42.1v2h-44.2v-93h44.2M271.7,340.5h-45.2v94h45.2v-3.1h-42.1v-29.3h14.4v-29.8h-14.4v-28.8h42.1v-3.1h0Z"/>
      <path class="cls-4" d="M607.5,555.7v14.4h-13.4v-14.4h13.4M608.1,555.2h-14.4v15.4h14.4v-15.4h0Z"/>
      <path class="cls-4" d="M578.8,485.9v3.1h-25.2v58.6h-3.1v-61.6h28.2M579.3,485.4h-29.3v62.7h4.1v-58.6h25.2v-4.1h0Z"/>
      <path class="cls-4" d="M560.8,512.6v13.3h-6.2v-13.3h6.2M561.3,512.1h-7.2v14.4h7.2v-14.4h0Z"/>
      <path class="cls-4" d="M336.9,445.8v14.9h-13.4v-14.9h13.4M337.4,445.3h-14.4v15.9h14.4v-15.9h0Z"/>
      <path class="cls-4" d="M124.3,291.7v14.4h-14.9v-14.4h14.9M124.8,291.2h-15.9v15.4h15.9v-15.4h0Z"/>
      <path class="cls-4" d="M182.8,270.2v13.9h-13.3v-13.9h13.3M183.3,269.7h-14.4v14.9h14.4v-14.9h0Z"/>
      <path class="cls-4" d="M255.7,248.6v13.4h-6.2v-13.4h6.2M256.2,248.1h-7.2v14.4h7.2v-14.4h0Z"/>
      <path class="cls-4" d="M564.4,329.2v7.7h-28.8v-7.7h28.8M564.9,328.7h-29.8v8.7h29.8v-8.7h0Z"/>
      <path class="cls-4" d="M814,636.9v24.6h-13.8v-14.4h-29.8v-10.3h43.6M814.5,636.4h-44.7v11.3h29.8v14.4h14.9v-25.7h0Z"/>
      <path class="cls-4" d="M916.7,461.2v27.7h-13.9v-27.7h13.9M917.2,460.7h-14.9v28.8h14.9v-28.8h0Z"/>
      <path class="cls-4" d="M791.4,477.4l12.7,6.9-6.3,11.5-11.4-6.2h-.1c0,0-.1,0-.1,0h-.2s-1.2,0-1.2,0l6.6-12.1M791.2,476.7l-7.2,13.3h2.2s11.8,6.5,11.8,6.5l6.8-12.4-13.6-7.4h0Z"/>
      <path class="cls-4" d="M946,365.7v13.3h-14.9v-13.3h14.9M946.5,365.2h-15.9v14.4h15.9v-14.4h0Z"/>
      <g>
        <rect class="cls-1" x="909.8" y="372.6" width="14.4" height="13.9"/>
        <path class="cls-4" d="M923.9,372.9v13.4h-13.9v-13.4h13.9M924.4,372.4h-14.9v14.4h14.9v-14.4h0Z"/>
      </g>
      <g>
        <rect class="cls-1" x="858.4" y="342.3" width="13.9" height="15.4"/>
        <path class="cls-4" d="M872,342.6v14.9h-13.3v-14.9h13.3M872.5,342.1h-14.4v15.9h14.4v-15.9h0Z"/>
      </g>
      <path class="cls-4" d="M820.7,298.9v14.9h-13.3v-14.9h13.3M821.2,298.4h-14.4v15.9h14.4v-15.9h0Z"/>
      <rect class="cls-4" x="137.6" y="283.5" width="2.1" height="88.8"/>
      <rect class="cls-4" x="255.7" y="255.3" width="2" height="28.8"/>
      <polygon class="cls-4" points="314.8 313.8 314.8 319.5 286 319.5 286 313.8 284 313.8 284 321.5 285 321.5 286 321.5 314.8 321.5 316.6 321.5 316.8 321.5 316.8 313.8 314.8 313.8"/>
      <rect class="cls-4" x="917.1" y="460.7" width="15" height="2"/>
      <path class="cls-4" d="M316.3,358.5v57.5h-27.7v-5.7h14.9v-46.1h-14.9v-5.7h27.7M316.8,358h-28.8v6.7h14.9v45.1h-14.9v6.7h28.8v-58.5h0Z"/>
      <polygon class="cls-7" points="580 401.9 594.5 386.9 594.5 401.9 580 401.9"/>
      <path class="cls-4" d="M443.8,666.1c1.8.4,3.1,2,3.1,3.8s-1.8,3.9-3.9,3.9-3.9-1.8-3.9-3.9,1.3-3.4,3.1-3.8h1.7M443.9,665.6h-1.8c-2,.4-3.5,2.2-3.5,4.3s2,4.4,4.4,4.4,4.4-2,4.4-4.4-1.5-3.9-3.5-4.3h0Z"/>
      <path class="cls-4" d="M545.7,746.2c2.1,0,3.8,1.6,3.8,3.7s-1.2,3.2-3,3.6h-1.8c-1.7-.4-3-1.9-3-3.6s1.7-3.7,3.8-3.7M545.7,745.7c-2.4,0-4.4,1.9-4.4,4.2s1.5,3.7,3.4,4.1h1.9c2-.4,3.4-2.1,3.4-4.1s-2-4.2-4.4-4.2h0Z"/>
    </g>
    <g id="Outlines">
      <path class="cls-3" d="M576.7.5v56.5h90.4v80.1h58.5v-28.8h146.9v117.1h-36v29.8h87.3v43.1h7.2v-28.8h59.5v154h-29.8v7.3h29.8v58.5h-88.3v29.8h-7.2v28.8h35.9v88.3h-117.1v117.1h-117.1v44.7h28.8v79.6h-36v5.6l-71.6,46.8s-6.7,5.4-17.3,9.3v56.9l-2.1,3.1h-95.5l-2.6-3.1v-51.3l-126.3-44.3v-107.3h28.8v-68.8h-117.1v-116.5h28.8v-74.6h-7.2v29.9h-138.6v-74h35.9v-28.8h-36v-58.5h28.8v-29.8h-88.3v-88.3h0v-58.5h95.5v-28.8h-36v-88.3h145.9v28.8h118.1V57h78.1V.5h65.7M491.5,284h117.1v-88.8l-30.3-56.5h-56.5l-30.3,57v88.3M564.4,342.6h29.8v59.1h-22.6v29.3h33.9v54.4h-26.7v4.1h28.8s30.8,0,30.8,0v-7.2h-15.4v-95.5h74v29.8h58.5v-74h117.1v-28.8h-117.1v-58.5h37v-29.8h-7.2v-58.5h-8.2v28.8h-80.1v29.8h-58.5v88.3h-74v28.8M249.1,225.5h7.2v29.8h88.3v44.2h-29.8v14.4h29.8v49.3h0v9.2h58.6v-22.6h81.1v22.6h7.2v-29.8h44.2v-28.8h-74v-22h0v-66.3h-58.5v-28.8h-139.7v-29.8h-7.2v29.8h-7.2v28.8M168.9,342.6h7.2v-28.8h109.9v-29.8h-117.1v58.5M821.2,423.7v-51.4h-7.2v58.6h117.1v-102.7h-7.2v95.5h-102.7M403.1,423.7v-22.6h-28.8v59.6h-125.3v28.8h125.3v169.5h-29.8v7.2h117.1v28.8h58.6v-19.8h0v-68.6h-28.8v-58.5h28.8v-28.8h-28.8v-88.3h37v-29.7h-48.7c0,0-17.6,0-17.6,0l-21.5,22.6h-37.5M666.6,489.5h30.3v58.5h-83.2v-29.3h-6.2v87.8h-28.8v29.8h118.1v58.5h28.8v-146.9h88.3v29.8h29.8v-29.8h7.2v-28.8h-9.8s-54.2-29.3-54.9-29.8h-60.7v-44.2h-59.1v44.2M467.9,753.5v-27.8h-6.2v67.8h0v48.3h176.7v-176.7h-29.8v88.3h-140.7M577.3,0h-66.8v56.5h-78.1v80.1h-117v-28.8h-146.9v89.4h36v27.7h-95.5v59.6h0v88.3h88.3v28.7h-28.8v59.6h36v27.7h-35.9v75h139.7v-29.9h6.1v73.6h-28.8v117.6h117.1v67.7h-28.8v108.3h.4c0,.1,126,44.3,126,44.3v51.1h.1c0,.1,2.6,3.2,2.6,3.2l.2.2h96.1l.2-.2,2.1-3.1h0v-56.8c10-3.7,16.6-8.9,17-9.2l71.6-46.8.2-.2v-5.4h36v-80.7h-28.8v-43.6h117.1v-117.1h117.1v-89.4h-35.9v-27.7h7.2v-29.8h88.3v-59.6h-29.8v-6.2h29.8v-155.1h-60.6v28.8h-6.1v-43.1h-87.3v-28.7h36v-118.2h-148v28.8h-57.5V56.5h-90.4V0h0ZM522.1,139.2h55.8l30.1,56.1v88.2h-116v-87.7l30.1-56.6h0ZM777.6,167.5h7.1v58.5h7.2v28.7h-37v59.6h117.1v27.7h-117.1v74h-57.5v-29.8h-75v96.6h15.4v6.1h-30.3s-28.2,0-28.2,0v-3h26.7v-55.5h-33.9v-28.2h22.6v-60.1h-29.8v-27.7h74v-88.3h58.5v-29.8h80.1v-28.8h0ZM256.8,167.5h6.1v29.8h139.7v28.8h58.5v66.3h0v22h74v27.7h-44.2v29.8h-6.1v-22.6h-82.2v22.6h-57.5v-58.5h-29.8v-13.3h29.8v-45.2h-88.3v-29.8h-7.2v-27.7h7.2v-29.8h0ZM169.5,284.6h116v28.7h-109.9v28.8h-6.1v-57.5h0ZM924.4,328.7h6.1v101.7h-116v-57.5h6.1v51.4h103.8v-95.5h0ZM462.4,401.7h16.8c0,0,48.7,0,48.7,0v28.6h-37v89.4h28.8v27.7h-28.8v59.6h28.8v68.6h0v18.7h-57.5v-28.8h-117.1v-6.1h29.8v-170.6h-125.3v-27.7h125.3v-59.6h27.7v22.6h38.3l.2-.2,21.4-22.4h0ZM667.1,445.8h58v44.2h61.1c3.2,1.8,46,25,54.8,29.7h.1c0,0,9.3,0,9.3,0v27.7h-7.2v29.8h-28.7v-29.8h-89.4v146.9h-27.7v-58.5h-118.1v-28.7h28.8v-87.8h5.1v29.3h84.3v-59.6h-30.3v-43.1h0ZM609.1,665.7h28.7v175.6h-175.6v-48.3h0v-66.7h5.1v27.8h141.8v-88.3h0Z"/>
    </g>
    <g id="Callouts">
      <text class="cls-10" transform="translate(500.3 93.5)"><tspan x="0" y="0">守方 重生点</tspan></text>
      <text class="cls-10" transform="translate(508.3 925)"><tspan x="0" y="0">攻方 重生点</tspan></text>
      <text class="cls-10" transform="translate(794.5 174.5)"><tspan x="0" y="0">A区 吊车</tspan></text>
      <text class="cls-10" transform="translate(924.4 319)"><tspan x="0" y="0">A区 拐角</tspan></text>
      <text class="cls-10" transform="translate(920.2 481)"><tspan x="0" y="0">A区 死角</tspan></text>
      <text class="cls-10" transform="translate(771.6 459.1)"><tspan x="0" y="0">A区 庭院</tspan></text>
      <text class="cls-10" transform="translate(626.4 418.6)"><tspan x="0" y="0">A区 小道</tspan></text>
      <text class="cls-10" transform="translate(522.6 536.7)"><tspan x="0" y="0">中区 台阶</tspan></text>
      <text class="cls-10" transform="translate(506.1 726.8)"><tspan x="0" y="0">中区 坡底</tspan></text>
      <text class="cls-10" transform="translate(507.9 375)"><tspan x="0" y="0">中区 坡顶</tspan></text>
      <text class="cls-10" transform="translate(513.1 303.9)"><tspan x="0" y="0">中区 窗口</tspan></text>
      <text class="cls-10" transform="translate(400.1 387.4)"><tspan x="0" y="0">B区 小道</tspan></text>
      <text class="cls-10" transform="translate(273.1 278.1)"><tspan x="0" y="0">B区 高台</tspan></text>
      <text class="cls-10" transform="translate(180.7 155)"><tspan x="0" y="0">B区 拱门</tspan></text>
      <text class="cls-10" transform="translate(114.3 262.5)"><tspan x="0" y="0">B区 拐角</tspan></text>
      <text class="cls-10" transform="translate(199 531.6)"><tspan x="0" y="0">B区 大道</tspan></text>
      <text class="cls-10" transform="translate(336.9 700.4)"><tspan x="0" y="0">B区 大厅</tspan></text>
      <text class="cls-10" transform="translate(783.3 612.9)"><tspan x="0" y="0">A区 大厅</tspan></text>
      <text class="cls-10" transform="translate(715.3 726.6)"><tspan x="0" y="0">A区 大厅</tspan></text>
      <path id="B" class="cls-5" d="M260.4,395.6v-16.4c0-1.4.8-2.3,2.2-2.3h6.9c3.9,0,6.4,2,6.4,5.2s-1.7,4.2-3.9,4.6h0c2.9.3,4.9,2.4,4.9,5.2s-2.8,6-7.3,6h-7.1c-1.4,0-2.2-.8-2.2-2.3h0ZM267.9,385.7c2.3,0,3.7-1,3.7-2.8s-1.2-2.6-3.2-2.6h-3.6v5.5h3.2,0ZM268.6,394.6c2.5,0,3.9-1.1,3.9-3.1s-1.4-3-4-3h-3.7v6.1h3.8Z"/>
      <path id="A" class="cls-5" d="M880.7,395.3c-1.2,0-1.8-.6-2.2-2l-1.1-3.3h-7.6l-1.1,3.3c-.4,1.4-1,1.9-2.3,1.9s-2.2-.9-2.2-2.1,0-.8.3-1.4l5.8-15.6c.6-1.7,1.6-2.5,3.4-2.5s2.7.8,3.3,2.5l5.7,15.6c.2.5.3,1,.3,1.4,0,1.3-.9,2.1-2.2,2.1h0ZM876.4,386.6l-2.7-8.6h-.1l-2.8,8.6h5.6Z"/>
    </g>
    <g id="Barrier" class="cls-6">
      <line class="cls-8" x1="204.1" y1="466" x2="249.6" y2="466"/>
      <line class="cls-8" x1="850.4" y1="520.9" x2="895.7" y2="520.9"/>
      <line class="cls-9" x1="725.1" y1="673.1" x2="814.5" y2="673.1"/>
      <line class="cls-9" x1="314.1" y1="602.3" x2="374.9" y2="602.3"/>
      <line class="cls-8" x1="535.1" y1="321.5" x2="565.2" y2="321.5"/>
      <line class="cls-8" x1="391.6" y1="371.8" x2="391.6" y2="401.7"/>
      <line class="cls-9" x1="466.6" y1="694.4" x2="466.6" y2="754"/>
      <line class="cls-9" x1="623.3" y1="635.8" x2="623.3" y2="665.7"/>
      <line class="cls-8" x1="713.2" y1="416" x2="713.2" y2="445.8"/>
    </g>
  </g>
</svg>