<?xml version="1.0" encoding="UTF-8"?>
<svg id="_图层_1" data-name="图层 1" xmlns="http://www.w3.org/2000/svg" version="1.1" viewBox="0 0 1100 1000">
  <defs>
    <style>
      .cls-1 {
        fill: #32343b;
      }

      .cls-1, .cls-2, .cls-3, .cls-4, .cls-5, .cls-6 {
        stroke-width: 0px;
      }

      .cls-2 {
        fill: #575548;
      }

      .cls-3 {
        fill: #646568;
      }

      .cls-7 {
        stroke: #814194;
      }

      .cls-7, .cls-8 {
        stroke-width: 10px;
      }

      .cls-7, .cls-8, .cls-9 {
        fill: none;
        stroke-miterlimit: 10;
      }

      .cls-7, .cls-8, .cls-10 {
        opacity: .8;
      }

      .cls-8 {
        stroke: #6bc3c0;
      }

      .cls-9 {
        stroke: #afabae;
        stroke-width: 1px;
      }

      .cls-4 {
        fill: #afabae;
      }

      .cls-5 {
        fill: #297466;
      }

      .cls-6, .cls-11 {
        fill: #fff;
      }

      .cls-11 {
        font-family: SimHei, SimHei;
        font-size: 16px;
        isolation: isolate;
      }
    </style>
  </defs>
  <g id="_进攻-源工重镇" data-name="进攻-源工重镇">
    <g id="Body">
      <path class="cls-1" d="M133.7,415.7v17.6h-3.1v22.8h3.1v16.5h31v105.5h13.4v13.4h-16.5v46.5l67.2,67.2h96.2l7.2-3.1h32.1l5.2,1,7.2-3.1h7.2l2.1,2.1h8.3l17.6-3.1h16.5l26.9,4.1v13.4h0l6.2,29,6.2,33.2,2.1,8.3,5.3,11.4,7.1,17.6h3.1l5.2,4.1,12.5,15.6,8.2,9.3,2.2,5.3,5.1,10.2,5.3,6.2,10.3,10.3,7.2,5.3,10.3,12.4v41.4l3,5.2,4.1,7.2,4,5.2,6.2,4.1,7.4,5.3,10.3,8v4l-7.2,9.4v3.1l5.2,9.3v2.1h47.4v-2.1l8.4-7.2v-5.2l3.1-3,5.2-7.3,9.3-14.4,6.3-9.5,5.2-13.4v-35.2l25.9-32.1h5.2l34.1-35.2v-2.1l51.7-50.7v-108.6l25-13.5h94v-113.8h6.2v16.5h44.4l17.6-17.6v-24.8l-17.6-19.7h-44.5v15.5h-34s0-6.2,0-6.2h15.5v-38.3h18.6v-55.8h-69.2v-56.9h-24.8v-37.2h24.8v-61h-13.3l-19.8-20.7v-1h-2.1v-5.2h22.8v-49.6h-87.9v6.2h-6.2v-5.2h-86.9v-1h-32.5c0-.1-18.3-.1-18.3-.1v-75.4c-11.9-49.2-37.1-103.5-37.1-103.5l-6.2-4.1h-50.6c0-.1-34.3,72.9-38.4,107.5v75.5h-93.1v5.2h-6.2v-5.2h-169.6v69.3l-64.3.2v36.2h7.2v2.1h-7.2v54.8h57.9v50.7h35.2v6.2h-16.5v18.6h-6.2v-6.2h-69.3ZM390.2,585.5v4.9c0,0-19.7.3-19.7.3v38.3h83.8v37.2l-19.6-.3v-2.1h-61v2.1h-70.3v-31h-13.4v-49.3c0,0,100.2,0,100.2,0ZM547.4,577.1l11.5-11.5h23.7v-21.7h3.1v21.7h100.3v94.1h38.3v64.1h-52.7l-17.6,13.4-6.2,2.1h-5.2l-17.6,12.4h-7.2l-20.7-5.2-3.1-5.2h-9.3l-24.8-12.4-4.1-7.2h-25.9v-68.3h-32.1v12.4h-18.6v-37h68.2v-51.8ZM629.2,347.4h37.1v-24.8h13.4v30h-74.5v-5.2h23.9ZM710.9,796.3l-8.2,9.3h-12.5v8.2l-12.4,16.5-21.7,27.9h-2.1v7.2l-22.8,25.9-24.8,8.3h-6.1l-8.4-10.2h-5.2l-8.4-7.2v-7.2l-18.6-20.7v-11.4l-16-14.4v-1.6l-33.5-32.7v-6.2l-2.1-2.1-12.4-10.3v-6.2l6.2-27.7h5.1l84.9,37.1h11.4l21.7-5.2h30l45.5-26.9h4l6.2,11.4h3.1l6.2,10.3v9s-6.2,7.3-6.2,7.3l-3,11.5h0ZM842.1,446.6h6.1v63.2h12.5v6.2h-12.2v49.5h-37.3v42.4h-95.1v-10.3h26.9v-76.5h-38.3v12.4h-44.5v-86.9l22.9-11.5h53.7v-41.3h37v21.7h-7.2v31h75.6ZM727,220.2h8.7v-5.2h6.2v18.6h47.6v5.2h-2.1v1l-20.7,20.7h-102.6l-4.1,4.1v6.2h-17.4v-49.6h6.2v-1h78.2ZM372.6,221.3h95.1c0,.1,47.7-59.9,47.7-59.9h38.1l47.7,59.7h21.7v6.2h-10.3v64.1h47.4v11.4h20v6.2h-27.9v18.6h-19.7v-17.6h-46.5v37.2h1v5.2h-1v38.3h37.2v15.5h-4.1v24.8h4.1v15.5h-25.9v50.7h25.9v23.8h-37.2v5.2h-3.1v-5.2h-65.2v81.7l-100.5.2v-12.4h-5.2v-5.2h22.8l.2-28.6h0v-87.4h4.1v15.5h44.5l21.7-21.7v-20.7l-21.7-20.7h-44.5v15.5h-4.1v-6.1c-3.1-4-9.5-7.1-17.6-8.4h0c0-.1-.4-.1-.4-.1-2.2-.3-4.4-.5-6.8-.5s-4.7.2-6.8.5h-.4c-8.1,1.2-14.5,4.4-17.6,8.5v9.2h-44.5l-.2-68.1h-12.4v-2.1h12.4v-61h24.8v-43.4h-13.5v-44.5h14.7v-5.2h6.2v5.2ZM164.7,291.8v-2s57-.3,57-.3v-68.1c0,0,107.3,0,107.3,0v6.2h-100.1v87.9c-.1,0-56.8-.3-56.8-.3v-23.5h-7.3ZM209.2,446.9v6.2l12.4,12.4h37.2l12.4-12.4v-49.8c0,0-18.5,0-18.5,0v-6c0,0,7.2,0,7.2,0l18.7-26.9h24.7v1.9c0,0-12.3,0-12.3,0v54c0,0,12.3,0,12.3,0v25.9h-12.4v51.6c.1,0,49.6.1,49.6.1v-37.2h44.5v5.2h-13.4v56.7c0,0-30.9,0-30.9,0v31h-137.6v-112.5c0,0,6.1,0,6.1,0Z"/>
    </g>
    <g id="Bombsite">
      <rect class="cls-2" x="246.5" y="246.3" width="87.8" height="69.3"/>
      <rect class="cls-2" x="698.5" y="283.5" width="100.2" height="101.3"/>
      <polyline class="cls-1" points="773.1 359.5 760.7 359.5 760.7 322.3 785.3 322.3 785.3 334.7 773.1 334.7 773.1 348.1"/>
      <rect class="cls-1" x="680.2" y="332.5" width="50.7" height="15.5"/>
      <rect class="cls-1" x="272.6" y="300.5" width="29.9" height="11.3"/>
      <rect class="cls-1" x="258.6" y="276.9" width="57.3" height="23.7"/>
      <rect class="cls-1" x="302.5" y="264.4" width="12.5" height="12.5"/>
    </g>
    <g id="Lines">
      <rect class="cls-4" x="704.4" y="532.7" width="38.3" height="1"/>
      <path class="cls-4" d="M741.9,533.8v6.2h-6.3v-6.2h6.3M742.9,532.7h-8.4v8.3h8.4v-8.3h0Z"/>
      <path class="cls-4" d="M628.9,560.6v5.2h-43.1v-5.2h43.1M629.9,559.5h-45.2v7.2h45.3v-7.2h-.1Z"/>
      <path class="cls-4" d="M523.5,522.3c2.7,0,5,2.2,5,5s-2.2,5-5,5-5-2.3-5-5,2.3-5,5-5M523.5,521.3c-3.3,0-6,2.7-6,6s2.7,6,6,6,6-2.7,6-6-2.7-6-6-6h0Z"/>
      <path class="cls-4" d="M546.4,617.5v10.5h-9.4v-10.5h9.4M547.5,616.5h-11.5v12.6h11.5v-12.6h0Z"/>
      <path class="cls-4" d="M535,624.2v3.9h-3.8v-3.9h3.8M536,623.1h-5.9v6h5.9v-6h0Z"/>
      <path class="cls-4" d="M334.2,667.2v10h-10.3v-10h10.3M335.2,666.1h-12.4v12.1h12.4v-12.1h0Z"/>
      <path class="cls-4" d="M247.8,617.6l10.5,10.5v14.9l-10.5,10.5h-14.9l-10.5-10.5v-14.9l10.5-10.5h14.9M248.3,616.6h-15.7l-11.2,11.2v15.7l11.2,11.2h15.7l11.2-11.2v-15.7l-11.2-11.2h0Z"/>
      <path class="cls-4" d="M340.6,406.6v15.4h-13.9v-15.4h13.9M341.7,405.5h-15.9v17.5h15.9v-17.5h0Z"/>
      <path class="cls-4" d="M340.6,409.7v9.3h-10.7v-9.3h10.7M341.7,408.6h-12.7v11.4h12.7v-11.4h0Z"/>
      <path class="cls-4" d="M339.7,361.1v8.4h-9.4v-8.4h9.4M340.7,360h-11.5v10.4h11.5v-10.4h0Z"/>
      <rect class="cls-4" x="302.8" y="371.4" width="26" height="1"/>
      <rect class="cls-4" x="235.3" y="450.5" width="42.5" height="1" transform="translate(-243.8 313.5) rotate(-45)"/>
      <path class="cls-4" d="M305.1,489.2v14.5h-14.2v-14.5h14.2M306.2,488.2h-16.2v16.5h16.2v-16.5h0Z"/>
      <path class="cls-4" d="M302,492.3v11.4h-11.1v-11.4h11.1M303.1,491.3h-13.1v13.4h13.1v-13.4h0Z"/>
      <path class="cls-4" d="M433.4,479.9v9.3h-10.3v-9.3h10.3M434.4,478.9h-12.4v11.4h12.4v-11.4h0Z"/>
      <path class="cls-4" d="M201.8,347.6v23.8h-11.2v-23.8h11.2M202.9,346.6h-13.2v25.9h13.2v-25.9h0Z"/>
      <path class="cls-4" d="M240.1,304.1v10.4h-10.3v-10.4h10.3M241.1,303h-12.4v12.5h12.4v-12.5h0Z"/>
      <path class="cls-4" d="M314.5,264.9v11.4h-11.4v-11.4h11.4M315.5,263.8h-13.4v13.4h13.4v-13.4h0Z"/>
      <path class="cls-4" d="M315.5,277.3v22.8h-55.8v-22.8h55.8M316.5,276.2h-57.9v24.8h57.9v-24.8h0Z"/>
      <path class="cls-4" d="M302,301v10.3h-29v-10.3h29M303.1,299.9h-31v12.4h31v-12.4h0Z"/>
      <path class="cls-4" d="M785,699.2v4.1h-5.2v-4.1h5.2M786.1,698.2h-7.2v6.2h7.2v-6.2h0Z"/>
      <path class="cls-4" d="M785,685.8v11.4h-11.4v-11.4h11.4M786.1,684.8h-13.4v13.4h13.4v-13.4h0Z"/>
      <path class="cls-4" d="M905.1,603.1v1h-49.6v-1h49.6M906.1,602h-51.7v3.1h51.7v-3.1h0Z"/>
      <path class="cls-4" d="M905.1,605.1v6.2h-12.4v-6.2h12.4M906.1,604.1h-14.5v8.3h14.5v-8.3h0Z"/>
      <path class="cls-4" d="M822.3,566.9v11.4h-10.3v-11.4h10.3M823.3,565.8h-12.4v13.4h12.4v-13.4h0Z"/>
      <path class="cls-4" d="M817.1,579.2v5.2h-5.2v-5.2h5.2M818.1,578.1h-7.2v7.2h7.2v-7.2h0Z"/>
      <path class="cls-4" d="M659.9,447.9v30h-11.4v-30h11.4M660.9,446.9h-13.4v32.1h13.4v-32.1h0Z"/>
      <path class="cls-4" d="M659.9,472.7v5.2h-11.4v-5.2h11.4M660.9,471.7h-13.4v7.2h13.4v-7.2h0Z"/>
      <path class="cls-4" d="M658.9,354v23.5h-10.3v-23.6h10.3M659.9,353h-12.4v25.5h12.4v-25.5h0Z"/>
      <path class="cls-4" d="M658.9,372.4v5.2h-10.3v-5.2h10.3M659.9,371.4h-12.4v7.2h12.4v-7.2h0Z"/>
      <path class="cls-4" d="M730.2,333.1v14.5h-49.6v-14.5h49.6M731.2,332.1h-51.7v16.5h51.7v-16.5h0Z"/>
      <rect class="cls-4" x="760.2" y="321.7" width="26" height="1"/>
      <rect class="cls-4" x="785.1" y="322.3" width="1" height="12.9"/>
      <rect class="cls-4" x="772.6" y="334.2" width="13.1" height="1"/>
      <rect class="cls-4" x="772.7" y="334.7" width="1" height="24.6"/>
      <rect class="cls-4" x="760.3" y="359" width="13.4" height="1"/>
      <rect class="cls-4" x="760.3" y="322.6" width="1" height="36.8"/>
      <path class="cls-4" d="M841.2,359.9v20.7h-6.4v-20.7h6.4M842.2,358.9h-8.5v22.8h8.5v-22.8h0Z"/>
      <rect class="cls-4" x="772.9" y="413.7" width="7" height="2.1"/>
      <rect class="cls-4" x="804.7" y="413.7" width="37.6" height="2.1"/>
      <path class="cls-4" d="M841.2,401.4v11.5h-22.8v-11.5h22.8M842.2,400.4h-24.8v13.5h24.8v-13.5h0Z"/>
      <rect class="cls-4" x="829.5" y="401.1" width="1" height="12.2"/>
      <circle class="cls-9" cx="688.9" cy="656.7" r="2.8"/>
      <rect class="cls-4" x="716" y="565.7" width="1" height="32.7"/>
      <path class="cls-4" d="M735.5,395.4v9h-10.3v-9h10.3M736.5,394.4h-12.4v11.1h12.4v-11.1h0Z"/>
      <rect class="cls-4" x="766.3" y="259.9" width="62.5" height="1"/>
      <path class="cls-4" d="M554.4,5.3v10.3h-10.3V5.3h10.3M555.4,4.2h-12.4v12.4h12.4V4.2h0Z"/>
      <rect class="cls-4" x="761" y="334.2" width="13.4" height="1"/>
      <circle class="cls-9" cx="840.1" cy="296.9" r="2.8"/>
    </g>
    <g id="Outlines">
      <path class="cls-3" d="M554.7,1l6.2,4.1s25.2,54.3,37.1,103.5v75.4h18.5c0,.1,32.3.1,32.3.1v1h86.9v5.2h6.2v-6.2h87.9v49.6h-22.8v5.2h2.1v1l19.8,20.7h13.3v61h-24.8v37.2h24.8v56.9h69.2v55.8h-18.6v38.3h-15.5v6.2h34.1v-15.5h44.5l17.6,19.7v24.8l-17.6,17.6h-44.5v-16.5h-6.2v113.8h-94l-24.8,13.3v108.6l-51.7,50.7v2.1l-34.1,35.2h-5.2l-25.9,32.1v35.2h0l-5.2,13.4-6.2,9.3-9.3,14.5-5.3,7.3-3.1,3v5.2l-8.4,7.2v2.1h-47.4v-2.1l-5.2-9.3v-3.1l7.2-9.4v-4l-10.3-8.3-7.4-5.3-6.2-4.1-4-5.2-4.1-7.2-3-5.2v-41.4l-10.3-12.4-7.2-5.3-10.3-10.3-5.3-6.2-5.1-10.2-2.2-5.3-8.2-9.3-12.5-15.3-5.2-4.1h-3.1l-7.1-17.6-5.3-11.4-2.1-8.3-6.2-33.2-6.2-29h0v-13.4l-26.9-4.1h-16.5l-17.6,3.1h-8.3l-2.1-2.1h-7.2l-7.2,3.1-5.2-1h-32l-7.2,3.1h-96.2l-67.2-67.2v-46.5h16.5v-13.4h-13.4v-105.5h-31v-16.5h-3.1v-22.8h3.1v-17.6h69.3v6.2h6.2v-18.6h16.5v-6.2h-35.2v-50.7h-57.9v-54.8h7.2v-2.1h-7.2v-36.2h64.1v-69.3h169.6v5.2h6.2v-5.2h93.1v-75.5c3.9-34.5,38.4-107.6,38.4-107.6h50.6M372.6,221.3v-5.2h-6.2v5.2h-14.7v44.5h13.5v43.4h-24.8v61h-12.4v2.1h12.4v68.3h44.5v-9.2c3.1-4,9.5-7.1,17.6-8.4h0c0-.1.4-.1.4-.1,2.2-.3,4.4-.5,6.8-.5s4.7.2,6.8.5h.4c8.1,1.2,14.5,4.4,17.6,8.5v6.1h4.1v-15.5h44.5l21.7,20.7v20.7l-21.7,21.7h-44.5v-15.5h-4.1v87.4h0v28.4h-22.8v5.2h5.2v12.4h100.5v-81.7h65.1v5.2h3.1v-5.2h37.2v-23.8h-25.9v-50.6h25.9v-15.5h-4.1v-24.8h4.1v-15.5h-37.2v-38.3h1v-5.2h-1v-37.2h46.5v17.6h19.7v-18.6h27.9v-6.2h-19.9v-11.4h-47.4v-64.1h10.3v-6.2h-21.7l-47.7-60h-38.1l-47.7,60h-95.1M642.5,271h17.4v-6.2l4.1-4.1h102.6l20.7-20.7v-1h2.1v-5.2h-47.6v-18.6h-6.2v5.2h-86.9v1h-6.2v49.6M164.7,291.8h7.2v23.8h56.9v-87.9h100.1v-6.2h-107.4v68.1c0,0-56.9.3-56.9.3v2M629.2,347.6h-24v5.2h74.5v-30h-13.4v24.8h-37M252.6,403.5h18.6v49.6l-12.4,12.4h-37.2l-12.4-12.4v-6.2h-6.2v112.7h137.6v-31h31v-56.9h13.4v-5.2h-44.5v37.2h-49.6v-51.7h12.4v-25.9h-12.4v-53.8h12.4v-2.1h-24.7l-18.7,26.9h-7.2v6.2M660.1,533.8h44.5v-12.4h38.3v76.5h-26.9v10.3h95.1v-42.4h37.2v-49.6h12.2v-6.2h-12.4v-63.1h-81.7v-31h7.2v-21.7h-37v41.3h-53.7l-22.9,11.5v86.9M479.1,666.1h18.6v-12.4h32.1v68.3h25.9l4.1,7.2,24.8,12.4h9.3l3.1,5.2,20.7,5.2h7.2l17.6-12.4h5.2l6.2-2.1,17.6-13.4h52.7v-64.1h-38.3v-94.1h-100.3v-21.7h-3.1v21.7h-23.7l-11.5,11.5v51.6h-68.2v37.2M289.8,635.1h13.4v31h70.3v-2.1h61v2.1h19.7v-37.2h-83.8v-38.3h19.7v-5.2h-100.3v49.6M507,741.6h-5.1l-6.3,27.9v6.2l12.4,10.3,2.1,2.1v6.2l33.6,32.8v1.6l16,14.4v11.4l18.6,20.7v7.2l8.4,7.2h5.1l8.4,10.2h6.1l24.8-8.3,22.8-25.9v-7.2h2.1l21.7-27.9,12.4-16.5v-8.4h12.5l8.2-9.3,3.1-11.4,6.2-7.3v-9.2l-6.2-10.3h-3.1l-6.2-11.4h-4l-45.5,26.9h-30l-21.7,5.2h-11.4l-84.9-37.1h0M555,0h-51.6l-.3.6c-.3.7-34.4,73.5-38.4,107.9h0v74.7h-93.1v5.2h-4v-5.2h-171.9v69.3h-64.1v95.3h57.9v50.7h35.2v4h-16.5v18.6h-4v-6.2h-71.5v17.6h-3.1v24.9h3.1v16.5h31v105.5h13.4v11.2h-16.5v48.1l.3.3,67.2,67.2.3.3h97.1c0-.1,7-3.1,7-3.1h31.6l5.1.9h.3c0,.1.3,0,.3,0l7-3h6.6l1.8,1.8.3.3h8.9l17.5-3.1h16.3l26,3.9v13.5h.2l6,28.1,6.2,33.1h0l2.1,8.3h0v.2l5.3,11.4,7.1,17.5.3.7h3.4l4.8,3.8,12.5,15.5,8.2,9.1,2.1,5.1h0l5.1,10.2h.1c0,.1.1.2.1.2l5.3,6.2h0l10.3,10.3h.1c0,.1.1.1.1.1l7.1,5.2,10,12v41.5c.1,0,3.1,5.2,3.1,5.2l4.1,7.2h0v.2l4,5.2h.1c0,.1.1.2.1.2l6.2,4.1,7.3,5.2,9.9,8v3.1l-7,9.1-.2.3v3.9c.1,0,5.2,9.1,5.2,9.1v2.9h49.6v-2.6l8-6.9.4-.3v-5.2l2.8-2.7h.1v-.2l5.3-7.3h0l9.3-14.5,6.2-9.3h.1v-.2l5.2-13.4v-.2c.1,0,.1-35,.1-35l25.3-31.3h5.1l.3-.3,34.1-35.2.3-.3v-2.1l51.4-50.4.3-.3v-108.4l24-12.9h94.7v-113.8h4v16.5h46l.3-.3,17.6-17.6.3-.3v-25.6l-.3-.3-17.6-19.7-.3-.4h-46v15.5h-32v-4h15.5v-38.3h18.6v-58h-69.2v-56.9h-24.8v-35.1h24.8v-63.2h-14l-19.1-20.1v-1.7h-2.1v-3h22.8v-51.8h-90v6.2h-4v-5.2h-86.9v-1h-50.7v-74.6h0c-11.9-48.8-37-103.2-37.3-103.7v-.3c-.1,0-.3-.2-.3-.2l-6.3-4L555,0h0ZM516,162.5h37l47.4,59.6.3.4h21.2v4h-10.3v66.3h47.4v11.4h19.9v4h-27.9v18.6h-17.6v-17.6h-48.6v39.4h1v3h-1v40.4h37.2v13.3h-4.1v27h4.1v13.3h-25.9v52.7h25.9v21.7h-37.2v5.2h-.9v-5.2h-67.2v81.7h-98.3v-12.4h-5.2v-3h22.8v-115.8h2v15.5h46l.3-.3,21.7-21.7.3-.3v-21.6l-.3-.3-21.7-20.7-.3-.3h-46v15.5h-2v-5.4l-.2-.3c-3.1-4.1-9.4-7.2-17.4-8.6v-.2h-1.4c-2.3-.3-4.6-.5-6.8-.5s-4.7.1-6.8.5h-1.6v.2c-7.9,1.3-14.2,4.4-17.4,8.6l-.2.3v8.5h-42.3v-129.2h24.8v-45.6h-13.5v-42.3h14.7v-5.2h4v5.2h96.8l.3-.4,47.2-59.6h0ZM736.8,216.3h4v18.6h47.6v3h-2.1v1.7l-20.1,20.1h-102.6l-.3.3-4.1,4.1-.3.3v5.5h-15.3v-47.5h6.2v-1h86.9v-5.1h.1ZM222.7,222.5h105.3v4h-100.1v87.9h-54.8v-23.7h49.6v-68.3h0ZM667.5,323.8h11.3v27.8h-72.4v-3h61v-24.8h.1ZM279.3,371.4h10.7v55.8h12.4v23.7h-12.4v53.9h51.8v-37.2h42.3v3h-13.4v56.9h-31v31h-135.5v-110.6h4v5.6l.3.3,12.4,12.4.3.3h38.2l.3-.3,12.4-12.4.3-.3v-51.2h-18.6v-4h6.7l.3-.5,18.5-26.4h0ZM737.9,395.2h34.9v19.5h-7.2v33.2h81.7v63.1h12.4v4h-12.2v49.6h-37.2v42.4h-93v-8.2h26.9v-78.7h-40.4v12.4h-42.3v-85.1l22-11h54.5v-41.4h0ZM583.8,545.1h.9v21.7h100.3v94.1h38.3v62h-52l-.3.2-17.5,13.3-5.9,2h-5.3l-.3.2-17.3,12.2h-6.7l-20.2-5.1-2.9-4.8-.3-.5h-9.6l-24.3-12.1-3.9-6.9-.3-.5h-25.5v-68.3h-34.2v12.4h-16.4v-35.1h68.3v-52.2l10.9-10.9h24.3v-21.8h.1ZM291.1,586.5h98.1v3h-19.7v40.4h83.8v35.1h-17.5v-2.1h-63.2v2.1h-68.2v-31h-13.4v-47.5h0ZM502.9,742.7h3.9l84.7,37.1h.2c0,.1,11.8.1,11.8.1h.1l21.5-5.1h30.2l.2-.2,45.3-26.7h3.1l5.9,10.9.3.5h3.2l5.8,9.5v8.5l-5.9,7-.2.2v.2c-.1,0-3.2,11.1-3.2,11.1l-7.7,8.8h-13v8.9l-12.2,16.3-21.4,27.5h-2.6v8l-22.3,25.3-24.4,8.1h-5.4l-8.1-9.8-.3-.4h-5.2l-7.7-6.6v-7.1l-.3-.3-18.4-20.6v-11.4l-.4-.3-15.7-14.1v-1.4l-.3-.3-33.2-32.4v-6.1l-.3-.3-2.1-2.1h0l-12.1-10v-5.6l6.1-27.2h0Z"/>
    </g>
    <g id="TP_Lines_test" data-name="TP Lines test">
      <polygon class="cls-5" points="520.6 452 525.7 441.7 515.4 441.7 509.2 452 509.2 454 515.4 464.4 525.7 464.4 520.6 454 520.6 452"/>
      <polygon class="cls-5" points="520.6 452 525.7 441.7 515.4 441.7 509.2 452 509.2 454 515.4 464.4 525.7 464.4 520.6 454 520.6 452"/>
      <polygon class="cls-5" points="609.5 417.9 614.7 407.7 604.3 407.6 598 417.9 598 420 604.3 430.3 614.7 430.3 609.5 420 609.5 417.9"/>
      <polygon class="cls-5" points="993.1 530.7 998.4 520.3 987.9 520.3 981.7 530.7 981.7 532.7 987.9 543 998.4 543 993.1 532.7 993.1 530.7"/>
      <polygon class="cls-5" points="120.3 443.8 125.5 433.4 115.2 433.4 109 443.8 109 445.9 115.2 456.1 125.5 456.1 120.3 445.9 120.3 443.8"/>
      <polygon class="cls-5" points="1015.1 525.5 1012.8 525.5 999 525.5 996.4 530.7 996.4 532.6 999.1 537.9 1012.8 537.9 1012.8 785.1 797.2 785.1 797.2 797.4 1025.2 797.4 1025.2 791.2 1025.2 785.1 1025.2 525.5 1015.1 525.5"/>
      <polygon class="cls-5" points="87.2 450.9 109 450.9 109 450.9 105.8 445.8 105.8 443.7 109 438.6 109 438.6 74.8 438.6 74.8 449.1 74.8 450.9 74.8 797.4 83.4 797.4 87.2 797.4 456.5 797.4 456.5 785.1 87.2 785.1 87.2 450.9"/>
      <polygon class="cls-5" points="598 412.8 598 412.8 544.4 412.8 544.4 422.9 544.4 425.1 544.4 446.9 526.2 446.9 523.6 452.1 523.6 454 526.2 459.2 544.4 459.2 544.4 459.2 556.8 459.2 556.8 425.1 598 425.1 594.9 420 594.9 417.9 598 412.8"/>
    </g>
    <g id="Callouts">
      <text class="cls-11" transform="translate(247 206.1)"><tspan x="0" y="0">B区 大堂</tspan></text>
      <text class="cls-11" transform="translate(138.5 335.2)"><tspan x="0" y="0">B区 拐角</tspan></text>
      <text class="cls-11" transform="translate(206.2 435.7)"><tspan x="0" y="0">B区 花园</tspan></text>
      <text class="cls-11" transform="translate(97.5 449.5)"><tspan x="0" y="0">B区 传送器</tspan></text>
      <text class="cls-11" transform="translate(139.2 536.8)"><tspan x="0" y="0">B区 长道</tspan></text>
      <text class="cls-11" transform="translate(206.8 672.2)"><tspan x="0" y="0">B区 喷泉</tspan></text>
      <text class="cls-11" transform="translate(278.8 401.3)"><tspan x="0" y="0">B区 窗口</tspan></text>
      <text class="cls-11" transform="translate(368.6 540.9)"><tspan x="0" y="0">B区 短道</tspan></text>
      <text class="cls-11" transform="translate(379.5 621.1)"><tspan x="0" y="0">B区 小道</tspan></text>
      <text class="cls-11" transform="translate(475.3 621.1)"><tspan x="0" y="0">A区 小道</tspan></text>
      <text class="cls-11" transform="translate(898.9 534.7)"><tspan x="0" y="0">A区 出口</tspan></text>
      <text class="cls-11" transform="translate(584.2 766.9)"><tspan x="0" y="0">攻方 洞</tspan></text>
      <text class="cls-11" transform="translate(572.9 938.8)"><tspan x="0" y="0">攻方 重生点</tspan></text>
      <text class="cls-11" transform="translate(707.8 641.8)"><tspan x="0" y="0">A区 大厅</tspan></text>
      <text class="cls-11" transform="translate(594.5 545.1)"><tspan x="0" y="0">A区 短道</tspan></text>
      <text class="cls-11" transform="translate(833.7 438.6)"><tspan x="0" y="0">A区 澡堂</tspan></text>
      <text class="cls-11" transform="translate(752.8 221.3)"><tspan x="0" y="0">A区 塔楼</tspan></text>
      <text class="cls-11" transform="translate(490.9 91.2)"><tspan x="0" y="0">守方 重生点</tspan></text>
      <text class="cls-11" transform="translate(584.8 340.3)"><tspan x="0" y="0">A区 灯</tspan></text>
      <text class="cls-11" transform="translate(565 484.6)"><tspan x="0" y="0">A区 小房间</tspan></text>
      <text class="cls-11" transform="translate(588.1 424)"><tspan x="0" y="0">A区 传送器</tspan></text>
      <text class="cls-11" transform="translate(432 459.2)"><tspan x="0" y="0">B区 出口</tspan></text>
      <path id="B" class="cls-6" d="M265.7,268.3v-16.5c0-1.4.8-2.3,2.2-2.3h7c3.9,0,6.4,2.1,6.4,5.3s-1.8,4.2-3.9,4.6h0c2.9.3,5,2.4,5,5.2s-2.8,6-7.3,6h-7.1c-1.4.1-2.3-.7-2.2-2.2h0ZM273.3,258.2c2.4,0,3.7-1,3.7-2.8s-1.1-2.7-3.2-2.7h-3.6v5.5h3.1ZM273.9,267.3c2.6,0,3.9-1,3.9-3.1s-1.4-3-4-3h-3.7v6.1h3.8Z"/>
      <path id="A" class="cls-6" d="M747.9,315c-1.1,0-1.9-.6-2.3-2l-1.1-3.3h-7.7l-1.1,3.3c-.4,1.3-1,2-2.3,2s-2.2-.8-2.2-2.1.1-.8.3-1.4l5.8-15.7c.6-1.8,1.7-2.5,3.4-2.5s2.7.8,3.3,2.5l5.8,15.7c.2.5.3,1,.3,1.4,0,1.2-.9,2.1-2.3,2.1h0ZM743.6,306.2l-2.8-8.7h-.1l-2.8,8.7h5.7Z"/>
    </g>
    <g id="Barrier" class="cls-10">
      <line class="cls-8" x1="584.7" y1="544" x2="584.7" y2="525.4"/>
      <line class="cls-8" x1="798.7" y1="667.6" x2="798.7" y2="607.1"/>
      <line class="cls-8" x1="307.6" y1="706.5" x2="307.6" y2="665"/>
      <line class="cls-8" x1="717.2" y1="603.1" x2="684.1" y2="603.1"/>
      <line class="cls-8" x1="413.1" y1="588.5" x2="389.2" y2="588.5"/>
      <line class="cls-7" x1="345.4" y1="467.6" x2="345.4" y2="439.5"/>
      <line class="cls-7" x1="224.7" y1="400.5" x2="253.7" y2="400.5"/>
      <line class="cls-7" x1="596.1" y1="447.9" x2="661.3" y2="447.9"/>
      <line class="cls-7" x1="780" y1="414.7" x2="804.7" y2="414.7"/>
      <line class="cls-7" x1="620.5" y1="404.7" x2="620.5" y2="434.4"/>
    </g>
  </g>
</svg>