<?xml version="1.0" encoding="UTF-8"?>
<svg id="_图层_1" data-name=" 图层 1" xmlns="http://www.w3.org/2000/svg" version="1.1" viewBox="0 0 1100 1000">
  <defs>
    <style>
      .cls-1 {
        fill: #575548;
      }

      .cls-1, .cls-2, .cls-3, .cls-4, .cls-5 {
        stroke-width: 0px;
      }

      .cls-6 {
        stroke-width: 1.1px;
      }

      .cls-6, .cls-7 {
        stroke: #b0adb0;
      }

      .cls-6, .cls-7, .cls-8, .cls-9 {
        fill: none;
      }

      .cls-6, .cls-8, .cls-9 {
        stroke-miterlimit: 10;
      }

      .cls-7 {
        stroke-miterlimit: 10;
        stroke-width: 1.1px;
      }

      .cls-8 {
        stroke: #814194;
      }

      .cls-8, .cls-9 {
        opacity: .8;
        stroke-width: 10px;
      }

      .cls-8, .cls-9, .cls-10 {
        isolation: isolate;
      }

      .cls-2 {
        fill: #b0adb0;
      }

      .cls-9 {
        stroke: #6bc3c0;
      }

      .cls-3 {
        fill: #656569;
      }

      .cls-4 {
        fill: #33353b;
      }

      .cls-5, .cls-10 {
        fill: #fff;
      }

      .cls-10 {
        font-family: SimHei, SimHei;
        font-size: 16px;
      }
    </style>
  </defs>
  <g id="Body">
    <path class="cls-4" d="M70.3,408.5h66v54.3h-34.1v165.9h22.3v8.5h-7.4v59.6h174.4v-44.7h0v-19.1h-4.3v-4.3h20.3v12.8l121.2,100v46.8h14.9v8.6h-14.9v68h7.5v7.4h-7.5v113.8h2.1l30.9,12.8h92.5l10.6-9.6v-76.6l-9.6-8.1v-25.6l2.1-4.6v-9.6h60.7v-15.9h8.5v15.9h47.8l43.6,43.6h63.8l19.1-18v-126.7l-11.9-17.8,6.4-4.3,4.3,6.4,53.4-34.3v-20.2h129.8v-56.4h-26.6v-45.8h39.3l41.5-121.3h21.2v-94.7h-73.4l-10.7,10.7-10.9-10.9,11.1-11.1-77-77h-66.7v-84.1h0v-53.1l-58.6-79.7-66.9-3.3V1.1h-119l-26.7,51.1h-55.3v11.7h-7.5v-11.7h-188.3l-20.8,23.3,15.6,13.9-25,27.4-5.1-4.3-38.8,46H70.3l-28.7,28.7v192.5l28.7,28.7h0ZM250.1,545.8h-3.2v83h3.2v4.3h-3.2v19.1h-61.7v-14.9h-7.4v-8.5h9.7v-2.1l20.1-19.2v-107.4h35.1v-3.2h4.3v44.7h3.2v4.2h0ZM271.3,633h-4.3v-4.3h4.3v4.3ZM464.2,659.6h-36.5l-128.7-113.8h-4.3v-4.2h4.3v-109.6h161.7v-62.7h-17v-6.4h23.4v228.7h29.7v68.1h-32.6ZM481.9,872.3h-8.5v-7.4h8.5v7.4ZM527.7,872.3h-8.5v-7.4h8.5v7.4ZM573.4,796.9h-92.6v-8.6h11.7v-29.8h69.2v29.8h11.7v8.6ZM506.4,515.3c0-11.5,9.3-20.9,20.9-20.9s20.9,9.3,20.9,20.9-9.3,20.9-20.9,20.9-20.9-9.3-20.9-20.9h0ZM687.3,659.6h-7.5v144.7h-53.2v7.5h-8.5v-14.9h-7.5v-8.6h14.9v-128.7h-68.1v-68.1h86.1v-3.2h2.1v3.2h34.1v63.8h7.5v4.3h0ZM858.5,545.7v60.6h53.2v19.2h-103.2v67.5l-31.5,21.1,4,6-6.4,4.3-27.8-41.4v-23.4h-44.7v-4.3h7.4v-94.7h-63.8v3.2h-2.1v-3.2h-18.1v-60.7h30.8v-8.5l16-14.8,5.3,23.4h48.9l5.3-23.4,16,14.9v54.2h110.6,0ZM747.9,318v7.6h-30.9v-88.3h71.3v4.3h-14.9l-25.5,22.3v54.1h0ZM656.4,185.9v-19.9h91.5v14.9l24.5,22.3h16v4.3h-132v-21.6h0ZM656.4,237.3h30.9v118.1h60.6v53.3h30.8v37.1l-17.6,18.1-17.5-17.1v-7.3h-82.9v7.3l-20.3,19.2v-26.6h-83l-23.4-76.8v-82.7h-29.8v-76.6h8.5v34h143.6ZM496.8,89.4h7.5v16h-7.5v-16ZM369.2,142.6h32.9v-3.2h5.3v3.2h89.3v-11.7h7.5v35.1h91.5v7.5h-83v7.4h-8.5v-7.4h-60.6v56.3h16v20.2h-45.8v7.5h-100v-83.1l13.6-16.1-1.7-1.4,25.2-28.2,18.3,14h0ZM323.9,105.2l6.8,5.7-25.5,28.6-7-5.9,25.8-28.3h0ZM267.1,195.8h6.4v61.7h-6.4v-61.7ZM250,309.6h163.9v69.2h-110.6l-41.5,41.5v42.5h-14.9v3.2h-4.3v-3.2h-61.7v-54.3h52.1v-23.5h0v-16.9l-20.2-20.2,37.2-38.3h0ZM183.6,287.7c0,11.5-9.3,20.9-20.9,20.9s-20.9-9.3-20.9-20.9,9.3-20.9,20.9-20.9,20.9,9.3,20.9,20.9ZM108.6,207.5h55.3v6.4h-55.3s0-6.4,0-6.4Z"/>
  </g>
  <g id="Bombsite">
    <polygon class="cls-1" points="887.1 499.9 1024.6 499.9 1026.7 499.9 1037.5 470.3 1040.8 470.3 1058.6 470.3 1058.6 423.4 888.3 423.4 888.3 458.2 887.1 458.2 887.1 499.9"/>
    <rect class="cls-4" x="887.1" y="463.8" width="47" height="11.6"/>
    <g>
      <rect class="cls-4" x="933.5" y="440" width="61.6" height="59.5"/>
      <path class="cls-2" d="M994.6,440.5v58.4h-60.5v-58.4h60.5M995.7,439.4h-62.7v60.5h62.7v-60.5h0Z"/>
    </g>
    <g>
      <rect class="cls-4" x="827.1" y="439.9" width="60.5" height="59.5"/>
      <path class="cls-2" d="M887.1,440.5v58.4h-59.4v-58.4h59.4M888.2,439.4h-61.6v60.5h61.6v-60.5h0Z"/>
    </g>
    <path class="cls-1" d="M204.3,325.6v-91.5h-91.5v91.5h91.5ZM162.7,266.8c11.5,0,20.9,9.3,20.9,20.9s-9.3,20.9-20.9,20.9-20.9-9.3-20.9-20.9,9.3-20.9,20.9-20.9Z"/>
  </g>
  <g id="Lines">
    <path class="cls-2" d="M746.8,659.5v17.1h-17.1v-17.1h17.1M747.9,658.5h-19.2v19.2h19.2v-19.2h0Z"/>
    <path class="cls-2" d="M868.1,664.9v28.7h-13.8v-28.7h13.8M869.1,663.8h-15.9v30.9h15.9v-30.9h0Z"/>
    <path class="cls-2" d="M872.3,546.9v12.7h-13.9v-12.7h13.9M873.4,545.8h-16v14.8h16v-14.8h0Z"/>
    <path class="cls-2" d="M857.4,530.9v14.9h-13.8v-14.9h13.8M858.5,529.8h-15.9v17.1h15.9v-17.1h0Z"/>
    <path class="cls-2" d="M864.9,539.4v6.4h-6.4v-6.4h6.4M865.9,538.3h-8.5v8.6h8.5v-8.6h0Z"/>
    <rect class="cls-7" x="807" y="353.5" width="59" height="21.8" transform="translate(-12.7 698.2) rotate(-45)"/>
    <path class="cls-2" d="M407.5,52.1v7.5h-8.6v-7.5h8.6M408.5,51.1h-10.7v9.6h10.7v-9.6h0Z"/>
    <path class="cls-2" d="M594.7,173.4v22.4h-13.8v-22.4h13.8M595.7,172.3h-16v24.5h16v-24.5h0Z"/>
    <path class="cls-2" d="M594.7,173.4v14.9h-13.8v-14.9h13.8M595.7,172.3h-16v17h16v-17h0Z"/>
    <path class="cls-2" d="M489.4,250v6.4h-14.9v-6.4h14.9M490.4,248.9h-17v8.5h17v-8.5h0Z"/>
    <path class="cls-2" d="M504.3,250v13.8h-13.9v-13.8h13.9M505.3,248.9h-16v15.9h16v-15.9h0Z"/>
    <path class="cls-2" d="M534.5,364.2l3.9,12.8-12.8,3.9-3.9-12.8,12.8-3.9M535.2,362.9l-14.9,4.6,4.6,14.9,14.9-4.6-4.6-14.9h0Z"/>
    <path class="cls-2" d="M482.1,296.4l3.3,12.7-27.2,7.1-3.3-12.7,27.2-7.1M482.9,295.1l-29.3,7.6,3.9,14.8,29.3-7.6-3.9-14.8h0Z"/>
    <path class="cls-2" d="M412.8,378.7v13.9h-13.8v-13.9h13.8M413.8,377.6h-16v16h16v-16h0Z"/>
    <path class="cls-2" d="M130.9,508.5v13.8h-28.7v-13.8h28.7M131.9,507.5h-30.9v16h30.9v-16h0Z"/>
    <path class="cls-2" d="M177.7,629.8v6.4h-53.3v-6.4h53.3M178.8,628.7h-55.4v8.5h55.4v-8.5h0Z"/>
    <path class="cls-2" d="M108.6,196.8v28.7h-28.8v-28.7h28.8M109.6,195.8h-30.9v30.8h30.9v-30.8h0Z"/>
    <path class="cls-2" d="M108.5,341.5v28.7h-28.7v-28.7h28.7M109.6,340.5h-30.8v30.8h30.8v-30.8h0Z"/>
    <path class="cls-2" d="M89.4,226.6v113.1h-2.1v-113.1h2.1M90.4,225.6h-4.2v115.2h4.2v-115.2h0Z"/>
    <path class="cls-2" d="M267.1,196.8v13.5h-13.9v-13.5h13.9M268.2,195.8h-16v15.6h16v-15.6h0Z"/>
    <path class="cls-2" d="M378.7,257.4v13.8h-29.8v-13.8h29.8M379.8,256.4h-31.9v16h31.9v-16h0Z"/>
    <rect class="cls-2" x="459.4" y="248.9" width="14.4" height="1.1"/>
    <path class="cls-2" d="M373.3,611.5l10.4,9.2-2.3,2.6-10.4-9.2,2.3-2.6M373.2,610l-3.7,4.2,12,10.6,3.7-4.2-12-10.6h0Z"/>
    <path class="cls-2" d="M86.2,294.7v7.4h-6.4v-7.4h6.4M87.3,293.7h-8.5v9.5h8.5v-9.5h0Z"/>
    <rect class="cls-2" x="163.8" y="207.5" width="51.1" height="1.1"/>
    <rect class="cls-2" x="888" y="475.5" width="45.3" height="1.1"/>
    <rect class="cls-2" x="887.6" y="462.8" width="46.2" height="1.1"/>
    <rect class="cls-2" x="787.3" y="240.5" width="44.1" height="1.1"/>
    <rect class="cls-2" x="787.3" y="237.3" width="44.1" height="1.1"/>
    <rect class="cls-7" x="956.2" y="378.7" width="15.4" height="14.3" transform="translate(9.4 794.6) rotate(-45)"/>
    <path class="cls-2" d="M547.5,483.1l9.7,9.1-11.2,12c-2.3-3.9-5.8-7-9.9-8.9l11.3-12.2M547.5,481.6l-13.1,14.1c5,1.8,9.2,5.5,11.5,10.3l12.9-13.8-11.3-10.5h0Z"/>
    <path class="cls-2" d="M507.5,508.5c.1-.4.2-.7.4-1.1h-41.5v1.1h41.1Z"/>
    <path class="cls-2" d="M508,523.4c-.1-.3-.3-.7-.4-1.1h-41.1v1.1h41.5,0Z"/>
    <path class="cls-2" d="M181.5,296.7l11.2,11.2-9.5,9.5-11.1-11.1c4.2-2.1,7.2-5.2,9.4-9.5M181.2,294.9c-2.4,5.5-6,8.9-10.9,11l12.9,12.9,11-11-13-13h0Z"/>
    <rect class="cls-2" x="787.5" y="206.4" width="44.1" height="1.1"/>
    <rect class="cls-2" x="787.5" y="203.2" width="44.1" height="1.1"/>
    <path class="cls-2" d="M496.9,52.1v7.5h-7.5v-7.5h7.5M497.9,51.1h-9.6v9.6h9.6v-9.6h0Z"/>
    <path class="cls-2" d="M485.3,53.2c1.1,0,1.9.9,1.9,1.9s-.9,1.9-1.9,1.9-1.9-.9-1.9-1.9.9-1.9,1.9-1.9M485.3,52.2c-1.7,0-3,1.4-3,3s1.4,3,3,3,3-1.4,3-3-1.4-3-3-3h0Z"/>
    <path class="cls-2" d="M493.8,95.2c1.1,0,1.9.9,1.9,1.9s-.9,1.9-1.9,1.9-1.9-.9-1.9-1.9.9-1.9,1.9-1.9M493.8,94.1c-1.7,0-3,1.4-3,3s1.4,3,3,3,3-1.4,3-3-1.4-3-3-3h0Z"/>
    <path class="cls-2" d="M493.8,137.6c1.1,0,1.9.9,1.9,1.9s-.9,1.9-1.9,1.9-1.9-.9-1.9-1.9.9-1.9,1.9-1.9M493.8,136.5c-1.7,0-3,1.4-3,3s1.4,3,3,3,3-1.4,3-3-1.4-3-3-3h0Z"/>
    <path class="cls-2" d="M487.8,137.6c1.1,0,1.9.9,1.9,1.9s-.9,1.9-1.9,1.9-1.9-.9-1.9-1.9.9-1.9,1.9-1.9M487.8,136.5c-1.7,0-3,1.4-3,3s1.4,3,3,3,3-1.4,3-3-1.4-3-3-3h0Z"/>
    <path class="cls-2" d="M493.8,131.6c1.1,0,1.9.9,1.9,1.9s-.9,1.9-1.9,1.9-1.9-.9-1.9-1.9.9-1.9,1.9-1.9M493.8,130.5c-1.7,0-3,1.4-3,3s1.4,3,3,3,3-1.4,3-3-1.4-3-3-3h0Z"/>
    <path class="cls-2" d="M104.3,226.6v7.4h-13.8v-7.4h13.8M105.3,225.6h-16v9.6h16v-9.6h0Z"/>
    <path class="cls-2" d="M86.2,279.8v13.9h-13.9v-13.9h13.9M87.3,278.7h-16v16h16v-16h0Z"/>
    <path class="cls-6" d="M765.1,851c-.1,2.5-1,12.6-6.1,19.7,0,0-.2.2-.3.2-1.5.3-12.3,2.4-27.8,1.7-.2,0-.4-.1-.4-.3l-1.8-4.9c0-.1,0-.2,0-.3.4-.9,2-4.9,2.2-9.4,0-.2.2-.4.4-.4l33.2-6.8c.3,0,.6.2.6.5h0Z"/>
    <path class="cls-2" d="M733.4,873.8c1.1,0,1.9.9,1.9,1.9s-.9,1.9-1.9,1.9-1.9-.9-1.9-1.9.9-1.9,1.9-1.9M733.4,872.8c-1.7,0-3,1.4-3,3s1.4,3,3,3,3-1.4,3-3-1.4-3-3-3h0Z"/>
    <path class="cls-2" d="M739.5,873.8c1.1,0,1.9.9,1.9,1.9s-.9,1.9-1.9,1.9-1.9-.9-1.9-1.9.9-1.9,1.9-1.9M739.5,872.8c-1.7,0-3,1.4-3,3s1.4,3,3,3,3-1.4,3-3-1.4-3-3-3h0Z"/>
    <path class="cls-6" d="M754.2,769.7l-28.9-1.5,2.2,39.8s21-9.8,26.7-38.3Z"/>
    <path class="cls-2" d="M720.8,796.1c2.9,0,5.2,2.4,5.2,5.2s-2.4,5.2-5.2,5.2-5.2-2.4-5.2-5.2,2.4-5.2,5.2-5.2M720.8,795.1c-3.5,0-6.3,2.8-6.3,6.3s2.8,6.3,6.3,6.3,6.3-2.8,6.3-6.3-2.8-6.3-6.3-6.3h0Z"/>
    <path class="cls-2" d="M743.5,795.3l5.8,2.8-3.3,6.6-5.8-2.8,3.3-6.6M743,793.9l-4.2,8.6,7.7,3.8,4.2-8.6-7.7-3.8h0Z"/>
    <path class="cls-2" d="M723.1,790.7c1.1,0,1.9.9,1.9,1.9s-.9,1.9-1.9,1.9-1.9-.9-1.9-1.9.9-1.9,1.9-1.9M723.1,789.7c-1.7,0-3,1.4-3,3s1.4,3,3,3,3-1.4,3-3-1.4-3-3-3h0Z"/>
  </g>
  <g id="Outlines">
    <path class="cls-3" d="M705.3,1.1v66l66.9,3.3,58.6,79.7v53.1h0v84.1h66.7l77,77-11.1,11.1,10.9,10.9,10.7-10.7h73.4v94.7h-21.2l-41.5,121.3h-39.3v45.8h26.6v56.4h-129.8v20.2l-53.4,34.3-4.3-6.4-6.4,4.3,11.9,17.8v126.7l-19.1,18h-63.8l-43.6-43.6h-47.8v-15.9h-8.5v15.9h-60.7v9.6l-2.1,4.6v25.6l9.6,8.1v76.6l-10.6,9.6h-92.5l-30.9-12.8h-2.1v-113.8h7.5v-7.4h-7.5v-68h14.9v-8.6h-14.9v-46.8l-121.2-100v-12.8h-20.3v4.3h4.3v19.1h0v44.7H117.1v-59.6h7.4v-8.5h-22.3v-165.9h34.1v-54.3h-66l-28.7-28.7v-192.5l28.7-28.7h164.1l38.8-46,5.1,4.3,25-27.4-15.6-13.9,20.8-23.3h188.3v11.7h7.5v-11.7h55.3l26.7-51.1h119M496.8,105.3h7.5v-16h-7.5v16M305.1,139.4l25.5-28.6-6.8-5.7-25.8,28.3,7,5.9M313.9,257.5h100v-7.5h45.8v-20.2h-16v-56.3h60.6v7.4h8.5v-7.4h83v-7.5h-91.5v-35.1h-7.5v11.7h-89.3v-3.2h-5.3v3.2h-32.9l-18.3-14-25.2,28.2,1.7,1.4-13.6,16.1v83.1M656.4,207.5h131.9v-4.3h-16l-24.5-22.3v-14.9h-91.5v41.5M267.1,257.5h6.4v-61.7h-6.4v61.7M504.3,279.8h29.8v82.7l23.4,76.8h83v26.6l20.3-19.2v-7.3h82.9v7.3l17.5,17.1,17.6-18.1v-37.1h-30.8v-53.3h-60.6v-118.1h-174.5v-34h-8.5v76.6M108.6,213.9h55.3v-6.4h-55.3v6.4M717,325.6h30.9v-7.6h0v-54.1l25.5-22.3h14.9v-4.3h-71.3v88.3M162.7,308.5c11.5,0,20.9-9.3,20.9-20.9s-9.3-20.9-20.9-20.9-20.9,9.3-20.9,20.9,9.3,20.9,20.9,20.9M233,385h0v23.5h-52.1v54.3h61.7v3.2h4.3v-3.2h14.9v-42.5l41.5-41.5h110.6v-69.2h-163.9l-37.2,38.3,20.2,20.2v16.9M443.7,369.2h17v62.7h-161.7v109.6h-4.3v4.2h4.3l128.7,113.8h69.1v-68.1h-29.7v-228.7h-23.4v6.4M677.7,500l-5.3-23.4-16,14.8v8.5h-30.8v60.7h18.1v3.2h2.1v-3.2h63.8v94.7h-7.4v4.3h44.7v23.4l27.8,41.4,6.4-4.3-4-6,31.5-21.1v-67.5h103.2v-19.2h-53.2v-60.6h-110.6v-54.2l-16-14.9-5.3,23.4h-48.9M527.2,536.2c11.5,0,20.9-9.3,20.9-20.9s-9.3-20.9-20.9-20.9-20.9,9.3-20.9,20.9,9.3,20.9,20.9,20.9M177.7,637.2h7.4v14.9h61.7v-19.1h3.2v-4.3h-3.2v-83h3.2v-4.2h-3.2v-44.7h-4.3v3.2h-35.1v107.4l-20.1,19.2v2.1h-9.7v8.5M557.4,659.6h68.1v128.7h-14.9v8.6h7.5v14.9h8.5v-7.5h53.2v-144.7h7.5v-4.3h-7.5v-63.8h-34.1v-3.2h-2.1v3.2h-86.1v68.1M267,633h4.3v-4.3h-4.3v4.3M480.9,796.9h92.6v-8.6h-11.7v-29.8h-69.2v29.8h-11.7v8.6M519.2,872.3h8.5v-7.4h-8.5v7.4M473.4,872.3h8.5v-7.4h-8.5v7.4M706.4,0h-120.8l-.3.6-26.4,50.5h-55.7v11.7h-5.2v-11.7h-189.9l-.3.4-20.8,23.3-.7.8.8.7,14.8,13.2-23.5,25.8-4.3-3.6-.9-.7-.7.9-38.5,45.6H69.8l-.3.3-28.7,28.7-.3.3v193.4l.3.3,28.7,28.7.3.3h65.3v52h-34.1v168.2h22.3v6.3h-7.4v61.8h176.7v-64.9s0-1.1,0-1.1h-4.3v-2h18v12.2l.4.3,120.8,99.7v47.4h14.9v6.3h-14.9v70.3h7.5v5.2h-7.5v116.1h3l30.7,12.7h.2c0,0,93.1,0,93.1,0l.3-.3,10.6-9.6.4-.3v-77.6l-.4-.3-9.2-7.8v-24.8l2-4.4v-.2c.1,0,.1-8.7.1-8.7h60.7v-15.9h6.3v15.9h48.5l43.3,43.3.3.3h64.8l.3-.3,19.1-18,.4-.3v-127.5l-.2-.3-11.3-16.8,4.6-3,3.6,5.4.6.9.9-.6,53.4-34.3.5-.3v-19.7h129.8v-58.6h-26.6v-43.5h39l.3-.8,41.3-120.5h21.6v-96.9h-75l-.3.3-9.9,9.9-9.3-9.3,10.3-10.3.8-.8-.8-.8-77-77-.3-.3h-66v-136.4l-.2-.3-58.6-79.7-.3-.4h-.5s-65.9-3.3-65.9-3.3V0h0ZM497.9,90.5h5.2v13.7h-5.2v-13.7h0ZM299.7,133.4l24.3-26.7,5.1,4.3-24,26.9-5.3-4.5h0ZM327.3,156.7l23.8-26.6,17.5,13.3.3.2h34.4v-3.2h3.1v3.2h91.6v-11.7h5.2v35.1h91.5v5.2h-83v7.4h-6.3v-7.4h-62.8v58.6h16v18h-45.8v7.5h-97.8v-81.6l13.3-15.8.7-.9-.9-.7-.8-.7h0ZM657.5,167.1h89.3v14.3l.4.3,24.5,22.3.3.3h15.3v2h-129.7v-39.3h0ZM268.2,196.9h4.1v59.5h-4.1v-59.5h0ZM505.4,204.3h6.3v34h174.5v118.1h60.6v53.3h30.8v35.6l-16.5,16.9-16.4-16v-8h-85.2v8l-18,17.1v-25.1h-83.3l-23.1-75.9v-83.7h-29.8v-74.4h0ZM109.7,208.6h53.1v4.1h-53.1v-4.1h0ZM718.1,238.4h69.1v2.1h-14.2l-.3.3-25.5,22.3-.4.3v55.7h0v5.4h-28.6v-86.1h0ZM162.7,307.4c-10.9,0-19.7-8.9-19.7-19.7s8.9-19.7,19.7-19.7,19.7,8.9,19.7,19.7-8.9,19.7-19.7,19.7h0ZM287.7,310.7h125.1v66.9h-110l-.3.3-41.5,41.5-.3.3v41.8h-14.9v3.2h-2v-3.2h-61.7v-52h52.1v-25.7h0v-16.3l-.3-.3-19.4-19.4,36.1-37.1h37.2ZM444.8,363.9h21.2v228.7h29.7v65.9h-67.6l-128.4-113.5-.3-.3h-3.6v-2h4.3v-109.6h161.7v-65h-17v-4.2h0ZM657.5,492l14.2-13.2,4.9,21.5.2.9h50.7l.2-.9,4.9-21.5,14.2,13.2v54.8h110.6v60.6h53.2v16.9h-103.2v68l-31,20.7-.9.6.6.9,3.4,5-4.6,3.1-27-40.2v-24.2h-44.7v-2h7.4v-96.9h-84v-58.4h30.8v-9.1h0ZM527.2,535c-10.9,0-19.7-8.9-19.7-19.7s8.9-19.7,19.7-19.7,19.7,8.9,19.7,19.7-8.9,19.7-19.7,19.7h0ZM243.7,497.9h2v44.7h3.2v2h-3.2v85.2h3.2v2h-3.2v19.1h-59.5v-14.9h-7.4v-6.3h9.7v-2.7l19.7-18.8.3-.3v-106.8h35.1v-3.2h0ZM644.7,592.6h34v63.8h7.5v2h-7.5v144.7h-53.2v7.5h-6.3v-14.9h-7.5v-6.3h14.9v-130.9h-68.1v-65.9h86.1ZM268.1,629.8h2v2h-2v-2h0ZM493.7,759.6h66.9v29.8h11.7v6.3h-90.3v-6.3h11.7v-29.8h0ZM520.3,866h6.3v5.2h-6.3v-5.2h0ZM474.5,866h6.3v5.2h-6.3v-5.2h0Z"/>
  </g>
  <g id="Callouts">
    <path class="cls-5" d="M127.4,257.9v-17c0-1.5.8-2.4,2.3-2.4h7.2c4.1,0,6.6,2.1,6.6,5.4s-1.8,4.4-4.1,4.7h0c3,.3,5.1,2.5,5.1,5.4s-2.9,6.2-7.5,6.2h-7.4c-1.4,0-2.3-.9-2.3-2.4h0ZM135.2,247.6c2.4,0,3.8-1.1,3.8-2.9s-1.2-2.7-3.3-2.7h-3.7v5.6h3.3ZM135.9,256.9c2.6,0,4-1.1,4-3.2s-1.5-3.1-4.1-3.1h-3.8v6.3h3.9Z"/>
    <path class="cls-5" d="M1028.9,457.4c-1.2,0-1.9-.6-2.3-2.1l-1.1-3.4h-7.9l-1.1,3.4c-.4,1.4-1.1,2-2.4,2s-2.3-.9-2.3-2.1,0-.9.3-1.4l6-16.2c.6-1.8,1.7-2.6,3.5-2.6s2.8.8,3.4,2.6l5.9,16.2c.2.6.3,1.1.3,1.4,0,1.3-.9,2.1-2.3,2.1h0ZM1024.5,448.5l-2.8-8.9h-.1l-2.9,8.9h5.8Z"/>
    <text class="cls-10" transform="translate(452.3 888.7)"><tspan x="0" y="0">攻方 重生点</tspan></text>
    <text class="cls-10" transform="translate(650.6 839.5)"><tspan x="0" y="0">A区 大厅</tspan></text>
    <text class="cls-10" transform="translate(810.1 690.5)"><tspan x="0" y="0">A区 商店</tspan></text>
    <text class="cls-10" transform="translate(878.4 502.9)"><tspan x="0" y="0">A区 金字塔</tspan></text>
    <text class="cls-10" transform="translate(669.6 305.3)"><tspan x="0" y="0">A区 坡道</tspan></text>
    <text class="cls-10" transform="translate(754.8 229.1)"><tspan x="0" y="0">A区 桥</tspan></text>
    <text class="cls-10" transform="translate(582.7 150.8)"><tspan x="0" y="0">守方 重生点</tspan></text>
    <text class="cls-10" transform="translate(339.3 100.1)"><tspan x="0" y="0">守方 拱门</tspan></text>
    <text class="cls-10" transform="translate(243.9 229.1)"><tspan x="0" y="0">B区 墙</tspan></text>
    <text class="cls-10" transform="translate(267.2 419.5)"><tspan x="0" y="0">B区 拐角</tspan></text>
    <text class="cls-10" transform="translate(422.9 213.4)"><tspan x="0" y="0">中区 高台</tspan></text>
    <text class="cls-10" transform="translate(325.3 292.3)"><tspan x="0" y="0">B区 隧道</tspan></text>
    <text class="cls-10" transform="translate(459.4 334.6)"><tspan x="0" y="0">中区 坡顶</tspan></text>
    <text class="cls-10" transform="translate(474.5 521.3)"><tspan x="0" y="0">中区 柱子</tspan></text>
    <text class="cls-10" transform="translate(660 471.6)"><tspan x="0" y="0">中区 木门</tspan></text>
    <text class="cls-10" transform="translate(320.9 644.8)"><tspan x="0" y="0">中区 大炮</tspan></text>
    <text class="cls-10" transform="translate(119.9 675.3)"><tspan x="0" y="0">B区 窗户</tspan></text>
    <text class="cls-10" transform="translate(116.5 502)"><tspan x="0" y="0">B区 大道</tspan></text>
    <text class="cls-10" transform="translate(30.2 292.3)"><tspan x="0" y="0">B区 后房</tspan></text>
    <text class="cls-10" transform="translate(654.7 612.6)"><tspan x="0" y="0">中区 大堂</tspan></text>
    <text class="cls-10" transform="translate(491 644.8)"><tspan x="0" y="0">中区 坡底</tspan></text>
  </g>
  <g id="Barrier">
    <line class="cls-8" x1="508.5" y1="180.9" x2="508.5" y2="203.2"/>
    <line class="cls-8" x1="405.9" y1="257.4" x2="405.9" y2="309.6"/>
    <line class="cls-8" x1="738.6" y1="439.4" x2="738.6" y2="483.2"/>
    <line class="cls-8" x1="858.5" y1="555.2" x2="1011.5" y2="555.2"/>
    <line class="cls-8" x1="136.3" y1="418.5" x2="180.9" y2="418.5"/>
    <line class="cls-9" x1="496.8" y1="654.6" x2="557.4" y2="654.6"/>
    <line class="cls-9" x1="679.8" y1="654.6" x2="709.6" y2="654.6"/>
    <line class="cls-9" x1="777.7" y1="722.3" x2="792.2" y2="744"/>
    <line class="cls-9" x1="250" y1="543.3" x2="294.7" y2="543.3"/>
    <line class="cls-9" x1="241.9" y1="652.1" x2="241.9" y2="696.8"/>
  </g>
</svg>