<?xml version="1.0" encoding="UTF-8"?>
<svg id="_图层_1" data-name="图层 1" xmlns="http://www.w3.org/2000/svg" version="1.1" viewBox="0 0 1100 1000">
  <defs>
    <style>
      .cls-1 {
        fill: #32343b;
      }

      .cls-1, .cls-2, .cls-3, .cls-4, .cls-5 {
        stroke-width: 0px;
      }

      .cls-2 {
        fill: #575548;
      }

      .cls-3 {
        fill: #646568;
      }

      .cls-6 {
        stroke: #afabae;
        stroke-width: 1.2px;
      }

      .cls-6, .cls-7, .cls-8 {
        fill: none;
        stroke-miterlimit: 10;
      }

      .cls-7 {
        stroke: #814194;
      }

      .cls-7, .cls-8 {
        opacity: .8;
        stroke-width: 10px;
      }

      .cls-8 {
        stroke: #6bc3c0;
      }

      .cls-4 {
        fill: #afabae;
      }

      .cls-5, .cls-9 {
        fill: #fff;
      }

      .cls-9 {
        font-family: SimHei, SimHei;
        font-size: 16px;
        isolation: isolate;
      }
    </style>
  </defs>
  <g id="_进攻-莲华古城" data-name="进攻-莲华古城">
    <g id="Body">
      <path class="cls-1" d="M1083.2,127.7h-251V13.4h-250.7l-33.3,11.1-17.2,32.1-14.6,54-11.1,16v25.8H217.7v95.9H51.7v67.6h23.4v109.4H1.4v141.3s4.7,33.3,36.6,40.6h128.1v-35.6h45.5v127.8l45.5,45.5v35.5h-45.5v42l220,104.5h71.3v60.2h168.4v-142.6h158.5v-136.4h-59v-8.6h232.3v-196.6h41.8l54.1-54.1V127.8h-15.7ZM1035,286.2v-17.2h8.6v56.5h-72.5v-56.5h9.8v17.2h54.1ZM930.5,245.6v93.4h-27v-24.6h-28.3v-4.9h28.3v-43h-9.8v-71.3h-138.9v-18.4h148.7v68.8h27ZM910.8,632.8h-24.6v-24.6h24.6v24.6ZM647.8,405.4v61.5h-18.4v-105.7h-27v-8.6h116.8v-115.5h120.4v28.3l-8.6,11.1v18.4s22,16-4.9,39.3v88.5h-73.7v-17.2h-104.5ZM452.8,229.7h113.9v-104.5h65.1v163.5h18.4v18.4h-27v-18.4h-66.4v63.9h18.4v27h-27v-67.6h-109.4v-82.3h13.9ZM263.1,315.7v-86h135.2v68.8h-98.3v113.1h-98.3v-77.4h-86v-18.4h147.5ZM137.8,416.5h-17.2v-36.9h17.2v36.9ZM75.2,480.4v22.1h-28.3v-22.1h28.3ZM166.2,480.4v-18.4h115.5v18.4h71.3v-109.4h104.5v-27h35.6v35.6h-72.5v119.2h36.9v35.6h-95.9v18.4h-40.6v-36.9h0v-27h-92.2l-17.2,17.2v9.8h-45.5v-35.6h0ZM457.3,861.4v-99.6h-127.8v-18.4h13.5v-136.4h203.9v41.8h-72.4v100.8h0v12.3h66.4v8.6h-38.1v90.9h-45.5ZM514,686.9v4.9h-4.9v-4.9h4.9ZM509.1,723.7h4.9v4.9h-4.9v-4.9ZM657.9,790.1h-55.6v-260.6h-63.9v28.1h-35.6v-59h249.5v-55.3h9.8v90.9h86v11.1h-27v26.1l-13.5,14.4-17.2,25.9-8.4,3.8-1.5,10.6-9.8,9-36.9,11.1v61.5l-4.9,6.1h-6.1v6.1l-11.1,4.9v65.1h-53.8ZM1032.4,405.4h-83.3v22.1h12.3c2.8,1.6,4.9,5.2,4.9,9.2s-2,7.5-4.9,9.2h-12.3v56.5h0v13.5h-9.8v-70.1h-38.1v-55.3h152.4v14.7h-21.1ZM1065.6,195.3h-99.4v-18.4h105.7v18.4h-6.3Z"/>
    </g>
    <g id="Bombsite">
      <polygon class="cls-2" points="548.4 416.1 548.4 344 492.8 344 492.8 378.4 457.3 378.4 457.3 439.8 492.8 439.8 495.3 439.8 528.1 439.8 549 439.8 621.5 439.8 621.5 416.1 548.4 416.1"/>
      <rect class="cls-1" x="537.3" y="359.9" width="12.3" height="25.8"/>
      <rect class="cls-1" x="1053.4" y="194" width="18.6" height="19.5"/>
      <path class="cls-2" d="M971.7,195.3h-5.4l-35.6,50.4v93.4h168.4v-143.8h-127.3ZM971.1,325.5v-56.5h9.8v17.2h54.1v-17.2h8.6v56.5h-72.5Z"/>
      <rect class="cls-1" x="998.1" y="324.2" width="18.4" height="19.7"/>
      <rect class="cls-1" x="1053.7" y="194.3" width="17.8" height="18.8"/>
      <rect class="cls-2" x="75.1" y="379.6" width="45.6" height="122"/>
      <rect class="cls-2" x="118.6" y="415.9" width="18.7" height="85.8"/>
      <rect class="cls-2" x=".5" y="424" width="83.3" height="56.4"/>
    </g>
    <g id="Lines">
      <path class="cls-4" d="M842,406.7v14.7h-15.9v-14.7h15.9M843.3,405.4h-18.3v17.2h18.3v-17.2h0Z"/>
      <path class="cls-4" d="M1015.3,325.4v17.2h-16v-17.2h16M1016.5,324.2h-18.4v19.7h18.4v-19.7h0Z"/>
      <path class="cls-4" d="M1070.6,195.1v17.2h-16.1v-17.2h16.1M1071.9,193.9h-18.6v19.7h18.6v-19.7h0Z"/>
      <path class="cls-4" d="M902.2,160.8v16h-16v-16h16M903.5,159.6h-18.4v18.4h18.4v-18.4h0Z"/>
      <path class="cls-4" d="M832.2,13.4v45.4h-19.7V13.4h19.7M833.4,12.1h-22.1v47.8h22.1V12.1h0Z"/>
      <path class="cls-4" d="M832.2,42.9v15.9h-19.7v-15.9h19.7M833.4,41.6h-22.1v18.3h22.1v-18.3h0Z"/>
      <path class="cls-4" d="M548.3,361.2v23.4h-9.8v-23.4h9.8M549.5,359.9h-12.3v25.8h12.3v-25.8h0Z"/>
      <path class="cls-4" d="M456.1,379.5v17.2h-35.6v-17.2h35.6M457.3,378.3h-38.1v19.7h38.1v-19.7h0Z"/>
      <path class="cls-4" d="M427.8,398.1v7.4h-7.4v-7.4h7.4M429.1,396.8h-9.8v9.8h9.8v-9.8h0Z"/>
      <path class="cls-4" d="M629.5,416.5v30.7h-7.4v-30.7h7.4M630.7,415.3h-9.8v33.2h9.8v-33.2h0Z"/>
      <path class="cls-4" d="M473.3,591v16h-14.7v-16h14.7M474.5,589.8h-17.2v18.4h17.2v-18.4h0Z"/>
      <path class="cls-4" d="M602.5,763.1v25.8h-17.2v-25.8h17.2M603.7,761.8h-19.7v28.3h19.7v-28.3h0Z"/>
      <path class="cls-4" d="M329.6,745.9v14.7h-17.2v-14.7h17.2M330.9,744.6h-19.7v17.2h19.7v-17.2h0Z"/>
      <path class="cls-4" d="M424.1,827v34.4h-16v-34.4h16M425.4,825.8h-18.4v36.9h18.4v-36.9h0Z"/>
      <path class="cls-4" d="M414.3,808.6v16h-6.1v-16h6.1M415.5,807.3h-8.6v18.4h8.6v-18.4h0Z"/>
      <path class="cls-4" d="M321,535.7v16h-17.2v-16h17.2M322.3,534.5h-19.7v18.4h19.7v-18.4h0Z"/>
      <path class="cls-4" d="M64,502.5v35.6h-16v-35.6h16M65.3,501.3h-18.4v38.1h18.4v-38.1h0Z"/>
      <path class="cls-4" d="M201.7,334.1v17.2h-16v-17.2h16M202.9,332.9h-18.4v19.7h18.4v-19.7h0Z"/>
      <path class="cls-4" d="M280.3,212.5v17.2h-16v-17.2h16M281.6,211.2h-18.4v19.7h18.4v-19.7h0Z"/>
      <rect class="cls-4" x="51.1" y="265.3" width="156.8" height="1.2"/>
      <polygon class="cls-4" points="137.8 501.3 137.8 416.2 136.5 416.2 136.5 501.3 75 501.3 75 502.5 136.5 502.5 137.8 502.5 137.8 502.5 137.8 501.3"/>
      <polygon class="cls-6" points="290.8 688.1 319.7 675.7 328.3 640.7 314.8 614.4 273.1 604.5 250.8 611.9 228.7 635 244.7 672 290.8 688.1"/>
      <rect class="cls-4" x="406.9" y="761" width="1.2" height="48.1"/>
      <polyline class="cls-6" points="788.6 13.4 788.6 30.3 812.2 49.1"/>
      <rect class="cls-4" x="1033.8" y="126.9" width="1.2" height="50.9"/>
      <polygon class="cls-4" points="549.5 415.3 549.5 385.3 548.3 385.3 548.3 415.3 548.3 416.5 549.5 416.5 621.8 416.5 621.8 415.3 549.5 415.3"/>
      <path class="cls-6" d="M550.1,415.9h-1.2v-30.6h-10.9c-16.5,8.7-28.5,26.3-28.5,46.2,0,28.6,23.4,51.9,52.2,51.9s52.2-23.2,52.2-51.9-.7-10.9-2.2-15.6h-61.6Z"/>
      <polyline class="cls-6" points="818.1 573.7 831.6 615.1 831.6 626.7 819.2 635.9 812.5 635.9 805.8 629.7 805.8 626.7"/>
      <line class="cls-6" x1="831.6" y1="621" x2="770.2" y2="634.8"/>
      <polyline class="cls-6" points="910.8 632.2 974.3 632.2 975.4 608.8 931.3 608.8 922.5 606.4 913.9 606.4 910 609.7"/>
      <path class="cls-4" d="M846.9,517.3v17.2h-24.6v-17.2h24.6M848.2,516h-27v19.7h27v-19.7h0Z"/>
      <line class="cls-6" x1="966.9" y1="194.3" x2="929.7" y2="246.8"/>
      <path class="cls-4" d="M166.2,591v16h-17.2v-16h17.2M167.4,589.8h-19.7v18.4h19.7v-18.4h0Z"/>
      <path class="cls-4" d="M147.6,599.6v7.4h-8.6v-7.4h8.6M148.8,598.4h-11.1v9.8h11.1v-9.8h0Z"/>
      <path class="cls-4" d="M184.5,334.1v8.6h-8.6v-8.6h8.6M185.7,332.9h-11.1v11.1h11.1v-11.1h0Z"/>
      <rect class="cls-4" x="829.7" y="516.5" width="1.2" height="18.3"/>
    </g>
    <g id="Outlines">
      <path class="cls-3" d="M832.2,13.4v114.3h266.7v320.8l-54.1,54.1h-41.8v196.6h-232.3v8.6h59v136.4h-158.5v142.6h-168.4v-60.2h-71.3l-220-104.5v-42h45.5v-35.5l-45.5-45.5v-127.8h-45.5v35.6H38c-32-7.3-36.6-40.6-36.6-40.6v-141.3h73.7v-109.4h-23.4v-67.6h165.9v-95.9h287.6v-25.8l11.1-16,14.6-54,17.2-32.1,33.3-11.1h250.7M438.9,312h109.4v67.6h27v-27h-18.4v-63.9h66.4v18.4h27v-18.4h-18.4V125.2h-65.1v104.5h-127.8v82.3M966.2,195.3h105.7v-18.4h-105.7v18.4M754.8,195.3h138.9v71.3h9.8v43h-28.3v4.9h28.3v24.6h27v-93.4h-27v-68.8h-148.7v18.4M115.7,334.1h86v77.4h98.3v-113.1h98.3v-68.8h-135.2v86H115.7v18.4M602.4,361.2h27v105.7h18.4v-61.5h104.5v17.2h73.7v-88.5c27-23.4,4.9-39.3,4.9-39.3v-18.4l8.6-11.1v-28.3h-120.4v115.5h-116.8v8.6M980.9,286.2v-17.2h-9.8v56.5h72.5v-56.5h-8.6v17.2h-54.1M281.6,480.4v-18.4h-115.5v54.1h45.5v-9.8l17.2-17.2h92.2v27h0v36.9h40.6v-18.4h95.9v-35.6h-36.9v-119.2h72.5v-35.6h-35.6v27h-104.5v109.4h-71.3M120.6,416.5h17.2v-36.9h-17.2v36.9M901,446h38.1v70.1h9.8v-13.5h0v-56.5h12.3c2.8-1.6,4.9-5.2,4.9-9.2s-2-7.5-4.9-9.2h-12.3v-22.1h104.5v-14.7h-152.4v55.3M619.1,498.8h-116.3v59h35.6v-28.1h63.9v260.6h109.4v-65.1l11.1-4.9v-6.1h6.1l4.9-6.1v-61.5l36.9-11.1,9.8-9,1.5-10.6,8.4-3.8,17.2-25.9,13.5-14.4v-26.1h27v-11.1h-86v-90.9h-9.8v55.3h-133.2M46.8,502.5h28.3v-22.1h-28.3v22.1M329.5,761.8h127.8v99.6h45.5v-90.9h38.1v-8.6h-66.4v-12.3h0v-100.8h72.4v-41.8h-203.9v136.4h-13.5v18.4M886.3,632.8h24.6v-24.6h-24.6v24.6M508.9,691.8h4.9v-4.9h-4.9v4.9M508.9,728.7h4.9v-4.9h-4.9v4.9M833.4,12h-252.3l-33.3,11.1h-.5c0,.1-.2.6-.2.6l-17.2,32.1h-.1v.2l-14.6,53.7-10.9,15.9-.2.4v24.9H216.3v95.9H50.4v70.2h23.4v106.8H0v142.8c.1.4,1.2,8.7,6.5,17.9,4.8,8.6,14.1,19.8,31.1,23.6h129.5v-35.6h42.9v127.1l.4.4,45.1,45.1v33.7h-45.5v44.1l.7.4,220,104.5h.2c0,.1,70.3.1,70.3.1v60.2h171v-142.6h158.5v-139h-59v-6h232.3v-196.6h41.1l.4-.4,54.1-54.1.4-.4V126.3h-266.7V12h.1ZM568.1,126.4h62.6v163.5h18.4v15.9h-24.5v-18.4h-68.9v66.5h18.4v24.5h-24.5v-67.6h-109.4v-79.8h127.8v-104.5h0ZM967.5,178.1h103.1v15.9h-103.1v-15.9h0ZM756.1,178.1h146.1v68.8h27v90.8h-24.5v-24.6h-28.3v-2.3h28.3v-45.6h-9.8v-71.3h-138.9v-15.9h0ZM264.5,230.9h132.6v66.2h-98.3v113.1h-95.7v-77.4h-86v-15.9h147.5v-86h0ZM720.5,238.3h117.9v26.5l-8.4,10.7-.2.4v19.5l.5.4c.1,0,7.6,5.7,8,14.6.2,7.4-4.1,15-12.9,22.7l-.5.4v87.8h-71.2v-17.2h-107.1v61.5h-15.9v-105.7h-27v-6h116.8v-115.5h0ZM1036.3,270.2h6v54h-69.9v-54h7.3v17.2h56.7v-17.2h0ZM458.7,345.2h33.1v33.1h-72.5v121.8h36.9v33.1h-95.9v18.4h-38v-36.9h0v-27h-94l-.4.4-17.2,17.2-.4.4v9.1h-42.9v-51.5h112.9v18.4h73.9v-109.4h104.5v-27h0ZM121.9,380.8h14.6v34.3h-14.6v-34.3h0ZM902.4,391.9h149.8v12.2h-104.3v24.7h13c2.5,1.5,3.9,4.7,3.9,8s-1.6,6.4-3.9,8h-13.2v70.1h-7.3v-70.1h-38.1v-52.8h0ZM753.7,444.8h7.3v90.9h86v8.5h-27v26.8l-13.2,14h-.1v.2l-17,25.7-8.1,3.7-.6.2v.7c-.1,0-1.5,10.1-1.5,10.1l-9.2,8.5-36.6,10.9-1,.2v61.9l-4.3,5.3h-6.8v6.5l-10.3,4.7-.7.4v64.6h-106.8v-260.6h-66.5v28.1h-33.1v-56.4h249.4v-55.2h.1ZM48.2,481.6h25.7v19.5h-25.7v-19.5h0ZM344.4,608.2h201.3v39.2h-72.4v103.4h0v12.3h66.4v6h-38.1v90.9h-42.9v-99.6h-127.8v-15.9h13.5v-136.4h0ZM887.5,609.4h22v22h-22v-22h0ZM510.3,688.1h2.3v2.3h-2.3v-2.3h0ZM510.3,725h2.3v2.3h-2.3v-2.3h0Z"/>
    </g>
    <g id="Callouts">
      <text class="cls-9" transform="translate(1027.5 158.4)"><tspan x="0" y="0">A区 下坡</tspan></text>
      <text class="cls-9" transform="translate(904.6 158.4)"><tspan x="0" y="0">A区 高地</tspan></text>
      <text class="cls-9" transform="translate(970.9 267.8)"><tspan x="0" y="0">A区 小屋</tspan></text>
      <text class="cls-9" transform="translate(963 463.5)"><tspan x="0" y="0">A区 树</tspan></text>
      <text class="cls-9" transform="translate(910.9 534.5)"><tspan x="0" y="0">A区 通道门</tspan></text>
      <text class="cls-9" transform="translate(336.7 581.7)"><tspan x="0" y="0">C区 通道门</tspan></text>
      <text class="cls-9" transform="translate(914.5 626.7)"><tspan x="0" y="0">A区 碎石</tspan></text>
      <text class="cls-9" transform="translate(793.9 613.1)"><tspan x="0" y="0">A区 树根</tspan></text>
      <text class="cls-9" transform="translate(661.6 457.6)"><tspan x="0" y="0">A区 小道</tspan></text>
      <text class="cls-9" transform="translate(825.9 482.2)"><tspan x="0" y="0">A区 大道</tspan></text>
      <text class="cls-9" transform="translate(350.2 342.3)"><tspan x="0" y="0">C区 小道</tspan></text>
      <text class="cls-9" transform="translate(351.5 189.6)"><tspan x="0" y="0">C区 碎石路</tspan></text>
      <text class="cls-9" transform="translate(112.3 292.8)"><tspan x="0" y="0">C区 走廊</tspan></text>
      <text class="cls-9" transform="translate(215.3 441.8)"><tspan x="0" y="0">C区 瀑布</tspan></text>
      <text class="cls-9" transform="translate(10.1 562.4)"><tspan x="0" y="0">C区 弯道</tspan></text>
      <text class="cls-9" transform="translate(179.4 542.5)"><tspan x="0" y="0">C区 大道 </tspan></text>
      <text class="cls-9" transform="translate(250.7 653.7)"><tspan x="0" y="0">C区 土丘</tspan></text>
      <text class="cls-9" transform="translate(296.1 823)"><tspan x="0" y="0">C区 大厅</tspan></text>
      <text class="cls-9" transform="translate(746.1 787.6)"><tspan x="0" y="0">A区 大厅</tspan></text>
      <text class="cls-9" transform="translate(814.9 228.5)"><tspan x="0" y="0">A区 台阶</tspan></text>
      <text class="cls-9" transform="translate(517.6 709)"><tspan x="0" y="0">B区 柱子</tspan></text>
      <text class="cls-9" transform="translate(581.6 329.1)"><tspan x="0" y="0">B区 上层</tspan></text>
      <text class="cls-9" transform="translate(468.3 583.3)"><tspan x="0" y="0">B区 大道</tspan></text>
      <text class="cls-9" transform="translate(538.4 900.5)"><tspan x="0" y="0">攻方 重生点</tspan></text>
      <text class="cls-9" transform="translate(642.8 91.9)"><tspan x="0" y="0">守方 重生点</tspan></text>
      <path id="C" class="cls-5" d="M57.4,450.7c0-8.1,4.7-13,11.8-13s8.4,2.1,10.1,5.7c.4.6.5,1.4.5,2,0,1.4-1,2.2-2.3,2.2s-2-.5-2.5-1.7c-1.1-2.6-3.2-3.8-5.7-3.8-3.9,0-6.5,3.3-6.5,8.6s2.5,8.6,6.5,8.6,4.7-1.2,5.8-3.7c.5-1.2,1.2-1.7,2.3-1.7s2.5,1,2.5,2.3-.1,1.1-.4,1.7c-1.6,3.4-5.3,5.7-10.1,5.7-7.5.2-12-4.7-12-12.8h0Z"/>
      <path id="B" class="cls-5" d="M474.7,431.6v-19.7c0-1.7,1-2.7,2.6-2.7h8.4c4.7,0,7.6,2.5,7.6,6.3s-2.1,5-4.7,5.4h0c3.4.4,5.9,2.8,5.9,6.1s-3.3,7.3-8.7,7.3h-8.5c-1.6,0-2.6-1-2.6-2.7h0ZM483.8,419.7c2.8,0,4.4-1.2,4.4-3.3s-1.4-3.2-3.8-3.2h-4.3v6.5h3.7ZM484.5,430.4c3.1,0,4.7-1.2,4.7-3.7s-1.7-3.6-4.8-3.6h-4.4v7.3h4.5Z"/>
      <path id="A" class="cls-5" d="M1016.8,243.4c-1.4,0-2.2-.7-2.7-2.3l-1.4-3.9h-9.1l-1.4,3.9c-.5,1.6-1.2,2.3-2.7,2.3s-2.6-1-2.6-2.5.1-1,.4-1.7l6.9-18.7c.7-2.1,2-2.9,4.1-2.9s3.2,1,3.9,2.9l6.9,18.7c.2.6.4,1.2.4,1.7-.1,1.5-1.1,2.5-2.7,2.5h0ZM1011.6,233.1l-3.3-10.3h-.1l-3.3,10.3h6.8Z"/>
    </g>
    <g id="Barrier">
      <line class="cls-8" x1="411.9" y1="761" x2="410.7" y2="918"/>
      <line class="cls-8" x1="540.8" y1="766.2" x2="603.7" y2="766.2"/>
      <line class="cls-8" x1="772.1" y1="703.9" x2="732.6" y2="703.9"/>
      <line class="cls-7" x1="843.3" y1="410.3" x2="902.4" y2="410.3"/>
      <line class="cls-7" x1="1016.5" y1="503.7" x2="1017.8" y2="404.1"/>
      <line class="cls-7" x1="757.9" y1="444.8" x2="757.9" y2="421.3"/>
      <line class="cls-7" x1="456.1" y1="514.7" x2="504.2" y2="515.2"/>
      <line class="cls-7" x1="171.1" y1="572.6" x2="171.1" y2="514.7"/>
    </g>
  </g>
</svg>