<?xml version="1.0" encoding="UTF-8"?>
<svg id="_图层_1" data-name="图层 1" xmlns="http://www.w3.org/2000/svg" version="1.1" viewBox="0 0 1100 1000">
  <defs>
    <style>
      .cls-1 {
        stroke-dasharray: 0 0 6.3 9.1;
      }

      .cls-1, .cls-2, .cls-3, .cls-4, .cls-5, .cls-6, .cls-7, .cls-8, .cls-9, .cls-10, .cls-11 {
        fill: none;
        stroke-miterlimit: 10;
      }

      .cls-1, .cls-2, .cls-3, .cls-4, .cls-7, .cls-8, .cls-9, .cls-10, .cls-11 {
        stroke: #afabae;
        stroke-width: 1.1px;
      }

      .cls-12 {
        fill: #32343b;
      }

      .cls-12, .cls-13, .cls-14, .cls-15, .cls-16, .cls-17 {
        stroke-width: 0px;
      }

      .cls-2 {
        stroke-dasharray: 0 0 8.2 11.7;
      }

      .cls-13 {
        fill: #575548;
      }

      .cls-14 {
        fill: #646568;
      }

      .cls-4 {
        stroke-dasharray: 0 0 8.1 11.5;
      }

      .cls-5 {
        stroke: #814194;
      }

      .cls-5, .cls-6 {
        opacity: .8;
        stroke-width: 10px;
      }

      .cls-6 {
        stroke: #6bc3c0;
      }

      .cls-7 {
        stroke-dasharray: 0 0 5.7 4.5;
      }

      .cls-8 {
        stroke-dasharray: 0 0 7.5 10.8;
      }

      .cls-9 {
        stroke-dasharray: 0 0 7.6 10.8;
      }

      .cls-15 {
        fill: #f4ca24;
      }

      .cls-16 {
        fill: #afabae;
      }

      .cls-10 {
        stroke-dasharray: 0 0 8.1 11.6;
      }

      .cls-17, .cls-18 {
        fill: #fff;
      }

      .cls-11 {
        stroke-dasharray: 0 0 5.3 4.2;
      }

      .cls-18 {
        font-family: SimHei, SimHei;
        font-size: 16px;
        isolation: isolate;
      }
    </style>
  </defs>
  <g id="_进攻-裂变峡谷" data-name="进攻-裂变峡谷">
    <g id="Body">
      <path class="cls-12" d="M26.1,450.5h18.2v147.9h17.1v15.9h38.7l24.1-38.7h5.5v73.9h-26.2v29.6l61.4,101.3v3.4l-28.4,19.3v29.6h106.9v89.9h55.7v-1.1h54.6l29.6-17.1h31.9v20.5h80.8v-26.2h21.6v100.1h146.8v-4.6h94.4l25-12.5v-78.5h-28.4v-69.4h88.7v27.3h35.8c0,1,41.5,0,41.5,0l26.2-26.2,54.6-54.6v-135.4h-9.1v-34.1h80.8v-46h0v-130.4h-105.8v45.5h-47.8v-11.4h25v-147.9l-67.2-47.8c-38.7-2.5-39.7-14.8-39.7-14.8v-2.3c7.6-4.8,10.1-10.6,10.9-13.7h.5v-2.3c-10.1-11.6-30.7-93.6-30.7-93.6v-24.7h22.8v-47.8l-30.7-35.3-48.9-2.3-56.9-7.8-14.8-3.4-17-2.3-18.2-11.4-8.3-2.2-11.3-8.2h-260.5l-64.8,64.8v142.2h28.4v67.1h-116l-50.1,50.1v10.2h-25l-14.8,18.2v68.3H26v28.4h.1ZM427.6,431.2h25v75.1l-82.3,81.9h-106.6v-10.2h100.1l41-41v-34.1l22.8-21.6v-50.1ZM698.4,772.5v144.5h-13.7v-13.7h-54.6v-100.1l-8-13.7h-104.7v17.1h-75.1l-26.4,52.3h-33.9l-74.1-157.1v-62.5h-58v96.4l-37.5,23.1h-2.3l-28.4-51.2v-70.5h141.1v17.1h68.3l100.3-101.3h72.7v-87.6h53.5v86.5h30.7v129.7h63.7v28.2l42.1,42.3h55.7v20.5h-111.5ZM746.8,466.4h5.1v63.7h47.8v12.5h-64.8l-22.8,18.2-18.2,17.1v70.5h-10.2v-96.7h17.1v-85.3h46.1ZM953.2,610.1v33.8h-25v118.3h-50.1v-30.7h-47.8v-33l-48.9-48.9h-3.4v-46.6h105.8v-23.9h45.5l23.9,31.1ZM764.3,147c-3.2.7-5.3,1.4-5.7,2-1.9,4-3.4,13.7-3.4,13.7v25l3.4,10.4v24.1l-1,14.4c4.1,13.8,61.3,87.6,61.3,87.6h66v20.5h-26.2v89.9h26.2v18.3h-27.2l-9.2,17.1v23.8h-55.7v-55.7l-41-41h-259.7l-25.8-13.7h-105.8v85.3h-68.3v-122.9h37.5v29.6h25v5.7h39.8v-76.2h67.1v-78.5l-27.3-35.3h-41v-40.5l43.2-43.7h84.2v55.7h143.3v-58h93.3v17.1h6.8v25.3ZM161.5,377.9v-9.3h11.4v15.9h50.1v54.6h26.2v42.1h-54.6v-19.3h-117.2v-11.4h84.2s0-72.6,0-72.6Z"/>
    </g>
    <g id="Bombsite">
      <polygon class="cls-13" points="194.4 461.9 78.2 461.9 78.2 511.9 44.2 511.9 44.2 598.6 61.3 598.6 61.3 614.6 99.9 614.6 124.4 576.3 129 576.2 129 552.9 194.4 552.9 194.4 461.9"/>
      <polygon class="cls-13" points="1074.7 433.9 968 433.9 968 537 968 552.8 968 588.2 1056.7 588.2 1056.7 552.8 1074.7 552.8 1074.7 433.9"/>
      <polygon class="cls-12" points="197.8 539.8 188.1 539.8 188.1 528.6 170 528.6 170 510.5 188.1 510.5 188.1 520.5 206.4 520.6 206.4 539.8 197.8 539.8"/>
    </g>
    <g id="Hell_lines" data-name="Hell lines">
      <line class="cls-3" x1="249.5" y1="637.5" x2="249.5" y2="633.6"/>
      <line class="cls-8" x1="249.5" y1="622.8" x2="249.5" y2="518.4"/>
      <polyline class="cls-3" points="249.5 513.1 249.5 509.1 253.5 509.1"/>
      <line class="cls-9" x1="264.3" y1="509.1" x2="350.6" y2="509.1"/>
      <polyline class="cls-3" points="356 509.1 360 509.1 360 505.1"/>
      <line class="cls-1" x1="360" y1="496" x2="360" y2="469.7"/>
      <line class="cls-3" x1="360" y1="465.2" x2="360" y2="461.2"/>
      <polyline class="cls-3" points="1019.9 549.5 1019.9 552.3 1017 552.3"/>
      <line class="cls-11" x1="1012.8" y1="552.3" x2="1005.4" y2="552.3"/>
      <polyline class="cls-3" points="1003.4 552.3 1000.5 552.3 1000.5 549.5"/>
      <line class="cls-7" x1="1000.5" y1="544.9" x2="1000.5" y2="526.7"/>
      <polyline class="cls-3" points="1000.5 524.5 1000.5 521.6 1003.4 521.6"/>
      <line class="cls-11" x1="1007.6" y1="521.6" x2="1014.8" y2="521.6"/>
      <polyline class="cls-3" points="1017 521.6 1019.9 521.6 1019.9 524.5"/>
      <line class="cls-7" x1="1019.9" y1="529" x2="1019.9" y2="547.2"/>
      <line class="cls-3" x1="395.3" y1="382.8" x2="395.3" y2="386.8"/>
      <polyline class="cls-4" points="395.3 398.4 395.3 547.4 393.7 549"/>
      <polyline class="cls-3" points="389.6 553.1 386.9 556 382.9 556"/>
      <line class="cls-2" x1="371.2" y1="556" x2="317.5" y2="556"/>
      <polyline class="cls-3" points="311.5 556 307.6 556 307.6 560"/>
      <polyline class="cls-3" points="307.6 574.5 307.6 578.5 308.8 578.5 308.8 582.5"/>
      <line class="cls-10" x1="308.8" y1="594.1" x2="308.8" y2="627.6"/>
      <line class="cls-3" x1="308.8" y1="633.4" x2="308.8" y2="637.4"/>
    </g>
    <g id="Lines">
      <path class="cls-16" d="M1073.8,480.1v71.7h-72.8v-71.7h72.8M1074.9,479h-75.1v73.9h75.1v-73.9Z"/>
      <path class="cls-16" d="M1073.8,480.1v17.1h-17.1v-17.1h17.1M1074.9,479h-19.3v19.3h19.3v-19.3Z"/>
      <path class="cls-16" d="M927,563.1v15.9h-17.1v-15.9h17.1M928.2,562h-19.3v18.2h19.3v-18.2Z"/>
      <path class="cls-16" d="M857.7,452.9h7.8v39.7h-17.1v-22.6l9.2-17.1M857.2,451.8l-9.7,18v24h19.3v-42h-9.7Z"/>
      <path class="cls-16" d="M798.5,542.7v13.7h-19.3v-13.7h19.3M799.6,541.5h-21.6v15.9h21.6v-15.9Z"/>
      <path class="cls-16" d="M700.6,467.6v26.2h-15.9v-26.2h15.9M701.8,466.4h-18.2v28.4h18.2v-28.4Z"/>
      <path class="cls-16" d="M700.6,476.7v17.1h-15.9v-17.1h15.9M701.8,475.5h-18.2v19.3h18.2v-19.3Z"/>
      <path class="cls-16" d="M187.4,510.8v10.2h18.3v18.2h-17.1v-11.4h-18.2v-17.1h17M188.6,509.7h-19.2v19.2h18.2v11.4h19.3v-20.4h-18.3v-10.2Z"/>
      <path class="cls-16" d="M241.1,622.3v14.8h-14.8v-14.8h14.8M242.3,621.2h-17.1v17.1h17.1v-17.1Z"/>
      <path class="cls-16" d="M333.2,519.9v58h-17.1v-58h17.1M334.3,518.8h-19.3v60.3h19.3v-60.3Z"/>
      <path class="cls-16" d="M247.6,315.1l11.4,11.4-25.6,25.6-11.4-11.4,25.6-25.6M247.6,313.5l-27.2,27.2,13.1,13,27.2-27.2-13.1-13Z"/>
      <path class="cls-16" d="M260.5,830.5v17.1h-17.1v-17.1h17.1M261.6,829.4h-19.3v19.3h19.3v-19.3Z"/>
      <path class="cls-16" d="M332,752.3l12.3,26.1-31.1,22.2-16.5-23,35.3-25.3M332.5,750.6l-37.3,26.6,17.7,24.9,32.8-23.4-13.2-28.1h0Z"/>
      <path class="cls-16" d="M299.4,783.2l7.2,10-13.2,9.4-7.2-10,13.2-9.4M299.6,781.6l-15,10.7,8.5,11.8,15-10.7-8.5-11.8Z"/>
      <path class="cls-3" d="M333.5,749.8"/>
      <path class="cls-16" d="M516.3,882.8v15.9h-19.3v-15.9h19.3M517.5,881.7h-21.6v18.2h21.6v-18.2Z"/>
      <path class="cls-16" d="M565.2,954.6l27.3,3.3v13.7l-27.3-3.2v-13.8M564.1,953.5v15.9l29.6,3.4v-15.9l-29.6-3.4h0Z"/>
      <path class="cls-16" d="M578.9,946.5v8.5l-9-1v-7.5h9M580,945.4h-11.4v9.6l11.3,1.4v-10.9h.1Z"/>
      <path class="cls-16" d="M590.3,946.5v9.9l-10.4-1.3v-8.6h10.4M591.4,945.4h-12.5v10.8l12.6,1.5v-12.3h-.1Z"/>
      <path class="cls-16" d="M601.6,956.8v8.1h-8v-8.1h8M602.8,955.6h-10.2v10.4h10.2v-10.4Z"/>
      <path class="cls-16" d="M705.2,772.5v6.8h-6.8v-6.8h6.8M706.3,771.3h-9.1v9.1h9.1v-9.1Z"/>
      <path class="cls-16" d="M896.3,762.2v17.1h-17.1v-17.1h17.1M897.3,761.1h-19.2v19.3h19.2v-19.3Z"/>
      <path class="cls-16" d="M1002.1,706.5v18.2h-22.8v-18.2h22.8M1003.2,705.3h-25v20.5h25v-20.5Z"/>
      <line class="cls-3" x1="809.3" y1="752.6" x2="831.2" y2="730.6"/>
      <path class="cls-3" d="M516.9,805.9"/>
      <line class="cls-3" x1="516.9" y1="839.6" x2="516.9" y2="805.9"/>
      <polyline class="cls-3" points="183.6 596.1 183.6 553.5 197.3 553.5 197.3 548.9 215.4 548.9 215.4 512.5 195.1 512.5 195.1 480.5"/>
      <line class="cls-3" x1="215.4" y1="512.5" x2="229.6" y2="512.5"/>
      <line class="cls-3" x1="129" y1="552.9" x2="129" y2="576.2"/>
      <line class="cls-3" x1="447.5" y1="207.2" x2="447.5" y2="305.5"/>
      <polyline class="cls-3" points="552.2 553.5 552.2 447.7 629.5 447.7 629.5 552.4"/>
      <line class="cls-3" x1="711.4" y1="560.3" x2="711.4" y2="682.3"/>
      <polyline class="cls-3" points="1022.6 588.7 1057.3 588.7 1057.3 552.3"/>
      <line class="cls-3" x1="884.4" y1="344.7" x2="884.4" y2="397"/>
      <path class="cls-16" d="M576.6,1.1v30.7h-17.1V13.7h-17.1V1.1h34.1M577.8,0h-36.4v14.8h17.1v18.2h19.3V0Z"/>
      <path class="cls-16" d="M650.6,10.1l4.7,1.1,4.3,2.7v36.1c.1,0-9,0-9,0V10.1M649.4,8.6v42.5h11.4V13.4l-5-3.2-6.4-1.6Z"/>
      <rect class="cls-16" x="660" y="50.1" width="62.2" height="1.1"/>
      <path class="cls-16" d="M308.2,579.1v8h-43.2v-8h43.2M309.4,577.9h-45.5v10.2h45.5v-10.2Z"/>
      <line class="cls-3" x1="172.2" y1="335" x2="172.2" y2="369.2"/>
      <line class="cls-3" x1="77.9" y1="461.3" x2="77.9" y2="511.9"/>
      <path class="cls-3" d="M920.3,452.2"/>
      <path class="cls-3" d="M884.7,452.2"/>
      <polygon class="cls-16" points="920.3 452.9 920.3 468.8 921.3 468.8 921.3 451.8 920.8 451.8 920.2 451.8 884.2 451.8 884.2 452.9 920.3 452.9"/>
      <path class="cls-16" d="M663.1,673.5v8h-14.8v-8h14.8M664.2,672.4h-17.1v10.2h17.1v-10.2Z"/>
      <rect class="cls-15" x="609.6" y="162.9" width="1.3" height="626.2"/>
      <rect class="cls-15" x="572" y="163" width="1.3" height="626.1"/>
    </g>
    <g id="Outlines">
      <path class="cls-14" d="M635.8,1.1l11.1,8.1,8.3,2.2,18.2,11.4,17,2.3,14.8,3.4,56.9,8,48.9,2.3,30.7,35.3v47.8h-22.8v24.8s20.6,82,30.7,93.6v2.3h-.3c-.8,3.2-3.3,9-10.9,13.7v2.3s1,12.2,39.7,14.8l67.2,47.8v147.9h-25v11.5h47.8v-45.5h105.8v130.3h0v45.8h-80.8v34.1h9.1v135.4l-54.6,54.6-26.2,26.2s-18.4.5-30.7.5-10.8-.1-10.8-.5h-35.9v-27.3h-88.7v69.4h28.4v78.5l-25,12.5h-94.4v4.6h-146.8v-100.1h-21.6v26.2h-80.8v-20.5h-31.9l-29.6,17.1h-54.6v1.1h-55.7v-89.9h-106.9v-29.6l28.4-19.3v-3.4l-61.4-101.4v-29.6h26.2v-73.9h-5.5l-24,38.8h-38.7v-15.9h-17.1v-147.9h-18.2v-28.4h106.9v-68.3l14.8-18.2h25v-10.2l50.1-50.1h116v-67.1h-28.4V66L375.4,1.1h260.4M520.9,162.7v-55.7h-84.2l-43.2,43.7v40.5h41l27.3,35.3v78.5h-67.1v76.2h-39.8v-5.7h-25v-29.6h-37.5v122.9h68.3v-85.3h105.8l25.8,13.7h259.7l41,41v55.7h55.7v-23.8l9.2-17.1h27.2v-18.3h-26.2v-89.9h26.2v-20.5h-66s-57.2-73.8-61.3-87.7l1-14.4v-24.1l-3.4-10.2v-25s1.5-9.7,3.4-13.7c.3-.7,2.4-1.4,5.7-2v-25.3h-6.8v-17.1h-93.3v58h-143.3M77.3,461.9h117.2v19.3h54.6v-42.1h-26.2v-54.6h-50.1v-15.9h-11.4v81.9h-84.2v11.4M263.9,588.2h106.6l82.1-81.9v-75.1h-25v50.1l-22.8,21.6v34.1l-41,41h-100.1v10.2M322.9,654.2v-17.1h-141.1v70.5l28.4,51.2h2.3l37.5-23.1v-96.4h58v62.5l74.1,157.1h33.8l26.4-52.3h75.1v-17.1h104.7l8,13.7v100.1h54.6v13.7h13.7v-144.5h111.5v-20.5h-55.7l-42.1-42.3v-28.2h-63.7v-129.7h-30.7v-86.5h-53.5v87.6h-72.6l-100.3,101.3h-68.3M683.6,648.5h10.2v-70.5l18.2-17.1,22.8-18.2h64.8v-12.5h-47.8v-63.7h-51.2v85.3h-17.1v96.7M778,649.6h3.4l48.9,48.9v33h47.8v30.7h50.1v-118.3h25v-33.8l-23.9-31.1h-45.5v23.9h-105.8v46.6M636.2,0h-261.4l-.3.3-64.8,64.8-.3.3v143.8h28.4v64.8h-115.4l-.3.3-50.1,50.1-.3.3v9.6h-24.5l-.3.5-14.8,18.2-.2.3v67.5H25v30.8h18.2v147.9h17.1v15.9h40.5l.3-.6,23.8-38.1h3.5v71.6h-26.2v31.3c.1,0,61.4,101,61.4,101v2.4l-27.9,19-.6.3v31.4h106.9v89.9h58.1v-1.1h53.9c0-.1,29.2-17.1,29.2-17.1h30.5v20.5h83v-26.2h19.3v100.1h149.1v-4.6h93.7c0-.1,25-12.6,25-12.6l.7-.3v-80.3h-28.6v-67.1h86.5v27.3h36.7c1.1.2,2.3.3,3.4.3,1.8.1,4.4.1,7.7.1,12.2,0,30.6-.5,30.7-.5h.5l.3-.3,26.2-26.2,54.6-54.6.3-.3v-137h-9.1v-31.7h80.8v-48.4h0v-130.4h-108.2v45.5h-45.4v-9.1h25v-149.6l-.6-.3-67.2-47.8-.2-.2h-.3c-35.6-2.3-38.5-12.9-38.6-13.7v-1.5c6.8-4.6,9.6-9.9,10.6-13.2h.7v-3.9l-.3-.3c-9.7-11-29.5-89.1-30.4-92.9v-23.5h22.8v-49.4l-.3-.3-30.7-35.3-.3-.3h-.6l-48.9-2.3-56.7-8-14.8-3.4h-.1l-16.6-2.3-18-11.3h-.1c0-.1-.2-.1-.2-.1l-8.1-2-10.9-8L636.2,0h0ZM665.4,105.9h91v17.1h6.8v23.1c-4,.9-5.1,1.6-5.6,2.5-2,4.1-3.5,13.7-3.5,14v25.6l3.4,10.1v23.9l-1,14.3v.5c4.1,13.9,59.2,85.1,61.5,88.1l.3.5h65.4v18.1h-26.2v92.3h26.2v15.9h-26.7l-.3.7-9.2,17.1v.2c-.1,0-.1,22.9-.1,22.9h-53.5v-55.1l-.3-.3-41-41-.3-.3h-259.8l-25.6-13.5h-.2c0-.1-70.9-.1-70.9-.1v-76.2h67.1v-80.1l-.2-.3-27.3-35.3-.3-.5h-40.4v-38.8l42.7-43h82.5v55.7h145.6v-57.9h0ZM293.5,347.1h35.2v29.6h25v5.7h5.7v85.2h-65.8v-120.5h-.1ZM162.6,369.9h9.1v15.9h50.1v54.6h26.2v39.7h-52.3v-19.3h-117.2v-9h84.2v-81.9h0ZM428.7,432.4h22.8v73.3l-81.6,81.3h-104.9v-8h99.4l.3-.3,41-41,.3-.3v-34.1l22.4-21.3.3-.3v-49.3h-.1ZM565.2,466.6h51.2v86.5h30.7v129.7h63.7v27.5l.3.3,42.1,42.3.3.3h55.1v18.2h-111.5v144.5h-11.4v-13.7h-54.6v-99.4c-.1,0-8.1-13.7-8.1-13.7l-.3-.6h-106.5v17.1h-74.7l-.3.7-25.9,51.4h-32.3l-73.6-156.3v-63.3h12.5v17.1h70l.3-.3,99.9-100.9h73.2v-87.5h0ZM701.8,467.7h48.9v63.7h47.8v10.1h-64.1l-.3.2-22.8,18.2h0l-18.2,17.1-.3.3v70h-8v-94.4h17.1v-85.2h-.1ZM884.9,580.3h43.8l23.2,30.3v32.2h-24.9v118.3h-47.8v-30.7h-47.8v-32.3l-.3-.3-48.9-48.9-.3-.3h-2.7v-44.4h105.8v-23.8h0ZM183.1,638.3h65.9v96.8l-36.7,22.5h-1.1l-28-50.3v-69.1h0Z"/>
    </g>
    <g id="Callouts">
      <text class="cls-18" transform="translate(546.4 83.8)"><tspan x="0" y="0">攻方 桥</tspan></text>
      <text class="cls-18" transform="translate(747.9 83.8)"><tspan x="0" y="0">A区 大门</tspan></text>
      <text class="cls-18" transform="translate(748.1 236.8)"><tspan x="0" y="0">A区 卫星天线</tspan></text>
      <text class="cls-18" transform="translate(870.4 412.4)"><tspan x="0" y="0">A区 下坡</tspan></text>
      <text class="cls-18" transform="translate(937.7 675.4)"><tspan x="0" y="0">A区 大道</tspan></text>
      <text class="cls-18" transform="translate(841.3 810.5)"><tspan x="0" y="0">A区 大堂</tspan></text>
      <text class="cls-18" transform="translate(514.7 862.4)"><tspan x="0" y="0">攻方 重生点</tspan></text>
      <text class="cls-18" transform="translate(278.2 869.6)"><tspan x="0" y="0">B区 树木</tspan></text>
      <text class="cls-18" transform="translate(250.7 720)"><tspan x="0" y="0">B区 隧道</tspan></text>
      <text class="cls-18" transform="translate(116.5 703.9)"><tspan x="0" y="0">B区 大道</tspan></text>
      <text class="cls-18" transform="translate(74 439.4)"><tspan x="0" y="0">B区 塔楼</tspan></text>
      <text class="cls-18" transform="translate(258.8 319.2)"><tspan x="0" y="0">B区 拱廊</tspan></text>
      <text class="cls-18" transform="translate(368.4 237.8)"><tspan x="0" y="0">B区 长椅</tspan></text>
      <text class="cls-18" transform="translate(795.6 744.7)"><tspan x="0" y="0">A区 门</tspan></text>
      <text class="cls-18" transform="translate(694.5 671.4)"><tspan x="0" y="0">A区 绳索</tspan></text>
      <text class="cls-18" transform="translate(722.2 451.8)"><tspan x="0" y="0">A区 小道</tspan></text>
      <text class="cls-18" transform="translate(546 429.1)"><tspan x="0" y="0">守方 重生点</tspan></text>
      <text class="cls-18" transform="translate(406 410.3)"><tspan x="0" y="0">B区 小道</tspan></text>
      <text class="cls-18" transform="translate(297 529.4)"><tspan x="0" y="0">B区 发电机</tspan></text>
      <text class="cls-18" transform="translate(398.4 576.9)"><tspan x="0" y="0">B区 餐厅</tspan></text>
      <path id="B" class="cls-17" d="M76.8,557.2v-18.2c-.1-1.3.8-2.4,2-2.5h8.2c4.3,0,7.1,2.3,7.1,5.8s-1.8,4.7-4.3,5h0c3.1.2,5.5,2.7,5.5,5.7s-3.1,6.6-8.1,6.6h-7.8c-1.3.1-2.4-.8-2.4-2-.1,0-.1-.2-.1-.3ZM85.2,546.2c2.6,0,4.1-1.1,4.1-3.1s-1.3-3-3.5-3h-4v6h3.4ZM85.8,556.2c2.8,0,4.3-1.1,4.3-3.4s-1.6-3.3-4.4-3.3h-4v6.7h4.1Z"/>
      <path id="A" class="cls-17" d="M1031,513.3c-1.3,0-2-.7-2.5-2.2l-1.3-3.6h-8.4l-1.3,3.6c-.5,1.5-1.1,2.2-2.5,2.2-1.3.1-2.4-.9-2.4-2.2h0c0-.7.1-1.1.3-1.7l6.4-17.3c.6-2,2.7-3.2,4.8-2.6,1.3.3,2.2,1.4,2.6,2.6l6.4,17.3c.2.5.3,1,.3,1.6,0,1.3-1,2.3-2.3,2.3h-.2ZM1026.2,503.6l-3.1-9.6h-.1l-3.1,9.6h6.3Z"/>
    </g>
    <g id="Barrier">
      <line class="cls-6" x1="389.6" y1="859.7" x2="389.6" y2="904.4"/>
      <line class="cls-6" x1="691" y1="915.8" x2="691" y2="994.3"/>
      <line class="cls-6" x1="694.5" y1="104.7" x2="694.5" y2="24.8"/>
      <line class="cls-6" x1="433.8" y1="111.5" x2="349.4" y2="27.1"/>
      <line class="cls-5" x1="166" y1="369.9" x2="166" y2="334.7"/>
      <line class="cls-5" x1="248" y1="456.8" x2="293.5" y2="456.8"/>
      <line class="cls-5" x1="128.4" y1="648.5" x2="182" y2="648.5"/>
      <line class="cls-5" x1="689.4" y1="647.3" x2="689.4" y2="683.2"/>
      <line class="cls-5" x1="783" y1="542.7" x2="783" y2="604.1"/>
      <line class="cls-5" x1="884.2" y1="336.3" x2="946.5" y2="336.3"/>
      <line class="cls-5" x1="1002.8" y1="715.6" x2="928.2" y2="715.6"/>
    </g>
  </g>
</svg>