<svg width="168" height="32" viewBox="0 0 168 32" fill="none" xmlns="http://www.w3.org/2000/svg">
<path d="M5.55234 0H0L13.341 24.2494L18.1222 15.271C15.4077 16.8672 13.5467 14.9129 12.9555 13.7362L5.55234 0Z" fill="white"/>
<path fill-rule="evenodd" clip-rule="evenodd" d="M27.7596 4.58318C28.6091 4.58319 29.4193 4.75053 30.1588 5.0539C32.4476 5.99288 34.0586 8.23498 34.0586 10.8515C34.0585 13.3948 32.5364 15.5842 30.3492 16.5671C29.5593 16.922 28.6826 17.1196 27.7596 17.1196C25.283 17.1196 23.1401 15.6973 22.111 13.6288L19.6654 18.1274L14.9605 26.7818L17.7367 32L23.6598 20.8748C24.9046 21.3687 26.2627 21.6403 27.6846 21.6403C33.6898 21.6403 38.5579 16.7959 38.5579 10.8201C38.5579 5.66318 34.9325 1.34884 30.0795 0.263321C29.309 0.0909573 28.5075 0 27.6846 0C26.6006 0 25.6167 0.141862 24.6288 0.435703L24.9572 5.22844C25.7861 4.82902 26.7769 4.58318 27.7596 4.58318Z" fill="white"/>
<ellipse cx="28.0961" cy="10.8098" rx="3.00752" ry="2.99281" fill="#FF4C52"/>
<path d="M23.7079 8.88214L23.2504 3.29546C23.1277 1.79692 21.4573 0.964575 20.1871 1.76898L15.7012 4.60969C15.1625 4.95081 15.19 5.74561 15.751 6.04866C16.5531 6.48195 16.859 7.47877 16.438 8.28739L14.2749 12.4422C14.0548 12.8649 14.2079 13.386 14.6217 13.6225C16.2152 14.5334 18.2454 13.9823 19.1594 12.3905L20.7675 9.59019C21.0096 9.16859 21.5489 9.02513 21.9685 9.27073L22.5494 9.61078C23.0881 9.92613 23.7588 9.5043 23.7079 8.88214Z" fill="#FF4C52"/>
<path d="M45.5786 24.9021V7.0976H49.1934V19.6089L58.8329 7.0976H63.1706L49.6754 24.9021H45.5786Z" fill="#FF4C52"/>
<path d="M72.3281 7.0976V24.9021H68.9543L63.8936 18.6465L59.3148 24.9021H54.9771L68.5928 7.0976H72.3281ZM66.0625 15.7592L68.9543 19.3683V11.669L66.0625 15.7592Z" fill="#FF4C52"/>
<path d="M79.5577 7.0976H76.1839V24.9021H85.8234L87.7513 21.7743H79.5577L79.5577 7.0976Z" fill="#FF4C52"/>
<path d="M103.897 7.0976H89.6792V24.9021H93.053V10.466H100.524V10.9472L94.9809 17.6841H99.3187L103.897 12.1502V7.0976Z" fill="white"/>
<path d="M114.742 7.09772C119.666 7.09772 123.659 11.0835 123.659 16.0001C123.659 20.9166 119.666 24.9024 114.742 24.9024C109.818 24.9024 105.826 20.9165 105.826 16.0001C105.826 11.0835 109.817 7.09774 114.742 7.09772ZM114.75 10.4229C111.656 10.4231 109.149 12.9272 109.149 16.0157C109.149 19.1041 111.656 21.6083 114.75 21.6085C117.843 21.6085 120.351 19.1042 120.351 16.0157C120.351 12.9271 117.843 10.4229 114.75 10.4229Z" fill="white"/>
<path d="M126.791 7.0976H130.647V24.9021H126.791V7.0976Z" fill="white"/>
<path d="M137.636 7.0976H134.021V24.9021H137.636V13.1126L146.552 24.9021H149.926V7.0976H146.311L146.552 19.3683L137.636 7.0976Z" fill="white"/>
<path d="M153.059 10.466V7.0976H165.59L168 10.466H161.493V24.9021H158.12V10.466H153.059Z" fill="white"/>
</svg>
