<svg 
 xmlns="http://www.w3.org/2000/svg"
 xmlns:xlink="http://www.w3.org/1999/xlink"
 width="37px" height="37px">
<path fill-rule="evenodd"  fill="rgb(236, 232, 225)"
 d="M33.350,29.532 L22.648,18.831 L33.625,7.853 C35.748,10.865 36.999,14.535 36.999,18.500 C36.999,22.634 35.642,26.452 33.350,29.532 ZM7.467,3.650 C10.547,1.358 14.365,-0.000 18.500,-0.000 C22.608,-0.000 26.402,1.341 29.472,3.607 L18.448,14.631 L7.467,3.650 ZM3.607,29.472 C1.341,26.402 0.000,22.608 0.000,18.500 C0.000,14.561 1.234,10.914 3.332,7.914 L14.249,18.831 L3.607,29.472 ZM29.085,33.667 C26.086,35.765 22.438,36.999 18.500,36.999 C14.535,36.999 10.865,35.748 7.854,33.624 L18.448,23.030 L29.085,33.667 Z"/>
</svg>