<svg 
 xmlns="http://www.w3.org/2000/svg"
 xmlns:xlink="http://www.w3.org/1999/xlink"
 width="37px" height="37px">
<path fill-rule="evenodd"  fill="rgb(236, 232, 225)"
 d="M36.435,23.044 L18.499,5.108 L0.564,23.044 C0.197,21.590 -0.000,20.068 -0.000,18.499 C-0.000,8.283 8.282,-0.000 18.500,-0.000 C28.716,-0.000 36.999,8.283 36.999,18.499 C36.999,20.068 36.802,21.590 36.435,23.044 ZM34.224,28.244 C33.127,30.011 31.740,31.579 30.130,32.882 L18.499,21.252 L6.868,32.882 C5.259,31.579 3.872,30.011 2.775,28.244 L18.499,12.519 L34.224,28.244 ZM25.472,35.636 C23.320,36.512 20.967,36.999 18.500,36.999 C16.032,36.999 13.679,36.512 11.526,35.636 L18.499,28.662 L25.472,35.636 Z"/>
</svg>