<svg width="180" height="180" viewBox="0 0 180 180" fill="none" xmlns="http://www.w3.org/2000/svg">
<rect width="180" height="180" rx="90" fill="#FF4C52"/>
<path d="M43.8563 45H25.3124L69.8694 125.989L85.8378 96.0027C76.7718 101.334 70.5562 94.8067 68.5816 90.8768L43.8563 45Z" fill="#0F1923"/>
<path fill-rule="evenodd" clip-rule="evenodd" d="M118.025 60.3071C120.862 60.3071 123.568 60.866 126.038 61.8792C133.682 65.0153 139.063 72.5035 139.063 81.2422C139.062 89.7364 133.979 97.0489 126.674 100.331C124.036 101.517 121.108 102.177 118.025 102.177C109.753 102.177 102.597 97.4266 99.1596 90.5179L90.9915 105.543L75.278 134.447L84.5499 151.875L104.332 114.719C108.49 116.368 113.026 117.275 117.775 117.275C137.831 117.275 154.09 101.096 154.09 81.1376C154.09 63.9141 141.981 49.5049 125.773 45.8794C123.2 45.3038 120.523 45 117.775 45C114.154 45 110.868 45.4738 107.569 46.4552L108.665 62.4622C111.434 61.1282 114.743 60.3071 118.025 60.3071Z" fill="#0F1923"/>
<ellipse cx="119.149" cy="81.1027" rx="10.0446" ry="9.99551" fill="white"/>
<path d="M104.493 74.6651L102.965 56.0064C102.555 51.0015 96.9764 48.2216 92.7338 50.9082L77.7516 60.3957C75.9525 61.535 76.0444 64.1895 77.918 65.2017C80.5969 66.6488 81.6185 69.978 80.2125 72.6787L72.9882 86.5551C72.2532 87.9669 72.7644 89.7072 74.1462 90.4971C79.4683 93.5395 86.2489 91.6986 89.3016 86.3824L94.6723 77.0298C95.4808 75.6217 97.2821 75.1426 98.6834 75.9629L100.624 77.0986C102.423 78.1518 104.663 76.743 104.493 74.6651Z" fill="white"/>
</svg>
