<svg width="168" height="32" viewBox="0 0 168 32" fill="none" xmlns="http://www.w3.org/2000/svg">
<path d="M7.1853 2H2.28931L14.0533 23.2182L18.2693 15.3621C15.8757 16.7587 14.2346 15.0488 13.7133 14.0192L7.1853 2Z" fill="white"/>
<path fill-rule="evenodd" clip-rule="evenodd" d="M26.7674 6.01031C27.5165 6.01031 28.231 6.15674 28.883 6.42218C30.9012 7.24379 32.3218 9.20563 32.3218 11.4951C32.3218 13.7204 30.9796 15.6362 29.0509 16.4962C28.3544 16.8068 27.5814 16.9797 26.7674 16.9797C24.5836 16.9797 22.694 15.7352 21.7866 13.9252L19.63 17.8615L15.4813 25.4341L17.9293 30L23.1522 20.2655C24.2499 20.6976 25.4475 20.9353 26.7013 20.9353C31.9966 20.9353 36.2893 16.6965 36.2893 11.4676C36.2893 6.95531 33.0924 3.18026 28.8131 2.23043C28.1337 2.07961 25.6116 2 24.886 2H23.9479L24.2963 6.5749C25.0272 6.22541 25.9009 6.01031 26.7674 6.01031Z" fill="white"/>
<ellipse cx="27.0642" cy="11.4585" rx="2.652" ry="2.6187" fill="#FF4C52"/>
<path d="M23.3013 11.0647L22.5533 2L15.0733 6.70024L17.4533 7.97601L14.9208 12.803C14.7021 13.2197 14.8542 13.7335 15.2653 13.9667L15.4332 14.0619C16.6998 14.7804 18.3135 14.3456 19.0401 13.0901L20.9893 9.72182L23.3013 11.0647Z" fill="#FF4C52"/>
<path d="M43.2893 24.7615V6.95697H46.9041V19.4683L56.5436 6.95697H60.8814L47.3861 24.7615H43.2893Z" fill="#FF4C52"/>
<path d="M70.0389 6.95697V24.7615H66.6651L61.6043 18.5058L57.0256 24.7615H52.6878L66.3036 6.95697H70.0389ZM63.7732 15.6186L66.6651 19.2276V11.5284L63.7732 15.6186Z" fill="#FF4C52"/>
<path d="M77.2685 6.95697H73.8947V24.7615H83.5341L85.462 21.6337H77.2685L77.2685 6.95697Z" fill="#FF4C52"/>
<path d="M101.608 6.95697H87.39V24.7615H90.7638V10.3254H98.2344V10.8066L92.6917 17.5434H97.0294L101.608 12.0096V6.95697Z" fill="white"/>
<path d="M112.453 6.95709C117.377 6.95709 121.37 10.9429 121.37 15.8594C121.369 20.7759 117.377 24.7618 112.453 24.7618C107.528 24.7618 103.537 20.7759 103.537 15.8594C103.537 10.9429 107.528 6.95712 112.453 6.95709ZM112.46 10.2823C109.367 10.2825 106.86 12.7866 106.86 15.8751C106.86 18.9635 109.367 21.4676 112.46 21.4678C115.554 21.4678 118.062 18.9636 118.062 15.8751C118.062 12.7864 115.554 10.2823 112.46 10.2823Z" fill="white"/>
<path d="M124.502 6.95697H128.358V24.7615H124.502V6.95697Z" fill="white"/>
<path d="M135.346 6.95697H131.732V24.7615H135.346V12.972L144.263 24.7615H147.637V6.95697H144.022L144.263 19.2276L135.346 6.95697Z" fill="white"/>
<path d="M150.77 10.3254V6.95697H163.301L165.711 10.3254H159.204V24.7615H155.83V10.3254H150.77Z" fill="white"/>
</svg>
