<svg width="192" height="192" viewBox="0 0 192 192" fill="none" xmlns="http://www.w3.org/2000/svg">
<rect width="192" height="192" rx="96" fill="#FF4C52"/>
<path d="M46.7801 48H26.9999L74.5273 134.389L91.5603 102.403C81.89 108.089 75.2599 101.127 73.1537 96.9353L46.7801 48Z" fill="#0F1923"/>
<path fill-rule="evenodd" clip-rule="evenodd" d="M125.893 64.3276C128.92 64.3276 131.806 64.9238 134.44 66.0045C142.594 69.3496 148.333 77.3371 148.333 86.6584C148.333 95.7188 142.911 103.519 135.119 107.02C132.305 108.285 129.182 108.989 125.893 108.989C117.07 108.989 109.437 103.922 105.77 96.5525L97.0576 112.579L80.2965 143.41L90.1866 162L111.288 122.367C115.722 124.126 120.561 125.094 125.626 125.094C147.02 125.094 164.362 107.836 164.362 86.5468C164.362 68.1751 151.447 52.8053 134.158 48.9381C131.413 48.324 128.558 48 125.626 48C121.765 48 118.259 48.5054 114.74 49.5522L115.91 66.6263C118.863 65.2034 122.392 64.3276 125.893 64.3276Z" fill="#0F1923"/>
<ellipse cx="127.092" cy="86.5096" rx="10.7143" ry="10.6619" fill="white"/>
<path d="M111.459 79.6427L109.829 59.7402C109.392 54.4016 103.441 51.4364 98.9161 54.3021L82.935 64.4221C81.0159 65.6373 81.114 68.4688 83.1125 69.5484C85.97 71.092 87.0597 74.6432 85.56 77.5239L77.854 92.3254C77.07 93.8313 77.6154 95.6876 79.0893 96.5302C84.7662 99.7755 91.9988 97.8119 95.2551 92.1413L100.984 82.1651C101.846 80.6632 103.768 80.1521 105.262 81.0271L107.332 82.2385C109.251 83.3619 111.64 81.8592 111.459 79.6427Z" fill="white"/>
</svg>
