<svg width="512" height="512" viewBox="0 0 512 512" fill="none" xmlns="http://www.w3.org/2000/svg">
<rect width="512" height="512" rx="256" fill="#FF4C52"/>
<path d="M124.747 128H71.9996L198.74 358.369L244.161 273.074C218.373 288.238 200.693 269.672 195.077 258.494L124.747 128Z" fill="#0F1923"/>
<path fill-rule="evenodd" clip-rule="evenodd" d="M335.716 171.54C343.786 171.54 351.483 173.13 358.508 176.012C380.251 184.932 395.556 206.232 395.556 231.089C395.555 255.25 381.095 276.05 360.317 285.387C352.813 288.759 344.485 290.636 335.716 290.636C312.188 290.636 291.831 277.125 282.054 257.473L258.82 300.211L214.124 382.427L240.498 432L296.767 326.311C308.593 331.003 321.495 333.583 335.003 333.583C392.052 333.583 438.3 287.561 438.3 230.791C438.3 181.8 403.858 140.814 357.755 130.502C350.435 128.864 342.82 128 335.003 128C324.705 128 315.358 129.348 305.973 132.139L309.092 177.67C316.967 173.876 326.38 171.54 335.716 171.54Z" fill="#0F1923"/>
<ellipse cx="338.912" cy="230.692" rx="28.5714" ry="28.4317" fill="white"/>
<path d="M297.224 212.381L292.878 159.307C291.712 145.071 275.844 137.164 263.776 144.806L221.16 171.792C216.043 175.033 216.304 182.584 221.633 185.462C229.253 189.579 232.159 199.049 228.16 206.73L207.611 246.201C205.52 250.217 206.974 255.167 210.905 257.414C226.043 266.068 245.33 260.832 254.014 245.71L269.29 219.107C271.59 215.102 276.714 213.739 280.7 216.072L286.218 219.303C291.336 222.298 297.708 218.291 297.224 212.381Z" fill="white"/>
</svg>
