<?xml version="1.0" encoding="UTF-8"?>
<svg id="_图层_1" data-name="图层 1" xmlns="http://www.w3.org/2000/svg" version="1.1" viewBox="0 0 1100 1000">
  <defs>
    <style>
      .cls-1 {
        fill: #32343b;
      }

      .cls-1, .cls-2, .cls-3, .cls-4, .cls-5 {
        stroke-width: 0px;
      }

      .cls-2 {
        fill: #575548;
      }

      .cls-3 {
        fill: #646568;
      }

      .cls-6 {
        stroke: #814194;
      }

      .cls-6, .cls-7 {
        opacity: .8;
        stroke-width: 10px;
      }

      .cls-6, .cls-7, .cls-8 {
        fill: none;
        stroke-miterlimit: 10;
      }

      .cls-7 {
        stroke: #6bc3c0;
      }

      .cls-8 {
        stroke: #afabae;
        stroke-width: 1px;
      }

      .cls-4 {
        fill: #afabae;
      }

      .cls-5, .cls-9 {
        fill: #fff;
      }

      .cls-9 {
        font-family: SimHei, SimHei;
        font-size: 16px;
        isolation: isolate;
      }
    </style>
  </defs>
  <g id="_防守-隐世修所" data-name="防守-隐世修所">
    <g id="Body">
      <polygon class="cls-1" points="150.3 725 135.6 725 135.6 727.1 150.3 727.1 150.3 758.6 174.4 758.6 174.4 725 156.5 725 150.3 725"/>
      <path class="cls-1" d="M133.4,469v73.6h-31.4v143.7h38.7v6.3h-22v31.5h56.7v84h152.2v80.8h56.7v75.6l46.2,34.6h2.1l73.5-67.2v-44.1h60.9v3.1h35.7v-82.9h120.7v-64h113.3v-40.9h161.6v-112.3h-19.9v-97.6h-43v-78.7h-6.3v-66.1h32.5v-23.1h4.2v-90.1h-34c0-.1-79.3-.1-79.3-.1h-15.7v32.5h-8.4v-49.3h24.1v-39.9h-161.6V40.8L636.1.9h-108.1l-63,39.9v80.8h56.7v65.1h-144.8v51.1h0v69.6h31.5v5.2h-32.5v50.4h-7.3v-38.8h-73.5v24.1h-27.3l-92.3,55.6h-73.5v65.1h31.5ZM205.8,767v-74.5h-10.5v-6.3h28.3v65.1h47.2v-15.7h56.7v31.5h-121.7ZM602.5,763.9h-89.1v76.6h-88.3v-72.4h-49.3v-121.7h73.5v-16.8h15.7v42l25.2,24.1h23.1v48.3h65.1v-48.3h22l25.2-24.1v-11.5h16.8v18.9h48.3v85h-88.2ZM626.7,525.7v-48.3h-32.5v-65.1h48.3v31.5h24.1v9.4h-24.1v116.5h24.1v4.2h-24.1v35.7h80.8v5.2h-63v11.5h-17.8v4.2h-16.8v-95.5h-54.6v-9.4h55.6ZM602.5,335.7v-35.7h-96.5v-32.5h-7.3v-4.2h23.1v-28.3h64v32.5h32.5v56.7h16.8v15.7h-56.7v-4.2h24.1ZM747.3,664.2h6.3v-42h-6.3v-12.6h0v-35.7h-39.9v-4.2h24.1v-21h80.8v42h-24.1v112.3h-40.9v-38.8ZM836.5,300v7.3h15.7v16.8h40.9v39.9h-40.9v56.7h40.9v72.4h-80.8v26.2h-80.8v-66.1h-24.1v-9.4h24.1v-169h-76.6v-7.3h35.7v-32.5h65.1v89.2h72.4v-24.1h8.4ZM659.2,121.6v73.5h-109.1v-73.5h109.1ZM432.5,307.4h9.4l23.1-22v-22h14.7v4.2h-6.3v68.2h55.6v4.2h-56.7v72.4h40.9v113.3h25.2v9.4h-73.5v64h-15.7v-15.7h-121.7v119.6h-56.7v-32.5h39.9v-112.3h-39.9v-16.8h65.1v16.8h31.5v-24.1h9.4v24.1h79.8v-55.6h-8.4v-8.4h-7.3v-80.8h-6.3v-5.2h28.3v-95.5h-30.4v-5.2ZM267.8,413.4h59.8v23.1h40.9v-38.8h7.3v10.5h36.8v5.2h-1.2l-10.5,11.5v69.3h-24.1v23.1h-9.4v-11.5h-31.5v4.2h-79.8v-33.6h-65.1v66.1h-16.8v-73.5h1l92.3-55.6Z"/>
    </g>
    <g id="Bombsite">
      <rect class="cls-2" x="836.7" y="589.7" width="161.6" height="113.3"/>
      <rect class="cls-2" x="490.3" y="563.4" width="111.2" height="101.8"/>
      <rect class="cls-2" x="102.1" y="585.5" width="117.5" height="100.7"/>
      <polygon class="cls-1" points="506.5 638.6 585.2 638.6 585.2 598.6 561.2 598.6 561.2 582.9 530.6 582.9 530.6 598.6 506.5 598.6 506.5 638.6"/>
      <polygon class="cls-1" points="901.2 622.7 901.2 607 851.8 607 851.8 591.2 837.2 591.2 837.2 607 837.2 609.2 837.2 622.7 901.2 622.7"/>
      <rect class="cls-1" x="949.6" y="591.2" width="48.2" height="47.1"/>
      <rect class="cls-1" x="990.3" y="638.4" width="7.3" height="14.9"/>
      <rect class="cls-1" x="909.5" y="687.8" width="14.8" height="14.9"/>
      <polygon class="cls-1" points="167.3 639.5 229.9 623.6 225.4 605.7 162.9 621.7 167.3 639.5"/>
      <rect class="cls-1" x="102.4" y="672.1" width="14.9" height="13.6"/>
    </g>
    <g id="Lines">
      <path class="cls-4" d="M183.3,416.5l-7.5-12.4,12.1-7.2,7.5,12.4-12.1,7.2M183,418l13.9-8.3-8.5-14.2-13.9,8.3,8.5,14.2h0Z"/>
      <path class="cls-4" d="M296.1,346.2v-21h6.3v21h-6.3M295,347.3h8.4v-23.1h-8.4v23.1Z"/>
      <path class="cls-4" d="M303.4,338.9v-13.6h3.1v13.6h-3.1M302.4,339.9h5.2v-15.7h-5.2v15.7Z"/>
      <path class="cls-4" d="M376.9,326.3v-12.6h13.6v12.6h-13.6M375.8,327.3h15.7v-14.7h-15.7v14.7Z"/>
      <path class="cls-4" d="M442,363v-13.6h20v13.6h-20M440.9,364h22.1v-15.7h-22.1v15.7Z"/>
      <path class="cls-4" d="M376.9,307.4v-120.7h79.8v15.7h-65.1v104.9h-14.7M375.8,308.4h16.8v-104.9h65.1v-17.8h-81.9v122.8Z"/>
      <path class="cls-4" d="M376.9,307.4v-120.7h87.1v24h-64.1v96.7h-23M375.8,308.4h25.2v-96.7h64v-26.1h-89.2v26.1h0v96.7Z"/>
      <path class="cls-4" d="M507,201.4v-13.6h13.6v13.6h-13.6M506,202.4h15.7v-15.7h-15.7v15.7Z"/>
      <path class="cls-4" d="M674.9,266.4v-14.7h14.8v14.7h-14.8M673.9,267.5h16.9v-16.8h-16.9v16.8Z"/>
      <path class="cls-4" d="M670.3,266.4c-1.5,0-2.6-1.2-2.6-2.6s1.2-2.6,2.6-2.6,2.6,1.2,2.6,2.6h0c0,1.4-1.3,2.5-2.6,2.6M670.3,267.5c2,0,3.7-1.7,3.7-3.7s-1.7-3.7-3.7-3.7-3.7,1.7-3.7,3.7h0c-.1,2,1.6,3.7,3.7,3.7q-.1,0,0,0Z"/>
      <path class="cls-4" d="M636.1,338.9v-13.6h13.6v13.6h-13.6M635.1,339.9h15.7v-15.7h-15.7v15.7Z"/>
      <path class="cls-4" d="M618.3,324.2v-7.3h31.5v7.3h-31.5M617.2,325.2h33.6v-9.4h-33.6v9.4Z"/>
      <path class="cls-4" d="M715.9,379.8v-14.7h14.8v14.7h-14.8M714.8,380.8h16.9v-16.8h-16.9v16.8Z"/>
      <path class="cls-4" d="M708.5,371.4v-6.3h6.3v6.3h-6.3M707.5,372.4h8.4v-8.4h-8.4v8.4Z"/>
      <path class="cls-4" d="M647.6,462.6c-2.3,0-4.2-1.8-4.2-4.2s1.8-4.2,4.2-4.2,4.2,1.8,4.2,4.2h0c0,2.3-1.9,4.1-4.2,4.2M647.6,463.6c2.9,0,5.2-2.3,5.2-5.2s-2.3-5.2-5.2-5.2-5.2,2.3-5.2,5.2h0c0,2.8,2.4,5.2,5.2,5.2h0Z"/>
      <path class="cls-4" d="M643.5,503.6v-12.6h14.7v12.6h-14.7M642.4,504.7h16.8v-14.7h-16.8v14.7Z"/>
      <path class="cls-4" d="M667.6,569.7v-14.7h38.8v14.7h-38.8M666.5,570.8h40.9v-16.8h-40.9v16.8Z"/>
      <path class="cls-4" d="M667.6,572.9v-17.8h38.8v17.8h-38.8M666.5,573.9h40.9v-19.9h-40.9v19.9Z"/>
      <path class="cls-4" d="M674.9,569.7v-9.4h24.1v9.4h-24.1M673.9,570.8h26.2v-11.5h-26.2v11.5Z"/>
      <path class="cls-4" d="M861.7,507.8v-13.6h13.6v13.6h-13.6M860.7,508.9h15.7v-15.7h-15.7v15.7Z"/>
      <path class="cls-4" d="M813.5,323.1v-14.7h13.6v14.7h-13.6M812.4,324.2h15.7v-16.8h-15.7v16.8Z"/>
      <path class="cls-4" d="M805.1,323.1v-6.3h7.3v6.3h-7.3M804,324.2h9.4v-8.4h-9.4v8.4Z"/>
      <polyline class="cls-8" points="892.8 421.3 892.8 380.3 877.6 380.3"/>
      <path class="cls-4" d="M837.6,622.2v-14.7h63v14.7h-63M836.5,623.3h65.1v-16.8h-65.1v16.8Z"/>
      <path class="cls-4" d="M837.6,606.5v-14.7h13.6v14.7h-13.6M836.5,607.5h15.7v-16.8h-15.7v16.8Z"/>
      <path class="cls-4" d="M910,702v-13.6h13.6v13.6h-13.6M909,703h15.7v-15.7h-15.7v15.7Z"/>
      <path class="cls-4" d="M949.9,637.9v-46.2h47.2v46.2h-47.2M948.8,639h49.3v-48.3h-49.3v48.3Z"/>
      <path class="cls-4" d="M990.9,652.6v-13.6h6.2v13.6h-6.2M989.8,653.7h8.4v-15.7h-8.4v15.7Z"/>
      <path class="cls-4" d="M741,233.9v-13.6h13.6v13.6h-13.6M740,235h15.7v-15.7h-15.7v15.7Z"/>
      <path class="cls-4" d="M514.4,426v-12.6h14.7v12.6h-14.7M513.3,427h16.8v-14.7h-16.8v14.7Z"/>
      <path class="cls-4" d="M612,605.4v-70.3h13.6v70.3h-13.6M610.9,606.5h15.7v-72.4h-15.7v72.4Z"/>
      <path class="cls-4" d="M531.2,697.8v-1h29.4v1h-29.4M530.1,698.8h31.5v-3.1h-31.5v3.1Z"/>
      <path class="cls-4" d="M507,637.9v-38.8h24.1v-15.7h29.4v15.7h24.1v38.8h-77.7M506,639h79.8v-40.9h-24.1v-15.7h-31.5v15.7h-24.1v40.9Z"/>
      <path class="cls-4" d="M466.1,548.7v-12.7h14.7v12.7h-14.7M465,549.8h16.8v-14.8h-16.8v14.8Z"/>
      <path class="cls-4" d="M466,557.1v-7.3h6.5v7.3h-6.5M464.9,558.2h8.6v-9.4h-8.6v9.4Z"/>
      <path class="cls-4" d="M442,558.2v-15.7h14.7v15.7h-14.7M440.9,559.2h16.8v-17.8h-16.8v17.8Z"/>
      <path class="cls-4" d="M522.9,363v-23.1h62.9v23.1h-62.9M521.8,364h65v-25.2h-65v25.2Z"/>
      <path class="cls-4" d="M529.1,355.7v-18.9h49.4v18.9h-49.4M528,356.7h51.5v-21h-51.5v21Z"/>
      <path class="cls-4" d="M789.3,622.2v-30.4h13.6v30.4h-13.6M788.3,623.3h15.7v-32.5h-15.7v32.5Z"/>
      <path class="cls-4" d="M789.3,637.9v-14.7h13.6v14.7h-13.6M788.3,639h15.7v-16.8h-15.7v16.8Z"/>
      <path class="cls-4" d="M820.8,742.9v-14.7h14.8v14.7h-14.8M819.8,743.9h16.9v-16.8h-16.9v16.8Z"/>
      <path class="cls-4" d="M384.2,948.6v-23.1h5.2v23.1h-5.2M383.2,949.6h7.3v-25.2h-7.3v25.2Z"/>
      <path class="cls-4" d="M492.4,944.6v-21.2h13.6v8l-13.6,13.2M491.4,947.1l15.7-15.2v-9.4h-15.7v24.7Z"/>
      <path class="cls-4" d="M513.3,743.9v-7.3h65.1v7.3h-65.1M512.3,745h67.2v-9.4h-67.2v9.4Z"/>
      <path class="cls-4" d="M361.4,682v-13.6h13.6v13.6h-13.6M360.3,683.1h15.7v-15.7h-15.7v15.7Z"/>
      <path class="cls-4" d="M369.9,689.4v-6.3h5.1v6.3h-5.1M368.8,690.4h7.2v-8.4h-7.2v8.4Z"/>
      <path class="cls-4" d="M223.7,751.3v-13.6h12.6v13.6h-12.6M222.6,752.3h14.7v-15.7h-14.7v15.7Z"/>
      <path class="cls-4" d="M103,685.2v-12.6h13.6v12.6h-13.6M101.9,686.2h15.7v-14.7h-15.7v14.7Z"/>
      <path class="cls-4" d="M103,674.7v-2.1h13.6v2.1h-13.6M101.9,675.7h15.7v-4.2h-15.7v4.2Z"/>
      <path class="cls-4" d="M175.4,557.1v-14.7h15.7v-13.6h14.7v28.3h-30.4M174.4,558.2h32.5v-30.4h-16.8v13.6h-15.7v16.8Z"/>
      <path class="cls-4" d="M258.3,557.1v-11.5h11.6v11.5h-11.6M257.3,558.2h13.7v-13.6h-13.7v13.6Z"/>
      <path class="cls-4" d="M163.9,691.5v-4.2h30.4v4.2h-30.4M162.8,692.5h32.5v-6.3h-32.5v6.3Z"/>
      <path class="cls-4" d="M140.8,690.4v-2.1h22v2.1h-22M139.7,691.5h24.1v-4.2h-24.1v4.2Z"/>
      <path class="cls-4" d="M167.7,638.9l-4.3-16.8,61.5-15.6,4.3,16.8-61.5,15.6M167,640.2l63.5-16.2-4.8-18.8-63.5,16.2,4.8,18.8h0Z"/>
      <line class="cls-8" x1="708" y1="448.7" x2="689.8" y2="459.3"/>
      <line class="cls-8" x1="666" y1="450" x2="683" y2="439.9"/>
      <line class="cls-8" x1="869.2" y1="324.6" x2="852" y2="307.7"/>
    </g>
    <g id="Outlines">
      <path class="cls-3" d="M150.2,758.6v-31.5h-14.7v-2.1h38.8v33.6h-24.1M149.2,759.7h26.2v-35.7h-41v4.2h14.8v31.5h0Z"/>
      <path class="cls-3" d="M430.4,999l-46.2-34.6v-75.6h-56.7v-80.8h-152.2v-84h-56.7v-31.5h22v-6.3h-38.7v-143.7h31.4v-73.6h-31.5v-65.1h73.5l92.3-55.6h27.3v-24.1h73.5v38.8h7.3v-50.4h32.5v-5.2h-31.5v-69.6h0v-51.1h144.8v-65.1h-56.7V40.8L528,.9h108.1l54.6,39.9v137.5h161.6v39.9h-24.1v49.3h8.4v-32.5h15.7c0-.1,79.4-.1,79.4-.1h0c0,.1,33.9.1,33.9.1v90.3h-4.2v23.1h-32.5v66.1h6.3v78.7h43v97.6h19.9v112.3h-161.6v40.9h-113.3v64h-120.7v82.9h-35.7v-3.1h-60.9v44.1l-73.5,67.2h-2.1M690.7,678.9h-48.3v-18.9h-16.8v11.5l-25.2,24.1h-22v48.3h-65.1v-48.3h-23.1l-25.2-24.1v-42h-15.7v16.8h-73.5v121.7h49.3v72.4h88.3v-76.6h177.2v-85M327.6,735.5h-56.7v15.7h-47.2v-65.1h-28.3v6.3h10.5v74.5h121.7v-31.5M449.3,583.4v15.7h15.7v-64h73.5v-9.4h-25.2v-113.3h-40.9v-72.4h56.7v-4.2h-55.6v-68.2h6.3v-4.2h-14.7v22l-23.1,22h-9.4v5.2h30.4v95.5h-28.3v5.2h6.3v80.8h7.3v8.4h8.4v55.6h-79.8v-24.1h-9.4v24.1h-31.5v-16.8h-65.1v16.8h39.9v112.3h-39.9v32.5h56.7v-119.6h121.7M812.4,548.7h-80.8v21h-24.1v4.2h39.9v35.7h0v12.6h6.3v42h-6.3v38.8h40.9v-112.3h24.1v-42M723.2,609.6h-80.8v-35.7h24.1v-4.2h-24.1v-116.5h24.1v-9.4h-24.1v-31.5h-48.3v65.1h32.5v48.3h-55.6v9.4h54.6v95.5h16.8v-4.2h17.8v-11.5h63v-5.2M256.2,476.3v33.6h79.8v-4.2h31.5v11.5h9.4v-23.1h24.1v-69.3l10.5-11.5h1.2v-5.2h-36.8v-10.5h-7.3v38.8h-40.9v-23.1h-59.8l-92.3,55.6h-1v73.6h16.9v-66.1h65M893.2,420.7h-40.9v-56.7h40.9v-39.9h-40.9v-16.8h-15.7v-7.3h-8.4v24.1h-72.4v-89.2h-65.1v32.5h-35.7v7.3h76.6v169h-24.1v9.4h24.1v66.1h80.8v-26.2h80.8v-72.4M635.1,324.2h-16.8v-56.7h-32.5v-32.5h-64v28.3h-23.1v4.2h7.3v32.5h96.5v35.7h-24v4.2h56.6v-15.7M659.2,121.6h-109.1v73.5h109.1v-73.5M430.1,1000h2.9l.3-.3,73.5-67.2.3-.3v-43.4h58.8v3.1h37.8v-82.9h120.7v-64h113.3v-40.9h161.5v-114.4h-19.9v-97.6h-43v-78.7h-6.3v-64h32.5v-23.1h4.2v-92.3h-33.9c0-.1-81.6-.1-81.6-.1h-15.7v32.5h-6.2v-47.1h24.1v-42h-161.6V40.4l-.4-.3L636.7.2l-.3-.2h-108.7l-.3.2-63,40-.5.3v82.5h56.7v62.7h-144.8v122.8h31.4v3h-32.5v50.5h-5.1v-38.8h-75.7v24.1h-26.4l-.2.2-92.1,55.4h-74.2v67.2h31.5v71.4h-31.5v145.9h38.8v4.2h-22v33.6h56.7v84h152.2v80.8h56.7v75l.4.3,46.2,34.6.4.2h0ZM512.3,839.3h-86.1v-72.4h-49.3v-119.6h73.5v-16.8h13.5v41.3l.3.3,25.2,24.1.3.3h22.5v48.3h67.2v-48.3h21.4l.3-.3,25.2-24.1.3-.3v-10.8h14.6v18.9h48.3v82.9h-177.4v76.5h.2ZM326.5,765.9h-119.6v-74.5h-10.5v-4.2h26.2v65.1h49.4v-15.7h54.5v29.4h0ZM326.5,701.9h-54.5v-30.4h39.9v-114.5h-39.9v-14.5h62.9v16.8h33.6v-24.1h7.3v24.1h81.9v-57.7h-8.4v-8.4h-7.3v-80.8h-6.3v-3.1h28.3v-97.7h-30.4v-3h8.8l.3-.3,23.1-22,.3-.3v-21.4h12.6v2.1h-6.3v70.3h55.6v2.1h-56.7v74.5h40.9v113.3h25.2v7.2h-73.5v64h-13.6v-15.7h-123.8v119.6h0ZM787.2,701.9h-38.8v-36.7h6.3v-44.2h-6.3v-48.2h-39.9v-2.1h24.1v-21h78.7v39.9h-24.1v112.3h0ZM641.4,629.4h-14.7v-95.5h-54.6v-7.2h55.6v-50.5h-32.5v-63h46.2v31.5h24.1v7.2h-24.1v118.8h24.1v2.1h-24.1v37.8h80.8v3h-63v11.5h-17.8v4.2h0ZM190.1,541.4h-14.7v-71.4h.2l.2-.2,92.2-55.4h58.5v23.1h43.1v-38.8h5.1v10.5h36.7v3.1h-.5l-.3.3-10.5,11.5-.3.3v68.6h-24.1v23.1h-7.2v-11.5h-33.6v4.2h-77.6v-33.6h-67.3v66.1h0ZM811.4,518.3h-78.7v-66.1h-24.1v-7.3h24.1v-171.1h-76.6v-5.2h35.7v-32.5h63v89.2h74.6v-24.1h6.2v7.3h15.7v16.8h40.9v37.8h-40.9v58.8h40.9v70.3h-80.8v26.2ZM634,338.9h-54.5v-2.1h24v-37.8h-96.5v-32.5h-7.3v-2h23.1v-28.3h61.9v32.4h32.5v56.7h16.8v13.6ZM658.1,194h-106.9v-71.3h106.9v71.3h0Z"/>
    </g>
    <g id="Callouts">
      <text class="cls-9" transform="translate(849.4 399.1)"><tspan x="0" y="0">C区 小房间</tspan></text>
      <text class="cls-9" transform="translate(878 289.6)"><tspan x="0" y="0">C区 长道</tspan></text>
      <text class="cls-9" transform="translate(669.3 497.6)"><tspan x="0" y="0">C区 车库</tspan></text>
      <text class="cls-9" transform="translate(699.4 726.9)"><tspan x="0" y="0">C区 小道</tspan></text>
      <text class="cls-9" transform="translate(663.9 602.5)"><tspan x="0" y="0">C区 窗口</tspan></text>
      <text class="cls-9" transform="translate(762.6 248.9)"><tspan x="0" y="0">C区 大厅</tspan></text>
      <text class="cls-9" transform="translate(648.7 399.1)"><tspan x="0" y="0">中区 门</tspan></text>
      <text class="cls-9" transform="translate(518.5 452.7)"><tspan x="0" y="0">中区 庭院</tspan></text>
      <text class="cls-9" transform="translate(375.1 532.2)"><tspan x="0" y="0">A区 下水道</tspan></text>
      <text class="cls-9" transform="translate(221.7 399.1)"><tspan x="0" y="0">A区 长道</tspan></text>
      <text class="cls-9" transform="translate(403.7 248.9)"><tspan x="0" y="0">A区 花园</tspan></text>
      <text class="cls-9" transform="translate(376.6 362.1)"><tspan x="0" y="0">A区 大厅</tspan></text>
      <text class="cls-9" transform="translate(136.1 715.8)"><tspan x="0" y="0">A区 塔楼</tspan></text>
      <text class="cls-9" transform="translate(354.5 623.4)"><tspan x="0" y="0">A区 小道</tspan></text>
      <text class="cls-9" transform="translate(513.9 723.3)"><tspan x="0" y="0">B区 后房</tspan></text>
      <text class="cls-9" transform="translate(518.6 326.9)"><tspan x="0" y="0">中区 窗口</tspan></text>
      <text class="cls-9" transform="translate(399.6 884.4)"><tspan x="0" y="0">守方 重生点</tspan></text>
      <text class="cls-9" transform="translate(536.6 84)"><tspan x="0" y="0">攻方 重生点</tspan></text>
      <path id="C" class="cls-5" d="M917.6,638.3c4.1,0,7.2,1.8,8.6,4.8.2.4.3.9.3,1.5,0,1-.8,2-1.9,2h-.2c-.9,0-1.7-.5-2-1.4-.8-2-2.7-3.3-4.9-3.1-3.5,0-5.6,2.8-5.6,7.3s2.2,7.3,5.6,7.3,4.1-1.3,4.8-3.3c.3-.9,1.2-1.5,2.1-1.5,1-.1,1.9.6,2,1.7v.2c0,.6-.2,1.2-.4,1.7-1.5,3-4.6,4.8-8.6,4.8-6.2,0-10.1-4.2-10.1-11.1s4-11,10.3-11Z"/>
      <path id="B" class="cls-5" d="M536.1,626.7v-16.8c-.1-1.2.7-2.2,1.9-2.3h7.6c4,0,6.5,2.1,6.5,5.4s-1.7,4.3-4,4.6h0c2.8.2,5,2.5,5,5.2s-2.8,6.1-7.5,6.1h-7.2c-1.2.1-2.2-.7-2.2-1.9-.1-.1-.1-.2-.1-.3ZM543.9,616.5c2.4,0,3.8-1,3.8-2.8s-1.2-2.7-3.3-2.7h-3.7v5.6h3.1ZM544.5,625.7c2.6,0,4-1,4-3.1s-1.5-3-4.1-3h-3.8v6.2h3.9Z"/>
      <path id="A" class="cls-5" d="M139.5,651.2c-1.2,0-1.9-.6-2.3-2l-1.2-3.4h-7.8l-1.2,3.4c-.4,1.4-1,2-2.3,2-1.2.1-2.2-.8-2.2-2h0c0-.6.1-1,.3-1.5l5.9-16c.5-1.9,2.5-2.9,4.4-2.4,1.2.3,2.1,1.3,2.4,2.4l5.9,16c.2.4.3.9.3,1.4,0,1.2-.9,2.1-2.1,2.1h-.2ZM135.1,642.4l-2.8-8.8h-.1l-2.8,8.8h5.8Z"/>
    </g>
    <g id="Barrier">
      <line class="cls-7" x1="832.1" y1="266.3" x2="832.1" y2="301.1"/>
      <line class="cls-7" x1="656" y1="271.4" x2="617.2" y2="271.4"/>
      <line class="cls-7" x1="507" y1="299" x2="507" y2="339.9"/>
      <line class="cls-7" x1="466.1" y1="285.8" x2="376.1" y2="285.8"/>
      <line class="cls-6" x1="572.1" y1="529.9" x2="537.5" y2="529.9"/>
      <line class="cls-6" x1="177" y1="493.1" x2="130.2" y2="493.1"/>
      <line class="cls-6" x1="285.3" y1="541.9" x2="285.3" y2="508.9"/>
      <line class="cls-6" x1="732.7" y1="512.4" x2="641.4" y2="512.4"/>
      <line class="cls-6" x1="892.2" y1="488.9" x2="936.2" y2="488.9"/>
    </g>
  </g>
</svg>