<?xml version="1.0" encoding="UTF-8"?>
<svg id="_图层_1" data-name="图层 1" xmlns="http://www.w3.org/2000/svg" version="1.1" viewBox="0 0 1100 1000">
  <defs>
    <style>
      .cls-1 {
        fill: #32343b;
      }

      .cls-1, .cls-2, .cls-3, .cls-4, .cls-5, .cls-6 {
        stroke-width: 0px;
      }

      .cls-2 {
        fill: #575548;
      }

      .cls-3 {
        fill: #646568;
      }

      .cls-7 {
        stroke: #814194;
      }

      .cls-7, .cls-8 {
        stroke-width: 10px;
      }

      .cls-7, .cls-8, .cls-9 {
        fill: none;
        stroke-miterlimit: 10;
      }

      .cls-7, .cls-8, .cls-10 {
        opacity: .8;
      }

      .cls-8 {
        stroke: #6bc3c0;
      }

      .cls-9 {
        stroke: #afabae;
        stroke-width: 1px;
      }

      .cls-4 {
        fill: #afabae;
      }

      .cls-5 {
        fill: #297466;
      }

      .cls-6, .cls-11 {
        fill: #fff;
      }

      .cls-11 {
        font-family: SimHei, SimHei;
        font-size: 16px;
        isolation: isolate;
      }
    </style>
  </defs>
  <g id="_防守-源工重镇" data-name="防守-源工重镇">
    <g id="Body">
      <path class="cls-1" d="M966.3,584.3v-17.6h3.1v-22.8h-3.1v-16.5h-31v-105.5h-13.4v-13.4h16.5v-46.5l-67.2-67.2h-96.2l-7.2,3.1h-32.1l-5.2-1-7.2,3.1h-7.2l-2.1-2.1h-8.3l-17.6,3.1h-16.5l-26.9-4.1v-13.4h0l-6.2-29-6.2-33.2-2.1-8.3-5.3-11.4-7.1-17.6h-3.1l-5.2-4.1-12.5-15.6-8.2-9.3-2.2-5.3-5.1-10.2-5.3-6.2-10.3-10.3-7.2-5.3-10.3-12.4v-41.4l-3-5.2-4.1-7.2-4-5.2-6.2-4.1-7.4-5.3-10.3-8v-4l7.2-9.4v-3.1l-5.2-9.3V.9h-47.4v2.1l-8.4,7.2v5.2l-3.1,3-5.2,7.3-9.3,14.4-6.3,9.5-5.2,13.4v35.2l-25.9,32.1h-5.2l-34.1,35.2v2.1l-51.7,50.7v108.6l-25,13.5h-94v113.8h-6.2v-16.5h-44.4l-17.6,17.6v24.8l17.6,19.7h44.5v-15.5h34s0,6.2,0,6.2h-15.5v38.3h-18.6v55.8h69.2v56.9h24.8v37.2h-24.8v61h13.3l19.8,20.7v1h2.1v5.2h-22.8v49.6h87.9v-6.2h6.2v5.2h86.9v1h32.5c0,.1,18.3.1,18.3.1v75.4c11.9,49.2,37.1,103.5,37.1,103.5l6.2,4.1h50.6c0,.1,34.3-72.9,38.4-107.5v-75.5h93.1v-5.2h6.2v5.2h169.6v-69.3l64.3-.2v-36.2h-7.2v-2.1h7.2v-54.8h-57.9v-50.7h-35.2v-6.2h16.5v-18.6h6.2v6.2h69.3ZM709.8,414.5v-4.9c0,0,19.7-.3,19.7-.3v-38.3h-83.8v-37.2l19.6.3v2.1h61v-2.1h70.3v31h13.4v49.3c0,0-100.2,0-100.2,0ZM552.6,422.9l-11.5,11.5h-23.7v21.7h-3.1v-21.7h-100.3v-94.1h-38.3v-64.1h52.7l17.6-13.4,6.2-2.1h5.2l17.6-12.4h7.2l20.7,5.2,3.1,5.2h9.3l24.8,12.4,4.1,7.2h25.9v68.3h32.1v-12.4h18.6v37h-68.2v51.8ZM470.8,652.6h-37.1v24.8h-13.4v-30h74.5v5.2h-23.9ZM389.1,203.7l8.2-9.3h12.5v-8.2l12.4-16.5,21.7-27.9h2.1v-7.2l22.8-25.9,24.8-8.3h6.1l8.4,10.2h5.2l8.4,7.2v7.2l18.6,20.7v11.4l16,14.4v1.6l33.5,32.7v6.2l2.1,2.1,12.4,10.3v6.2l-6.2,27.7h-5.1l-84.9-37.1h-11.4l-21.7,5.2h-30l-45.5,26.9h-4l-6.2-11.4h-3.1l-6.2-10.3v-9s6.2-7.3,6.2-7.3l3-11.5h0ZM257.9,553.4h-6.1v-63.2h-12.5v-6.2h12.2v-49.5h37.3v-42.4h95.1v10.3h-26.9v76.5h38.3v-12.4h44.5v86.9l-22.9,11.5h-53.7v41.3h-37v-21.7h7.2v-31h-75.6ZM373,779.8h-8.7v5.2h-6.2v-18.6h-47.6v-5.2h2.1v-1l20.7-20.7h102.6l4.1-4.1v-6.2h17.4v49.6h-6.2v1h-78.2ZM727.4,778.7h-95.1c0-.1-47.7,59.9-47.7,59.9h-38.1l-47.7-59.7h-21.7v-6.2h10.3v-64.1h-47.4v-11.4h-20v-6.2h27.9v-18.6h19.7v17.6h46.5v-37.2h-1v-5.2h1v-38.3h-37.2v-15.5h4.1v-24.8h-4.1v-15.5h25.9v-50.7h-25.9v-23.8h37.2v-5.2h3.1v5.2h65.2v-81.7l100.5-.2v12.4h5.2v5.2h-22.8l-.2,28.6h0v87.4h-4.1v-15.5h-44.5l-21.7,21.7v20.7l21.7,20.7h44.5v-15.5h4.1v6.1c3.1,4,9.5,7.1,17.6,8.4h0c0,.1.4.1.4.1,2.2.3,4.4.5,6.8.5s4.7-.2,6.8-.5h.4c8.1-1.2,14.5-4.4,17.6-8.5v-9.2h44.5l.2,68.1h12.4v2.1h-12.4v61h-24.8v43.4h13.5v44.5h-14.7v5.2h-6.2v-5.2ZM935.3,708.2v2s-57,.3-57,.3v68.1c0,0-107.3,0-107.3,0v-6.2h100.1v-87.9c.1,0,56.8.3,56.8.3v23.5h7.3ZM890.8,553.1v-6.2l-12.4-12.4h-37.2l-12.4,12.4v49.8c0,0,18.5,0,18.5,0v6c0,0-7.2,0-7.2,0l-18.7,26.9h-24.7v-1.9c0,0,12.3,0,12.3,0v-54c0,0-12.3,0-12.3,0v-25.9h12.4v-51.6c-.1,0-49.6-.1-49.6-.1v37.2h-44.5v-5.2h13.4v-56.7c0,0,30.9,0,30.9,0v-31h137.6v112.5c0,0-6.1,0-6.1,0Z"/>
    </g>
    <g id="Bombsite">
      <rect class="cls-2" x="765.7" y="684.5" width="87.8" height="69.3"/>
      <rect class="cls-2" x="301.3" y="615.3" width="100.2" height="101.3"/>
      <polyline class="cls-1" points="326.9 640.5 339.3 640.5 339.3 677.7 314.7 677.7 314.7 665.3 326.9 665.3 326.9 651.9"/>
      <rect class="cls-1" x="369.2" y="652" width="50.7" height="15.5"/>
      <rect class="cls-1" x="797.5" y="688.2" width="29.9" height="11.3"/>
      <rect class="cls-1" x="784.1" y="699.5" width="57.3" height="23.7"/>
      <rect class="cls-1" x="785" y="723.1" width="12.5" height="12.5"/>
    </g>
    <g id="Lines">
      <rect class="cls-4" x="357.4" y="466.2" width="38.3" height="1"/>
      <path class="cls-4" d="M358.1,466.2v-6.2h6.3v6.2h-6.3M357.1,467.3h8.4v-8.3h-8.4v8.3h0Z"/>
      <path class="cls-4" d="M471.1,439.4v-5.2h43.1v5.2h-43.1M470.1,440.5h45.2v-7.2h-45.3v7.2h.1Z"/>
      <path class="cls-4" d="M576.5,477.7c-2.7,0-5-2.2-5-5s2.2-5,5-5,5,2.3,5,5-2.3,5-5,5M576.5,478.7c3.3,0,6-2.7,6-6s-2.7-6-6-6-6,2.7-6,6,2.7,6,6,6h0Z"/>
      <path class="cls-4" d="M553.6,382.5v-10.5h9.4v10.5h-9.4M552.5,383.5h11.5v-12.6h-11.5v12.6h0Z"/>
      <path class="cls-4" d="M565,375.8v-3.9h3.8v3.9h-3.8M564,376.9h5.9v-6h-5.9v6h0Z"/>
      <path class="cls-4" d="M765.8,332.8v-10h10.3v10h-10.3M764.8,333.9h12.4v-12.1h-12.4v12.1h0Z"/>
      <path class="cls-4" d="M852.2,382.4l-10.5-10.5v-14.9l10.5-10.5h14.9l10.5,10.5v14.9l-10.5,10.5h-14.9M851.7,383.4h15.7l11.2-11.2v-15.7l-11.2-11.2h-15.7l-11.2,11.2v15.7l11.2,11.2h0Z"/>
      <path class="cls-4" d="M759.4,593.4v-15.4h13.9v15.4h-13.9M758.3,594.5h15.9v-17.5h-15.9v17.5h0Z"/>
      <path class="cls-4" d="M759.4,590.3v-9.3h10.7v9.3h-10.7M758.3,591.4h12.7v-11.4h-12.7v11.4h0Z"/>
      <path class="cls-4" d="M760.3,638.9v-8.4h9.4v8.4h-9.4M759.3,640h11.5v-10.4h-11.5v10.4h0Z"/>
      <rect class="cls-4" x="771.3" y="627.6" width="26" height="1"/>
      <rect class="cls-4" x="822.2" y="548.5" width="42.5" height="1" transform="translate(-141.1 757.2) rotate(-45)"/>
      <path class="cls-4" d="M794.9,510.8v-14.5h14.2v14.5h-14.2M793.8,511.8h16.2v-16.5h-16.2v16.5h0Z"/>
      <path class="cls-4" d="M798,507.7v-11.4h11.1v11.4h-11.1M796.9,508.7h13.1v-13.4h-13.1v13.4h0Z"/>
      <path class="cls-4" d="M666.6,520.1v-9.3h10.3v9.3h-10.3M665.6,521.1h12.4v-11.4h-12.4v11.4h0Z"/>
      <path class="cls-4" d="M898.2,652.4v-23.8h11.2v23.8h-11.2M897.1,653.4h13.2v-25.9h-13.2v25.9h0Z"/>
      <path class="cls-4" d="M859.9,695.9v-10.4h10.3v10.4h-10.3M858.9,697h12.4v-12.5h-12.4v12.5h0Z"/>
      <path class="cls-4" d="M785.5,735.1v-11.4h11.4v11.4h-11.4M784.5,736.2h13.4v-13.4h-13.4v13.4h0Z"/>
      <path class="cls-4" d="M784.5,722.7v-22.8h55.8v22.8h-55.8M783.5,723.8h57.9v-24.8h-57.9v24.8h0Z"/>
      <path class="cls-4" d="M798,699v-10.3h29v10.3h-29M796.9,700.1h31v-12.4h-31v12.4h0Z"/>
      <path class="cls-4" d="M315,300.8v-4.1h5.2v4.1h-5.2M313.9,301.8h7.2v-6.2h-7.2v6.2h0Z"/>
      <path class="cls-4" d="M315,314.2v-11.4h11.4v11.4h-11.4M313.9,315.2h13.4v-13.4h-13.4v13.4h0Z"/>
      <path class="cls-4" d="M194.9,396.9v-1h49.6v1h-49.6M193.9,398h51.7v-3.1h-51.7v3.1h0Z"/>
      <path class="cls-4" d="M194.9,394.9v-6.2h12.4v6.2h-12.4M193.9,395.9h14.5v-8.3h-14.5v8.3h0Z"/>
      <path class="cls-4" d="M277.7,433.1v-11.4h10.3v11.4h-10.3M276.7,434.2h12.4v-13.4h-12.4v13.4h0Z"/>
      <path class="cls-4" d="M282.9,420.8v-5.2h5.2v5.2h-5.2M281.9,421.9h7.2v-7.2h-7.2v7.2h0Z"/>
      <path class="cls-4" d="M440.1,552.1v-30h11.4v30h-11.4M439.1,553.1h13.4v-32.1h-13.4v32.1h0Z"/>
      <path class="cls-4" d="M440.1,527.3v-5.2h11.4v5.2h-11.4M439.1,528.3h13.4v-7.2h-13.4v7.2h0Z"/>
      <path class="cls-4" d="M441.1,646v-23.5h10.3v23.6h-10.3M440.1,647h12.4v-25.5h-12.4v25.5h0Z"/>
      <path class="cls-4" d="M441.1,627.6v-5.2h10.3v5.2h-10.3M440.1,628.6h12.4v-7.2h-12.4v7.2h0Z"/>
      <path class="cls-4" d="M369.8,666.9v-14.5h49.6v14.5h-49.6M368.8,667.9h51.7v-16.5h-51.7v16.5h0Z"/>
      <rect class="cls-4" x="313.8" y="677.2" width="26" height="1"/>
      <rect class="cls-4" x="313.8" y="664.8" width="1" height="12.9"/>
      <rect class="cls-4" x="314.2" y="664.8" width="13.1" height="1"/>
      <rect class="cls-4" x="326.2" y="640.7" width="1" height="24.6"/>
      <rect class="cls-4" x="326.2" y="640" width="13.4" height="1"/>
      <rect class="cls-4" x="338.7" y="640.6" width="1" height="36.8"/>
      <path class="cls-4" d="M258.8,640.1v-20.7h6.4v20.7h-6.4M257.8,641.1h8.5v-22.8h-8.5v22.8h0Z"/>
      <rect class="cls-4" x="320" y="584.2" width="7" height="2.1"/>
      <rect class="cls-4" x="257.7" y="584.2" width="37.6" height="2.1"/>
      <path class="cls-4" d="M258.8,598.6v-11.5h22.8v11.5h-22.8M257.8,599.6h24.8v-13.5h-24.8v13.5h0Z"/>
      <rect class="cls-4" x="269.5" y="586.7" width="1" height="12.2"/>
      <circle class="cls-9" cx="411.1" cy="343.3" r="2.8"/>
      <rect class="cls-4" x="382.9" y="401.6" width="1" height="32.7"/>
      <path class="cls-4" d="M364.5,604.6v-9h10.3v9h-10.3M363.5,605.6h12.4v-11.1h-12.4v11.1h0Z"/>
      <rect class="cls-4" x="271.2" y="739.1" width="62.5" height="1"/>
      <path class="cls-4" d="M545.6,994.7v-10.3h10.3v10.3h-10.3M544.6,995.8h12.4v-12.4h-12.4v12.4h0Z"/>
      <rect class="cls-4" x="325.5" y="664.8" width="13.4" height="1"/>
      <circle class="cls-9" cx="259.9" cy="703.1" r="2.8"/>
    </g>
    <g id="Outlines">
      <path class="cls-3" d="M545.3,999l-6.2-4.1s-25.2-54.3-37.1-103.5v-75.4h-18.5c0-.1-32.3-.1-32.3-.1v-1h-86.9v-5.2h-6.2v6.2h-87.9v-49.6h22.8v-5.2h-2.1v-1l-19.8-20.7h-13.3v-61h24.8v-37.2h-24.8v-56.9h-69.2v-55.8h18.6v-38.3h15.5v-6.2h-34.1v15.5h-44.5l-17.6-19.7v-24.8l17.6-17.6h44.5v16.5h6.2v-113.8h94l24.8-13.3v-108.6l51.7-50.7v-2.1l34.1-35.2h5.2l25.9-32.1v-35.2h0l5.2-13.4,6.2-9.3,9.3-14.5,5.3-7.3,3.1-3v-5.2l8.4-7.2V.9h47.4v2.1l5.2,9.3v3.1l-7.2,9.4v4l10.3,8.3,7.4,5.3,6.2,4.1,4,5.2,4.1,7.2,3,5.2v41.4l10.3,12.4,7.2,5.3,10.3,10.3,5.3,6.2,5.1,10.2,2.2,5.3,8.2,9.3,12.5,15.3,5.2,4.1h3.1l7.1,17.6,5.3,11.4,2.1,8.3,6.2,33.2,6.2,29h0v13.4l26.9,4.1h16.5l17.6-3.1h8.3l2.1,2.1h7.2l7.2-3.1,5.2,1h32l7.2-3.1h96.2l67.2,67.2v46.5h-16.5v13.4h13.4v105.5h31v16.5h3.1v22.8h-3.1v17.6h-69.3v-6.2h-6.2v18.6h-16.5v6.2h35.2v50.7h57.9v54.8h-7.2v2.1h7.2v36.2h-64.1v69.3h-169.6v-5.2h-6.2v5.2h-93.1v75.5c-3.9,34.5-38.4,107.6-38.4,107.6h-50.6M727.4,778.7v5.2h6.2v-5.2h14.7v-44.5h-13.5v-43.4h24.8v-61h12.4v-2.1h-12.4v-68.3h-44.5v9.2c-3.1,4-9.5,7.1-17.6,8.4h0c0,.1-.4.1-.4.1-2.2.3-4.4.5-6.8.5s-4.7-.2-6.8-.5h-.4c-8.1-1.2-14.5-4.4-17.6-8.5v-6.1h-4.1v15.5h-44.5l-21.7-20.7v-20.7l21.7-21.7h44.5v15.5h4.1v-87.4h0v-28.4h22.8v-5.2h-5.2v-12.4h-100.5v81.7h-65.1v-5.2h-3.1v5.2h-37.2v23.8h25.9v50.6h-25.9v15.5h4.1v24.8h-4.1v15.5h37.2v38.3h-1v5.2h1v37.2h-46.5v-17.6h-19.7v18.6h-27.9v6.2h19.9v11.4h47.4v64.1h-10.3v6.2h21.7l47.7,60h38.1l47.7-60h95.1M457.5,729h-17.4v6.2l-4.1,4.1h-102.6l-20.7,20.7v1h-2.1v5.2h47.6v18.6h6.2v-5.2h86.9v-1h6.2v-49.6M935.3,708.2h-7.2v-23.8h-56.9v87.9h-100.1v6.2h107.4v-68.1c0,0,56.9-.3,56.9-.3v-2M470.8,652.4h24v-5.2h-74.5v30h13.4v-24.8h37M847.4,596.5h-18.6v-49.6l12.4-12.4h37.2l12.4,12.4v6.2h6.2v-112.7h-137.6v31h-31v56.9h-13.4v5.2h44.5v-37.2h49.6v51.7h-12.4v25.9h12.4v53.8h-12.4v2.1h24.7l18.7-26.9h7.2v-6.2M439.9,466.2h-44.5v12.4h-38.3v-76.5h26.9v-10.3h-95.1v42.4h-37.2v49.6h-12.2v6.2h12.4v63.1h81.7v31h-7.2v21.7h37v-41.3h53.7l22.9-11.5v-86.9M620.9,333.9h-18.6v12.4h-32.1v-68.3h-25.9l-4.1-7.2-24.8-12.4h-9.3l-3.1-5.2-20.7-5.2h-7.2l-17.6,12.4h-5.2l-6.2,2.1-17.6,13.4h-52.7v64.1h38.3v94.1h100.3v21.7h3.1v-21.7h23.7l11.5-11.5v-51.6h68.2v-37.2M810.2,364.9h-13.4v-31h-70.3v2.1h-61v-2.1h-19.7v37.2h83.8v38.3h-19.7v5.2h100.3v-49.6M593,258.4h5.1l6.3-27.9v-6.2l-12.4-10.3-2.1-2.1v-6.2l-33.6-32.8v-1.6l-16-14.4v-11.4l-18.6-20.7v-7.2l-8.4-7.2h-5.1l-8.4-10.2h-6.1l-24.8,8.3-22.8,25.9v7.2h-2.1l-21.7,27.9-12.4,16.5v8.4h-12.5l-8.2,9.3-3.1,11.4-6.2,7.3v9.2l6.2,10.3h3.1l6.2,11.4h4l45.5-26.9h30l21.7-5.2h11.4l84.9,37.1h0M545,1000h51.6l.3-.6c.3-.7,34.4-73.5,38.4-107.9h0v-74.7h93.1v-5.2h4v5.2h171.9v-69.3h64.1v-95.3h-57.9v-50.7h-35.2v-4h16.5v-18.6h4v6.2h71.5v-17.6h3.1v-24.9h-3.1v-16.5h-31v-105.5h-13.4v-11.2h16.5v-48.1l-.3-.3-67.2-67.2-.3-.3h-97.1c0,.1-7,3.1-7,3.1h-31.6l-5.1-.9h-.3c0-.1-.3,0-.3,0l-7,3h-6.6l-1.8-1.8-.3-.3h-8.9l-17.5,3.1h-16.3l-26-3.9v-13.5h-.2l-6-28.1-6.2-33.1h0l-2.1-8.3h0v-.2l-5.3-11.4-7.1-17.5-.3-.7h-3.4l-4.8-3.8-12.5-15.5-8.2-9.1-2.1-5.1h0l-5.1-10.2h-.1c0-.1-.1-.2-.1-.2l-5.3-6.2h0l-10.3-10.3h-.1c0-.1-.1-.1-.1-.1l-7.1-5.2-10-12v-41.5c-.1,0-3.1-5.2-3.1-5.2l-4.1-7.2h0v-.2l-4-5.2h-.1c0-.1-.1-.2-.1-.2l-6.2-4.1-7.3-5.2-9.9-8v-3.1l7-9.1.2-.3v-3.9c-.1,0-5.2-9.1-5.2-9.1V0h-49.6v2.6l-8,6.9-.4.3v5.2l-2.8,2.7h-.1v.2l-5.3,7.3h0l-9.3,14.5-6.2,9.3h-.1v.2l-5.2,13.4v.2c-.1,0-.1,35-.1,35l-25.3,31.3h-5.1l-.3.3-34.1,35.2-.3.3v2.1l-51.4,50.4-.3.3v108.4l-24,12.9h-94.7v113.8h-4v-16.5h-46l-.3.3-17.6,17.6-.3.3v25.6l.3.3,17.6,19.7.3.4h46v-15.5h32v4h-15.5v38.3h-18.6v58h69.2v56.9h24.8v35.1h-24.8v63.2h14l19.1,20.1v1.7h2.1v3h-22.8v51.8h90v-6.2h4v5.2h86.9v1h50.7v74.6h0c11.9,48.8,37,103.2,37.3,103.7v.3c.1,0,.3.2.3.2l6.3,4,.3.2h0ZM584,837.5h-37l-47.4-59.6-.3-.4h-21.2v-4h10.3v-66.3h-47.4v-11.4h-19.9v-4h27.9v-18.6h17.6v17.6h48.6v-39.4h-1v-3h1v-40.4h-37.2v-13.3h4.1v-27h-4.1v-13.3h25.9v-52.7h-25.9v-21.7h37.2v-5.2h.9v5.2h67.2v-81.7h98.3v12.4h5.2v3h-22.8v115.8h-2v-15.5h-46l-.3.3-21.7,21.7-.3.3v21.6l.3.3,21.7,20.7.3.3h46v-15.5h2v5.4l.2.3c3.1,4.1,9.4,7.2,17.4,8.6v.2h1.4c2.3.3,4.6.5,6.8.5s4.7-.1,6.8-.5h1.6v-.2c7.9-1.3,14.2-4.4,17.4-8.6l.2-.3v-8.5h42.3v129.2h-24.8v45.6h13.5v42.3h-14.7v5.2h-4v-5.2h-96.8l-.3.4-47.2,59.6h0ZM363.2,783.7h-4v-18.6h-47.6v-3h2.1v-1.7l20.1-20.1h102.6l.3-.3,4.1-4.1.3-.3v-5.5h15.3v47.5h-6.2v1h-86.9v5.1h-.1ZM877.3,777.5h-105.3v-4h100.1v-87.9h54.8v23.7h-49.6v68.3h0ZM432.5,676.2h-11.3v-27.8h72.4v3h-61v24.8h-.1ZM820.7,628.6h-10.7v-55.8h-12.4v-23.7h12.4v-53.9h-51.8v37.2h-42.3v-3h13.4v-56.9h31v-31h135.5v110.6h-4v-5.6l-.3-.3-12.4-12.4-.3-.3h-38.2l-.3.3-12.4,12.4-.3.3v51.2h18.6v4h-6.7l-.3.5-18.5,26.4h0ZM362.1,604.8h-34.9v-19.5h7.2v-33.2h-81.7v-63.1h-12.4v-4h12.2v-49.6h37.2v-42.4h93v8.2h-26.9v78.7h40.4v-12.4h42.3v85.1l-22,11h-54.5v41.4h0ZM516.2,454.9h-.9v-21.7h-100.3v-94.1h-38.3v-62h52l.3-.2,17.5-13.3,5.9-2h5.3l.3-.2,17.3-12.2h6.7l20.2,5.1,2.9,4.8.3.5h9.6l24.3,12.1,3.9,6.9.3.5h25.5v68.3h34.2v-12.4h16.4v35.1h-68.3v52.2l-10.9,10.9h-24.3v21.8h-.1ZM808.9,413.5h-98.1v-3h19.7v-40.4h-83.8v-35.1h17.5v2.1h63.2v-2.1h68.2v31h13.4v47.5h0ZM597.1,257.3h-3.9l-84.7-37.1h-.2c0-.1-11.8-.1-11.8-.1h-.1l-21.5,5.1h-30.2l-.2.2-45.3,26.7h-3.1l-5.9-10.9-.3-.5h-3.2l-5.8-9.5v-8.5l5.9-7,.2-.2v-.2c.1,0,3.2-11.1,3.2-11.1l7.7-8.8h13v-8.9l12.2-16.3,21.4-27.5h2.6v-8l22.3-25.3,24.4-8.1h5.4l8.1,9.8.3.4h5.2l7.7,6.6v7.1l.3.3,18.4,20.6v11.4l.4.3,15.7,14.1v1.4l.3.3,33.2,32.4v6.1l.3.3,2.1,2.1h0l12.1,10v5.6l-6.1,27.2h0Z"/>
    </g>
    <g id="TP_Lines_test" data-name="TP Lines test">
      <polygon class="cls-5" points="579.4 548 574.3 558.3 584.6 558.3 590.8 548 590.8 546 584.6 535.6 574.3 535.6 579.4 546 579.4 548"/>
      <polygon class="cls-5" points="579.4 548 574.3 558.3 584.6 558.3 590.8 548 590.8 546 584.6 535.6 574.3 535.6 579.4 546 579.4 548"/>
      <polygon class="cls-5" points="490.5 582.1 485.3 592.3 495.7 592.4 502 582.1 502 580 495.7 569.7 485.3 569.7 490.5 580 490.5 582.1"/>
      <polygon class="cls-5" points="106.9 469.3 101.6 479.7 112.1 479.7 118.3 469.3 118.3 467.3 112.1 457 101.6 457 106.9 467.3 106.9 469.3"/>
      <polygon class="cls-5" points="979.7 556.2 974.5 566.6 984.8 566.6 991 556.2 991 554.1 984.8 543.9 974.5 543.9 979.7 554.1 979.7 556.2"/>
      <polygon class="cls-5" points="84.9 474.5 87.2 474.5 101 474.5 103.6 469.3 103.6 467.4 100.9 462.1 87.2 462.1 87.2 214.9 302.8 214.9 302.8 202.6 74.8 202.6 74.8 208.8 74.8 214.9 74.8 474.5 84.9 474.5"/>
      <polygon class="cls-5" points="1012.8 549.1 991 549.1 991 549.1 994.2 554.2 994.2 556.3 991 561.4 991 561.4 1025.2 561.4 1025.2 550.9 1025.2 549.1 1025.2 202.6 1016.6 202.6 1012.8 202.6 643.5 202.6 643.5 214.9 1012.8 214.9 1012.8 549.1"/>
      <polygon class="cls-5" points="502 587.2 502 587.2 555.6 587.2 555.6 577.1 555.6 574.9 555.6 553.1 573.8 553.1 576.4 547.9 576.4 546 573.8 540.8 555.6 540.8 555.6 540.8 543.2 540.8 543.2 574.9 502 574.9 505.1 580 505.1 582.1 502 587.2"/>
    </g>
    <g id="Callouts">
      <text class="cls-11" transform="translate(789 805.1)"><tspan x="0" y="0">B区 大堂</tspan></text>
      <text class="cls-11" transform="translate(897.5 676.1)"><tspan x="0" y="0">B区 拐角</tspan></text>
      <text class="cls-11" transform="translate(829.8 575.6)"><tspan x="0" y="0">B区 花园</tspan></text>
      <text class="cls-11" transform="translate(922.5 561.8)"><tspan x="0" y="0">B区 传送器</tspan></text>
      <text class="cls-11" transform="translate(896.8 474.4)"><tspan x="0" y="0">B区 长道</tspan></text>
      <text class="cls-11" transform="translate(829.2 339.1)"><tspan x="0" y="0">B区 喷泉</tspan></text>
      <text class="cls-11" transform="translate(757.2 609.9)"><tspan x="0" y="0">B区 窗口</tspan></text>
      <text class="cls-11" transform="translate(667.4 470.3)"><tspan x="0" y="0">B区 短道</tspan></text>
      <text class="cls-11" transform="translate(656.5 390.1)"><tspan x="0" y="0">B区 小道</tspan></text>
      <text class="cls-11" transform="translate(560.7 390.1)"><tspan x="0" y="0">A区 小道</tspan></text>
      <text class="cls-11" transform="translate(137.1 476.6)"><tspan x="0" y="0">A区 出口</tspan></text>
      <text class="cls-11" transform="translate(459.8 244.3)"><tspan x="0" y="0">攻方 洞</tspan></text>
      <text class="cls-11" transform="translate(439.1 72.5)"><tspan x="0" y="0">攻方 重生点</tspan></text>
      <text class="cls-11" transform="translate(328.2 369.5)"><tspan x="0" y="0">A区 大厅</tspan></text>
      <text class="cls-11" transform="translate(441.5 466.1)"><tspan x="0" y="0">A区 短道</tspan></text>
      <text class="cls-11" transform="translate(202.3 572.7)"><tspan x="0" y="0">A区 澡堂</tspan></text>
      <text class="cls-11" transform="translate(283.2 789.9)"><tspan x="0" y="0">A区 塔楼</tspan></text>
      <text class="cls-11" transform="translate(521.1 920)"><tspan x="0" y="0">守方 重生点</tspan></text>
      <text class="cls-11" transform="translate(467.2 670.9)"><tspan x="0" y="0">A区 灯</tspan></text>
      <text class="cls-11" transform="translate(455 526.7)"><tspan x="0" y="0">A区 小房间</tspan></text>
      <text class="cls-11" transform="translate(431.9 587.3)"><tspan x="0" y="0">A区 传送器</tspan></text>
      <text class="cls-11" transform="translate(604 552.1)"><tspan x="0" y="0">B区 出口</tspan></text>
      <path id="B" class="cls-6" d="M817.6,748.4v-16.5c0-1.4.8-2.3,2.2-2.3h7c3.9,0,6.4,2.1,6.4,5.3s-1.8,4.2-3.9,4.6h0c2.9.3,5,2.4,5,5.2s-2.8,6-7.3,6h-7.1c-1.4.1-2.3-.7-2.2-2.2h0ZM825.2,738.3c2.4,0,3.7-1,3.7-2.8s-1.1-2.7-3.2-2.7h-3.6v5.5h3.1ZM825.8,747.4c2.6,0,3.9-1,3.9-3.1s-1.4-3-4-3h-3.7v6.1h3.8Z"/>
      <path id="A" class="cls-6" d="M366.5,706.7c-1.1,0-1.9-.6-2.3-2l-1.1-3.3h-7.7l-1.1,3.3c-.4,1.3-1,2-2.3,2s-2.2-.8-2.2-2.1.1-.8.3-1.4l5.8-15.7c.6-1.8,1.7-2.5,3.4-2.5s2.7.8,3.3,2.5l5.8,15.7c.2.5.3,1,.3,1.4,0,1.2-.9,2.1-2.3,2.1h0ZM362.1,697.9l-2.8-8.7h-.1l-2.8,8.7h5.7Z"/>
    </g>
    <g id="Barrier" class="cls-10">
      <line class="cls-8" x1="515.3" y1="456" x2="515.3" y2="474.6"/>
      <line class="cls-8" x1="301.3" y1="332.4" x2="301.3" y2="392.9"/>
      <line class="cls-8" x1="792.4" y1="293.5" x2="792.4" y2="335"/>
      <line class="cls-8" x1="382.8" y1="396.9" x2="415.9" y2="396.9"/>
      <line class="cls-8" x1="686.9" y1="411.5" x2="710.8" y2="411.5"/>
      <line class="cls-7" x1="754.6" y1="532.4" x2="754.6" y2="560.5"/>
      <line class="cls-7" x1="875.3" y1="599.5" x2="846.3" y2="599.5"/>
      <line class="cls-7" x1="503.9" y1="552.1" x2="438.7" y2="552.1"/>
      <line class="cls-7" x1="320" y1="585.3" x2="295.3" y2="585.3"/>
      <line class="cls-7" x1="479.5" y1="595.3" x2="479.5" y2="565.6"/>
    </g>
  </g>
</svg>