<?xml version="1.0" encoding="UTF-8"?>
<svg id="_图层_1" data-name="图层 1" xmlns="http://www.w3.org/2000/svg" version="1.1" viewBox="0 0 1100 1000">
  <defs>
    <style>
      .cls-1 {
        stroke-dasharray: 0 0 0 0 0 0 4.4 3.3;
      }

      .cls-1, .cls-2, .cls-3, .cls-4, .cls-5, .cls-6, .cls-7, .cls-8, .cls-9 {
        fill: none;
      }

      .cls-1, .cls-2, .cls-3, .cls-4, .cls-7, .cls-8, .cls-9 {
        stroke-miterlimit: 10;
      }

      .cls-1, .cls-2, .cls-5, .cls-7, .cls-8, .cls-9 {
        stroke-width: 1px;
      }

      .cls-1, .cls-2, .cls-6, .cls-7, .cls-8, .cls-9 {
        stroke: #afabae;
      }

      .cls-10 {
        fill: #32343b;
      }

      .cls-10, .cls-11, .cls-12, .cls-13, .cls-14 {
        stroke-width: 0px;
      }

      .cls-11 {
        fill: #575548;
      }

      .cls-12 {
        fill: #646568;
      }

      .cls-2 {
        stroke-dasharray: 0 0 0 0 0 0 3.9 2.9;
      }

      .cls-3 {
        stroke: #814194;
      }

      .cls-3, .cls-4 {
        opacity: .8;
        stroke-width: 10px;
      }

      .cls-4 {
        stroke: #6bc3c0;
      }

      .cls-5 {
        stroke: #646568;
      }

      .cls-13 {
        fill: #afabae;
      }

      .cls-14, .cls-15 {
        fill: #fff;
      }

      .cls-6 {
        stroke-miterlimit: 10;
        stroke-width: 1px;
      }

      .cls-15 {
        font-family: SimHei, SimHei;
        font-size: 16px;
        isolation: isolate;
      }

      .cls-8 {
        stroke-dasharray: 0 0 0 0 0 0 3.5 2.6;
      }

      .cls-9 {
        stroke-dasharray: 0 0 0 0 0 0 4.2 3.1;
      }
    </style>
  </defs>
  <g id="_防守-森寒冬港" data-name="防守-森寒冬港">
    <g id="Body">
      <path class="cls-10" d="M168.8,563.9v15.6l-59.6,20.9v10h0v153.2h123.4v11.5c.1,0-4.1,0-4.1,0v100.1l19.9-6.3h7.3l17.7,2.1,55.5,22.9,10.4,11.5,17.8-6.3h4.2l10.6-9.4h9.4l12.5,9.4h39.7v32.2l-15.7,19.1v8.4h0v40.1h134.9v-40.1l-22-28.2v-29.3h29.3l9.4-19.9v-14.6l9.4-9.4,16.7-5.2v-3.1l1-2.1,24.1-14.8v-23.9h58.6l17.8-9.1h12.5l15.7,11.2h9.4v1h50.1l6.3,5.2h4.2l10.5-6.3h6.3l29.3,40.8h2.1l19.9-11.4v-39.5h99.6l17.7-28.3v-78.2h-17.8l-38.7-32.4v-35.9l39.2-32.1h27.7v-142.2h0v-82.6h-125.5v-25.1h-51.2v16.7h-83.7v-41.8h-61.7v-60.7h-54.3v-79.5h-143.3v30.3h-5.2v-43.3h144.3v-36.3h-111.9V.9h-105.6v131.1h-54.4v33.5h80.5v39.7h-5.2v-26.1H134.5v27.2h-1v1h-2.1v106.3h3.1v2.4h0v16.8h-25.1v231.1h59.4ZM377,536.8v-203.9h-51.2v-11.5h60.7v109.4h97.2v27.6h25.1v85.7h-28.2v-3.1h-94.2v105.6h-78.3v-54.4h-28.2v-55.4h97.2ZM470.1,648.2v27.6h-34.5v-77.5h34.5v49.9h0ZM265,763.7h110.9v-65.1h9.4v76.8h-120.3v-11.6h-.1ZM523.4,730.2v-82h32.3v-123.3h5.3v127.9h-28.2v72.2h68.6l46-22.4h3.7v27.6h-127.7ZM695.8,574.4h52.3v73.2h65.9v5.2h-185.1v-5.2h12.5v-73.2h54.4ZM582.9,574.4v73.2h28.2v5.2h-33.4v-127.9h5.1v49.5h0ZM666.6,679v-6.3h175.7v-25.1h27.2v84.7h-191.4v-53.3h-11.5ZM850.7,532.7h-154.8v-27.5h-111.9v-92.8h-33.5v-33.5h-74.2v-79.5h27.2v-5.2h79.5v103.4h34.5v53.4h233.2v81.6h0ZM621.7,279.1v69.3h59l8.9-8.7h6.3v25.4h-81.6v-71.1h0v-15h7.4ZM182.5,316.1h92v16.8h-92v-16.8ZM274.5,366.3h64.8v56.6h-78.4v-56.6h13.6Z"/>
    </g>
    <g id="Lines_under_map" data-name="Lines under map">
      <rect class="cls-5" x="756.5" y="711.6" width="29.1" height="20.2"/>
      <rect class="cls-5" x="756.5" y="693.1" width="29.1" height="18.5"/>
      <rect class="cls-5" x="756.5" y="673.2" width="29.1" height="19.8"/>
      <path class="cls-5" d="M756.5,731.8l29.1-20.2"/>
      <path class="cls-5" d="M756.5,711.6l29.1-18.5"/>
      <path class="cls-5" d="M756.5,693l29.1-19.3"/>
      <path class="cls-5" d="M756.5,711.6l29.1,20.2"/>
      <path class="cls-5" d="M756.5,693l29.1,18.5"/>
      <path class="cls-5" d="M756.5,673.6l29.1,19.3"/>
    </g>
    <g id="Bombsite">
      <polygon class="cls-11" points="900.8 517.9 900.8 661.2 871.6 661.2 871.6 645.7 816.1 645.7 814 645.7 778.4 645.7 778.4 534.4 852.7 534.4 852.7 517.9 900.8 517.9"/>
      <path class="cls-11" d="M873.7,659.1v-15.5h-93.2v-107.1h74.2v-16.4h43.9v139.1h-25M869.5,663.3h33.5v-147.4h-52.4v16.4h-74.2v115.5h93.2v15.5h0Z"/>
      <rect class="cls-11" x="111.4" y="659.1" width="194.4" height="102.7"/>
      <path class="cls-11" d="M113.6,759.7v-98.5h190.1v98.5H113.6M109.4,763.9h198.5v-106.9H109.3v106.9h.1Z"/>
      <rect class="cls-10" x="800" y="596.9" width="7.3" height="9.4"/>
      <rect class="cls-10" x="198.6" y="676.4" width="22" height="10.5"/>
      <polyline class="cls-10" points="152.8 719.1 138 718.2 139 703.3 153.8 704.4 152.8 719.1"/>
      <rect class="cls-10" x="108.8" y="656.5" width="27.1" height="14.6"/>
    </g>
    <g id="Hell_lines" data-name="Hell lines">
      <polyline class="cls-9" points="557.4 496.4 581.1 496.4 581.1 505.2"/>
      <line class="cls-7" x1="562.9" y1="525" x2="565" y2="525"/>
      <line class="cls-8" x1="567.6" y1="525" x2="572.4" y2="525"/>
      <line class="cls-7" x1="573.8" y1="525" x2="575.9" y2="525"/>
      <line class="cls-7" x1="873.8" y1="575.8" x2="873.8" y2="577.9"/>
      <line class="cls-2" x1="873.8" y1="580.8" x2="873.8" y2="586.2"/>
      <polyline class="cls-7" points="873.8 587.7 873.8 589.8 871.7 589.8"/>
      <line class="cls-1" x1="868.4" y1="589.8" x2="808.3" y2="589.8"/>
      <polyline class="cls-7" points="806.8 589.8 804.7 589.8 804.7 587.7"/>
      <line class="cls-2" x1="804.7" y1="584.8" x2="804.7" y2="579.3"/>
      <line class="cls-7" x1="804.7" y1="577.9" x2="804.7" y2="575.8"/>
    </g>
    <g id="Shapes">
      <rect class="cls-7" x="307.3" y="517.4" width="14.6" height="19.9"/>
      <rect class="cls-7" x="347.1" y="513.2" width="6.2" height="7.3"/>
      <rect class="cls-7" x="353.4" y="513.2" width="8.4" height="7.3"/>
      <rect class="cls-7" x="361.8" y="511.1" width="15.7" height="26.1"/>
      <rect class="cls-7" x="347.1" y="520.5" width="14.6" height="16.7"/>
      <path class="cls-13" d="M181.3,504.3v-25.1h89.9v25.1h-89.9M180.3,505.4h92v-27.2h-92v27.2h0Z"/>
      <path class="cls-13" d="M220,591.1v-53.3h59.7v53.3h-59.7M219,592.2h61.8v-55.4h-61.8v55.4h0Z"/>
      <path class="cls-13" d="M231.5,567.1v-15.7h48.2v15.7h-48.2M230.5,568.1h50.3v-17.8h-50.3v17.8h0Z"/>
      <path class="cls-13" d="M234.7,576.5v-8.4h45.1v8.4h-45.1M233.6,577.5h47.2v-10.5h-47.2v10.5h0Z"/>
      <rect class="cls-7" x="180.8" y="617.8" width="76.3" height="27.2"/>
      <rect class="cls-7" x="108.8" y="656.5" width="27.1" height="14.6"/>
      <rect class="cls-7" x="198.6" y="676.4" width="22" height="10.5"/>
      <rect class="cls-7" x="185" y="686.8" width="92" height="29.3"/>
      <polygon class="cls-7" points="308.4 692 325.1 692 325.1 646 308.4 646 308.4 692"/>
      <rect class="cls-7" x="334.5" y="314.5" width="12.5" height="7.3"/>
      <rect class="cls-7" x="385.8" y="331.3" width="8.4" height="8.4"/>
      <rect class="cls-7" x="385.8" y="339.6" width="14.6" height="14.6"/>
      <rect class="cls-7" x="400.5" y="348" width="8.4" height="6.3"/>
      <rect class="cls-7" x="385.8" y="354.2" width="27.2" height="77.1"/>
      <rect class="cls-7" x="553.1" y="288.4" width="8.4" height="6.3"/>
      <rect class="cls-7" x="654.6" y="304.2" width="14.6" height="13.5"/>
      <rect class="cls-7" x="616.8" y="398.1" width="77.5" height="53.4"/>
      <rect class="cls-7" x="781" y="382.7" width="14.6" height="15.5"/>
      <rect class="cls-7" x="774.8" y="389.8" width="6.4" height="8.4"/>
      <rect class="cls-7" x="982.9" y="380.4" width="8.5" height="9.4"/>
      <rect class="cls-7" x="974.5" y="367.9" width="16.8" height="12.5"/>
      <rect class="cls-7" x="897.1" y="474.5" width="15.7" height="14.6"/>
      <rect class="cls-7" x="912.8" y="412.8" width="30.3" height="76.3"/>
      <rect class="cls-7" x="800" y="596.9" width="7.3" height="9.4"/>
      <polyline class="cls-7" points="813.6 650.7 813.6 606.3 792.7 606.3 792.7 574.9 884.7 574.9 884.7 606.3 834.5 606.3 834.5 646 834.5 648.1 842.5 648.1"/>
      <rect class="cls-7" x="598.2" y="652.3" width="8.4" height="6.3"/>
      <rect class="cls-7" x="696.3" y="532.2" width="13.6" height="15.6"/>
      <rect class="cls-7" x="470.5" y="177.6" width="15.7" height="12.5"/>
      <rect class="cls-7" x="486.2" y="177.6" width="31.3" height="3.1"/>
      <rect class="cls-7" x="486.2" y="180.7" width="31.3" height="27.2"/>
      <rect class="cls-7" x="470.5" y="190.1" width="15.7" height="17.8"/>
      <rect class="cls-7" x="517.6" y="192.4" width="22" height="15.5"/>
      <rect class="cls-7" x="517.6" y="177.6" width="22" height="14.6"/>
      <rect class="cls-7" x="391.2" y="178.5" width="22.9" height="24.2"/>
      <rect class="cls-7" x="346" y="178.6" width="27.2" height="17.8"/>
      <rect class="cls-7" x="373.2" y="178.6" width="17.9" height="17.8"/>
      <rect class="cls-7" x="375.3" y="196.4" width="15.8" height="15.7"/>
      <rect class="cls-7" x="355.6" y="196.4" width="19.9" height="14.6"/>
      <rect class="cls-7" x="346" y="196.4" width="9.4" height="11.5"/>
      <polyline class="cls-7" points="403.6 203.2 403.6 209 408.9 211.1 411 217.3 418.2 217.3 418.2 210.6"/>
      <rect class="cls-13" x="417.7" y="205" width="1" height="74.6"/>
      <rect class="cls-13" x="465.9" y="208.2" width="1" height="70.3"/>
      <rect class="cls-7" x="726.7" y="666.9" width="6.3" height="6.3"/>
      <polyline class="cls-7" points="650.4 749.1 650.4 737 679.6 737 679.6 802.9 650.4 802.9 650.4 797"/>
      <line class="cls-7" x1="650.4" y1="808.5" x2="650.4" y2="803.3"/>
      <line class="cls-7" x1="650.4" y1="729.9" x2="650.4" y2="737.3"/>
      <rect class="cls-13" x="159.5" y="366.3" width="101.9" height="1"/>
      <rect class="cls-13" x="109.1" y="391.4" width="139.2" height="1"/>
      <polygon class="cls-13" points="132.6 536.8 133.2 536.8 167.7 536.8 167.7 563.9 168.8 563.9 168.8 536.8 168.8 536.2 168.8 535.7 133.2 535.7 133.2 446.8 180.3 446.8 180.3 478.7 182.4 478.7 182.4 446.8 184.5 446.8 185 446.8 185.5 446.8 185.5 421.7 260.9 421.7 260.9 420.7 184.5 420.7 184.5 421.2 184.5 421.7 184.5 445.8 132.2 445.8 132.2 446.3 132.2 446.8 132.2 536.8 132.6 536.8"/>
      <path class="cls-13" d="M185.5,435.3v-13.6h13.6v13.6h-13.6M184.5,436.4h15.7v-15.7h-15.7v15.7h0Z"/>
      <circle class="cls-7" cx="203.8" cy="425.3" r="3.2"/>
      <circle class="cls-7" cx="189.3" cy="439.9" r="3.2"/>
      <circle class="cls-7" cx="137" cy="450.6" r="3.2"/>
      <circle class="cls-7" cx="137" cy="458" r="3.2"/>
      <circle class="cls-7" cx="374.7" cy="508.4" r="1.8"/>
      <circle class="cls-7" cx="370" cy="508.4" r="1.8"/>
      <circle class="cls-7" cx="374.7" cy="503.8" r="1.8"/>
      <circle class="cls-7" cx="324.9" cy="534.5" r="1.8"/>
      <circle class="cls-7" cx="344.4" cy="534.4" r="1.8"/>
      <circle class="cls-7" cx="344.4" cy="529.6" r="1.8"/>
      <polyline class="cls-7" points="136 656.5 169.4 656.5 169.4 617.8 181 617.8 270.7 617.8 270.7 653.8"/>
      <line class="cls-7" x1="323.1" y1="692" x2="340.3" y2="692"/>
      <rect class="cls-13" x="109" y="741.7" width="267.2" height="1"/>
      <rect class="cls-6" x="138.5" y="703.8" width="14.8" height="14.8" transform="translate(-573.3 810.7) rotate(-86.3)"/>
      <polyline class="cls-7" points="807.2 810.5 807.2 767.4 741.4 767.4 741.4 811.5"/>
      <line class="cls-7" x1="679.6" y1="732.2" x2="679.6" y2="808.5"/>
      <line class="cls-7" x1="621.2" y1="778.3" x2="621.2" y2="808.5"/>
      <polyline class="cls-7" points="569.7 753.7 621.2 753.7 621.2 757"/>
      <polyline class="cls-7" points="532.2 900.3 532.2 885.4 563.5 885.4 563.5 895"/>
      <rect class="cls-7" x="532.3" y="885.4" width="17.8" height="16.5"/>
      <rect class="cls-7" x="400.4" y="885.5" width="31.4" height="14.4"/>
      <rect class="cls-7" x="400.4" y="885.5" width="15.7" height="8.4"/>
      <rect class="cls-7" x="406.7" y="893.9" width="9.4" height="6.1"/>
      <line class="cls-7" x1="431.8" y1="886.2" x2="431.8" y2="837.9"/>
      <line class="cls-7" x1="532.2" y1="886.3" x2="532.2" y2="837.9"/>
      <line class="cls-7" x1="621.2" y1="758.4" x2="621.2" y2="752.6"/>
      <rect class="cls-7" x="108.7" y="332.3" width="12.5" height="14.6"/>
      <rect class="cls-7" x="108.7" y="347" width="5.2" height="7.3"/>
      <circle class="cls-7" cx="125.2" cy="336.6" r="3.2"/>
      <rect class="cls-7" x="469.4" y="648.9" width="54.5" height="26.5"/>
      <rect class="cls-7" x="459" y="675.3" width="34.5" height="17.8"/>
      <rect class="cls-7" x="385.8" y="540.4" width="15.7" height="15.7"/>
      <rect class="cls-7" x="401.5" y="540.4" width="15.7" height="15.7"/>
      <polyline class="cls-7" points="582.4 525.6 582.4 435.8 556.3 435.8 556.3 525.6"/>
      <polygon class="cls-13" points="639.6 707.2 636.2 700.7 636.2 700.7 635.7 699.7 600.5 717.7 541.1 717.7 541.1 676.6 549.7 653.8 548.9 653.5 540.1 676.4 540.1 676.4 540.1 718.7 540.6 718.7 541.1 718.7 600.8 718.7 600.8 718.7 600.8 718.7 635.2 701.2 638.5 707.7 639.6 707.2"/>
      <rect class="cls-7" x="227.9" y="820.7" width="4.2" height="6.3"/>
      <rect class="cls-7" x="227.9" y="803.9" width="13.6" height="16.7"/>
      <line class="cls-7" x1="241.7" y1="803.9" x2="353.9" y2="803.9"/>
      <polyline class="cls-7" points="369.7 892.1 366 887.1 356.4 890.2 355.4 894.4 360.7 899.8"/>
      <polyline class="cls-7" points="355.4 894.4 353.5 895.8 352.5 900 347.1 889.5 342.4 888.3 336.8 889.2 332.5 891.1 330.6 896.5"/>
      <path class="cls-7" d="M311.7,887.6l-9.6-9.8h-3.3l-2.4,2.2c-.3.2-.7,0-.6-.3l1-7.9-3.8-1.9-3.3-1.6-2.1,1.2-2.1,2.7-2.3,3.7"/>
      <polyline class="cls-7" points="268.7 871 265.8 864.9 261.5 862.8 255.5 862 251.6 862.8 249.9 865.5 249.9 869"/>
      <path class="cls-7" d="M252.1,862.7l-4-2.2-2.2-4.4s-3-1.4-3.1-1.5-3.7-1.9-3.7-1.9l-2.6.9-4.3,2-4.3,3"/>
      <polyline class="cls-7" points="863.9 805.7 848.9 840.4 848.9 843.6 851.3 846.6"/>
      <polyline class="cls-7" points="863.2 827.5 858.4 828 855.4 829.9 853.8 832.9 854.9 838.6 858.2 842.6"/>
      <polyline class="cls-7" points="854.6 837.2 851.4 839.8 848.9 843.7"/>
      <polyline class="cls-7" points="837.4 845.9 839.6 843.3 843 841.4 846.3 841.4 848.9 842.6"/>
      <polyline class="cls-7" points="980.7 761.2 975.8 763.6 974.1 766.8 974.5 773.5 975.1 776.1 977.4 777.7"/>
      <line class="cls-7" x1="270.7" y1="657" x2="270.7" y2="653.2"/>
      <rect class="cls-13" x="617.1" y="422.8" width="76.9" height="1"/>
      <path class="cls-13" d="M726.1,451v-14.6h14.6v14.6h-14.6M725.1,452.1h16.7v-16.7h-16.7v16.7h0Z"/>
      <path class="cls-13" d="M773.3,422.8v-24.1h75.3v24.1h-75.3M772.3,423.8h77.4v-26.1h-77.4v26.1h0Z"/>
      <rect class="cls-13" x="649.8" y="762.6" width="1" height="22"/>
      <line class="cls-7" x1="493.5" y1="718.7" x2="493.5" y2="693.1"/>
      <rect class="cls-13" x="608.1" y="779.4" width="12.8" height="1"/>
      <rect class="cls-13" x="608.1" y="756.4" width="12.8" height="1"/>
      <polygon class="cls-13" points="604.8 648.2 604.8 633 640.4 633 640.4 647.6 641.4 647.6 641.4 633 641.4 632.6 641.4 631.9 603.8 631.9 603.8 632.4 603.8 633 603.8 648.2 604.8 648.2"/>
      <rect class="cls-13" x="611" y="648.6" width="18.2" height="1"/>
    </g>
    <g id="Outlines">
      <path class="cls-12" d="M417.7,999v-40.1h0v-8.4l15.7-19.1v-32h-39.7l-12.5-9.4h-9.4l-10.6,9.4h-4.2l-17.8,6.3-10.4-11.5-55.5-22.9-17.7-2.1h-7.3l-19.9,6.3v-100h4.2v-11.5h-123.4v-153.2h0v-10l59.6-20.9v-15.6h-59.6v-231.1h25.1v-16.8h0v-2.4h-3.1v-106.3h2.1v-1h1v-27.2h279.2v26.1h5.2v-39.7h-80.5v-33.5h54.4V1.3h105.6v127.7h111.9v36.3h-144.3v43.3h5.2v-30.3h143.3v79.5h54.3v60.7h61.7v41.8h83.7v-16.7h51.2v25.1h125.7v82.6h0v142.2h-27.7l-39.2,32.1v35.9l38.7,32.4h17.8v78.1l-17.7,28.4h-99.4v39.5l-19.9,11.4h-2.1l-29.3-40.8h-6.3l-10.5,6.3h-4.2l-6.3-5.2h-50.1v-1h-9.4l-15.7-11.2h-12.5l-17.8,9.1h-58.6v23.9l-24.1,14.8-1,2.1v3.1l-16.7,5.2-9.4,9.4v14.6l-9.4,19.9h-29.3v29.3l22,28.2v39.9h-135.1M385.4,698.4h-9.4v65.1h-110.9v11.5h120.4v-76.6M869.5,647.6h-27.2v25.1h-175.7v6.3h11.4v53.3h191.4v-84.7M651,702.6h-3.7l-46,22.4h-68.6v-72.2h28.2v-127.9h-5.3v123.3h-32.3v82h127.6v-27.6M470.1,598.5h-34.5v77.5h34.5v-77.5M611.2,647.6h-28.2v-122.7h-5.1v127.9h33.4v-5.2M814.1,647.6h-65.9v-73.2h-106.7v73.2h-12.5v5.2h185.1v-5.2M480.5,540.9v3.1h28.2v-85.7h-25.1v-27.6h-97.2v-109.4h-60.7v11.5h51.2v203.9h-97.2v55.4h28.2v54.4h78.3v-105.6h94.2M850.7,451h-233.2v-53.4h-34.5v-103.4h-79.5v5.2h-27.2v79.5h74.2v33.5h33.5v92.9h111.9v27.5h154.8v-81.7M339.3,366.3h-78.4v56.6h78.4v-56.6M695.9,339.9h-6.3l-8.9,8.7h-59v-69.3h-7.3v15h0v71.1h81.6v-25.4M274.5,316.1h-92v16.8h92v-16.8M416.6,1000h137.2v-41.5l-.2-.3-21.8-27.9v-27.8h28.9l.3-.6,9.4-19.9v-.2c.1,0,.1-14.4.1-14.4l8.9-8.9,16.5-5.1.7-.2v-3.7l.8-1.6,23.7-14.6.5-.3v-23.4h57.9c0-.1,17.6-9.1,17.6-9.1h11.9l15.4,11,.3.2h8.7v1h50.8l6,5,.3.2h5.1c0-.1,10.2-6.3,10.2-6.3h5.4l29,40.4.3.4h3.1c0-.1,19.9-11.5,19.9-11.5l.5-.3v-39h99l.3-.5,17.7-28.4.2-.2v-79.6h-18.5l-38-31.8v-34.8l38.5-31.5h28.3v-227h-125.5v-25.1h-53.4v16.7h-81.5v-41.8h-61.7v-60.7h-54.3v-79.5h-145.5v30.3h-3v-41.3h144.3v-38.5h-111.9V0h-107.8v131h-54.4v35.7h80.5v37.6h-3v-26.1H133.3v27.2h-1v1h-2.1v108.3h3.1v2.4h0v14.6h-25.1v233.2h59.6v13.7l-58.8,20.7-.7.2v11.8h0v153.3h123.2v9.3c.1,0-4.1,0-4.1,0v102.6l1.5-.4,19.7-6.2h7.1l17.5,2.1,55.1,22.9,10.2,11.3.5.5.7-.2,17.6-6.2h4.4l.3-.3,10.2-9.2h8.6l12.2,9.2.3.2h39v30.6l-15.4,18.8-.2.3v49.9h-.2ZM384.2,774.1h-118.1v-9.3c-.1,0,110.9,0,110.9,0v-65.1h7.2v74.5h-.1ZM868.5,731.3h-189.2v-53.3h-11.4v-4.2h175.7v-25.1h25v82.6h-.1ZM649.9,729.2h-125.4v-79.8h32.3v-123.3h3.1v125.6h-28.2v74.3h70.2c0-.1,45.8-22.4,45.8-22.4h2.3v25.5h-.1ZM469,674.8h-32.3v-75.3h32.3v75.3h0ZM610.1,651.7h-31.3v-125.6h2.9v122.6h28.2v3h.1ZM813,651.7h-182.9v-3h12.5v-73.2h104.5v73.2h65.9v3h0ZM385.1,645.5h-76.1v-54.4h-28.2v-53.2h97.2v-206h-51.2v-9.4h58.5v109.3h97.2v27.6h25.1v83.6h-26v-3.1h-96.4v105.7h0ZM849.5,531.5h-152.6v-27.5h-111.9v-92.8h-33.5v-33.5h-74.2v-77.3h27.2v-5.2h77.3v103.4h34.5v53.4h233.2v79.4h0ZM338.2,421.7h-76.2v-54.4h76.2v54.4h0ZM694.8,364.2h-79.4v-83.9h5.1v69.3h60.5l.3-.3,8.6-8.4h4.7v23.2h.1ZM273.5,331.8h-89.8v-14.6h89.8v14.6h0Z"/>
    </g>
    <g id="Callouts">
      <text class="cls-15" transform="translate(430.1 814.1)"><tspan x="0" y="0">守方 重生点</tspan></text>
      <text class="cls-15" transform="translate(402.3 153.6)"><tspan x="0" y="0">攻方 重生点</tspan></text>
      <text class="cls-15" transform="translate(126.3 410)"><tspan x="0" y="0">A区 带状区</tspan></text>
      <text class="cls-15" transform="translate(194.1 497.3)"><tspan x="0" y="0">A区 高台</tspan></text>
      <text class="cls-15" transform="translate(297 678.2)"><tspan x="0" y="0">A区 屏幕</tspan></text>
      <text class="cls-15" transform="translate(176.8 758)"><tspan x="0" y="0">A区 高台</tspan></text>
      <text class="cls-15" transform="translate(386.3 575.7)"><tspan x="0" y="0">中区 平台</tspan></text>
      <text class="cls-15" transform="translate(540.4 659.1) rotate(-180)"><tspan x="0" y="0">中区 锅炉</tspan></text>
      <text class="cls-15" transform="translate(570.1 692.8)"><tspan x="0" y="0">B区 厨房</tspan></text>
      <text class="cls-15" transform="translate(711.6 669.8)"><tspan x="0" y="0">B区 大堂</tspan></text>
      <text class="cls-15" transform="translate(801.6 795.8)"><tspan x="0" y="0">B区 后房</tspan></text>
      <text class="cls-15" transform="translate(900 758)"><tspan x="0" y="0">B区 雪人</tspan></text>
      <text class="cls-15" transform="translate(574.8 624.1)"><tspan x="0" y="0">B区 雪堆</tspan></text>
      <text class="cls-15" transform="translate(543.3 521.5)"><tspan x="0" y="0">B区 管道</tspan></text>
      <text class="cls-15" transform="translate(451.7 396.4)"><tspan x="0" y="0">中区 蓝箱</tspan></text>
      <text class="cls-15" transform="translate(895.2 433)"><tspan x="0" y="0">B区 黄箱</tspan></text>
      <text class="cls-15" transform="translate(660.4 417.1)"><tspan x="0" y="0">B区 绿箱</tspan></text>
      <text class="cls-15" transform="translate(629.2 337.7)"><tspan x="0" y="0">B区 车库</tspan></text>
      <text class="cls-15" transform="translate(629.2 551.2)"><tspan x="0" y="0">B区 橙箱</tspan></text>
      <text class="cls-15" transform="translate(803.9 361.9)"><tspan x="0" y="0">B区 小房间</tspan></text>
      <text class="cls-15" transform="translate(603 773.9)"><tspan x="0" y="0">B区 小屋</tspan></text>
      <text class="cls-15" transform="translate(215 567.3)"><tspan x="0" y="0">A区 管道</tspan></text>
      <path id="A" class="cls-14" d="M155,693.1c0-.4.1-.8.3-1.5l5.9-15.9c.6-1.8,1.7-2.5,3.3-2.5s2.8.7,3.5,2.5l5.9,15.9c.2.5.3.9.3,1.5,0,1.3-.9,2.1-2.2,2.1s-1.9-.5-2.3-2l-1.2-3.3h-7.7l-1.2,3.3c-.4,1.5-1,2-2.3,2s-2.3-.8-2.3-2.1h0ZM167.3,686.4l-2.8-8.8h-.1l-2.8,8.8h5.8Z"/>
      <path id="B" class="cls-14" d="M857.9,636.5v-16.7c0-1.5.8-2.3,2.2-2.3h7.1c4,0,6.5,2.1,6.5,5.3s-1.8,4.3-4,4.6h0c2.9.3,5,2.4,5,5.2s-2.8,6.2-7.4,6.2h-7.2c-1.4,0-2.2-.8-2.2-2.3h0ZM865.6,626.3c2.4,0,3.8-1,3.8-2.8s-1.3-2.7-3.2-2.7h-3.7v5.5h3.1ZM866.3,635.5c2.6,0,4-1,4-3.1s-1.5-3-4.1-3h-3.8v6.2h3.9Z"/>
    </g>
    <g id="Barrier">
      <line class="cls-4" x1="619.6" y1="288.4" x2="619.6" y2="257.6"/>
      <line class="cls-4" x1="583" y1="317.5" x2="614.4" y2="317.5"/>
      <line class="cls-4" x1="476.2" y1="343.2" x2="385.3" y2="343.2"/>
      <line class="cls-4" x1="325.8" y1="326.5" x2="273.5" y2="326.5"/>
      <line class="cls-4" x1="182.5" y1="326.5" x2="133.8" y2="326.5"/>
      <line class="cls-3" x1="309.8" y1="638.8" x2="108.1" y2="638.8"/>
      <line class="cls-3" x1="803.6" y1="360.1" x2="803.6" y2="451.5"/>
      <line class="cls-3" x1="701.6" y1="547.7" x2="701.6" y2="574.4"/>
      <line class="cls-3" x1="630" y1="648.6" x2="610.1" y2="648.6"/>
      <line class="cls-3" x1="581.8" y1="648.6" x2="556.8" y2="648.6"/>
      <line class="cls-3" x1="524.4" y1="651.5" x2="470.1" y2="651.5"/>
      <line class="cls-3" x1="385.1" y1="643.4" x2="436.7" y2="643.4"/>
      <line class="cls-3" x1="220.6" y1="686.8" x2="198.6" y2="686.8"/>
    </g>
  </g>
</svg>