<?xml version="1.0" encoding="UTF-8"?>
<svg id="_图层_1" data-name="图层 1" xmlns="http://www.w3.org/2000/svg" version="1.1" viewBox="0 0 1100 1000">
  <defs>
    <style>
      .cls-1 {
        fill: #32343b;
      }

      .cls-1, .cls-2, .cls-3, .cls-4, .cls-5 {
        stroke-width: 0px;
      }

      .cls-2 {
        fill: #575548;
      }

      .cls-3 {
        fill: #646568;
      }

      .cls-6 {
        opacity: .8;
      }

      .cls-4 {
        fill: #afabae;
      }

      .cls-7 {
        stroke: #814194;
      }

      .cls-7, .cls-8 {
        stroke-width: 10px;
      }

      .cls-7, .cls-8, .cls-9 {
        fill: none;
        stroke-miterlimit: 10;
      }

      .cls-8 {
        stroke: #6bc3c0;
      }

      .cls-9 {
        stroke: #afabae;
        stroke-width: 1px;
      }

      .cls-5, .cls-10 {
        fill: #fff;
      }

      .cls-10 {
        font-family: SimHei, SimHei;
        font-size: 16px;
        isolation: isolate;
      }
    </style>
  </defs>
  <g id="_防守-日落之城" data-name="防守-日落之城">
    <g id="Body">
      <path class="cls-1" d="M78.6,594.4h32v32h-32v95.9h63.9v-4h32v12h5.9l18.1,17.9v6h12v32h-36v34c2.1,23.5,27.9,30,27.9,30h186.8l9,9.1v116.8h92.8l43,9.2,30,10.8,33.9,3,12.1-11h23.8l32-6.8,3-7.1,3.1-6.1,4.8-5,2.1-1.1,27-25,11.9-28v-106.9h-32v-48h228.8c22.8-5.5,27-29,27-29v-50.9h-24v-16h103.9v-95.9h-32v-63.9h32v-63.9h-40v-32h29v-79.9h-148.8v32h-32v-79.9h-57.9l-6,6-11-10.9,11-11.1v-32l-19-19h-27.9v3h-128.9V1.1h-143.8v82.9l-127.8,126.9h0v63.9h32v63.9h-127.9v119.2h0v40.6h-32v-18.9l-13-13h-98.9v127.8h0ZM142.5,653.2v-122.8h180.8c8.3,3.7,11.1,10.8,11.1,10.8v10.1c-4.2,9.1-11.1,11-11.1,11h-148.8v99.9h-32v-9.1h0ZM318.3,402.6v36h79.9v-4h63.9v32h-16v95.9h56.9l23,23.2v10h0v30.7h8v32h-8v32h-143.8v-227.7h-63.9v4h-32v-63.9h32ZM526,466.6v55.9h-32v-24h16v-95.9h-16v-24h32v87.9ZM266.3,786.1v-32h4v-63.9h16v-63.9h32v24h16v16h-16v55.9l32,32h71.9v32h-20.1s-135.7,0-135.7,0h0ZM653.9,866.1h-32v-32h-127.8v32h-32v-127.9h159.8v-16h32v143.9h0ZM717.8,722.2v-63.9h-135.8v-32h71.9v-53.9h-2v-10h98.8l31,30.9v128.9h-63.9ZM869.6,674.3h-56v-165.8h16v149.8h40v16h0ZM893.6,594.4v-63.9h8v16h47.9v-16h8v63.9h-63.9ZM861.6,402.6h71.9v32h-41.9v16.9l5,16-28.8,13.9-7.1-14.9h-62s-96.8,0-96.8,0v63.9h-47.9v-95.9h-64.9v-32h128.8v-96.9l10.9-10,11.1,11-6,6v89.9h127.8,0ZM398.2,242.8v-31.9l47.1-48h62.8v-11h18v99.8h0v23h127.8v63.9h-196.8l-27,30v33.9h-32v-159.8h0Z"/>
    </g>
    <g id="Bombsite">
      <rect class="cls-2" x="861.6" y="514.5" width="63.9" height="87"/>
      <rect class="cls-2" x="861.6" y="562.4" width="159.8" height="63.9"/>
      <rect class="cls-2" x="174.5" y="630.4" width="64.5" height="59.9"/>
      <rect class="cls-2" x="174.5" y="561.7" width="111.8" height="120.7"/>
      <rect class="cls-1" x="894" y="547.2" width="63.1" height="46.7"/>
      <rect class="cls-1" x="878.3" y="547" width="17.4" height="15.9"/>
      <rect class="cls-1" x="869.9" y="555" width="8.4" height="8"/>
      <rect class="cls-1" x="198.4" y="596.6" width="37.6" height="15.1" transform="translate(-350.8 304.8) rotate(-42.4)"/>
      <rect class="cls-1" x="894.4" y="531.4" width="6.4" height="31.6"/>
      <rect class="cls-1" x="950.4" y="531.3" width="6.2" height="31.6"/>
    </g>
    <g id="Lines">
      <path class="cls-4" d="M208.2,621.9l-9.5-10.4,27.1-24.8,9.5,10.4-27.1,24.8M208.2,623.3l28.5-26.1-10.8-11.9-28.5,26.1,10.8,11.9h0Z"/>
      <path class="cls-4" d="M295.3,577.4v-15h14v15h-14M294.3,578.4h16v-17h-16v17h0Z"/>
      <path class="cls-4" d="M239.4,697.3v-14h46.9v7h-16v7h-30.9M238.5,698.3h32.9v-7h16v-9h-48.9v16h0Z"/>
      <polyline class="cls-9" points="321.8 531 335 517.7 346.8 529.5 333.8 542.5"/>
      <path class="cls-4" d="M78.5,594.4v-15h15v15h-15M77.5,595.4h17v-17h-17v17h0Z"/>
      <path class="cls-4" d="M78.5,578.4v-7h7v7h-7M77.5,579.4h9v-9h-9v9h0Z"/>
      <path class="cls-4" d="M295.2,402.6v-15h14v15h-14M294.2,403.6h16v-17h-16v17h0Z"/>
      <path class="cls-4" d="M591,225.8v-15h14v15h-14M590,226.8h16v-17h-16v17h0Z"/>
      <path class="cls-4" d="M630.9,361.7v-7h14v7h-14M629.9,362.7h16v-9h-16v9h0Z"/>
      <path class="cls-4" d="M622.9,353.7v-15h29.9v15h-29.9M621.9,354.7h31.9v-17h-31.9v17h0Z"/>
      <path class="cls-4" d="M752.7,533.4c-1,0-1.9-.8-1.9-1.9v-34.1c0-1,.8-1.9,1.9-1.9h10.2c1,0,1.9.8,1.9,1.9v34.1c0,1-.8,1.9-1.9,1.9h-10.2M752.7,534.4h10.2c1.6,0,2.9-1.3,2.9-2.9v-34.1c0-1.6-1.3-2.9-2.9-2.9h-10.2c-1.6,0-2.9,1.3-2.9,2.9v34.1c0,1.6,1.3,2.9,2.9,2.9h0Z"/>
      <path class="cls-4" d="M774.6,375.6c-1,0-1.9-.8-1.9-1.9v-38.2c0-1,.8-1.9,1.9-1.9h10.2c1,0,1.9.8,1.9,1.9v38.2c0,1-.8,1.9-1.9,1.9h-10.2M774.6,376.6h10.2c1.6,0,2.9-1.3,2.9-2.9v-38.2c0-1.6-1.3-2.9-2.9-2.9h-10.2c-1.6,0-2.9,1.3-2.9,2.9v38.2c0,1.6,1.3,2.9,2.9,2.9h0Z"/>
      <path class="cls-4" d="M918.6,402.6v-15h14v15h-14M917.6,403.6h16v-17h-16v17h0Z"/>
      <path class="cls-4" d="M878.6,562.4v-14.9h15v14.9h-15M877.6,563.4h16.9v-16.9h-16.9v16.9h0Z"/>
      <path class="cls-4" d="M870.6,562.4v-7h7v7h-7M869.6,563.4h9v-9h-9v9h0Z"/>
      <path class="cls-4" d="M829.7,617.4v-14h15v14h-15M828.7,618.4h17v-16h-17v16h0Z"/>
      <path class="cls-4" d="M838.7,697.3v-7h7v7h-7M837.7,698.3h9v-9h-9v9h0Z"/>
      <path class="cls-4" d="M824.7,689.3v-15h36v15h-36M823.7,690.3h38v-17h-38v17h0Z"/>
      <path class="cls-4" d="M638.9,722.3v-30.9h14v30.9h-14M637.9,723.3h16v-32.9h-16v32.9h0Z"/>
      <path class="cls-4" d="M383.2,705.2v-15h14v15h-14M382.2,706.2h16v-17h-16v17h0Z"/>
      <path class="cls-4" d="M271.3,809.1v-23h14v23h-14M270.3,810.1h16v-25h-16v25h0Z"/>
      <polyline class="cls-9" points="386.5 850.8 398.1 839.1 409.2 850.2 397.7 861.6"/>
      <path class="cls-4" d="M526,425.6v-14h15v14h-15M525,426.6h17v-16h-17v16h0Z"/>
      <path class="cls-4" d="M591,626.4v-14.9h62.9v14.9h-62.9M590,627.4h64.9v-16.9h-64.9v16.9h0Z"/>
      <path class="cls-4" d="M586.3,540.4l-9.5-9.5,21.7-21.7,9.5,9.5-21.7,21.7M586.3,541.8l23.1-23.1-10.9-10.9-23.1,23.1,10.9,10.9h0Z"/>
      <path class="cls-4" d="M592.5,534.2l-9.5-9.5,9.5-9.5,9.5,9.5-9.5,9.5M592.5,535.7l10.9-10.9-10.9-10.9-10.9,10.9,10.9,10.9h0Z"/>
      <rect class="cls-4" x="462.1" y="722.2" width="159.9" height="1"/>
      <rect class="cls-4" x="573" y="720.2" width="1" height="2.7"/>
      <rect class="cls-4" x="542" y="720.2" width="31.5" height="1"/>
      <rect class="cls-4" x="542" y="720.7" width="1" height="2"/>
      <rect class="cls-4" x="829.3" y="562.4" width="40.7" height="1"/>
      <rect class="cls-4" x="502.9" y="562.4" width="23.2" height="1"/>
      <rect class="cls-4" x="366.2" y="594.4" width="16.1" height="1"/>
      <rect class="cls-4" x="366.2" y="594.9" width="1" height="64.4"/>
      <rect class="cls-4" x="334.1" y="658.3" width="32.6" height="1"/>
      <polyline class="cls-9" points="204.9 754.6 204.9 745.2 182.9 723.7 174 723.7"/>
      <polyline class="cls-9" points="566.5 0 566.5 6.6 583.6 6.6"/>
      <path class="cls-4" d="M536,6.1V1h14v5.1h-14M535,7.1h16V0h-16v7.1h0Z"/>
      <rect class="cls-4" x="550.6" y="5.1" width="15.8" height="1"/>
      <path class="cls-4" d="M486.1,6.1V1.1h14v5h-14M485.1,7.1h16V0h-16v7h0Z"/>
      <polyline class="cls-9" points="469.6 .5 469.6 6.6 452.5 6.6"/>
      <rect class="cls-4" x="469.7" y="5.1" width="15.9" height="1"/>
      <path class="cls-9" d="M590.3,8.5s-9,1.5-8.9-7.8"/>
      <path class="cls-9" d="M445.6,8.6s9.1,1.2,9.1-7.8"/>
      <rect class="cls-4" x="829.5" y="563.4" width="49.1" height="1.1"/>
      <rect class="cls-4" x="925.5" y="626.3" width="96.1" height="1"/>
      <path class="cls-4" d="M966.5,658.3v-15h14v15h-14M965.5,659.3h16v-17h-16v17h0Z"/>
      <path class="cls-4" d="M846.6,705.2v-15h14v15h-14M845.6,706.2h16v-17h-16v17h0Z"/>
      <path class="cls-4" d="M950.5,337.7v-15h14v15h-14M949.5,338.7h16v-17h-16v17h0Z"/>
      <path class="cls-4" d="M614.9,449.6v-15h14v15h-14M613.9,450.5h16v-17h-16v17h0Z"/>
    </g>
    <g id="Outlines">
      <path class="cls-3" d="M597.9,998.9l-33.9-3-30-10.8-43-9.2h-92.8v-116.8l-9-9.1h-186.8s-25.8-6.5-27.9-30v-34h36v-32h-12v-6l-18.1-17.9h-5.9v-12h-32v4h-63.9v-95.9h32v-32h-32v-127.8h98.9l13,13v18.9h32v-40.6h0v-119.2h127.9v-63.9h-32v-63.9l127.8-126.9V1.1h143.8v209.7h128.9v-3h27.9l19,19v32l-11,11.1,11,10.9,6-6h57.9v79.9h32v-32h148.8v79.9h-29v32h40v63.9h-32v63.9h32v95.9h-103.9v16h24v50.9s-4.2,23.5-27,29h-228.7v48h32v106.9l-11.9,28-27,25-2.1,1.1-4.8,5-3.1,6.1-3,7.1-32,6.8h-23.8l-12.1,11M621.9,834.1v32h32v-143.9h-32v16h-159.8v127.9h32v-32h127.8M422.2,754.2h-71.9l-32-32v-55.9h16v-16h-16v-24h-32v63.9h-16v63.9h-4v32h135.7s20.1,0,20.1,0v-32M750.7,562.5h-98.8v10h2v53.9h-71.9v32h135.8v63.9h63.9v-128.9l-31-30.9M534.1,626.4h-8v-30.7h0v-10l-23-23.2h-56.9v-95.9h16v-32h-63.9v4h-79.9v-36h-32v63.9h32v-4h63.9v227.7h143.8v-32h8v-32M869.7,658.3h-40v-149.8h-16v165.8h56v-16M323.3,530.5h-180.8v131.9h32v-99.9h148.8s6.9-1.9,11.1-11v-10.1s-2.8-7.1-11.1-10.8M957.6,530.5h-8v16h-47.9v-16h-8v63.9h63.9v-63.9M860.7,466.6l7.1,14.9,28.8-13.9-5-16v-16.9h41.9v-32h-199.8v-89.9l6-6-11.1-11-10.9,10v96.9h-128.8v32h64.9v95.9h47.9v-63.9h96.8s62,0,62,0M526.1,378.7h-32v24h16v95.9h-16v24h32v-143.8M653.9,274.8h-127.8v-23h0v-99.8h-18v11h-62.8l-47.1,48v191.7h32v-33.9l27-30h196.8v-63.9M598.3,1000l.3-.3,11.8-10.7h23.7s32-6.8,32-6.8h.5c0-.1.2-.6.2-.6l3-7,3-5.9,4.6-4.7,2-1h.1c0,0,0-.1,0-.1l27-25h.2c0-.1,0-.4,0-.4l11.9-28v-.2c0,0,0-108.1,0-108.1h-32v-45.9h227.9c23.2-5.6,27.7-29.6,27.8-29.8h0v-52.2h-24v-13.9h103.9v-98h-32v-61.8h32v-66h-40v-29.9h29v-82h-150.9v32h-29.9v-79.9h-57.2s-1.8,0-1.8,0h-.4s-.3.3-.3.3l-5.3,5.3-9.5-9.5,10.2-10.3.3-.3v-32.8l-.3-.3-19-19-.3-.3h-29.3v3h-126.8V0h-145.9v83.5l-127.5,126.6-.3.3v65.4h32v61.8h-127.9v159.8h-29.9v-18.3l-.3-.3-13-13-.3-.3h-100.4v129.9h32v29.9h-32v98h66v-4h29.9v12h6.5l17.5,17.3v6.7h12v29.9h-36v35.1c.9,9.9,6.2,18.4,15.2,24.6,6.8,4.6,13.2,6.3,13.5,6.3h.1s186.5,0,186.5,0l8.4,8.5v117.4h93.7l42.8,9.1,30,10.8h.1s.1,0,.1,0l33.9,3h.5s0,0,0,0ZM493.1,865.1h-29.9v-125.8h159.8v-16h29.9v141.8h-29.9v-32h-129.9v32h0ZM421.1,785.1h-19.1s-134.6,0-134.6,0v-29.9h4v-63.9h16v-63.9h29.9v24h16v13.9h-16v57.4l.3.3,32,32,.3.3h71.3v29.9h0ZM780.7,721.2h-61.8v-63.9h-135.8v-29.9h71.9v-56h-2v-7.9h97.3l30.4,30.3v127.4h0ZM525,689.2h-141.7v-227.7h-66v4h-29.9v-61.8h29.9v36h82v-4h61.8v29.9h-16v98h57.5l22.4,22.6v10.6s0,0,0,0v30.8h8v29.9h-8v32h0ZM868.6,673.3h-53.9v-163.7h13.9v149.8h40v13.9h0ZM173.4,661.3h-29.9v-129.8h179.5c7,3.2,9.8,8.9,10.2,10v9.7c-3.6,7.7-9.3,9.9-10.2,10.2h-149.7v99.9h0ZM956.5,593.3h-61.8v-61.8h5.9v16h50v-16h5.9v61.8h0ZM700.8,529.4h-45.8v-95.9h-64.9v-29.9h128.8v-97.5l9.8-9,9.6,9.5-5.2,5.3-.3.3v91.4h199.7v29.9h-41.9v18.1h0c0,.1,4.7,15.2,4.7,15.2l-27.1,13.1-6.6-14-.3-.6h-63.7s-96.8,0-96.8,0v63.9h0ZM525,521.4h-29.9v-21.9h16v-98h-16v-21.9h29.9v141.7h0ZM429.1,401.6h-29.9v-190.3l46.5-47.4h63.4v-11h15.9v99.8h0v23h127.8v61.8h-196.2l-.3.3-27,30-.3.3v33.3h0Z"/>
    </g>
    <g id="Callouts">
      <text class="cls-10" transform="translate(513.4 935.7)"><tspan x="0" y="0">守方 重生点</tspan></text>
      <text class="cls-10" transform="translate(307.7 824.9)"><tspan x="0" y="0">A区 巷道</tspan></text>
      <text class="cls-10" transform="translate(90.1 511.5)"><tspan x="0" y="0">A区 拐角</tspan></text>
      <text class="cls-10" transform="translate(261 503.7)"><tspan x="0" y="0">A区 大道</tspan></text>
      <text class="cls-10" transform="translate(367.4 732.8)"><tspan x="0" y="0">A区 小道</tspan></text>
      <text class="cls-10" transform="translate(228.3 373)"><tspan x="0" y="0">A区 大厅</tspan></text>
      <text class="cls-10" transform="translate(662.7 251.5)"><tspan x="0" y="0">B区 大厅</tspan></text>
      <text class="cls-10" transform="translate(546.8 383.2)"><tspan x="0" y="0">中区 坡底</tspan></text>
      <text class="cls-10" transform="translate(433.1 456.3)"><tspan x="0" y="0">中区 红砖路</tspan></text>
      <text class="cls-10" transform="translate(549.9 563.3)"><tspan x="0" y="0">中区 庭院</tspan></text>
      <text class="cls-10" transform="translate(547.9 694.4)"><tspan x="0" y="0">中区 坡顶</tspan></text>
      <text class="cls-10" transform="translate(727.5 487.6)"><tspan x="0" y="0">B区 市场</tspan></text>
      <text class="cls-10" transform="translate(827.7 385.6)"><tspan x="0" y="0">B区 大道</tspan></text>
      <text class="cls-10" transform="translate(832.6 739.8)"><tspan x="0" y="0">B区 奶茶店</tspan></text>
      <text class="cls-10" transform="translate(475.1 58.8)"><tspan x="0" y="0">攻方 重生点</tspan></text>
      <path id="B" class="cls-5" d="M981.6,602.1v-16c0-1.4.8-2.2,2.1-2.2h6.7c3.8,0,6.2,2,6.2,5.1s-1.7,4.1-3.8,4.4h0c2.8.3,4.8,2.3,4.8,5s-2.7,5.8-7.1,5.8h-6.9c-1.3,0-2.1-.8-2.1-2.2h0ZM989,592.4c2.3,0,3.6-1,3.6-2.7s-1.1-2.6-3.1-2.6h-3.5v5.3s3.1,0,3.1,0ZM989.6,601.2c2.5,0,3.8-1,3.8-3s-1.4-2.9-3.9-2.9h-3.6v5.9h3.7Z"/>
      <path id="A" class="cls-5" d="M276.1,591.2c-1.1,0-1.8-.6-2.2-1.9l-1.1-3.2h-7.4l-1.1,3.2c-.4,1.3-1,1.9-2.2,1.9s-2.1-.8-2.1-2,0-.8.3-1.4l5.6-15.2c.6-1.7,1.6-2.4,3.3-2.4s2.6.8,3.2,2.4l5.6,15.2c.2.5.3,1,.3,1.4,0,1.2-.8,2-2.2,2h0ZM271.9,582.7l-2.6-8.4h0l-2.7,8.4h5.5Z"/>
    </g>
    <g class="cls-6">
      <line class="cls-7" x1="982.9" y1="420.4" x2="932.5" y2="420.4"/>
      <line class="cls-7" x1="583" y1="652.9" x2="532.6" y2="652.9"/>
      <line class="cls-7" x1="383.6" y1="548.5" x2="333.3" y2="548.5"/>
      <line class="cls-7" x1="143.5" y1="599.9" x2="109.5" y2="599.9"/>
      <line class="cls-8" x1="302.3" y1="402.6" x2="302.3" y2="337.4"/>
      <line class="cls-8" x1="637.9" y1="403.7" x2="637.9" y2="337.7"/>
      <line class="cls-8" x1="725.8" y1="369.9" x2="725.8" y2="339.4"/>
      <line class="cls-8" x1="733.7" y1="302.2" x2="761.2" y2="274.8"/>
      <line class="cls-7" x1="696.4" y1="563.4" x2="696.4" y2="529.4"/>
    </g>
  </g>
</svg>