<?xml version="1.0" encoding="UTF-8"?>
<svg id="_图层_1" data-name="图层 1" xmlns="http://www.w3.org/2000/svg" version="1.1" viewBox="0 0 1100 1000">
  <defs>
    <style>
      .cls-1 {
        stroke-dasharray: 0 0 6.3 9.1;
      }

      .cls-1, .cls-2, .cls-3, .cls-4, .cls-5, .cls-6, .cls-7, .cls-8, .cls-9, .cls-10, .cls-11 {
        fill: none;
        stroke-miterlimit: 10;
      }

      .cls-1, .cls-2, .cls-3, .cls-4, .cls-7, .cls-8, .cls-9, .cls-10, .cls-11 {
        stroke: #afabae;
        stroke-width: 1.1px;
      }

      .cls-12 {
        fill: #32343b;
      }

      .cls-12, .cls-13, .cls-14, .cls-15, .cls-16, .cls-17 {
        stroke-width: 0px;
      }

      .cls-2 {
        stroke-dasharray: 0 0 8.2 11.7;
      }

      .cls-13 {
        fill: #575548;
      }

      .cls-14 {
        fill: #646568;
      }

      .cls-4 {
        stroke-dasharray: 0 0 8.1 11.5;
      }

      .cls-5 {
        stroke: #814194;
      }

      .cls-5, .cls-6 {
        opacity: .8;
        stroke-width: 10px;
      }

      .cls-6 {
        stroke: #6bc3c0;
      }

      .cls-7 {
        stroke-dasharray: 0 0 5.7 4.5;
      }

      .cls-8 {
        stroke-dasharray: 0 0 7.5 10.8;
      }

      .cls-9 {
        stroke-dasharray: 0 0 7.6 10.8;
      }

      .cls-15 {
        fill: #f4ca24;
      }

      .cls-16 {
        fill: #afabae;
      }

      .cls-10 {
        stroke-dasharray: 0 0 8.1 11.6;
      }

      .cls-17, .cls-18 {
        fill: #fff;
      }

      .cls-11 {
        stroke-dasharray: 0 0 5.3 4.2;
      }

      .cls-18 {
        font-family: SimHei, SimHei;
        font-size: 16px;
        isolation: isolate;
      }
    </style>
  </defs>
  <g id="_防守-裂变峡谷" data-name="防守-裂变峡谷">
    <g id="Body">
      <path class="cls-12" d="M1073.9,549.5h-18.2v-147.9h-17.1v-15.9h-38.7l-24.1,38.7h-5.5v-73.9h26.2v-29.6l-61.4-101.3v-3.4l28.4-19.3v-29.6h-106.9v-89.9h-55.7v1.1h-54.6l-29.6,17.1h-31.9v-20.5h-80.8v26.2h-21.6V1.1h-146.8v4.6h-94.4l-25,12.5v78.5h28.4v69.4h-88.7v-27.3h-35.8c0-1-41.5,0-41.5,0l-26.2,26.2-54.6,54.6v135.4h9.1v34.1H26.1v46h0v130.4h105.8v-45.5h47.8v11.4h-25v147.9l67.2,47.8c38.7,2.5,39.7,14.8,39.7,14.8v2.3c-7.6,4.8-10.1,10.6-10.9,13.7h-.5v2.3c10.1,11.6,30.7,93.6,30.7,93.6v24.7h-22.8v47.8l30.7,35.3,48.9,2.3,56.9,7.8,14.8,3.4,17,2.3,18.2,11.4,8.3,2.2,11.3,8.2h260.5l64.8-64.8v-142.2h-28.4v-67.1h116l50.1-50.1v-10.2h25l14.8-18.2v-68.3h106.9v-28.4h-.1ZM672.4,568.8h-25v-75.1l82.3-81.9h106.6v10.2h-100.1l-41,41v34.1l-22.8,21.6v50.1ZM401.6,227.5V83h13.7v13.7h54.6v100.1l8,13.7h104.7v-17.1h75.1l26.4-52.3h33.9l74.1,157.1v62.5h58v-96.4l37.5-23.1h2.3l28.4,51.2v70.5h-141.1v-17.1h-68.3l-100.3,101.3h-72.7v87.6h-53.5v-86.5h-30.7v-129.7h-63.7v-28.2l-42.1-42.3h-55.7v-20.5h111.5ZM353.2,533.6h-5.1v-63.7h-47.8v-12.5h64.8l22.8-18.2,18.2-17.1v-70.5h10.2v96.7h-17.1v85.3h-46.1ZM146.8,389.9v-33.8h25v-118.3h50.1v30.7h47.8v33l48.9,48.9h3.4v46.6h-105.8v23.9h-45.5l-23.9-31.1ZM335.7,853c3.2-.7,5.3-1.4,5.7-2,1.9-4,3.4-13.7,3.4-13.7v-25l-3.4-10.4v-24.1l1-14.4c-4.1-13.8-61.3-87.6-61.3-87.6h-66v-20.5h26.2v-89.9h-26.2v-18.3h27.2l9.2-17.1v-23.8h55.7v55.7l41,41h259.7l25.8,13.7h105.8v-85.3h68.3v122.9h-37.5v-29.6h-25v-5.7h-39.8v76.2h-67.1v78.5l27.3,35.3h41v40.5l-43.2,43.7h-84.2v-55.7h-143.3v58h-93.3v-17.1h-6.8v-25.3ZM938.5,622.1v9.3h-11.4v-15.9h-50.1v-54.6h-26.2v-42.1h54.6v19.3h117.2v11.4h-84.2s0,72.6,0,72.6Z"/>
    </g>
    <g id="Bombsite">
      <polygon class="cls-13" points="905.6 538.1 1021.8 538.1 1021.8 488.1 1055.8 488.1 1055.8 401.4 1038.7 401.4 1038.7 385.4 1000.1 385.4 975.6 423.7 971 423.8 971 447.1 905.6 447.1 905.6 538.1"/>
      <polygon class="cls-13" points="25.3 566.1 132 566.1 132 463 132 447.2 132 411.8 43.3 411.8 43.3 447.2 25.3 447.2 25.3 566.1"/>
      <polygon class="cls-12" points="902.2 460.2 911.9 460.2 911.9 471.4 930 471.4 930 489.5 911.9 489.5 911.9 479.5 893.6 479.4 893.6 460.2 902.2 460.2"/>
    </g>
    <g id="Hell_lines" data-name="Hell lines">
      <line class="cls-3" x1="850.5" y1="362.5" x2="850.5" y2="366.4"/>
      <line class="cls-8" x1="850.5" y1="377.2" x2="850.5" y2="481.6"/>
      <polyline class="cls-3" points="850.5 486.9 850.5 490.9 846.5 490.9"/>
      <line class="cls-9" x1="835.7" y1="490.9" x2="749.4" y2="490.9"/>
      <polyline class="cls-3" points="744 490.9 740 490.9 740 494.9"/>
      <line class="cls-1" x1="740" y1="504" x2="740" y2="530.3"/>
      <line class="cls-3" x1="740" y1="534.8" x2="740" y2="538.8"/>
      <polyline class="cls-3" points="80.1 450.5 80.1 447.7 83 447.7"/>
      <line class="cls-11" x1="87.2" y1="447.7" x2="94.6" y2="447.7"/>
      <polyline class="cls-3" points="96.6 447.7 99.5 447.7 99.5 450.5"/>
      <line class="cls-7" x1="99.5" y1="455.1" x2="99.5" y2="473.3"/>
      <polyline class="cls-3" points="99.5 475.5 99.5 478.4 96.6 478.4"/>
      <line class="cls-11" x1="92.4" y1="478.4" x2="85.2" y2="478.4"/>
      <polyline class="cls-3" points="83 478.4 80.1 478.4 80.1 475.5"/>
      <line class="cls-7" x1="80.1" y1="471" x2="80.1" y2="452.8"/>
      <line class="cls-3" x1="704.7" y1="617.2" x2="704.7" y2="613.2"/>
      <polyline class="cls-4" points="704.7 601.6 704.7 452.6 706.3 451"/>
      <polyline class="cls-3" points="710.4 446.9 713.1 444 717.1 444"/>
      <line class="cls-2" x1="728.8" y1="444" x2="782.5" y2="444"/>
      <polyline class="cls-3" points="788.5 444 792.4 444 792.4 440"/>
      <polyline class="cls-3" points="792.4 425.5 792.4 421.5 791.2 421.5 791.2 417.5"/>
      <line class="cls-10" x1="791.2" y1="405.9" x2="791.2" y2="372.4"/>
      <line class="cls-3" x1="791.2" y1="366.6" x2="791.2" y2="362.6"/>
    </g>
    <g id="Lines">
      <path class="cls-16" d="M26.2,519.9v-71.7h72.8v71.7H26.2M25.1,521h75.1v-73.9H25.1v73.9Z"/>
      <path class="cls-16" d="M26.2,519.9v-17.1h17.1v17.1h-17.1M25.1,521h19.3v-19.3h-19.3v19.3Z"/>
      <path class="cls-16" d="M173,436.9v-15.9h17.1v15.9h-17.1M171.8,438h19.3v-18.2h-19.3v18.2Z"/>
      <path class="cls-16" d="M242.3,547.1h-7.8v-39.7h17.1v22.6l-9.2,17.1M242.8,548.2l9.7-18v-24h-19.3v42h9.7Z"/>
      <path class="cls-16" d="M301.5,457.3v-13.7h19.3v13.7h-19.3M300.4,458.5h21.6v-15.9h-21.6v15.9Z"/>
      <path class="cls-16" d="M399.4,532.4v-26.2h15.9v26.2h-15.9M398.2,533.6h18.2v-28.4h-18.2v28.4Z"/>
      <path class="cls-16" d="M399.4,523.3v-17.1h15.9v17.1h-15.9M398.2,524.5h18.2v-19.3h-18.2v19.3Z"/>
      <path class="cls-16" d="M912.6,489.2v-10.2h-18.3v-18.2h17.1v11.4h18.2v17.1h-17M911.4,490.3h19.2v-19.2h-18.2v-11.4h-19.3v20.4h18.3v10.2Z"/>
      <path class="cls-16" d="M858.9,377.7v-14.8h14.8v14.8h-14.8M857.7,378.8h17.1v-17.1h-17.1v17.1Z"/>
      <path class="cls-16" d="M766.8,480.1v-58h17.1v58h-17.1M765.7,481.2h19.3v-60.3h-19.3v60.3Z"/>
      <path class="cls-16" d="M852.4,684.9l-11.4-11.4,25.6-25.6,11.4,11.4-25.6,25.6M852.4,686.5l27.2-27.2-13.1-13-27.2,27.2,13.1,13Z"/>
      <path class="cls-16" d="M839.5,169.5v-17.1h17.1v17.1h-17.1M838.4,170.6h19.3v-19.3h-19.3v19.3Z"/>
      <path class="cls-16" d="M768,247.7l-12.3-26.1,31.1-22.2,16.5,23-35.3,25.3M767.5,249.4l37.3-26.6-17.7-24.9-32.8,23.4,13.2,28.1h0Z"/>
      <path class="cls-16" d="M800.6,216.8l-7.2-10,13.2-9.4,7.2,10-13.2,9.4M800.4,218.4l15-10.7-8.5-11.8-15,10.7,8.5,11.8Z"/>
      <path class="cls-3" d="M766.5,250.2"/>
      <path class="cls-16" d="M583.7,117.2v-15.9h19.3v15.9h-19.3M582.5,118.3h21.6v-18.2h-21.6v18.2Z"/>
      <path class="cls-16" d="M534.8,45.4l-27.3-3.3v-13.7l27.3,3.2v13.8M535.9,46.5v-15.9l-29.6-3.4v15.9l29.6,3.4h0Z"/>
      <path class="cls-16" d="M521.1,53.5v-8.5l9,1v7.5h-9M520,54.6h11.4v-9.6l-11.3-1.4v10.9h-.1Z"/>
      <path class="cls-16" d="M509.7,53.5v-9.9l10.4,1.3v8.6h-10.4M508.6,54.6h12.5v-10.8l-12.6-1.5v12.3h.1Z"/>
      <path class="cls-16" d="M498.4,43.2v-8.1h8v8.1h-8M497.2,44.4h10.2v-10.4h-10.2v10.4Z"/>
      <path class="cls-16" d="M394.8,227.5v-6.8h6.8v6.8h-6.8M393.7,228.7h9.1v-9.1h-9.1v9.1Z"/>
      <path class="cls-16" d="M203.7,237.8v-17.1h17.1v17.1h-17.1M202.7,238.9h19.2v-19.3h-19.2v19.3Z"/>
      <path class="cls-16" d="M97.9,293.5v-18.2h22.8v18.2h-22.8M96.8,294.7h25v-20.5h-25v20.5Z"/>
      <line class="cls-3" x1="290.7" y1="247.4" x2="268.8" y2="269.4"/>
      <path class="cls-3" d="M583.1,194.1"/>
      <line class="cls-3" x1="583.1" y1="160.4" x2="583.1" y2="194.1"/>
      <polyline class="cls-3" points="916.4 403.9 916.4 446.5 902.7 446.5 902.7 451.1 884.6 451.1 884.6 487.5 904.9 487.5 904.9 519.5"/>
      <line class="cls-3" x1="884.6" y1="487.5" x2="870.4" y2="487.5"/>
      <line class="cls-3" x1="971" y1="447.1" x2="971" y2="423.8"/>
      <line class="cls-3" x1="652.5" y1="792.8" x2="652.5" y2="694.5"/>
      <polyline class="cls-3" points="547.8 446.5 547.8 552.3 470.5 552.3 470.5 447.6"/>
      <line class="cls-3" x1="388.6" y1="439.7" x2="388.6" y2="317.7"/>
      <polyline class="cls-3" points="77.4 411.3 42.7 411.3 42.7 447.7"/>
      <line class="cls-3" x1="215.6" y1="655.3" x2="215.6" y2="603"/>
      <path class="cls-16" d="M523.4,998.9v-30.7h17.1v18.2h17.1v12.5h-34.1M522.2,1000h36.4v-14.8h-17.1v-18.2h-19.3v33Z"/>
      <path class="cls-16" d="M449.4,989.9l-4.7-1.1-4.3-2.7v-36.1c-.1,0,9,0,9,0v39.9M450.6,991.4v-42.5h-11.4v37.8l5,3.2,6.4,1.6Z"/>
      <rect class="cls-16" x="377.8" y="948.8" width="62.2" height="1.1"/>
      <path class="cls-16" d="M791.8,420.9v-8h43.2v8h-43.2M790.6,422.1h45.5v-10.2h-45.5v10.2Z"/>
      <line class="cls-3" x1="927.8" y1="665" x2="927.8" y2="630.8"/>
      <line class="cls-3" x1="1022.1" y1="538.7" x2="1022.1" y2="488.1"/>
      <path class="cls-3" d="M179.7,547.8"/>
      <path class="cls-3" d="M215.3,547.8"/>
      <polygon class="cls-16" points="179.7 547.1 179.7 531.2 178.7 531.2 178.7 548.2 179.2 548.2 179.8 548.2 215.8 548.2 215.8 547.1 179.7 547.1"/>
      <path class="cls-16" d="M436.9,326.5v-8h14.8v8h-14.8M435.8,327.6h17.1v-10.2h-17.1v10.2Z"/>
      <rect class="cls-15" x="489.1" y="210.9" width="1.3" height="626.2"/>
      <rect class="cls-15" x="526.8" y="210.9" width="1.3" height="626.1"/>
    </g>
    <g id="Outlines">
      <path class="cls-14" d="M464.2,998.9l-11.1-8.1-8.3-2.2-18.2-11.4-17-2.3-14.8-3.4-56.9-8-48.9-2.3-30.7-35.3v-47.8h22.8v-24.8s-20.6-82-30.7-93.6v-2.3h.3c.8-3.2,3.3-9,10.9-13.7v-2.3s-1-12.2-39.7-14.8l-67.2-47.8v-147.9h25v-11.5h-47.8v45.5H26.1v-130.3h0v-45.8h80.8v-34.1h-9.1v-135.4l54.6-54.6,26.2-26.2s18.4-.5,30.7-.5,10.8.1,10.8.5h35.9v27.3h88.7v-69.4h-28.4V18.2l25-12.5h94.4V1.1h146.8v100.1h21.6v-26.2h80.8v20.5h31.9l29.6-17.1h54.6v-1.1h55.7v89.9h106.9v29.6l-28.4,19.3v3.4l61.4,101.4v29.6h-26.2v73.9h5.5l24-38.8h38.7v15.9h17.1v147.9h18.2v28.4h-106.9v68.3l-14.8,18.2h-25v10.2l-50.1,50.1h-116v67.1h28.4v142.2l-64.8,64.8h-260.4M579.1,837.3v55.7h84.2l43.2-43.7v-40.5h-41l-27.3-35.3v-78.5h67.1v-76.2h39.8v5.7h25v29.6h37.5v-122.9h-68.3v85.3h-105.8l-25.8-13.7h-259.7l-41-41v-55.7h-55.7v23.8l-9.2,17.1h-27.2v18.3h26.2v89.9h-26.2v20.5h66s57.2,73.8,61.3,87.7l-1,14.4v24.1l3.4,10.2v25s-1.5,9.7-3.4,13.7c-.3.7-2.4,1.4-5.7,2v25.3h6.8v17.1h93.3v-58h143.3M1022.7,538.1h-117.2v-19.3h-54.6v42.1h26.2v54.6h50.1v15.9h11.4v-81.9h84.2v-11.4M836.1,411.8h-106.6l-82.1,81.9v75.1h25v-50.1l22.8-21.6v-34.1l41-41h100.1v-10.2M777.1,345.8v17.1h141.1v-70.5l-28.4-51.2h-2.3l-37.5,23.1v96.4h-58v-62.5l-74.1-157.1h-33.8l-26.4,52.3h-75.1v17.1h-104.7l-8-13.7v-100.1h-54.6v-13.7h-13.7v144.5h-111.5v20.5h55.7l42.1,42.3v28.2h63.7v129.7h30.7v86.5h53.5v-87.6h72.6l100.3-101.3h68.3M416.4,351.5h-10.2v70.5l-18.2,17.1-22.8,18.2h-64.8v12.5h47.8v63.7h51.2v-85.3h17.1v-96.7M322,350.4h-3.4l-48.9-48.9v-33h-47.8v-30.7h-50.1v118.3h-25v33.8l23.9,31.1h45.5v-23.9h105.8v-46.6M463.8,1000h261.4l.3-.3,64.8-64.8.3-.3v-143.8h-28.4v-64.8h115.4l.3-.3,50.1-50.1.3-.3v-9.6h24.5l.3-.5,14.8-18.2.2-.3v-67.5h106.8v-30.8h-18.2v-147.9h-17.1v-15.9h-40.5l-.3.6-23.8,38.1h-3.5v-71.6h26.2v-31.3c-.1,0-61.4-101-61.4-101v-2.4l27.9-19,.6-.3v-31.4h-106.9v-89.9h-58.1v1.1h-53.9c0,.1-29.2,17.1-29.2,17.1h-30.5v-20.5h-83v26.2h-19.3V0h-149.1v4.6h-93.7c0,.1-25,12.6-25,12.6l-.7.3v80.3h28.6v67.1h-86.5v-27.3h-36.7c-1.1-.2-2.3-.3-3.4-.3-1.8-.1-4.4-.1-7.7-.1-12.2,0-30.6.5-30.7.5h-.5l-.3.3-26.2,26.2-54.6,54.6-.3.3v137h9.1v31.7H25v48.4h0v130.4h108.2v-45.5h45.4v9.1h-25v149.6l.6.3,67.2,47.8.2.2h.3c35.6,2.3,38.5,12.9,38.6,13.7v1.5c-6.8,4.6-9.6,9.9-10.6,13.2h-.7v3.9l.3.3c9.7,11,29.5,89.1,30.4,92.9v23.5h-22.8v49.4l.3.3,30.7,35.3.3.3h.6l48.9,2.3,56.7,8,14.8,3.4h.1l16.6,2.3,18,11.3h.1c0,.1.2.1.2.1l8.1,2,10.9,8,.2.2h0ZM434.6,894.1h-91v-17.1h-6.8v-23.1c4-.9,5.1-1.6,5.6-2.5,2-4.1,3.5-13.7,3.5-14v-25.6l-3.4-10.1v-23.9l1-14.3v-.5c-4.1-13.9-59.2-85.1-61.5-88.1l-.3-.5h-65.4v-18.1h26.2v-92.3h-26.2v-15.9h26.7l.3-.7,9.2-17.1v-.2c.1,0,.1-22.9.1-22.9h53.5v55.1l.3.3,41,41,.3.3h259.8l25.6,13.5h.2c0,.1,70.9.1,70.9.1v76.2h-67.1v80.1l.2.3,27.3,35.3.3.5h40.4v38.8l-42.7,43h-82.5v-55.7h-145.6v57.9h0ZM806.5,652.9h-35.2v-29.6h-25v-5.7h-5.7v-85.2h65.8v120.5h.1ZM937.4,630.1h-9.1v-15.9h-50.1v-54.6h-26.2v-39.7h52.3v19.3h117.2v9h-84.2v81.9h0ZM671.3,567.6h-22.8v-73.3l81.6-81.3h104.9v8h-99.4l-.3.3-41,41-.3.3v34.1l-22.4,21.3-.3.3v49.3h.1ZM534.8,533.4h-51.2v-86.5h-30.7v-129.7h-63.7v-27.5l-.3-.3-42.1-42.3-.3-.3h-55.1v-18.2h111.5V84.1h11.4v13.7h54.6v99.4c.1,0,8.1,13.7,8.1,13.7l.3.6h106.5v-17.1h74.7l.3-.7,25.9-51.4h32.3l73.6,156.3v63.3h-12.5v-17.1h-70l-.3.3-99.9,100.9h-73.2v87.5h0ZM398.2,532.3h-48.9v-63.7h-47.8v-10.1h64.1l.3-.2,22.8-18.2h0l18.2-17.1.3-.3v-70h8v94.4h-17.1v85.2h.1ZM215.1,419.7h-43.8l-23.2-30.3v-32.2h24.9v-118.3h47.8v30.7h47.8v32.3l.3.3,48.9,48.9.3.3h2.7v44.4h-105.8v23.8h0ZM916.9,361.7h-65.9v-96.8l36.7-22.5h1.1l28,50.3v69.1h0Z"/>
    </g>
    <g id="Callouts">
      <text class="cls-18" transform="translate(497.6 927.5)"><tspan x="0" y="0">攻方 桥</tspan></text>
      <text class="cls-18" transform="translate(288.1 927.5)"><tspan x="0" y="0">A区 大门</tspan></text>
      <text class="cls-18" transform="translate(255.9 774.5)"><tspan x="0" y="0">A区 卫星天线</tspan></text>
      <text class="cls-18" transform="translate(165.6 598.9)"><tspan x="0" y="0">A区 下坡</tspan></text>
      <text class="cls-18" transform="translate(98.3 335.9)"><tspan x="0" y="0">A区 大道</tspan></text>
      <text class="cls-18" transform="translate(194.7 200.7)"><tspan x="0" y="0">A区 大堂</tspan></text>
      <text class="cls-18" transform="translate(497.3 148.8)"><tspan x="0" y="0">攻方 重生点</tspan></text>
      <text class="cls-18" transform="translate(757.8 141.7)"><tspan x="0" y="0">B区 树木</tspan></text>
      <text class="cls-18" transform="translate(785.3 291.3)"><tspan x="0" y="0">B区 隧道</tspan></text>
      <text class="cls-18" transform="translate(919.5 307.4)"><tspan x="0" y="0">B区 大道</tspan></text>
      <text class="cls-18" transform="translate(962 571.9)"><tspan x="0" y="0">B区 塔楼</tspan></text>
      <text class="cls-18" transform="translate(777.2 692)"><tspan x="0" y="0">B区 拱廊</tspan></text>
      <text class="cls-18" transform="translate(667.6 773.4)"><tspan x="0" y="0">B区 长椅</tspan></text>
      <text class="cls-18" transform="translate(256.4 266.5)"><tspan x="0" y="0">A区 门</tspan></text>
      <text class="cls-18" transform="translate(341.5 339.9)"><tspan x="0" y="0">A区 绳索</tspan></text>
      <text class="cls-18" transform="translate(313.8 559.5)"><tspan x="0" y="0">A区 小道</tspan></text>
      <text class="cls-18" transform="translate(466 582.2)"><tspan x="0" y="0">守方 重生点</tspan></text>
      <text class="cls-18" transform="translate(630 601)"><tspan x="0" y="0">B区 小道</tspan></text>
      <text class="cls-18" transform="translate(723 481.9)"><tspan x="0" y="0">B区 发电机</tspan></text>
      <text class="cls-18" transform="translate(637.6 434.3)"><tspan x="0" y="0">B区 餐厅</tspan></text>
      <path id="B" class="cls-17" d="M1004.7,461.1v-18.2c-.1-1.3.8-2.4,2-2.5h8.2c4.3,0,7.1,2.3,7.1,5.8s-1.8,4.7-4.3,5h0c3.1.2,5.5,2.7,5.5,5.7s-3.1,6.6-8.1,6.6h-7.8c-1.3.1-2.4-.8-2.4-2-.1,0-.1-.2-.1-.3ZM1013,450c2.6,0,4.1-1.1,4.1-3.1s-1.3-3-3.5-3h-4v6h3.4ZM1013.7,460.1c2.8,0,4.3-1.1,4.3-3.4s-1.6-3.3-4.4-3.3h-4v6.7h4.1Z"/>
      <path id="A" class="cls-17" d="M84.8,510.6c-1.3,0-2-.7-2.5-2.2l-1.3-3.6h-8.4l-1.3,3.6c-.5,1.5-1.1,2.2-2.5,2.2-1.3.1-2.4-.9-2.4-2.2h0c0-.7.1-1.1.3-1.7l6.4-17.3c.6-2,2.7-3.2,4.8-2.6,1.3.3,2.2,1.4,2.6,2.6l6.4,17.3c.2.5.3,1,.3,1.6,0,1.3-1,2.3-2.3,2.3h-.2ZM80,500.9l-3.1-9.6h-.1l-3.1,9.6h6.3Z"/>
    </g>
    <g id="Barrier">
      <line class="cls-6" x1="710.4" y1="140.3" x2="710.4" y2="95.6"/>
      <line class="cls-6" x1="409" y1="84.2" x2="409" y2="5.7"/>
      <line class="cls-6" x1="405.5" y1="895.3" x2="405.5" y2="975.2"/>
      <line class="cls-6" x1="666.2" y1="888.5" x2="750.6" y2="972.9"/>
      <line class="cls-5" x1="934" y1="630.1" x2="934" y2="665.3"/>
      <line class="cls-5" x1="852" y1="543.2" x2="806.5" y2="543.2"/>
      <line class="cls-5" x1="971.6" y1="351.5" x2="918" y2="351.5"/>
      <line class="cls-5" x1="410.6" y1="352.7" x2="410.6" y2="316.8"/>
      <line class="cls-5" x1="317" y1="457.3" x2="317" y2="395.9"/>
      <line class="cls-5" x1="215.8" y1="663.7" x2="153.5" y2="663.7"/>
      <line class="cls-5" x1="97.2" y1="284.4" x2="171.8" y2="284.4"/>
    </g>
  </g>
</svg>