<?xml version="1.0" encoding="UTF-8"?>
<svg id="_图层_1" data-name="图层 1" xmlns="http://www.w3.org/2000/svg" version="1.1" viewBox="0 0 1100 1000">
  <defs>
    <style>
      .cls-1 {
        fill: #32343b;
      }

      .cls-1, .cls-2, .cls-3, .cls-4, .cls-5 {
        stroke-width: 0px;
      }

      .cls-2 {
        fill: #575548;
      }

      .cls-3 {
        fill: #646568;
      }

      .cls-6 {
        stroke: #814194;
      }

      .cls-6, .cls-7 {
        fill: none;
        opacity: .8;
        stroke-miterlimit: 10;
        stroke-width: 10px;
      }

      .cls-7 {
        stroke: #6bc3c0;
      }

      .cls-4 {
        fill: #afabae;
      }

      .cls-5, .cls-8 {
        fill: #fff;
      }

      .cls-8 {
        font-family: SimHei, SimHei;
        font-size: 16px;
        isolation: isolate;
      }
    </style>
  </defs>
  <g id="_防守-霓虹町" data-name="防守-霓虹町">
    <g id="Body">
      <path class="cls-1" d="M24.3,608.7v134.5h-4.5v37h65v40.4h104.3v16.8h6.7v10.1h-48.2v61.7h214.1v-61.7h145.7v-.2h19.1v151.6h87.4v-216.4h152.5v59.4h146.9v-52.7h-7.8v-58.3h104.3v66.1h70.6v-245.5h-37v-188.3h-79.6v35.9h-63.9v-17.9h28v-224.2h-93v-29.1h-157v9h-20.2v-15.7h4.5V8h-25.8v-3.5h-6.7l-16.8,2.2h-20.2l-28-5.6h-47.1v132.3h-190.6v85.2H112.8v118.8h-52.7v61.7h34.8v142.4h69.5v-37h28v118.8h-81.8l-69.5-49.3h-21.3v34.8h4.5ZM264.2,511.2h70.5v47.1l-13.3,25.8v34.8h17.9v7.2l-29.1,55.4h-11.2v18.2h-4.5l-13.5-27v-85.1h-52.7v-35.9h35.9v-40.4h0ZM318.8,811.7h-27.7v59.4h-9v-23.5h-58.3v-10.1h7.8v-36l12.3-14.5h7.7v-48.2h43.7v-12.3h3.4v63.9h113.3v21.3h-93.4ZM555.7,726.5v59.3l-20.2,23.5v2.2h-96.4v-94.2h-40.4v-62.8h80.7v-63.9h19.1v32.5h97.4v-28l-22.3-21.5v-13.2h-4.5v-4.5h53.8v-26.9h10.1v35.9h61.7v-35.9h17.9v130h-59.4v80.9h-39.2v-13.6h-58.3ZM847.1,789.1v17.9h-35.9v-67.2h-125.6v-58.4h62.8v-53.8h75.1v103.1h50.4v58.3h-26.9ZM905.4,654.6v-41.5h86.3v41.5h-86.3ZM865.1,399h-5.6v80.7h132.3v71.7h-102l-24.7-24.7h-80.7v40.4h-4.5v-114.3h-28l-39.2,40.4h-89.7v-58.3h22.4v-89.7h9v34.8h91.9v-16.8h2.2v16.8h53.8v-70.6h0v-22.4h17.9v94.2h44.8v17.9ZM332.6,274.6h78.4v-95.3h106.5v25.8h22.4v-30.3h224.2v52.7h56.1v28h-71.7v53.8h-34.8v-37h-59.4v37h-9v-26.9h-106.5v62.8h-95.3v-53.8h-228.7v53.8h-34.8v7.8h-5.6v-25.8h17.9v-52.7h140.2ZM164.3,452.8h-7.8v-53.8h17.9v-25.8h5.6v7.8h70.6v-52.7h165.9v68.4h26.9v-15.7h95.3v54.9h-4.5v107.6h10.1v12.3h2.1v4.5h-108.6v62.8h-61.9v-4.5h32.8v-152.5l-26.9-28h-71.7v35.9h-46v-57.2h-53.8l-35.8,35.9h-10.3ZM187.8,730.8v61.7h-77.4v-61.7h77.4Z"/>
    </g>
    <g id="Bombsite">
      <polygon class="cls-2" points="839.2 640.1 839.2 654.1 839.2 670.9 839.2 731.2 935.6 731.2 972.6 731.2 990.6 731.2 990.6 707.4 972.6 707.4 972.6 654.1 905.3 654.1 905.3 640.1 839.2 640.1"/>
      <polygon class="cls-2" points="19.7 609.2 24 609.2 24 622.5 24 627 24 706.3 24 731.2 24 742.9 19.6 742.9 19.6 780.4 83.6 780.4 83.6 781.4 110.9 781.4 110.9 780.4 110.9 775.4 110.9 747.1 110.9 742.9 110.9 731.2 140.8 731.2 140.8 622.5 117.7 622.5 111 622.5 42.8 574 19.7 574 19.7 609.2"/>
      <rect class="cls-1" x="71.7" y="659.8" width="15.9" height="33.7"/>
      <rect class="cls-1" x="111.2" y="713.6" width="17.9" height="17.9"/>
      <rect class="cls-1" x="838.6" y="677.6" width="17" height="15.8"/>
      <rect class="cls-1" x="937.3" y="654.1" width="17" height="17.9"/>
    </g>
    <g id="Lines">
      <path class="cls-4" d="M381.9,716.3v-15.7h15.7v15.7h-15.7M380.8,717.4h17.9v-17.9h-17.9v17.9Z"/>
      <path class="cls-4" d="M383,699.6v-9h14.6v9h-14.6M381.9,700.7h16.8v-11.2h-16.8v11.2Z"/>
      <path class="cls-4" d="M386.4,559.4v-15.7h22.4v15.7h-22.4M385.3,560.5h24.7v-17.9h-24.7v17.9Z"/>
      <path class="cls-4" d="M399.8,568.4v-6.8h9v6.7h-9M398.7,569.4h11.2v-9h-11.2v9Z"/>
      <path class="cls-4" d="M247.3,667v-15.7h16.8v15.7h-16.8M246.1,668.2h19.1v-17.9h-19.1v17.9Z"/>
      <path class="cls-4" d="M111.6,730.9v-16.8h16.8v16.8h-16.8M110.5,732.1h19.1v-19.1h-19.1v19.1Z"/>
      <path class="cls-4" d="M72.4,692.8v-32.5h14.6v32.5h-14.6M71.2,693.9h16.8v-34.8h-16.8v34.8Z"/>
      <path class="cls-4" d="M247.3,551.5v-34.6h16.8v34.6h-16.8M246.1,552.6h19.1v-36.9h-19.1v36.9Z"/>
      <path class="cls-4" d="M112.7,336.3v-26.9h15.7v26.9h-15.7M111.6,337.4h17.9v-29.1h-17.9v29.1Z"/>
      <path class="cls-4" d="M112.7,336.3v-16.8h15.7v16.8h-15.7M111.6,337.4h17.9v-19.1h-17.9v19.1Z"/>
      <path class="cls-4" d="M112.7,289.2v-39.2h7.8v39.2h-7.8M111.6,290.4h10.1v-41.5h-10.1v41.5Z"/>
      <path class="cls-4" d="M112.7,228.7v-9h15.7v9h-15.7M111.6,229.8h17.9v-11.2h-17.9v11.2Z"/>
      <path class="cls-4" d="M355,274.7v-17.9h33.6v17.9h-33.6M353.9,275.8h35.9v-20.2h-35.9v20.2Z"/>
      <path class="cls-4" d="M371.8,274.7v-17.9h16.8v17.9h-16.8M370.7,275.8h19.1v-20.2h-19.1v20.2Z"/>
      <path class="cls-4" d="M820.1,245.5v-16.8h17.9v16.8h-17.9M819,246.6h20.2v-19.1h-20.2v19.1Z"/>
      <path class="cls-4" d="M835.9,172.6v-15.7h22.4v15.7h-22.4M834.8,173.8h24.7v-17.9h-24.7v17.9Z"/>
      <path class="cls-4" d="M895.3,174.8v-2.1h-1c0-.1-34.9-3.7-34.9-3.7v-12.1h68.4v17.9h-32.5M894.2,175.9h34.8v-20.2h-70.6v14.3l35.9,3.7v2.1h0Z"/>
      <path class="cls-4" d="M900.8,381.2v-62.8h27v62.8h-27M899.7,382.3h29.3v-65h-29.3v65Z"/>
      <path class="cls-4" d="M893.1,327.4v-9h5.6v9h-5.6M892,328.5h7.8v-11.2h-7.8v11.2Z"/>
      <path class="cls-4" d="M439,588.6v-6.8h9v6.8h-9M437.8,589.7h11.2v-9.1h-11.2v9.1Z"/>
      <path class="cls-4" d="M439,579.6v-17.9h10.1v17.9h-10.1M437.8,580.7h12.3v-20.2h-12.3v20.2Z"/>
      <path class="cls-4" d="M535.4,492.2v-15.7h16.8v15.7h-16.8M534.2,493.3h19.1v-17.9h-19.1v17.9Z"/>
      <path class="cls-4" d="M538.7,396.9v-14.6h33.6v14.6h-33.6M537.6,398h35.9v-16.8h-35.9v16.8Z"/>
      <path class="cls-4" d="M628.4,299.7v-17.2h15.8v17.3h-15.8M627.3,300.8h18v-19.4h-18.2v19.4h.1Z"/>
      <path class="cls-4" d="M623.5,288.8c-1.5,0-2.6-1.1-2.6-2.6s1.1-2.6,2.6-2.6,2.6,1.1,2.6,2.6h0c.1,1.5-1.1,2.6-2.6,2.6M623.5,289.9c2,0,3.7-1.7,3.7-3.7s-1.7-3.7-3.7-3.7-3.7,1.7-3.7,3.7h0c0,2,1.7,3.7,3.7,3.7Z"/>
      <path class="cls-4" d="M655.3,380v-15.7h15.7v15.7h-15.7M654.2,381.2h17.9v-17.9h-17.9v17.9Z"/>
      <path class="cls-4" d="M793.3,380v-91.9h9v91.9h-9M792.2,381.2h11.2v-94.2h-11.2v94.2Z"/>
      <path class="cls-4" d="M909.9,479.8v-17.9h16.8v17.9h-16.8M908.8,480.9h19.1v-20.2h-19.1v20.2Z"/>
      <path class="cls-4" d="M903.4,478.6c-2.4,0-4.3-1.9-4.3-4.3s1.9-4.3,4.3-4.3,4.3,1.9,4.3,4.3h0c0,2.4-1.9,4.3-4.3,4.3M903.4,479.7c3,0,5.4-2.4,5.4-5.4s-2.4-5.4-5.4-5.4-5.4,2.4-5.4,5.4h0c0,2.9,2.4,5.4,5.4,5.4h0Z"/>
      <path class="cls-4" d="M1001.8,366.6v-3.4h23.5v3.4h-23.5M1000.7,367.7h25.8v-5.6h-25.8v5.6Z"/>
      <path class="cls-4" d="M1026.4,380v-16.8h16.8v16.8h-16.8M1025.3,381.2h19.1v-19.1h-19.1v19.1Z"/>
      <path class="cls-4" d="M1040.5,385.4c-.9,0-1.6-.7-1.6-1.6s.7-1.6,1.6-1.6,1.6.7,1.6,1.6h0c0,.9-.7,1.6-1.6,1.6M1040.5,386.5c1.5,0,2.7-1.2,2.7-2.7s-1.2-2.7-2.7-2.7-2.7,1.2-2.7,2.7h0c0,1.5,1.2,2.7,2.7,2.7h0Z"/>
      <path class="cls-4" d="M1027.6,496.6v-16.8h15.7v16.8h-15.7M1026.5,497.8h17.9v-19.1h-17.9v19.1Z"/>
      <path class="cls-4" d="M1044.5,568.4v-16.8h16.7v16.8h-16.7M1043.2,569.5h19.1v-19.1h-18.9v19.1h-.1Z"/>
      <path class="cls-4" d="M1062.4,591.9v-40.4h17.9v40.4h-17.9M1061.3,593h20.2v-42.6h-20.2v42.6Z"/>
      <path class="cls-4" d="M1062.4,591.9v-22.4h17.9v22.4h-17.9M1061.3,593h20.2v-24.7h-20.2v24.7Z"/>
      <path class="cls-4" d="M1035.5,686.1v-17.9h44.8v17.9h-44.8M1034.4,687.2h47.1v-20.2h-47.1v20.2Z"/>
      <path class="cls-4" d="M1009.7,797.1v-15.7h16.8v15.7h-16.8M1008.6,798.2h19.1v-17.9h-19.1v17.9Z"/>
      <path class="cls-4" d="M1009.7,780.3v-9h9v9h-9M1008.6,781.4h11.2v-11.2h-11.2v11.2Z"/>
      <path class="cls-4" d="M937.9,671.5v-16.8h15.7v16.8h-15.7M936.8,672.6h17.9v-19.1h-17.9v19.1Z"/>
      <path class="cls-4" d="M906.6,613.2v-16.8h16.7v16.8h-16.7M905.4,614.3h18.9v-19.1h-18.9v19.1Z"/>
      <path class="cls-4" d="M839.2,692.8v-14.6h15.7v14.6h-15.7M838.1,693.9h17.9v-16.8h-17.9v16.8Z"/>
      <path class="cls-4" d="M794.5,756.7v-15.7h15.7v15.7h-15.7M793.3,757.8h17.9v-17.9h-17.9v17.9Z"/>
      <path class="cls-4" d="M712.5,578.5v-16.8h16.8v16.8h-16.8M711.4,579.6h19.1v-19.1h-19.1v19.1Z"/>
      <polygon class="cls-4" points="264.2 651.3 264.2 739.6 265.3 739.6 265.3 651.3 281.7 651.3 281.7 650.2 265.3 650.2 264.2 650.2 262.6 650.2 262.6 651.3 264.2 651.3"/>
      <rect class="cls-4" x="309.7" y="473.1" width="26.2" height="1.1"/>
      <rect class="cls-4" x="436.8" y="623" width="1.1" height="32.3"/>
      <rect class="cls-4" x="479.4" y="560.2" width="1.1" height="30.9"/>
      <polygon class="cls-4" points="571.4 435 534.2 435 534.2 436.1 571.4 436.1 571.4 493.3 572.5 493.3 572.5 435 571.4 435"/>
      <rect class="cls-4" x="213.7" y="344.2" width="1.1" height="37.8"/>
      <polygon class="cls-4" points="823.6 595.3 821.2 595.3 820.8 595.3 820.2 595.3 820.2 608.7 784.2 608.7 784.2 565.9 783.1 565.9 783.1 608.7 783.1 609.3 783.1 609.9 821.2 609.9 821.2 609.3 821.2 608.7 821.2 596.4 838.1 596.4 838.1 731.8 839.2 731.8 839.2 596.4 839.2 595.3 838.1 595.3 824.7 595.3 824.7 551.6 890.4 551.6 890.4 550.4 824.7 550.4 824.3 550.4 823.6 550.4 823.6 595.3"/>
      <path class="cls-4" d="M538.7,435v-7.8h7.8v7.8h-7.8M537.6,436.1h10.1v-10.1h-10.1v10.1Z"/>
      <rect class="cls-4" x="110.6" y="399.1" width="1.1" height="143"/>
    </g>
    <g id="Outlines">
      <path class="cls-3" d="M526.4,998.9v-151.6h-19.1v.2h-145.7v61.7h-214.1v-61.7h48.2v-10.1h-6.7v-16.8h-104.3v-40.4H19.7v-37h4.5v-134.5h-4.5v-34.8h21.3l69.5,49.3h81.8v-118.8h-28v37h-69.5v-142.4h-34.8v-61.7h52.7v-118.8h214.1v-85.2h190.6V1.1h47.1l28,5.6h20.2l16.8-2.2h6.7v3.4h25.8v113.1h-4.5v15.7h20.2v-9h157v29.1h93v224.2h-28v17.9h63.9v-35.9h79.7v188.3h37v245.5h-70.6v-66.1h-104.3v58.3h7.8v52.7h-146.9v-59.4h-152.5v216.5h-87.6M412.2,790.4h-113.2v-63.9h-3.4v12.3h-43.7v48.2h-7.7l-12.3,14.5v36h-7.8v10.1h58.3v23.5h9v-59.4h121v-21.3M614,726.5v13.6h39.2v-80.8h59.4v-130h-17.9v35.9h-61.7v-35.9h-10.1v26.9h-53.8v4.5h4.5v13.2l22.3,21.5v28h-97.4v-32.5h-19.1v63.9h-80.7v62.8h40.4v94.2h96.4v-2.2l20.2-23.5v-59.4h58.3M874,730.9h-50.4v-103.1h-75.1v53.8h-62.8v58.4h125.6v67.2h35.9v-17.9h26.9v-58.3M187.9,730.9h-77.4v61.7h77.4v-61.7M339.3,618.8h-17.9v-34.8l13.3-25.8v-47.1h-70.6v40.4h-35.9v35.9h52.7v85.1l13.6,27h4.5v-18.2h11.2l29.1-55.4v-7.2M991.8,613.2h-86.3v41.5h86.3v-41.5M546.7,556.1h-2.1v-12.3h-10.1v-107.6h4.5v-54.9h-95.3v15.7h-26.9v-68.4h-165.9v52.7h-70.6v-7.8h-5.6v25.8h-17.9v53.8h18l35.9-35.9h53.8v57.2h46v-35.9h71.7l26.9,28v152.5h-32.7v4.5h61.7v-62.8h108.6v-4.5M865,526.9l24.7,24.7h102v-71.7h-132.3v-80.7h5.6v-17.9h-44.8v-94.2h-17.9v22.4h0v70.6h-53.8v-16.8h-2.2v16.8h-91.9v-34.8h-9v89.7h-22.4v58.3h89.7l39.2-40.4h28v114.3h4.5v-40.4h80.7M443.4,291.5v53.8h95.3v-62.8h106.5v26.9h9v-37h59.4v37h34.8v-53.8h71.7v-28h-56.1v-52.7h-224.2v30.3h-22.4v-25.8h-106.5v95.3h-218.6v52.6h-17.9v25.9h5.6v-7.8h34.8v-53.8h228.7M525.3,1000h89.8v-216.4h150.1v59.4h149.2v-55h-7.8v-55.9h101.9v66.1h73v-247.9h-37v-188.3h-82v35.9h-61.7v-15.6h28v-226.6h-93v-29.1h-159.3v9h-17.7v-13.3h4.5V6.7h-25.8v-3.4h-8.1l-16.7,2.2h-20l-27.9-5.6h-48.5v132.2h-190.6v85.2H111.6v118.8h-52.7v64h34.8v142.4h71.9v-37h25.7v116.5h-80.3l-69.3-49.1-.3-.2h-22.8v37.1h4.5v132.2h-4.5v39.3h65v40.4h104.3v16.8h6.7v7.7h-48.1v64h216.4v-61.7h145.7v-.2h16.7v151.6h0ZM289.9,869.8h-6.6v-23.5h-58.3v-7.7h7.8v-36.8l11.8-13.7h8.4v-48.2h43.7v-12.3h1.1v63.9h113.2v18.9h-121.1v59.4h-.1ZM534.2,810.4h-94.1v-94.2h-40.4v-60.4h80.7v-63.9h16.7v32.5h99.8v-29.7l-.3-.3-22-21.2v-13.9h-4.5v-2.1h53.8v-26.9h7.7v35.9h64v-35.9h15.6v127.7h-59.4v80.8h-36.9v-13.6h-60.7v60.2l-20,23.2-.2.3v1.5h0ZM845.9,805.9h-33.5v-67.2h-125.6v-56.1h62.8v-53.8h72.8v103.1h50.4v55.9h-26.9v17.9h0ZM186.7,791.4h-75v-59.3h75v59.3h0ZM297.7,698.3h-2.6l-13-26.2v-85.9h-52.7v-33.5h35.9v-40.4h68.2v45.6l-13.2,25.6v.2c-.1,0-.1,36.2-.1,36.2h17.9v5.7l-28.7,54.5h-11.7v18.2h0ZM990.5,653.5h-84v-39.1h84v39.1h0ZM436.7,622.1h-59.5v-2.1h32.7v-154l-.3-.3-26.9-28-.3-.3h-73.4v35.9h-43.6v-57.2h-55.5l-.3.3-35.4,35.5h-16.4v-51.6h17.9v-25.8h3.4v7.8h73v-52.7h163.5v68.4h29.3v-15.7h92.9v52.6h-4.5v110h10.1v12.3h2.1v2.1h-108.6v62.8h0ZM783.1,566h-2.1v-114.3h-29.7l-.3.3-38.9,40h-88v-55.9h22.4v-89.7h6.6v34.8h150.3v-73h0v-20.1h15.6v94.2h44.8v15.6h-5.6v83.1h132.3v69.4h-100.3l-24.3-24.3-.3-.3h-82.4v40.4h0ZM178.9,351.9h-3.3v-23.5h17.9v-52.7h218.6v-95.3h104.1v25.8h24.8v-30.3h221.9v52.7h56.1v25.8h-71.7v53.8h-32.4v-37h-61.8v37h-6.6v-26.9h-108.9v62.8h-92.9v-53.8h-231.1v53.8h-34.8v7.8h0Z"/>
    </g>
    <g id="Callouts">
      <text class="cls-8" transform="translate(552.9 349.7)"><tspan x="0" y="0">中区 坡底</tspan></text>
      <text class="cls-8" transform="translate(539.5 508.7)"><tspan x="0" y="0">中区 坡顶</tspan></text>
      <text class="cls-8" transform="translate(467.2 580.3)"><tspan x="0" y="0">中区 通风口</tspan></text>
      <text class="cls-8" transform="translate(623.4 523.3)"><tspan x="0" y="0">中区 邮箱</tspan></text>
      <text class="cls-8" transform="translate(714.4 554.7)"><tspan x="0" y="0">B区 塔楼</tspan></text>
      <text class="cls-8" transform="translate(307.8 704.9)"><tspan x="0" y="0">A区 塔楼</tspan></text>
      <text class="cls-8" transform="translate(636.2 716.5)"><tspan x="0" y="0">B区 台阶</tspan></text>
      <text class="cls-8" transform="translate(833.8 831.9)"><tspan x="0" y="0">B区 小巷</tspan></text>
      <text class="cls-8" transform="translate(1010.5 759.8)"><tspan x="0" y="0">B区 后房</tspan></text>
      <text class="cls-8" transform="translate(794.1 666.2)"><tspan x="0" y="0">B区 高台</tspan></text>
      <text class="cls-8" transform="translate(242.8 671.8)"><tspan x="0" y="0">B区 高台</tspan></text>
      <text class="cls-8" transform="translate(100.4 812.8)"><tspan x="0" y="0">A区 后房</tspan></text>
      <text class="cls-8" transform="translate(208.5 889.3)"><tspan x="0" y="0">A区 屏幕</tspan></text>
      <text class="cls-8" transform="translate(523.8 910.8)"><tspan x="0" y="0">守方 重生点</tspan></text>
      <text class="cls-8" transform="translate(938.1 442)"><tspan x="0" y="0">B区 车库</tspan></text>
      <text class="cls-8" transform="translate(738.1 329.3)"><tspan x="0" y="0">B区 小道</tspan></text>
      <text class="cls-8" transform="translate(136.1 487.4)"><tspan x="0" y="0">A区 大道</tspan></text>
      <text class="cls-8" transform="translate(339 523.3)"><tspan x="0" y="0">A区 坡道</tspan></text>
      <text class="cls-8" transform="translate(844.6 274.8)"><tspan x="0" y="0">B区 大厅</tspan></text>
      <text class="cls-8" transform="translate(122.6 301.3)"><tspan x="0" y="0">A区 大厅</tspan></text>
      <text class="cls-8" transform="translate(538.3 89.2)"><tspan x="0" y="0">攻方 重生点</tspan></text>
      <text class="cls-8" transform="translate(302 314.5)"><tspan x="0" y="0">A区 下水道</tspan></text>
      <path id="B" class="cls-5" d="M893.1,707.5v-17.9c-.1-1.2.8-2.4,2-2.5h8.1c4.3,0,7,2.2,7,5.7s-1.8,4.6-4.3,4.9h0c3,.2,5.4,2.7,5.4,5.6s-3,6.6-8,6.6h-7.7c-1.2.1-2.4-.8-2.4-2-.1-.2-.1-.3-.1-.4ZM901.3,696.6c2.6,0,4-1.1,4-3s-1.2-2.9-3.5-2.9h-4v5.9h3.5ZM902,706.4c2.8,0,4.3-1.1,4.3-3.4s-1.6-3.3-4.4-3.3h-4v6.6h4.1Z"/>
      <path id="A" class="cls-5" d="M74.7,755.3c-1.2,0-2-.7-2.5-2.1l-1.2-3.6h-8.3l-1.2,3.6c-.4,1.5-1.1,2.1-2.5,2.1-1.2.1-2.4-.9-2.4-2.1h0c0-.7.1-1.1.3-1.7l6.3-17c.6-2,2.7-3.1,4.7-2.6,1.2.3,2.1,1.3,2.6,2.6l6.3,17c.2.4.3,1,.3,1.6,0,1.2-1,2.2-2.2,2.2h-.2ZM70,745.9l-2.9-9.4h-.1l-3,9.4h6.1Z"/>
    </g>
    <g id="Barrier">
      <line class="cls-7" x1="729.3" y1="305.9" x2="729.3" y2="384.6"/>
      <line class="cls-6" x1="410.9" y1="580.7" x2="321.4" y2="580.7"/>
      <line class="cls-7" x1="820.2" y1="345.3" x2="929" y2="345.3"/>
      <line class="cls-7" x1="457.2" y1="344.1" x2="457.2" y2="384.6"/>
      <line class="cls-7" x1="157.7" y1="404.7" x2="93.7" y2="404.7"/>
      <line class="cls-6" x1="229.4" y1="576.2" x2="192.3" y2="576.2"/>
      <line class="cls-6" x1="570.2" y1="557.2" x2="545.3" y2="557.2"/>
      <line class="cls-6" x1="701.5" y1="529" x2="701.5" y2="493.3"/>
      <line class="cls-6" x1="1044.3" y1="543.7" x2="990.5" y2="543.7"/>
    </g>
  </g>
</svg>