<?xml version="1.0" encoding="UTF-8"?>
<svg id="_图层_1" data-name="图层 1" xmlns="http://www.w3.org/2000/svg" version="1.1" viewBox="0 0 1100 1000">
  <defs>
    <style>
      .cls-1 {
        fill: #32343b;
      }

      .cls-1, .cls-2, .cls-3, .cls-4, .cls-5 {
        stroke-width: 0px;
      }

      .cls-2 {
        fill: #575548;
      }

      .cls-3 {
        fill: #646568;
      }

      .cls-6 {
        stroke: #afabae;
        stroke-width: 1.2px;
      }

      .cls-6, .cls-7, .cls-8 {
        fill: none;
        stroke-miterlimit: 10;
      }

      .cls-7 {
        stroke: #814194;
      }

      .cls-7, .cls-8 {
        opacity: .8;
        stroke-width: 10px;
      }

      .cls-8 {
        stroke: #6bc3c0;
      }

      .cls-4 {
        fill: #afabae;
      }

      .cls-5, .cls-9 {
        fill: #fff;
      }

      .cls-9 {
        font-family: SimHei, SimHei;
        font-size: 16px;
        isolation: isolate;
      }
    </style>
  </defs>
  <g id="_防守-莲华古城" data-name="防守-莲华古城">
    <g id="Body">
      <path class="cls-1" d="M16.8,872.3h251v114.3h250.7l33.3-11.1,17.2-32.1,14.6-54,11.1-16v-25.8h287.6v-95.9h165.9v-67.6h-23.4v-109.4h73.7v-141.3s-4.7-33.3-36.6-40.6h-128.1v35.6h-45.5v-127.8l-45.5-45.5v-35.5h45.5v-42l-220-104.5h-71.3V13.1h-168.4v142.6h-158.5v136.4h59v8.6H97v196.6h-41.8L1.1,551.4v320.8h15.7ZM65,713.8v17.2h-8.6v-56.5h72.5v56.5h-9.8v-17.2h-54.1ZM169.5,754.4v-93.4h27v24.6h28.3v4.9h-28.3v43h9.8v71.3h138.9v18.4h-148.7v-68.8h-27ZM189.2,367.2h24.6v24.6h-24.6v-24.6ZM452.2,594.6v-61.5h18.4v105.7h27v8.6h-116.8v115.5h-120.4v-28.3l8.6-11.1v-18.4s-22-16,4.9-39.3v-88.5h73.7v17.2h104.5ZM647.2,770.3h-113.9v104.5h-65.1v-163.5h-18.4v-18.4h27v18.4h66.4v-63.9h-18.4v-27h27v67.6h109.4v82.3h-13.9ZM836.9,684.3v86h-135.2v-68.8h98.3v-113.1h98.3v77.4h86v18.4h-147.5ZM962.2,583.5h17.2v36.9h-17.2v-36.9ZM1024.8,519.6v-22.1h28.3v22.1h-28.3ZM933.8,519.6v18.4h-115.5v-18.4h-71.3v109.4h-104.5v27h-35.6v-35.6h72.5v-119.2h-36.9v-35.6h95.9v-18.4h40.6v36.9h0v27h92.2l17.2-17.2v-9.8h45.5v35.6h0ZM642.7,138.6v99.6h127.8v18.4h-13.5v136.4h-203.9v-41.8h72.4v-100.8h0v-12.3h-66.4v-8.6h38.1v-90.9h45.5ZM586,313.1v-4.9h4.9v4.9h-4.9ZM590.9,276.3h-4.9v-4.9h4.9v4.9ZM442.1,209.9h55.6v260.6h63.9v-28.1h35.6v59h-249.5v55.3h-9.8v-90.9h-86v-11.1h27v-26.1l13.5-14.4,17.2-25.9,8.4-3.8,1.5-10.6,9.8-9,36.9-11.1v-61.5l4.9-6.1h6.1v-6.1l11.1-4.9v-65.1h53.8ZM67.6,594.6h83.3v-22.1h-12.3c-2.8-1.6-4.9-5.2-4.9-9.2s2-7.5,4.9-9.2h12.3v-56.5h0v-13.5h9.8v70.1h38.1v55.3H46.5v-14.7h21.1ZM34.4,804.7h99.4v18.4H28.1v-18.4h6.3Z"/>
    </g>
    <g id="Bombsite">
      <polygon class="cls-2" points="551.6 583.9 551.6 656 607.2 656 607.2 621.6 642.7 621.6 642.7 560.2 607.2 560.2 604.7 560.2 571.9 560.2 551 560.2 478.5 560.2 478.5 583.9 551.6 583.9"/>
      <rect class="cls-1" x="550.4" y="614.2" width="12.3" height="25.8"/>
      <rect class="cls-1" x="28" y="786.4" width="18.6" height="19.5"/>
      <path class="cls-2" d="M128.3,804.7h5.4l35.6-50.4v-93.4H1v143.8h127.3ZM128.9,674.5v56.5h-9.8v-17.2h-54.1v17.2h-8.6v-56.5h72.5Z"/>
      <rect class="cls-1" x="83.5" y="656.2" width="18.4" height="19.7"/>
      <rect class="cls-1" x="28.5" y="786.9" width="17.8" height="18.8"/>
      <rect class="cls-2" x="979.3" y="498.3" width="45.6" height="122"/>
      <rect class="cls-2" x="962.7" y="498.3" width="18.7" height="85.8"/>
      <rect class="cls-2" x="1016.2" y="519.6" width="83.3" height="56.4"/>
    </g>
    <g id="Lines">
      <path class="cls-4" d="M258,593.3v-14.7h15.9v14.7h-15.9M256.7,594.6h18.3v-17.2h-18.3v17.2h0Z"/>
      <path class="cls-4" d="M84.7,674.6v-17.2h16v17.2h-16M83.5,675.8h18.4v-19.7h-18.4v19.7h0Z"/>
      <path class="cls-4" d="M29.4,804.9v-17.2h16.1v17.2h-16.1M28.1,806.1h18.6v-19.7h-18.6v19.7h0Z"/>
      <path class="cls-4" d="M197.8,839.2v-16h16v16h-16M196.5,840.4h18.4v-18.4h-18.4v18.4h0Z"/>
      <path class="cls-4" d="M267.8,986.6v-45.4h19.7v45.4h-19.7M266.6,987.9h22.1v-47.8h-22.1v47.8h0Z"/>
      <path class="cls-4" d="M267.8,957.1v-15.9h19.7v15.9h-19.7M266.6,958.4h22.1v-18.3h-22.1v18.3h0Z"/>
      <path class="cls-4" d="M551.7,638.8v-23.4h9.8v23.4h-9.8M550.5,640.1h12.3v-25.8h-12.3v25.8h0Z"/>
      <path class="cls-4" d="M643.9,620.5v-17.2h35.6v17.2h-35.6M642.7,621.7h38.1v-19.7h-38.1v19.7h0Z"/>
      <path class="cls-4" d="M672.2,601.9v-7.4h7.4v7.4h-7.4M670.9,603.2h9.8v-9.8h-9.8v9.8h0Z"/>
      <path class="cls-4" d="M470.5,583.5v-30.7h7.4v30.7h-7.4M469.3,584.7h9.8v-33.2h-9.8v33.2h0Z"/>
      <path class="cls-4" d="M626.7,409v-16h14.7v16h-14.7M625.5,410.2h17.2v-18.4h-17.2v18.4h0Z"/>
      <path class="cls-4" d="M497.5,236.9v-25.8h17.2v25.8h-17.2M496.3,238.2h19.7v-28.3h-19.7v28.3h0Z"/>
      <path class="cls-4" d="M770.4,254.1v-14.7h17.2v14.7h-17.2M769.1,255.4h19.7v-17.2h-19.7v17.2h0Z"/>
      <path class="cls-4" d="M675.9,173v-34.4h16v34.4h-16M674.6,174.2h18.4v-36.9h-18.4v36.9h0Z"/>
      <path class="cls-4" d="M685.7,191.4v-16h6.1v16h-6.1M684.5,192.7h8.6v-18.4h-8.6v18.4h0Z"/>
      <path class="cls-4" d="M779,464.3v-16h17.2v16h-17.2M777.7,465.5h19.7v-18.4h-19.7v18.4h0Z"/>
      <path class="cls-4" d="M1036,497.5v-35.6h16v35.6h-16M1034.7,498.7h18.4v-38.1h-18.4v38.1h0Z"/>
      <path class="cls-4" d="M898.3,665.9v-17.2h16v17.2h-16M897.1,667.1h18.4v-19.7h-18.4v19.7h0Z"/>
      <path class="cls-4" d="M819.7,787.5v-17.2h16v17.2h-16M818.4,788.8h18.4v-19.7h-18.4v19.7h0Z"/>
      <rect class="cls-4" x="892" y="733.5" width="156.8" height="1.2"/>
      <polygon class="cls-4" points="962.2 498.7 962.2 583.8 963.5 583.8 963.5 498.7 1025 498.7 1025 497.5 963.5 497.5 962.2 497.5 962.2 497.5 962.2 498.7"/>
      <polygon class="cls-6" points="809.2 311.9 780.3 324.3 771.7 359.3 785.2 385.6 826.9 395.5 849.2 388.1 871.3 365 855.3 328 809.2 311.9"/>
      <rect class="cls-4" x="691.8" y="191" width="1.2" height="48.1"/>
      <polyline class="cls-6" points="311.4 986.6 311.4 969.7 287.8 950.9"/>
      <rect class="cls-4" x="65" y="822.2" width="1.2" height="50.9"/>
      <polygon class="cls-4" points="550.5 584.7 550.5 614.7 551.7 614.7 551.7 584.7 551.7 583.5 550.5 583.5 478.2 583.5 478.2 584.7 550.5 584.7"/>
      <path class="cls-6" d="M549.9,584.1h1.2v30.6h10.9c16.5-8.7,28.5-26.3,28.5-46.2,0-28.6-23.4-51.9-52.2-51.9s-52.2,23.2-52.2,51.9.7,10.9,2.2,15.6h61.6Z"/>
      <polyline class="cls-6" points="281.9 426.3 268.4 384.9 268.4 373.3 280.8 364.1 287.5 364.1 294.2 370.3 294.2 373.3"/>
      <line class="cls-6" x1="268.4" y1="379" x2="329.8" y2="365.2"/>
      <polyline class="cls-6" points="189.2 367.8 125.7 367.8 124.6 391.2 168.7 391.2 177.5 393.6 186.1 393.6 190 390.3"/>
      <path class="cls-4" d="M253.1,482.7v-17.2h24.6v17.2h-24.6M251.8,484h27v-19.7h-27v19.7h0Z"/>
      <line class="cls-6" x1="133.1" y1="805.7" x2="170.3" y2="753.2"/>
      <path class="cls-4" d="M933.8,409v-16h17.2v16h-17.2M932.6,410.2h19.7v-18.4h-19.7v18.4h0Z"/>
      <path class="cls-4" d="M952.4,400.4v-7.4h8.6v7.4h-8.6M951.2,401.6h11.1v-9.8h-11.1v9.8h0Z"/>
      <path class="cls-4" d="M915.5,665.9v-8.6h8.6v8.6h-8.6M914.3,667.1h11.1v-11.1h-11.1v11.1h0Z"/>
      <rect class="cls-4" x="269" y="465.2" width="1.2" height="18.3"/>
    </g>
    <g id="Outlines">
      <path class="cls-3" d="M267.8,986.6v-114.3H1.1v-320.8l54.1-54.1h41.8v-196.6h232.3v-8.6h-59v-136.4h158.5V13.2h168.4v60.2h71.3l220,104.5v42h-45.5v35.5l45.5,45.5v127.8h45.5v-35.6h128.1c32,7.3,36.6,40.6,36.6,40.6v141.3h-73.7v109.4h23.4v67.6h-165.9v95.9h-287.6v25.8l-11.1,16-14.6,54-17.2,32.1-33.3,11.1h-250.7M661.1,688h-109.4v-67.6h-27v27h18.4v63.9h-66.4v-18.4h-27v18.4h18.4v163.5h65.1v-104.5h127.8v-82.3M133.8,804.7H28.1v18.4h105.7v-18.4M345.2,804.7h-138.9v-71.3h-9.8v-43h28.3v-4.9h-28.3v-24.6h-27v93.4h27v68.8h148.7v-18.4M984.3,665.9h-86v-77.4h-98.3v113.1h-98.3v68.8h135.2v-86h147.5v-18.4M497.6,638.8h-27v-105.7h-18.4v61.5h-104.5v-17.2h-73.7v88.5c-27,23.4-4.9,39.3-4.9,39.3v18.4l-8.6,11.1v28.3h120.4v-115.5h116.8v-8.6M119.1,713.8v17.2h9.8v-56.5H56.4v56.5h8.6v-17.2h54.1M818.4,519.6v18.4h115.5v-54.1h-45.5v9.8l-17.2,17.2h-92.2v-27h0v-36.9h-40.6v18.4h-95.9v35.6h36.9v119.2h-72.5v35.6h35.6v-27h104.5v-109.4h71.3M979.4,583.5h-17.2v36.9h17.2v-36.9M199,554h-38.1v-70.1h-9.8v13.5h0v56.5h-12.3c-2.8,1.6-4.9,5.2-4.9,9.2s2,7.5,4.9,9.2h12.3v22.1H46.6v14.7h152.4v-55.3M480.9,501.2h116.3v-59h-35.6v28.1h-63.9V209.8h-109.4v65.1l-11.1,4.9v6.1h-6.1l-4.9,6.1v61.5l-36.9,11.1-9.8,9-1.5,10.6-8.4,3.8-17.2,25.9-13.5,14.4v26.1h-27v11.1h86v90.9h9.8v-55.3h133.2M1053.2,497.5h-28.3v22.1h28.3v-22.1M770.5,238.2h-127.8v-99.6h-45.5v90.9h-38.1v8.6h66.4v12.3h0v100.8h-72.4v41.8h203.9v-136.4h13.5v-18.4M213.7,367.2h-24.6v24.6h24.6v-24.6M591.1,308.2h-4.9v4.9h4.9v-4.9M591.1,271.3h-4.9v4.9h4.9v-4.9M266.6,988h252.3l33.3-11.1h.5c0-.1.2-.6.2-.6l17.2-32.1h.1v-.2l14.6-53.7,10.9-15.9.2-.4v-24.9h287.6v-95.9h165.9v-70.2h-23.4v-106.8h73.7v-142.8c-.1-.4-1.2-8.7-6.5-17.9-4.8-8.6-14.1-19.8-31.1-23.6h-129.5v35.6h-42.9v-127.1l-.4-.4-45.1-45.1v-33.7h45.5v-44.1l-.7-.4-220-104.5h-.2c0-.1-70.3-.1-70.3-.1V12h-171v142.6h-158.5v139h59v6H95.9v196.6h-41.1l-.4.4L.4,550.7,0,551.1v322.6h266.7v114.3h-.1ZM531.9,873.6h-62.6v-163.5h-18.4v-15.9h24.5v18.4h68.9v-66.5h-18.4v-24.5h24.5v67.6h109.4v79.8h-127.8v104.5h0ZM132.5,821.9H29.4v-15.9h103.1v15.9h0ZM343.9,821.9h-146.1v-68.8h-27v-90.8h24.5v24.6h28.3v2.3h-28.3v45.6h9.8v71.3h138.9v15.9h0ZM835.5,769.1h-132.6v-66.2h98.3v-113.1h95.7v77.4h86v15.9h-147.5v86h0ZM379.5,761.7h-117.9v-26.5l8.4-10.7.2-.4v-19.5l-.5-.4c-.1,0-7.6-5.7-8-14.6-.2-7.4,4.1-15,12.9-22.7l.5-.4v-87.8h71.2v17.2h107.1v-61.5h15.9v105.7h27v6h-116.8v115.5h0ZM63.7,729.8h-6v-54h69.9v54h-7.3v-17.2h-56.7v17.2h0ZM641.3,654.8h-33.1v-33.1h72.5v-121.8h-36.9v-33.1h95.9v-18.4h38v36.9h0v27h94l.4-.4,17.2-17.2.4-.4v-9.1h42.9v51.5h-112.9v-18.4h-73.9v109.4h-104.5v27h0ZM978.1,619.2h-14.6v-34.3h14.6v34.3h0ZM197.6,608.1H47.8v-12.2h104.3v-24.7h-13c-2.5-1.5-3.9-4.7-3.9-8s1.6-6.4,3.9-8h13.2v-70.1h7.3v70.1h38.1v52.8h0ZM346.3,555.2h-7.3v-90.9h-86v-8.5h27v-26.8l13.2-14h.1v-.2l17-25.7,8.1-3.7.6-.2v-.7c.1,0,1.5-10.1,1.5-10.1l9.2-8.5,36.6-10.9,1-.2v-61.9l4.3-5.3h6.8v-6.5l10.3-4.7.7-.4v-64.6h106.8v260.6h66.5v-28.1h33.1v56.4h-249.4v55.2h-.1ZM1051.8,518.4h-25.7v-19.5h25.7v19.5h0ZM755.6,391.8h-201.3v-39.2h72.4v-103.4h0v-12.3h-66.4v-6h38.1v-90.9h42.9v99.6h127.8v15.9h-13.5v136.4h0ZM212.5,390.6h-22v-22h22v22h0ZM589.7,311.9h-2.3v-2.3h2.3v2.3h0ZM589.7,275h-2.3v-2.3h2.3v2.3h0Z"/>
    </g>
    <g id="Callouts">
      <text class="cls-9" transform="translate(8.5 852.8)"><tspan x="0" y="0">A区 下坡</tspan></text>
      <text class="cls-9" transform="translate(131.4 852.8)"><tspan x="0" y="0">A区 高地</tspan></text>
      <text class="cls-9" transform="translate(65.1 743.4)"><tspan x="0" y="0">A区 小屋</tspan></text>
      <text class="cls-9" transform="translate(89 547.8)"><tspan x="0" y="0">A区 树</tspan></text>
      <text class="cls-9" transform="translate(109.1 476.7)"><tspan x="0" y="0">A区 通道门</tspan></text>
      <text class="cls-9" transform="translate(683.3 429.6)"><tspan x="0" y="0">C区 通道门</tspan></text>
      <text class="cls-9" transform="translate(121.5 384.5)"><tspan x="0" y="0">A区 碎石</tspan></text>
      <text class="cls-9" transform="translate(242.1 398.2)"><tspan x="0" y="0">A区 树根</tspan></text>
      <text class="cls-9" transform="translate(374.4 553.7)"><tspan x="0" y="0">A区 小道</tspan></text>
      <text class="cls-9" transform="translate(210.1 529.1)"><tspan x="0" y="0">A区 大道</tspan></text>
      <text class="cls-9" transform="translate(685.8 668.9)"><tspan x="0" y="0">C区 小道</tspan></text>
      <text class="cls-9" transform="translate(668.5 821.6)"><tspan x="0" y="0">C区 碎石路</tspan></text>
      <text class="cls-9" transform="translate(923.7 718.5)"><tspan x="0" y="0">C区 走廊</tspan></text>
      <text class="cls-9" transform="translate(820.7 569.5)"><tspan x="0" y="0">C区 瀑布</tspan></text>
      <text class="cls-9" transform="translate(1025.9 448.9)"><tspan x="0" y="0">C区 弯道</tspan></text>
      <text class="cls-9" transform="translate(848.6 468.7)"><tspan x="0" y="0">C区 大道 </tspan></text>
      <text class="cls-9" transform="translate(785.3 357.6)"><tspan x="0" y="0">C区 土丘</tspan></text>
      <text class="cls-9" transform="translate(739.9 188.3)"><tspan x="0" y="0">C区 大厅</tspan></text>
      <text class="cls-9" transform="translate(289.9 223.7)"><tspan x="0" y="0">A区 大厅</tspan></text>
      <text class="cls-9" transform="translate(221.1 782.8)"><tspan x="0" y="0">A区 台阶</tspan></text>
      <text class="cls-9" transform="translate(518.4 302.2)"><tspan x="0" y="0">B区 柱子</tspan></text>
      <text class="cls-9" transform="translate(454.4 682.1)"><tspan x="0" y="0">B区 上层</tspan></text>
      <text class="cls-9" transform="translate(567.7 427.9)"><tspan x="0" y="0">B区 大道</tspan></text>
      <text class="cls-9" transform="translate(473.6 110.7)"><tspan x="0" y="0">攻方 重生点</tspan></text>
      <text class="cls-9" transform="translate(369.2 919.4)"><tspan x="0" y="0">守方 重生点</tspan></text>
      <path id="C" class="cls-5" d="M1020.1,549.6c0-8.1,4.7-13,11.8-13s8.4,2.1,10.1,5.7c.4.6.5,1.4.5,2,0,1.4-1,2.2-2.3,2.2s-2-.5-2.5-1.7c-1.1-2.6-3.2-3.8-5.7-3.8-3.9,0-6.5,3.3-6.5,8.6s2.5,8.6,6.5,8.6,4.7-1.2,5.8-3.7c.5-1.2,1.2-1.7,2.3-1.7s2.5,1,2.5,2.3-.1,1.1-.4,1.7c-1.6,3.4-5.3,5.7-10.1,5.7-7.5.2-12-4.7-12-12.8h0Z"/>
      <path id="B" class="cls-5" d="M605.6,588.1v-19.7c0-1.7,1-2.7,2.6-2.7h8.4c4.7,0,7.6,2.5,7.6,6.3s-2.1,5-4.7,5.4h0c3.4.4,5.9,2.8,5.9,6.1s-3.3,7.3-8.7,7.3h-8.5c-1.6,0-2.6-1-2.6-2.7h0ZM614.6,576.1c2.8,0,4.4-1.2,4.4-3.3s-1.4-3.2-3.8-3.2h-4.3v6.5h3.7ZM615.4,586.8c3.1,0,4.7-1.2,4.7-3.7s-1.7-3.6-4.8-3.6h-4.4v7.3h4.5Z"/>
      <path id="A" class="cls-5" d="M100.3,782.4c-1.4,0-2.2-.7-2.7-2.3l-1.4-3.9h-9.1l-1.4,3.9c-.5,1.6-1.2,2.3-2.7,2.3s-2.6-1-2.6-2.5.1-1,.4-1.7l6.9-18.7c.7-2.1,2-2.9,4.1-2.9s3.2,1,3.9,2.9l6.9,18.7c.2.6.4,1.2.4,1.7-.1,1.5-1.1,2.5-2.7,2.5h0ZM95.1,772.1l-3.3-10.3h-.1s-3.3,10.3-3.3,10.3h6.8Z"/>
    </g>
    <g id="Barrier">
      <line class="cls-8" x1="688.1" y1="239" x2="689.3" y2="82"/>
      <line class="cls-8" x1="559.2" y1="233.8" x2="496.3" y2="233.8"/>
      <line class="cls-8" x1="327.9" y1="296.1" x2="367.4" y2="296.1"/>
      <line class="cls-7" x1="256.7" y1="589.7" x2="197.6" y2="589.7"/>
      <line class="cls-7" x1="83.5" y1="496.3" x2="82.2" y2="595.9"/>
      <line class="cls-7" x1="342.1" y1="555.2" x2="342.1" y2="578.7"/>
      <line class="cls-7" x1="643.9" y1="485.3" x2="595.8" y2="484.8"/>
      <line class="cls-7" x1="928.9" y1="427.4" x2="928.9" y2="485.3"/>
    </g>
  </g>
</svg>