<?xml version="1.0" encoding="UTF-8"?>
<svg id="_图层_1" data-name="图层 1" xmlns="http://www.w3.org/2000/svg" version="1.1" viewBox="0 0 1100 1000">
  <defs>
    <style>
      .cls-1 {
        stroke: #afabae;
        stroke-width: 1.1px;
      }

      .cls-1, .cls-2, .cls-3 {
        fill: none;
        stroke-miterlimit: 10;
      }

      .cls-4 {
        fill: #32343b;
      }

      .cls-4, .cls-5, .cls-6, .cls-7, .cls-8 {
        stroke-width: 0px;
      }

      .cls-5 {
        fill: #575548;
      }

      .cls-6 {
        fill: #646568;
      }

      .cls-2 {
        stroke: #814194;
      }

      .cls-2, .cls-3 {
        opacity: .8;
        stroke-width: 10px;
      }

      .cls-3 {
        stroke: #6bc3c0;
      }

      .cls-7 {
        fill: #afabae;
      }

      .cls-8, .cls-9 {
        fill: #fff;
      }

      .cls-9 {
        font-family: SimHei, SimHei;
        font-size: 16px;
        isolation: isolate;
      }
    </style>
  </defs>
  <g id="_防守-深海明珠" data-name="防守-深海明珠">
    <g id="Body">
      <path class="cls-4" d="M73.4,561.2h77.1v-25.4h19v52.8h-76.1v82.4h33.9v6.3h-50.8v106.7l138.4,138.4h195.6v7.2c0,38.1,27.9,69.1,62.3,69.1s62.3-30.9,62.3-69.1v-104.4h109.9l102.6-35.9h53.8v-31.7h0v-84.5h10.6v67.6h176.5v-58.1h-18v-9.5h28.6l15.9,15.9h27.5v-226.8l42.3-41.6v-28.5h-42.3v-112h3.2v-82.4h-136.3v33.8h-71.9v-114.1h-197.6l-24.3-24.4V1.1h-205v141.6h-77.2l-91.9,91.8v130.1h-59.2v16.9h-27.5v-16.9h-78.2l-61.3,87.7v50.7l58.1,58.1h0ZM981.2,391h23.2v43.3h-23.2v-43.3ZM275.3,890.9h-29.6l-14.8-22.2v-24.3l-50.7-50.7h-29.6v-19h85.6l27.5,27.5-10.6,10.6,20.1,20.1v1h2.1v57.1h0ZM377.7,881.4h-88.8v-2.1h88.8v2.1ZM419,768.3v88.8h-10.6v-21.1h-76.1l-6.4,4.2h-10.5v-43.3l-2.7-2.7h0l-20.6-20.6-11.6,11.6-13.7-13.7,11.6-11.6-25.4-25.4h-9.5v-50.7h63.3l41.3,21.1h28.5v-112h59.2v61.7l14.8,30.2v58.1l4.2,12.7v12.6h-35.9ZM588,537.9v48.6h-14.8l-68.7,33.8h-30.6v16.9h-6.3v-76.1h-109.9v-19h18v-50.7h108.8v-55h35.9v101.4h67.6,0ZM759.2,757.7h-10.6v-84.5h10.6v84.5ZM812.1,521v69.7h-10.6v-25.4h-42.3v67.6h-63.4v101.4h-40.2v-21.1h-93v55h-74v25.4h-8.5v63.4h-10.6v-59.2h-29.6v-10.6h38v-24.7c.1-.1.2-.3.3-.5l23.3-74c.4-1.4,1.4-2.5,2.7-3.2,0,0,.2,0,.3,0l105.6-30.3c.2,0,.4-.2.5-.3h.5v-116.2h76.1v-29.6h124.7v12.7h0ZM943.1,709.1h-99.3v-35.9h99.3v35.9ZM773.4,226.7c5.7,0,10.3,4.6,10.3,10.3s-4.6,10.3-10.3,10.3-10.3-4.6-10.3-10.3,4.6-10.3,10.3-10.3ZM691.6,377.3v-211.4h40.2v114.1h211.4v220.9h17v33.8h-55v9.5h-63.4v-23.3h16.9v-61.3h-83.6l-35.8-25.4h-66.6v33.8h-114.2v-3.2h-15.9l-2-2.7v-3.5l15.7-13.8h38.1v-84.6h7.4l15.9,16.9h73.9,0ZM382,199.8h12.3l8.9,16.9h165.8v-77.2l23.3-23.2h2.1l22.2,22.2v2.1l-11.6,10.6v109.9h21.1v71.9h-39.1l-45.5-46.5h-61.3v-10.6h4.2v-48.6h-102.5v-27.4h0ZM121,442.8l82.4-21.1h131v-206l8.5-15.9h13.7v76.1h79.2v35.9h-33.8v93h33.8v43.3h-10.6v-11.6h-141.6v51.8l21.1,20.1v126.8h-78.2v-47.5h-9.5v-51.8h25.4v-31.6l-121.6-42.3v-19h0Z"/>
    </g>
    <g id="Bombsite">
      <polygon class="cls-5" points="92.5 671.9 126.6 671.9 126.6 735 132.1 735 132.1 749.8 126.3 749.8 150.6 774.8 150.6 775.4 155.3 775.4 226.6 775.4 226.6 635.2 150.6 635.2 150.6 635.2 92.5 635.2 92.5 671.9"/>
      <polygon class="cls-4" points="160.6 718.1 210.6 718.1 210.6 696.9 210.4 696.9 210.4 680.7 194.6 680.7 194.6 696.9 160.6 696.9 160.6 718.1"/>
      <polygon class="cls-5" points="841.7 673.3 934.7 673.3 934.7 544.7 934.7 544.2 934.7 534.6 904.9 534.6 904.9 544.2 841.7 544.2 841.7 673.3"/>
      <polygon class="cls-4" points="942.6 649.6 942.6 673.8 908 673.8 908 656.8 910.2 656.5 905.9 637.2 922 633.4 925.7 649.5 942.6 649.6"/>
      <rect class="cls-4" x="847.5" y="601" width="16.9" height="19.9"/>
      <rect class="cls-4" x="885.6" y="543.9" width="15.8" height="15.8"/>
    </g>
    <g id="Lines">
      <path class="cls-7" d="M330.2,472.4v-14.8h14.8v14.8h-14.8M329.2,473.5h16.9v-16.9h-16.9v16.9h0Z"/>
      <path class="cls-7" d="M477.2,491.5v-53.9h7.4v53.9h-7.4M476.1,492.5h9.5v-56.1h-9.5v56.1h0Z"/>
      <path class="cls-7" d="M494.1,436.5v-55.9h16.8v55.9h-16.8M493,437.6h18.9v-58h-18.9v58h0Z"/>
      <line class="cls-1" x1="540.2" y1="439" x2="519.6" y2="447.3"/>
      <path class="cls-7" d="M626.1,278v-15.9h14.8v15.9h-14.8M625,279h16.9v-18h-16.9v18h0Z"/>
      <path class="cls-7" d="M604.9,261.1v-7.4h7.4v7.4h-7.4M603.9,262.2h9.5v-9.5h-9.5v9.5h0Z"/>
      <path class="cls-7" d="M609.3,77.2v-20.1h6.3v20.1h-6.3M608.2,78.3h8.4v-22.2h-8.4v22.2h0Z"/>
      <path class="cls-7" d="M547.9,19.1V1.1h67.6v18h-67.6M546.9,20.1h69.8V0h-69.8v20.1h0Z"/>
      <path class="cls-7" d="M410.5,19.1V1.1h85.6v18h-85.6M409.5,20.1h87.7V0h-87.7v20.1h0Z"/>
      <path class="cls-7" d="M410.5,74v-20.1h5.3v20.1h-5.3M409.4,75.1h7.4v-22.2h-7.4v22.2h0Z"/>
      <polyline class="cls-1" points="305.4 234.7 305.4 285.9 335.4 285.9"/>
      <path class="cls-7" d="M241.4,298v-16.8h15.9v16.8h-15.9M240.3,299.1h18v-18.9h-18v18.9h0Z"/>
      <line class="cls-1" x1="308.5" y1="399.5" x2="308.5" y2="318.1"/>
      <path class="cls-7" d="M68,479l-13.7-7.9,19.5-33.7,13.7,7.9-19.5,33.7M68.4,480.4l20.5-35.6-15.5-9-20.5,35.6,15.5,9h0Z"/>
      <path class="cls-7" d="M161.1,717.6v-20h33.8v-15.8h14.8v35.9h-48.6M160.1,718.7h50.7v-38h-16.9v15.8h-33.8v22.2h0Z"/>
      <path class="cls-7" d="M123.1,749.3v-71.9h3.2v58.2h5.2v13.7h-8.5M122,750.3h10.6v-15.8h-5.2v-58.2h-5.3v74h0Z"/>
      <rect class="cls-7" x="114.6" y="749.3" width="7.6" height="1.1"/>
      <path class="cls-7" d="M275.2,889.8v-9.5h14.8v9.5h-14.8M274.2,890.9h16.9v-11.6h-16.9v11.6h0Z"/>
      <path class="cls-7" d="M275.2,879.3v-7.3h7.4v7.3h-7.4M274.2,880.3h9.5v-9.4h-9.5v9.4h0Z"/>
      <path class="cls-7" d="M441.3,821.1v-23.2h28.5v23.2h-28.5M440.2,822.2h30.6v-25.4h-30.6v25.4h0Z"/>
      <path class="cls-7" d="M304.8,634.1v-15.9h14.8v15.9h-14.8M303.8,635.2h16.9v-18h-16.9v18h0Z"/>
      <polyline class="cls-1" points="417.5 593.7 417.5 570.3 409.8 560.4"/>
      <rect class="cls-7" x="620.8" y="508.3" width="71.2" height="1.1"/>
      <polygon class="cls-7" points="739.2 501 739.2 509.4 740.2 509.4 740.2 499.9 740 499.9 739.2 499.9 643 499.9 643 501 739.2 501"/>
      <path class="cls-7" d="M536.3,537.9v-14.8h15.8v14.8h-15.8M535.3,539h17.9v-16.9h-17.9v16.9h0Z"/>
      <path class="cls-7" d="M677.9,749.3v-14.8h16.9v14.8h-16.9M676.8,750.4h19v-17h-19v17h0Z"/>
      <path class="cls-7" d="M670.5,740.8v-6.4h6.3v6.4h-6.3M669.4,741.9h8.4v-8.5h-8.4v8.5h0Z"/>
      <path class="cls-7" d="M812.1,620.4v-19h34.8v19h-34.8M811,621.4h36.9v-21.1h-36.9v21.1h0Z"/>
      <path class="cls-7" d="M812.1,620.4v-19h51.8v19h-51.8M811,621.4h53.9v-21.1h-53.9v21.1h0Z"/>
      <path class="cls-7" d="M993.8,594v-15.8h48.6v15.8h-48.6M992.8,595h50.7v-18h-50.7v18h0Z"/>
      <path class="cls-7" d="M886.2,559.1v-14.8h14.7v14.8h-14.7M885.1,560.2h16.8v-16.9h-16.8v16.9h0Z"/>
      <path class="cls-7" d="M1043.5,406.9v-14.8h7.4v14.8h-7.4M1042.4,407.9h9.5v-16.9h-9.5v16.9h0Z"/>
      <path class="cls-7" d="M794.2,508.4v-14.8h16.8v14.8h-16.8M793.2,509.4h18.9v-16.9h-18.9v16.9h0Z"/>
      <rect class="cls-7" x="774" y="247.1" width="1.1" height="33.7"/>
      <rect class="cls-7" x="783.7" y="177.6" width="1.1" height="103.3"/>
      <path class="cls-7" d="M976.9,255.8v-15.9h31.7v15.9h-31.7M975.9,256.9h33.8v-18h-33.8v18h0Z"/>
      <rect class="cls-7" x="640.9" y="162.8" width="1" height="98.6"/>
      <path class="cls-7" d="M1027.7,609.8v-14.8h14.8v14.8h-14.8M1026.6,610.9h16.9v-16.9h-16.9v16.9h0Z"/>
      <path class="cls-7" d="M1019.2,601.3v-6.3h7.4v6.3h-7.4M1018.1,602.4h9.5v-8.4h-9.5v8.4h0Z"/>
      <path class="cls-7" d="M985.4,238.9v-7.4h14.8v7.4h-14.8M984.3,239.9h16.9v-9.5h-16.9v9.5h0Z"/>
      <path class="cls-7" d="M926.3,673.2v-23.2h15.8v23.2h-15.8M925.2,674.3h17.9v-25.3h-17.9v25.3h0Z"/>
      <path class="cls-7" d="M908.3,673.2v-15.9h16.9v15.9h-16.9M907.2,674.3h19v-18h-19v18h0Z"/>
      <path class="cls-7" d="M908.3,673.2v-15.9h2.7l-.3-1.3-4.2-18.5,15.4-3.5,3.4,15,.2.8h16.6v23.2h-33.7M907.2,674.3h35.8v-25.3h-16.8l-3.6-16.1-17.4,3.9,4.4,19.5h-2.4v18h0Z"/>
      <circle class="cls-1" cx="922" cy="652.8" r="3.7"/>
      <polygon class="cls-7" points="802.6 673.5 802.6 632 811 632 811.1 632 812.1 632 812.1 590.1 811 590.1 811 630.9 802.6 630.9 801.5 630.9 801.5 632 801.5 673.5 802.6 673.5"/>
      <rect class="cls-7" x="758.2" y="630.9" width="1" height="42.6"/>
    </g>
    <g id="Outlines">
      <path class="cls-6" d="M472.9,998.9c-34.4,0-62.3-30.9-62.3-69.1v-7.2h-195.6l-138.4-138.4v-106.7h50.8v-6.3h-33.9v-82.4h76.1v-52.8h-19v25.4h-77.1l-58.1-58.1v-50.7l61.3-87.7h78.2v16.9h27.5v-16.9h59.2v-130.1l91.9-91.8h77.2V1.1h205v91.8l24.3,24.4h197.6v114.1h71.9v-33.8h136.3v82.4h-3.2v112h42.3v28.5l-42.3,41.6v226.8h-27.5l-15.9-15.9h-28.6v9.5h18v58.1h-176.5v-67.6h-10.6v84.5h0v31.7h-53.8l-102.6,35.9h-109.9v104.4c0,38.1-27.9,69.1-62.3,69.1M275.3,833.8h-2.1v-1l-20.1-20.1,10.6-10.6-27.5-27.5h-85.6v19h29.6l50.7,50.7v24.3l14.8,22.2h29.6v-57.1M377.7,879.3h-88.8v2.1h88.8v-2.1M655.7,713.4v21.1h40.2v-101.4h63.4v-67.6h42.3v25.4h10.6v-82.4h-124.7v29.6h-76.1v116.2h-.5c-.1.1-.3.2-.5.3l-105.6,30.3c0,0-.2,0-.3,0-1.3.7-2.3,1.8-2.7,3.2l-23.3,74c0,.2-.2.4-.3.5v24.7h-38v10.6h29.6v59.2h10.6v-63.4h8.5v-25.4h74v-55h93M435.9,592.9h-59.2v112h-28.5l-41.3-21.1h-63.3v50.7h9.5l25.4,25.4-11.6,11.6,13.7,13.7,11.6-11.6,20.6,20.6h0l2.7,2.7v43.3h10.5l6.4-4.2h76.1v21.1h10.6v-88.8h35.9v-12.6l-4.2-12.7v-58.1l-14.8-30.2v-61.7M759.2,673.2h-10.6v84.5h10.6v-84.5M943.1,673.2h-99.3v35.9h99.3v-35.9M588,537.9h-67.6v-101.4h-35.9v55h-108.8v50.7h-18v19h109.9v76.1h6.3v-16.9h30.6l68.7-33.8h14.8v-48.6M425.3,436.5v11.6h10.6v-43.3h-33.8v-93h33.8v-35.9h-79.2v-76.1h-13.7l-8.5,15.9v206h-131l-82.4,21.1v19l121.6,42.3v31.6h-25.4v51.8h9.5v47.5h78.2v-126.8l-21.1-20.1v-51.8h141.6M960.1,501h-17v-220.9h-211.4v-114.1h-40.2v211.4h-73.9l-15.9-16.9h-7.4v84.6h-38.1l-15.7,13.8v3.5l2,2.7h15.9v3.2h114.2v-33.8h66.6l35.8,25.4h83.6v61.3h-16.9v23.3h63.4v-9.5h55v-33.8M1004.4,391h-23.2v43.3h23.2v-43.3M626.1,261.1h-21.1v-109.9l11.6-10.6v-2.1l-22.2-22.2h-2.1l-23.3,23.2v77.2h-165.8l-8.9-16.9h-12.3v27.4h102.5v48.6h-4.2v10.6h61.3l45.5,46.5h39.1v-71.9M773.4,226.7c-5.7,0-10.3,4.6-10.3,10.3s4.6,10.3,10.3,10.3,10.3-4.6,10.3-10.3-4.6-10.3-10.3-10.3M472.9,1000c35,0,63.4-31.5,63.4-70.2v-103.3h109.2c0,0,102.4-35.9,102.4-35.9h54.8v-33.9h0v-82.3h8.3v67.6h178.7v-60.3h-18v-7.3h27l15.5,15.5.3.3h29v-227.4l41.9-41.3.3-.3v-30.1h-42.3v-109.8h3.2v-84.6h-138.5v33.8h-69.7v-114.1h-198.2l-23.7-23.8V0h-207.2v141.6h-76.5l-.3.3-91.9,91.8-.3.3v129.5h-59.2v16.9h-25.3v-16.9h-79.9l-.3.5-61.3,87.7-.2.3v51.5l.3.3,58.1,58.1.3.3h78.7v-25.4h16.8v50.6h-76.1v84.6h33.9v4.1h-50.8v108.3l.3.3,138.4,138.4.3.3h194.9v6.1c0,38.7,28.4,70.2,63.4,70.2h0ZM274.1,889.8h-27.9l-14.3-21.4v-24.4l-.3-.3-50.7-50.7-.3-.3h-28.9v-16.8h84l26.4,26.4-9.8,9.8-.8.8.8.8,19.8,19.8v1.7h2.1v54.9h0ZM479.1,856h-8.3v-59.2h-29.6v-8.4h38v-25.5c.1-.2.2-.3.3-.5l23.3-74c.3-1.1,1.1-2,2.1-2.6l105.6-30.4c.2,0,.4-.1.5-.2h1.2v-116.2h76.1v-29.6h122.5v80.2h-8.3v-25.4h-44.5v67.6h-63.4v101.4h-37.9v-21.1h-95.2v55h-74v25.4h-8.5v63.4h0ZM417.9,856h-8.3v-21.1h-77.5l-.3.2-6.1,4h-9.1v-42.7l-.3-.3-1.9-1.9-.8-.8-20.6-20.6-.8-.8-.8.8-10.8,10.8-12.2-12.2,10.9-10.9.8-.8-.8-.8-25.4-25.4-.3-.3h-8.9v-48.5h62l41,21h.2c0,.1,29.9.1,29.9.1v-112h57v61.1c.1,0,14.8,30,14.8,30v58.2c0,0,4.2,12.6,4.2,12.6v11.3h-35.9v88.8h0ZM758.1,756.6h-8.3v-82.3h8.3v82.3h0ZM942,708h-97.1v-33.7h97.1v33.7h0ZM472.8,636.2h-4.1v-76.1h-109.9v-16.8h18v-50.7h108.8v-55h33.7v101.4h67.6v46.4h-14.2c0,.1-68.5,33.8-68.5,33.8h-31.5v16.9h0ZM303.7,634h-76v-47.5h-9.5v-49.6h25.4v-33.5l-.7-.3-120.8-42.1v-17.4l81.5-20.9h132v-206.8l8.1-15.1h11.9v76.1h79.2v33.7h-33.8v95.2h33.8v41.1h-8.4v-11.6h-143.8v53.4l.3.3,20.8,19.8v125.2h0ZM904,543.2h-61.2v-21h16.9v-63.5h-84.4l-35.5-25.2-.3-.2h-68v33.8h-111.9v-3.2h-16.4l-1.4-2v-2.7l15-13.2h38.8v-84.6h5.8l15.6,16.6.3.3h75.5v-211.4h37.9v114.1h211.4v220.9h17v31.6h-55v9.5h0ZM1003.3,433.3h-21v-41.1h21v41.1h0ZM625,331.8h-37.5l-45.1-46.2-.3-.3h-60.6v-8.3h4.2v-50.8h-102.5v-25.2h10.5l8.6,16.3.3.6h167.6v-77.8l22.6-22.6h1.2l21.5,21.5v1.2l-11.3,10.3-.4.3v111.5h21.1v69.6h0ZM773.4,227.8c5.1,0,9.2,4.1,9.2,9.2s-4.1,9.2-9.2,9.2-9.2-4.1-9.2-9.2,4.1-9.2,9.2-9.2h0Z"/>
    </g>
    <g id="Callouts">
      <text class="cls-9" transform="translate(463.9 76.5)"><tspan x="0" y="0">攻方 重生点</tspan></text>
      <text class="cls-9" transform="translate(424.8 945.8)"><tspan x="0" y="0">守方 重生点</tspan></text>
      <text class="cls-9" transform="translate(145.5 848.4)"><tspan x="0" y="0">A区 隐藏</tspan></text>
      <text class="cls-9" transform="translate(75.3 712.4)"><tspan x="0" y="0">A区 低地</tspan></text>
      <text class="cls-9" transform="translate(50.3 503.9)"><tspan x="0" y="0">A区 主门</tspan></text>
      <text class="cls-9" transform="translate(399.7 258.5)"><tspan x="0" y="0">中区 高地</tspan></text>
      <text class="cls-9" transform="translate(258.1 310.7)"><tspan x="0" y="0">A区 餐厅</tspan></text>
      <text class="cls-9" transform="translate(479 361.7)"><tspan x="0" y="0">中区 广场</tspan></text>
      <text class="cls-9" transform="translate(303.2 504.2)"><tspan x="0" y="0">A区 画架</tspan></text>
      <text class="cls-9" transform="translate(303.2 665.8)"><tspan x="0" y="0">A区 小道</tspan></text>
      <text class="cls-9" transform="translate(252.2 817.8)"><tspan x="0" y="0">A区 花店</tspan></text>
      <text class="cls-9" transform="translate(414.2 786.1)"><tspan x="0" y="0">守方 排水沟</tspan></text>
      <text class="cls-9" transform="translate(609 784.7)"><tspan x="0" y="0">守方 唱片店</tspan></text>
      <text class="cls-9" transform="translate(460.9 664.5)"><tspan x="0" y="0">中区 路口</tspan></text>
      <text class="cls-9" transform="translate(707.2 661.8)"><tspan x="0" y="0">B区 地道</tspan></text>
      <text class="cls-9" transform="translate(751.1 489)"><tspan x="0" y="0">B区 小道</tspan></text>
      <text class="cls-9" transform="translate(518.3 503.1)"><tspan x="0" y="0">中区 门</tspan></text>
      <text class="cls-9" transform="translate(617.1 256.9)"><tspan x="0" y="0">中区 商店</tspan></text>
      <text class="cls-9" transform="translate(746.5 161.1)"><tspan x="0" y="0">B区 夜店</tspan></text>
      <text class="cls-9" transform="translate(954 280.8)"><tspan x="0" y="0">B区 坡道</tspan></text>
      <text class="cls-9" transform="translate(962.4 467.2)"><tspan x="0" y="0">B区 主门</tspan></text>
      <text class="cls-9" transform="translate(970.8 646.1)"><tspan x="0" y="0">B区 屏幕</tspan></text>
      <text class="cls-9" transform="translate(874.1 732.1)"><tspan x="0" y="0">B区 走廊</tspan></text>
      <text class="cls-9" transform="translate(755.1 619.1)"><tspan x="0" y="0">B区 塔楼</tspan></text>
      <path id="B" class="cls-8" d="M889.1,619.1v-16.9c0-1.5.8-2.3,2.3-2.3h7.1c4.1,0,6.6,2.1,6.6,5.4s-1.8,4.3-4.1,4.7h0c2.9.3,5.1,2.5,5.1,5.3s-2.9,6.2-7.5,6.2h-7.3c-1.4,0-2.3-.9-2.3-2.4h0ZM896.8,608.8c2.4,0,3.8-1.1,3.8-2.9s-1.2-2.7-3.3-2.7h-3.7v5.6h3.2,0ZM897.5,618.1c2.6,0,4-1.1,4-3.2s-1.4-3.1-4.1-3.1h-3.8v6.3h3.9Z"/>
      <path id="A" class="cls-8" d="M168.5,678.2c-1.2,0-1.9-.6-2.3-2l-1.1-3.4h-7.8l-1.1,3.4c-.4,1.4-1.1,2-2.3,2s-2.3-.9-2.3-2.1,0-.9.3-1.4l5.9-16.1c.6-1.8,1.7-2.5,3.5-2.5s2.8.8,3.4,2.6l5.9,16.1c.2.5.3,1.1.3,1.4,0,1.3-.9,2.1-2.3,2.1h0ZM164.1,669.3l-2.8-8.8h-.1l-2.9,8.8h5.8Z"/>
    </g>
    <g id="Barrier">
      <line class="cls-2" x1="218.2" y1="581.3" x2="168.5" y2="581.3"/>
      <line class="cls-2" x1="376.8" y1="522.1" x2="303.7" y2="522.1"/>
      <line class="cls-2" x1="1043.5" y1="497" x2="942" y2="497"/>
      <line class="cls-2" x1="580.4" y1="539" x2="581.3" y2="467.1"/>
      <line class="cls-3" x1="838.9" y1="177.6" x2="730.6" y2="177.6"/>
      <line class="cls-3" x1="692.6" y1="298" x2="625" y2="298"/>
      <line class="cls-3" x1="335.4" y1="359.4" x2="240.3" y2="359.4"/>
      <line class="cls-3" x1="387.8" y1="277" x2="387.8" y2="226.1"/>
    </g>
  </g>
</svg>