<?xml version="1.0" encoding="UTF-8"?>
<svg id="_图层_1" data-name=" 图层 1" xmlns="http://www.w3.org/2000/svg" version="1.1" viewBox="0 0 1100 1000">
  <defs>
    <style>
      .cls-1 {
        fill: #575548;
      }

      .cls-1, .cls-2, .cls-3, .cls-4, .cls-5 {
        stroke-width: 0px;
      }

      .cls-6 {
        stroke-width: 1.1px;
      }

      .cls-6, .cls-7 {
        stroke: #b0adb0;
      }

      .cls-6, .cls-7, .cls-8, .cls-9 {
        fill: none;
      }

      .cls-6, .cls-8, .cls-9 {
        stroke-miterlimit: 10;
      }

      .cls-7 {
        stroke-miterlimit: 10;
        stroke-width: 1.1px;
      }

      .cls-8 {
        stroke: #814194;
      }

      .cls-8, .cls-9 {
        opacity: .8;
        stroke-width: 10px;
      }

      .cls-8, .cls-9, .cls-10 {
        isolation: isolate;
      }

      .cls-2 {
        fill: #b0adb0;
      }

      .cls-9 {
        stroke: #6bc3c0;
      }

      .cls-3 {
        fill: #656569;
      }

      .cls-4 {
        fill: #33353b;
      }

      .cls-5, .cls-10 {
        fill: #fff;
      }

      .cls-10 {
        font-family: SimHei, SimHei;
        font-size: 16px;
      }
    </style>
  </defs>
  <g id="Body">
    <path class="cls-4" d="M1019.5,591.5h-66v-54.3h34.1v-165.9h-22.3v-8.5h7.4v-59.6h-174.4v44.7h0v19.1h4.3v4.3h-20.3v-12.8l-121.2-100v-46.8h-14.9v-8.6h14.9v-68h-7.5v-7.4h7.5V13.9h-2.1l-30.9-12.8h-92.5l-10.6,9.6v76.6l9.6,8.1v25.6l-2.1,4.6v9.6h-60.7v15.9h-8.5v-15.9h-47.8l-43.6-43.6h-63.8l-19.1,18v126.7l11.9,17.8-6.4,4.3-4.3-6.4-53.4,34.3v20.2H106.8v56.4h26.6v45.8h-39.3l-41.5,121.3h-21.2v94.7h73.4l10.7-10.7,10.9,10.9-11.1,11.1,77,77h66.7v84.1h0v53.1l58.6,79.7,66.9,3.3v65.9h119l26.7-51.1h55.3v-11.7h7.5v11.7h188.3l20.8-23.3-15.6-13.9,25-27.4,5.1,4.3,38.8-46h164.1l28.7-28.7v-192.5l-28.7-28.7h0ZM839.7,454.2h3.2v-83h-3.2v-4.3h3.2v-19.1h61.7v14.9h7.4v8.5h-9.7v2.1l-20.1,19.2v107.4h-35.1v3.2h-4.3v-44.7h-3.2v-4.2h0ZM818.5,367h4.3v4.3h-4.3v-4.3ZM625.5,340.4h36.5l128.7,113.8h4.3v4.2h-4.3v109.6h-161.7v62.7h17v6.4h-23.4v-228.7h-29.7v-68.1h32.6ZM607.9,127.7h8.5v7.4h-8.5v-7.4ZM562.1,127.7h8.5v7.4h-8.5v-7.4ZM516.4,203.1h92.6v8.6h-11.7v29.8h-69.2v-29.8h-11.7v-8.6ZM583.4,484.7c0,11.5-9.3,20.9-20.9,20.9s-20.9-9.3-20.9-20.9,9.3-20.9,20.9-20.9,20.9,9.3,20.9,20.9h0ZM402.4,340.4h7.5v-144.7h53.2v-7.5h8.5v14.9h7.5v8.6h-14.9v128.7h68.1v68.1h-86.1v3.2h-2.1v-3.2h-34.1v-63.8h-7.5v-4.3h0ZM231.3,454.3v-60.6h-53.2v-19.2h103.2v-67.5l31.5-21.1-4-6,6.4-4.3,27.8,41.4v23.4h44.7v4.3h-7.4v94.7h63.8v-3.2h2.1v3.2h18.1v60.7h-30.8v8.5l-16,14.8-5.3-23.4h-48.9l-5.3,23.4-16-14.9v-54.2h-110.6,0ZM341.9,682v-7.6h30.9v88.3h-71.3v-4.3h14.9l25.5-22.3v-54.1h0ZM433.4,814.1v19.9h-91.5v-14.9l-24.5-22.3h-16v-4.3h132v21.6h0ZM433.4,762.7h-30.9v-118.1h-60.6v-53.3h-30.8v-37.1l17.6-18.1,17.5,17.1v7.3h82.9v-7.3l20.3-19.2v26.6h83l23.4,76.8v82.7h29.8v76.6h-8.5v-34h-143.6ZM593,910.6h-7.5v-16h7.5v16ZM720.5,857.4h-32.9v3.2h-5.3v-3.2h-89.3v11.7h-7.5v-35.1h-91.5v-7.5h83v-7.4h8.5v7.4h60.6v-56.3h-16v-20.2h45.8v-7.5h100v83.1l-13.6,16.1,1.7,1.4-25.2,28.2-18.3-14h0ZM765.9,894.8l-6.8-5.7,25.5-28.6,7,5.9-25.8,28.3h0ZM822.7,804.2h-6.4v-61.7h6.4v61.7ZM839.8,690.4h-163.9v-69.2h110.6l41.5-41.5v-42.5h14.9v-3.2h4.3v3.2h61.7v54.3h-52.1v23.5h0v16.9l20.2,20.2-37.2,38.3h0ZM906.2,712.3c0-11.5,9.3-20.9,20.9-20.9s20.9,9.3,20.9,20.9-9.3,20.9-20.9,20.9-20.9-9.3-20.9-20.9ZM981.2,792.5h-55.3v-6.4h55.3s0,6.4,0,6.4Z"/>
  </g>
  <g id="Bombsite">
    <polygon class="cls-1" points="202.7 500.1 65.1 500.1 63.1 500.1 52.2 529.7 49 529.7 31.1 529.7 31.1 576.6 201.5 576.6 201.5 541.8 202.7 541.8 202.7 500.1"/>
    <rect class="cls-4" x="155.7" y="524.5" width="47" height="11.6"/>
    <g>
      <rect class="cls-4" x="94.6" y="500.6" width="61.6" height="59.5"/>
      <path class="cls-2" d="M95.2,559.5v-58.4h60.5v58.4h-60.5M94.1,560.6h62.7v-60.5h-62.7v60.5h0Z"/>
    </g>
    <g>
      <rect class="cls-4" x="202.1" y="500.6" width="60.5" height="59.5"/>
      <path class="cls-2" d="M202.7,559.5v-58.4h59.4v58.4h-59.4M201.6,560.6h61.6v-60.5h-61.6v60.5h0Z"/>
    </g>
    <path class="cls-1" d="M885.5,674.4v91.5h91.5v-91.5h-91.5ZM927,733.2c-11.5,0-20.9-9.3-20.9-20.9s9.3-20.9,20.9-20.9,20.9,9.3,20.9,20.9-9.3,20.9-20.9,20.9Z"/>
  </g>
  <g id="Lines">
    <path class="cls-2" d="M342.9,340.5v-17.1h17.1v17.1h-17.1M341.9,341.5h19.2v-19.2h-19.2v19.2h0Z"/>
    <path class="cls-2" d="M221.7,335.1v-28.7h13.8v28.7h-13.8M220.7,336.2h15.9v-30.9h-15.9v30.9h0Z"/>
    <path class="cls-2" d="M217.4,453.1v-12.7h13.9v12.7h-13.9M216.4,454.2h16v-14.8h-16v14.8h0Z"/>
    <path class="cls-2" d="M232.4,469.1v-14.9h13.8v14.9h-13.8M231.3,470.2h15.9v-17.1h-15.9v17.1h0Z"/>
    <path class="cls-2" d="M224.9,460.6v-6.4h6.4v6.4h-6.4M223.8,461.7h8.5v-8.6h-8.5v8.6h0Z"/>
    <rect class="cls-7" x="223.8" y="624.7" width="59" height="21.8" transform="translate(-375.2 365.2) rotate(-45)"/>
    <path class="cls-2" d="M682.3,947.9v-7.5h8.6v7.5h-8.6M681.2,948.9h10.7v-9.6h-10.7v9.6h0Z"/>
    <path class="cls-2" d="M495.1,826.6v-22.4h13.8v22.4h-13.8M494.1,827.7h16v-24.5h-16v24.5h0Z"/>
    <path class="cls-2" d="M495.1,826.6v-14.9h13.8v14.9h-13.8M494.1,827.7h16v-17h-16v17h0Z"/>
    <path class="cls-2" d="M600.4,750v-6.4h14.9v6.4h-14.9M599.3,751.1h17v-8.5h-17v8.5h0Z"/>
    <path class="cls-2" d="M585.5,750v-13.8h13.9v13.8h-13.9M584.4,751.1h16v-15.9h-16v15.9h0Z"/>
    <path class="cls-2" d="M555.2,635.8l-3.9-12.8,12.8-3.9,3.9,12.8-12.8,3.9M554.5,637.1l14.9-4.6-4.6-14.9-14.9,4.6,4.6,14.9h0Z"/>
    <path class="cls-2" d="M607.6,703.6l-3.3-12.7,27.2-7.1,3.3,12.7-27.2,7.1M606.9,704.9l29.3-7.6-3.9-14.8-29.3,7.6,3.9,14.8h0Z"/>
    <path class="cls-2" d="M677,621.3v-13.9h13.8v13.9h-13.8M675.9,622.4h16v-16h-16v16h0Z"/>
    <path class="cls-2" d="M958.9,491.5v-13.8h28.7v13.8h-28.7M957.8,492.5h30.9v-16h-30.9v16h0Z"/>
    <path class="cls-2" d="M912,370.2v-6.4h53.3v6.4h-53.3M911,371.3h55.4v-8.5h-55.4v8.5h0Z"/>
    <path class="cls-2" d="M981.2,803.2v-28.7h28.8v28.7h-28.8M980.1,804.2h30.9v-30.8h-30.9v30.8h0Z"/>
    <path class="cls-2" d="M981.2,658.5v-28.7h28.7v28.7h-28.7M980.2,659.5h30.8v-30.8h-30.8v30.8h0Z"/>
    <path class="cls-2" d="M1000.4,773.4v-113.1h2.1v113.1h-2.1M999.3,774.4h4.2v-115.2h-4.2v115.2h0Z"/>
    <path class="cls-2" d="M822.7,803.2v-13.5h13.9v13.5h-13.9M821.6,804.2h16v-15.6h-16v15.6h0Z"/>
    <path class="cls-2" d="M711,742.6v-13.8h29.8v13.8h-29.8M710,743.6h31.9v-16h-31.9v16h0Z"/>
    <rect class="cls-2" x="616" y="750" width="14.4" height="1.1"/>
    <path class="cls-2" d="M716.4,388.5l-10.4-9.2,2.3-2.6,10.4,9.2-2.3,2.6M716.5,390l3.7-4.2-12-10.6-3.7,4.2,12,10.6h0Z"/>
    <path class="cls-2" d="M1003.5,705.3v-7.4h6.4v7.4h-6.4M1002.5,706.3h8.5v-9.5h-8.5v9.5h0Z"/>
    <rect class="cls-2" x="874.8" y="791.5" width="51.1" height="1.1"/>
    <rect class="cls-2" x="156.4" y="523.5" width="45.3" height="1.1"/>
    <rect class="cls-2" x="156" y="536.2" width="46.2" height="1.1"/>
    <rect class="cls-2" x="258.4" y="758.5" width="44.1" height="1.1"/>
    <rect class="cls-2" x="258.4" y="761.7" width="44.1" height="1.1"/>
    <rect class="cls-7" x="118.3" y="606.9" width="15.4" height="14.3" transform="translate(-397.4 268.9) rotate(-45)"/>
    <path class="cls-2" d="M542.2,516.9l-9.7-9.1,11.2-12c2.3,3.9,5.8,7,9.9,8.9l-11.3,12.2M542.3,518.4l13.1-14.1c-5-1.8-9.2-5.5-11.5-10.3l-12.9,13.8,11.3,10.5h0Z"/>
    <path class="cls-2" d="M582.3,491.5c-.1.4-.2.7-.4,1.1h41.5v-1.1h-41.1Z"/>
    <path class="cls-2" d="M581.8,476.6c.1.3.3.7.4,1.1h41.1v-1.1h-41.5,0Z"/>
    <path class="cls-2" d="M908.3,703.3l-11.2-11.2,9.5-9.5,11.1,11.1c-4.2,2.1-7.2,5.2-9.4,9.5M908.6,705.1c2.4-5.5,6-8.9,10.9-11l-12.9-12.9-11,11,13,13h0Z"/>
    <rect class="cls-2" x="258.2" y="792.5" width="44.1" height="1.1"/>
    <rect class="cls-2" x="258.2" y="795.7" width="44.1" height="1.1"/>
    <path class="cls-2" d="M592.9,947.9v-7.5h7.5v7.5h-7.5M591.9,948.9h9.6v-9.6h-9.6v9.6h0Z"/>
    <path class="cls-2" d="M604.5,946.8c-1.1,0-1.9-.9-1.9-1.9s.9-1.9,1.9-1.9,1.9.9,1.9,1.9-.9,1.9-1.9,1.9M604.5,947.8c1.7,0,3-1.4,3-3s-1.4-3-3-3-3,1.4-3,3,1.4,3,3,3h0Z"/>
    <path class="cls-2" d="M596,904.8c-1.1,0-1.9-.9-1.9-1.9s.9-1.9,1.9-1.9,1.9.9,1.9,1.9-.9,1.9-1.9,1.9M596,905.9c1.7,0,3-1.4,3-3s-1.4-3-3-3-3,1.4-3,3,1.4,3,3,3h0Z"/>
    <path class="cls-2" d="M596,862.4c-1.1,0-1.9-.9-1.9-1.9s.9-1.9,1.9-1.9,1.9.9,1.9,1.9-.9,1.9-1.9,1.9M596,863.5c1.7,0,3-1.4,3-3s-1.4-3-3-3-3,1.4-3,3,1.4,3,3,3h0Z"/>
    <path class="cls-2" d="M602,862.4c-1.1,0-1.9-.9-1.9-1.9s.9-1.9,1.9-1.9,1.9.9,1.9,1.9-.9,1.9-1.9,1.9M602,863.5c1.7,0,3-1.4,3-3s-1.4-3-3-3-3,1.4-3,3,1.4,3,3,3h0Z"/>
    <path class="cls-2" d="M596,868.4c-1.1,0-1.9-.9-1.9-1.9s.9-1.9,1.9-1.9,1.9.9,1.9,1.9-.9,1.9-1.9,1.9M596,869.5c1.7,0,3-1.4,3-3s-1.4-3-3-3-3,1.4-3,3,1.4,3,3,3h0Z"/>
    <path class="cls-2" d="M985.5,773.4v-7.4h13.8v7.4h-13.8M984.4,774.4h16v-9.6h-16v9.6h0Z"/>
    <path class="cls-2" d="M1003.5,720.2v-13.9h13.9v13.9h-13.9M1002.5,721.3h16v-16h-16v16h0Z"/>
    <path class="cls-6" d="M324.6,149c.1-2.5,1-12.6,6.1-19.7,0,0,.2-.2.3-.2,1.5-.3,12.3-2.4,27.8-1.7.2,0,.4.1.4.3l1.8,4.9c0,.1,0,.2,0,.3-.4.9-2,4.9-2.2,9.4,0,.2-.2.4-.4.4l-33.2,6.8c-.3,0-.6-.2-.6-.5h0Z"/>
    <path class="cls-2" d="M356.4,126.2c-1.1,0-1.9-.9-1.9-1.9s.9-1.9,1.9-1.9,1.9.9,1.9,1.9-.9,1.9-1.9,1.9M356.4,127.2c1.7,0,3-1.4,3-3s-1.4-3-3-3-3,1.4-3,3,1.4,3,3,3h0Z"/>
    <path class="cls-2" d="M350.3,126.2c-1.1,0-1.9-.9-1.9-1.9s.9-1.9,1.9-1.9,1.9.9,1.9,1.9-.9,1.9-1.9,1.9M350.3,127.2c1.7,0,3-1.4,3-3s-1.4-3-3-3-3,1.4-3,3,1.4,3,3,3h0Z"/>
    <path class="cls-6" d="M335.6,230.3l28.9,1.5-2.2-39.8s-21,9.8-26.7,38.3Z"/>
    <path class="cls-2" d="M369,203.9c-2.9,0-5.2-2.4-5.2-5.2s2.4-5.2,5.2-5.2,5.2,2.4,5.2,5.2-2.4,5.2-5.2,5.2M369,204.9c3.5,0,6.3-2.8,6.3-6.3s-2.8-6.3-6.3-6.3-6.3,2.8-6.3,6.3,2.8,6.3,6.3,6.3h0Z"/>
    <path class="cls-2" d="M346.3,204.7l-5.8-2.8,3.3-6.6,5.8,2.8-3.3,6.6M346.8,206.1l4.2-8.6-7.7-3.8-4.2,8.6,7.7,3.8h0Z"/>
    <path class="cls-2" d="M366.7,209.3c-1.1,0-1.9-.9-1.9-1.9s.9-1.9,1.9-1.9,1.9.9,1.9,1.9-.9,1.9-1.9,1.9M366.7,210.3c1.7,0,3-1.4,3-3s-1.4-3-3-3-3,1.4-3,3,1.4,3,3,3h0Z"/>
  </g>
  <g id="Outlines">
    <path class="cls-3" d="M384.5,998.9v-66l-66.9-3.3-58.6-79.7v-53.1h0v-84.1h-66.7l-77-77,11.1-11.1-10.9-10.9-10.7,10.7H31.3v-94.7h21.2l41.5-121.3h39.3v-45.8h-26.6v-56.4h129.8v-20.2l53.4-34.3,4.3,6.4,6.4-4.3-11.9-17.8v-126.7l19.1-18h63.8l43.6,43.6h47.8v15.9h8.5v-15.9h60.7v-9.6l2.1-4.6v-25.6l-9.6-8.1V10.6l10.6-9.6h92.5l30.9,12.8h2.1v113.8h-7.5v7.4h7.5v68h-14.9v8.6h14.9v46.8l121.2,100v12.8h20.3v-4.3h-4.3v-19.1h0v-44.7h174.4v59.6h-7.4v8.5h22.3v165.9h-34.1v54.3h66l28.7,28.7v192.5l-28.7,28.7h-164.1l-38.8,46-5.1-4.3-25,27.4,15.6,13.9-20.8,23.3h-188.3v-11.7h-7.5v11.7h-55.3l-26.7,51.1h-119M593,894.7h-7.5v16h7.5v-16M784.7,860.6l-25.5,28.6,6.8,5.7,25.8-28.3-7-5.9M775.9,742.5h-100v7.5h-45.8v20.2h16v56.3h-60.6v-7.4h-8.5v7.4h-83v7.5h91.5v35.1h7.5v-11.7h89.3v3.2h5.3v-3.2h32.9l18.3,14,25.2-28.2-1.7-1.4,13.6-16.1v-83.1M433.4,792.5h-131.9v4.3h16l24.5,22.3v14.9h91.5v-41.5M822.7,742.5h-6.4v61.7h6.4v-61.7M585.5,720.2h-29.8v-82.7l-23.4-76.8h-83v-26.6l-20.3,19.2v7.3h-82.9v-7.3l-17.5-17.1-17.6,18.1v37.1h30.8v53.3h60.6v118.1h174.5v34h8.5v-76.6M981.2,786.1h-55.3v6.4h55.3v-6.4M372.8,674.4h-30.9v7.6h0v54.1l-25.5,22.3h-14.9v4.3h71.3v-88.3M927,691.5c-11.5,0-20.9,9.3-20.9,20.9s9.3,20.9,20.9,20.9,20.9-9.3,20.9-20.9-9.3-20.9-20.9-20.9M856.8,615h0v-23.5h52.1v-54.3h-61.7v-3.2h-4.3v3.2h-14.9v42.5l-41.5,41.5h-110.6v69.2h163.9l37.2-38.3-20.2-20.2v-16.9M646.1,630.8h-17v-62.7h161.7v-109.6h4.3v-4.2h-4.3l-128.7-113.8h-69.1v68.1h29.7v228.7h23.4v-6.4M412.1,500l5.3,23.4,16-14.8v-8.5h30.8v-60.7h-18.1v-3.2h-2.1v3.2h-63.8v-94.7h7.4v-4.3h-44.7v-23.4l-27.8-41.4-6.4,4.3,4,6-31.5,21.1v67.5h-103.2v19.2h53.2v60.6h110.6v54.2l16,14.9,5.3-23.4h48.9M562.5,463.8c-11.5,0-20.9,9.3-20.9,20.9s9.3,20.9,20.9,20.9,20.9-9.3,20.9-20.9-9.3-20.9-20.9-20.9M912.1,362.8h-7.4v-14.9h-61.7v19.1h-3.2v4.3h3.2v83h-3.2v4.2h3.2v44.7h4.3v-3.2h35.1v-107.4l20.1-19.2v-2.1h9.7v-8.5M532.3,340.4h-68.1v-128.7h14.9v-8.6h-7.5v-14.9h-8.5v7.5h-53.2v144.7h-7.5v4.3h7.5v63.8h34.1v3.2h2.1v-3.2h86.1v-68.1M822.7,367h-4.3v4.3h4.3v-4.3M608.9,203.1h-92.6v8.6h11.7v29.8h69.2v-29.8h11.7v-8.6M570.6,127.7h-8.5v7.4h8.5v-7.4M616.4,127.7h-8.5v7.4h8.5v-7.4M383.4,1000h120.8l.3-.6,26.4-50.5h55.7v-11.7h5.2v11.7h189.9l.3-.4,20.8-23.3.7-.8-.8-.7-14.8-13.2,23.5-25.8,4.3,3.6.9.7.7-.9,38.5-45.6h164l.3-.3,28.7-28.7.3-.3v-193.4l-.3-.3-28.7-28.7-.3-.3h-65.3v-52h34.1v-168.2h-22.3v-6.3h7.4v-61.8h-176.7v64.9s0,1.1,0,1.1h4.3v2h-18v-12.2l-.4-.3-120.8-99.7v-47.4h-14.9v-6.3h14.9v-70.3h-7.5v-5.2h7.5V12.8h-3L628.4,0h-.2c0,0-93.1,0-93.1,0l-.3.3-10.6,9.6-.4.3v77.6l.4.3,9.2,7.8v24.8l-2,4.4v.2c-.1,0-.1,8.7-.1,8.7h-60.7v15.9h-6.3v-15.9h-48.5l-43.3-43.3-.3-.3h-64.8l-.3.3-19.1,18-.4.3v127.5l.2.3,11.3,16.8-4.6,3-3.6-5.4-.6-.9-.9.6-53.4,34.3-.5.3v19.7H105.7v58.6h26.6v43.5h-39l-.3.8-41.3,120.5h-21.6v96.9h75l.3-.3,9.9-9.9,9.3,9.3-10.3,10.3-.8.8.8.8,77,77,.3.3h66v136.4l.2.3,58.6,79.7.3.4h.5s65.9,3.3,65.9,3.3v66h0ZM591.8,909.5h-5.2v-13.7h5.2v13.7h0ZM790.1,866.6l-24.3,26.7-5.1-4.3,24-26.9,5.3,4.5h0ZM762.4,843.3l-23.8,26.6-17.5-13.3-.3-.2h-34.4v3.2h-3.1v-3.2h-91.6v11.7h-5.2v-35.1h-91.5v-5.2h83v-7.4h6.3v7.4h62.8v-58.6h-16v-18h45.8v-7.5h97.8v81.6l-13.3,15.8-.7.9.9.7.8.7h0ZM432.3,832.9h-89.3v-14.3l-.4-.3-24.5-22.3-.3-.3h-15.3v-2h129.7v39.3h0ZM821.6,803.1h-4.1v-59.5h4.1v59.5h0ZM584.4,795.7h-6.3v-34h-174.5v-118.1h-60.6v-53.3h-30.8v-35.6l16.5-16.9,16.4,16v8h85.2v-8l18-17.1v25.1h83.3l23.1,75.9v83.7h29.8v74.4h0ZM980.1,791.4h-53.1v-4.1h53.1v4.1h0ZM371.6,761.6h-69.1v-2.1h14.2l.3-.3,25.5-22.3.4-.3v-55.7h0v-5.4h28.6v86.1h0ZM927,692.6c10.9,0,19.7,8.9,19.7,19.7s-8.9,19.7-19.7,19.7-19.7-8.9-19.7-19.7,8.9-19.7,19.7-19.7h0ZM802.1,689.3h-125.1v-66.9h110l.3-.3,41.5-41.5.3-.3v-41.8h14.9v-3.2h2v3.2h61.7v52h-52.1v25.7h0v16.3l.3.3,19.4,19.4-36.1,37.1h-37.2ZM645,636.1h-21.2v-228.7h-29.7v-65.9h67.6l128.4,113.5.3.3h3.6v2h-4.3v109.6h-161.7v65h17v4.2h0ZM432.3,508l-14.2,13.2-4.9-21.5-.2-.9h-50.7l-.2.9-4.9,21.5-14.2-13.2v-54.8h-110.6v-60.6h-53.2v-16.9h103.2v-68l31-20.7.9-.6-.6-.9-3.4-5,4.6-3.1,27,40.2v24.2h44.7v2h-7.4v96.9h84v58.4h-30.8v9.1h0ZM562.5,465c10.9,0,19.7,8.9,19.7,19.7s-8.9,19.7-19.7,19.7-19.7-8.9-19.7-19.7,8.9-19.7,19.7-19.7h0ZM846.1,502.1h-2v-44.7h-3.2v-2h3.2v-85.2h-3.2v-2h3.2v-19.1h59.5v14.9h7.4v6.3h-9.7v2.7l-19.7,18.8-.3.3v106.8h-35.1v3.2h0ZM445.1,407.4h-34v-63.8h-7.5v-2h7.5v-144.7h53.2v-7.5h6.3v14.9h7.5v6.3h-14.9v130.9h68.1v65.9h-86.1ZM821.6,370.2h-2v-2h2v2h0ZM596.1,240.4h-66.9v-29.8h-11.7v-6.3h90.3v6.3h-11.7v29.8h0ZM569.5,134h-6.3v-5.2h6.3v5.2h0ZM615.2,134h-6.3v-5.2h6.3v5.2h0Z"/>
  </g>
  <g id="Callouts">
    <path class="cls-5" d="M945.3,759v-17c0-1.5.8-2.4,2.3-2.4h7.2c4.1,0,6.6,2.1,6.6,5.4s-1.8,4.4-4.1,4.7h0c3,.3,5.1,2.5,5.1,5.4s-2.9,6.2-7.5,6.2h-7.4c-1.4,0-2.3-.9-2.3-2.4h0ZM953.1,748.7c2.4,0,3.8-1.1,3.8-2.9s-1.2-2.7-3.3-2.7h-3.7v5.6h3.3ZM953.7,758c2.6,0,4-1.1,4-3.2s-1.5-3.1-4.1-3.1h-3.8v6.3h3.9Z"/>
    <path class="cls-5" d="M75.7,564.9c-1.2,0-1.9-.6-2.3-2.1l-1.1-3.4h-7.9l-1.1,3.4c-.4,1.4-1.1,2-2.4,2s-2.3-.9-2.3-2.1,0-.9.3-1.4l6-16.2c.6-1.8,1.7-2.6,3.5-2.6s2.8.8,3.4,2.6l5.9,16.2c.2.6.3,1.1.3,1.4,0,1.3-.9,2.1-2.3,2.1h0ZM71.2,556l-2.8-8.9h-.1l-2.9,8.9h5.8Z"/>
    <text class="cls-10" transform="translate(549.5 122.5)"><tspan x="0" y="0">攻方 重生点</tspan></text>
    <text class="cls-10" transform="translate(375.2 171.8)"><tspan x="0" y="0">A区 大厅</tspan></text>
    <text class="cls-10" transform="translate(215.7 320.8)"><tspan x="0" y="0">A区 商店</tspan></text>
    <text class="cls-10" transform="translate(131.4 508.4)"><tspan x="0" y="0">A区 金字塔</tspan></text>
    <text class="cls-10" transform="translate(356.2 705.9)"><tspan x="0" y="0">A区 坡道</tspan></text>
    <text class="cls-10" transform="translate(287 782.2)"><tspan x="0" y="0">A区 桥</tspan></text>
    <text class="cls-10" transform="translate(419.1 860.5)"><tspan x="0" y="0">守方 重生点</tspan></text>
    <text class="cls-10" transform="translate(678.5 911.1)"><tspan x="0" y="0">守方 拱门</tspan></text>
    <text class="cls-10" transform="translate(797.9 782.2)"><tspan x="0" y="0">B区 墙</tspan></text>
    <text class="cls-10" transform="translate(758.6 591.7)"><tspan x="0" y="0">B区 拐角</tspan></text>
    <text class="cls-10" transform="translate(594.8 797.9)"><tspan x="0" y="0">中区 高台</tspan></text>
    <text class="cls-10" transform="translate(700.5 718.9)"><tspan x="0" y="0">B区 隧道</tspan></text>
    <text class="cls-10" transform="translate(558.4 676.7)"><tspan x="0" y="0">中区 坡顶</tspan></text>
    <text class="cls-10" transform="translate(543.2 490)"><tspan x="0" y="0">中区 柱子</tspan></text>
    <text class="cls-10" transform="translate(357.8 539.7)"><tspan x="0" y="0">中区 木门</tspan></text>
    <text class="cls-10" transform="translate(696.9 366.4)"><tspan x="0" y="0">中区 大炮</tspan></text>
    <text class="cls-10" transform="translate(905.9 335.9)"><tspan x="0" y="0">B区 窗户</tspan></text>
    <text class="cls-10" transform="translate(909.3 509.3)"><tspan x="0" y="0">B区 大道</tspan></text>
    <text class="cls-10" transform="translate(995.6 718.9)"><tspan x="0" y="0">B区 后房</tspan></text>
    <text class="cls-10" transform="translate(363.1 398.6)"><tspan x="0" y="0">中区 大堂</tspan></text>
    <text class="cls-10" transform="translate(526.8 366.4)"><tspan x="0" y="0">中区 坡底</tspan></text>
  </g>
  <g id="Barrier">
    <line class="cls-8" x1="581.3" y1="819.1" x2="581.3" y2="796.8"/>
    <line class="cls-8" x1="683.9" y1="742.6" x2="683.9" y2="690.4"/>
    <line class="cls-8" x1="351.2" y1="560.6" x2="351.2" y2="516.8"/>
    <line class="cls-8" x1="231.3" y1="444.8" x2="78.3" y2="444.8"/>
    <line class="cls-8" x1="953.5" y1="581.5" x2="908.9" y2="581.5"/>
    <line class="cls-9" x1="593" y1="345.4" x2="532.3" y2="345.4"/>
    <line class="cls-9" x1="410" y1="345.4" x2="380.2" y2="345.4"/>
    <line class="cls-9" x1="312.1" y1="277.7" x2="297.6" y2="256"/>
    <line class="cls-9" x1="839.7" y1="456.7" x2="795.1" y2="456.7"/>
    <line class="cls-9" x1="847.9" y1="347.9" x2="847.9" y2="303.2"/>
  </g>
</svg>