<?xml version="1.0" encoding="UTF-8"?>
<svg id="_图层_1" data-name="图层 1" xmlns="http://www.w3.org/2000/svg" version="1.1" viewBox="0 0 1100 1000">
  <defs>
    <style>
      .cls-1 {
        fill: #32343b;
      }

      .cls-1, .cls-2, .cls-3, .cls-4, .cls-5, .cls-6 {
        stroke-width: 0px;
      }

      .cls-2 {
        fill: #575548;
      }

      .cls-3, .cls-7, .cls-8, .cls-9, .cls-10 {
        fill: none;
      }

      .cls-4 {
        fill: #646568;
      }

      .cls-7 {
        stroke: #814194;
      }

      .cls-7, .cls-8 {
        opacity: .8;
        stroke-width: 10px;
      }

      .cls-7, .cls-8, .cls-10 {
        stroke-miterlimit: 10;
      }

      .cls-8 {
        stroke: #6bc3c0;
      }

      .cls-9 {
        stroke-miterlimit: 10;
        stroke-width: 1.1px;
      }

      .cls-9, .cls-10 {
        stroke: #afabae;
      }

      .cls-10 {
        stroke-width: 1.1px;
      }

      .cls-5 {
        fill: #afabae;
      }

      .cls-6, .cls-11 {
        fill: #fff;
      }

      .cls-11 {
        font-family: SimHei, SimHei;
        font-size: 16px;
        isolation: isolate;
      }
    </style>
  </defs>
  <g id="_防守-微风岛屿" data-name="防守-微风岛屿">
    <g id="Body">
      <path class="cls-1" d="M1002.6,593.6v-1h-41.5v-56.4h34v-164.9h-16v-69.1h-127.6v-56.3c-7.2-38.5-39.4-54.4-39.4-54.4h-12.7c-8.7-3.3-8.6-10.6-8.6-10.6v-56.4l-12.8-64.9-130.8-51.1h-8.5l-79.8-6.4v-1.1h-7.4l-14.9,8.5h-2.1v70.2c11.8.3,13.8,34,13.8,34v3.9c0,1.6-.4,3.2-1.1,4.7l-4.3,8.5v4.3h-61.7v14.9h-9.7v-10.5h-10.5c-20.8-.7-34.6-4.8-40.8-7-2.3-.9-4.5-2.1-6.3-3.7l-39-35.2c-1.4-1.3-3.2-2.1-5.1-2.3l-11.6-1.6h-12.6l-20.8,2c-.7.1-1.4.3-2,.7-21.7,13.6-25.6,23.9-25.6,23.9v76.6h1.2v41.5l6.5,11.5-33.1,21.1h0l-30.7,19.6h-122.5l2.1,18.1v10.6l-3.1,16v30.8h25.4v46.8h-27.7v2.1c-15.7,9.4-52.1,108.5-52.1,108.5h-23.4v76.6l173.4,113.8h58.5v52.1h0v28.7h0v45.7c10.4,20.8,20.8,39.8,31.4,55,17.7,25.3,33.5,40.7,33.5,40.7h56.4v67h118.1l26.6-54.2h55.3v-10.6h14.9v10.6h183l16-21.3v-3.2l-11.7-8.6v-2l23.4-29.9h3.2l2.1,2.1h4.3l75.5-43.6h123.4l29.8-28.7v-201l-54.1-15.3h0ZM408,659.6v-10.6h10v-7.4h13.4v-43.6h-13.4v-62.9h8.5v-34h-8.5v-62.8h0v-9.6h56v48.9h-53.8v21.3h8.5v38.3h-8.5v5.3h23.4v16h67.7v160.6h84v35.1h0v41.5h-10.6v-8.5l-80.8-29.8h-85.1v-97.9h-10.6ZM401,372.4v8.5h-23.8v-8.5h23.8ZM608,408.6v-72.3h63.8l128.7,115.9v113.8h-146.8v-59.6h-34v-97.9h-11.7ZM526.1,201.1h91.5v10.6h-11.7v30.8h-70.2v-30.8h-9.6v-10.6h0ZM575,125.6h9.6v9.6h-9.6v-9.6ZM618.6,135.2v-9.6h9.6v9.6h-9.6ZM826.1,371.3v-6.4h5.3v6.4h-5.3ZM621.8,754.3v-6.4h8.5v6.4h-8.5ZM592,864.1v-30h-90.4v-9.6h83v-6.4h10.6v6.4h77.7l10.6-18.1v-36.2h-16v-16h-14.9v-6.4h30.8v-4.3h101.1v81.9h-1.1l-36.2,44.7h-2.1l-13.8-12.8h-34v5.3h-6.4v-5.3h-84v9.6h-14.9v-3h0ZM767.7,886.3l26.6-29.7,7.3,7.3-26.6,29.7s-7.3-7.3-7.3-7.3ZM917.5,591.5h-53.2v1.1l-20.2,21.3v2.1l11.7,11.7v2.1c-6.7,8.9-68.1,46.8-68.1,46.8h-2.1v13.8h-101.1v-70.2h114.9c31-8.1,36.2-40.4,36.2-40.4v-43.6h47.9v-4.3h6.4v4.3h27.7v55.3h0ZM914.3,370.3l-24.5,22.3v109.6h-6.4v-2.1h-33v-116.8h0v-38.5h63.8v25.5h0ZM772.9,230.9v1.1h12.8c18.6,3,22.3,20.2,22.3,20.2v119.1h-18.1v-10.6l-119.1-103.3v-45.6h-17v-10.6h17v-66h-9.6v-9.6h38.3c5.7,108.4,73.4,105.3,73.4,105.3ZM481.4,187.3v13.8h7.4v9.6h-14.9v127.6h59.6v70.2h-59.6v7.4h-56v-35.1h0v-188.3h53.8v-5.3h9.6ZM186.8,377.7h86.2l18.4-75.5h0l36.8-23.4h0l22.4,36v24.7h7.9v87h0v65.1h24.5v95.7h-24.9v4.3h-9.6v-47.9h32.3v-50h-32.3v-13.8l-28.7-26.6h-77.2v-60.6h-55.7v-14.9h0ZM309.1,754.3h6.4l34-20.2v-108.4h8.5v5.2h5.3v19.1h4.3v9.6h-9.6v102.1h-48.9v-7.4h0ZM359.1,790.4v34h83v8.5h-92.5v-16l-26.6-21.3h-13.8v-5.3h50ZM592,908.5v-14.9h14.9v14.9h-14.9Z"/>
    </g>
    <g id="Bombsite">
      <rect class="cls-2" x="875" y="658.5" width="112.8" height="113.8"/>
      <polyline class="cls-2" points="237.3 469.2 83.1 469.2 62.8 518.2 39.3 518.2 39.3 596 40.6 596.9 237.8 596.9 267.1 568.7 267.1 498.6 237.3 469.2"/>
      <rect class="cls-1" x="191.2" y="502.8" width="59.8" height="60.5"/>
      <rect class="cls-1" x="108.9" y="502.8" width="59.4" height="60.5"/>
      <rect class="cls-1" x="168.3" y="525.1" width="23.3" height="16"/>
      <path class="cls-1" d="M945.1,728.3l-5.1,2.4-3.5.5-5-.4-4.1-1.4-3.5-1.9-2.7-2.9-2.2-3.3-1.2-3s-.6-3.5-.6-3.7.4-3.5.4-3.5l.9-4.1.2-1.3-16.1-15.8,11.3-11.4,17.1,17.3,4.5-.5,3.8.4,2.9,1.3,4.8,2.7,1.9,2.2,2.2,2.9,1.2,3.4,1.1,3.7-.2,3.5-1.4,4.8-1.6,3-2.6,3-2.4,2.1h0Z"/>
    </g>
    <g id="Lines">
      <polygon class="cls-10" points="358.7 191 354.4 191 345.5 205 343.7 207.5 343.7 216.8 345.9 224 356.6 229.3 365 229.3 373.7 218.6 373.7 214.3 372.3 213.4 372.3 210.2 376.4 203.7 376.4 196.3 371.2 193.4 358.7 191"/>
      <path class="cls-5" d="M334.8,147.4l-.6-.5v-5.3l6.2-10.2,7.2-3.4h.3c0-.1.2-.3.2-.3l1.6-2.6h12.6l5,5v9.4l-2.8,3.9h-14.7l-15,4M334.6,148.6l15.5-4.3h14.9l3.2-4.6v-10.1l-5.6-5.6h-13.5l-1.9,3-7.6,3.5-6.5,10.7v6.2l1.5,1.2h0Z"/>
      <path class="cls-5" d="M395.3,342.6v-2.1h22.8v2.1h-22.8M394.2,343.7h24.9v-4.3h-24.9v4.3h0Z"/>
      <path class="cls-5" d="M358.5,342.6v-2.1h23v2.1h-23M357.4,343.7h25.1v-4.3h-25.1v4.3h0Z"/>
      <path class="cls-5" d="M350.6,339.4v-6.4h14.9v6.4h-14.9M349.5,340.5h17v-8.5h-17v8.5h0Z"/>
      <path class="cls-5" d="M367.5,339.4v-8.5h6.4v8.5h-6.4M366.4,340.5h8.5v-10.6h-8.5v10.6h0Z"/>
      <line class="cls-10" x1="372.9" y1="330.4" x2="350.2" y2="320.8"/>
      <line class="cls-10" x1="360.7" y1="332.5" x2="360.7" y2="325.3"/>
      <line class="cls-10" x1="366.9" y1="332.5" x2="366.9" y2="327.9"/>
      <path class="cls-5" d="M211.2,315v-28.7h12.8v28.7h-12.8M210.2,316h14.9v-30.8h-14.9v30.8h0Z"/>
      <path class="cls-5" d="M221.9,452.2v-13.8h20.6v13.8h-20.6M220.8,453.2h22.8v-16h-22.8v16h0Z"/>
      <path class="cls-5" d="M283.6,468.1v-14.9h13.8v14.9h-13.8M282.5,469.2h16v-17h-16v17h0Z"/>
      <path class="cls-5" d="M275.1,459.6v-6.4h7.4v6.4h-7.4M274,460.7h9.6v-8.5h-9.6v8.5h0Z"/>
      <path class="cls-5" d="M344.2,574.5v-5.3h4.3v5.3h-4.3M343.1,575.6h6.4v-7.4h-6.4v7.4h0Z"/>
      <path class="cls-5" d="M328.2,589.4v-13.8h20.2v13.8h-20.2M327.2,590.5h22.3v-16h-22.3v16h0Z"/>
      <path class="cls-5" d="M334.6,589.4v-13.8h13.8v13.8h-13.8M333.6,590.5h16v-16h-16v16h0Z"/>
      <polyline class="cls-10" points="324.5 702.3 324.5 589.9 349.1 589.9"/>
      <rect class="cls-9" x="231.9" y="633.4" width="60.4" height="22.3" transform="translate(-107.1 54.8) rotate(-9.9)"/>
      <rect class="cls-9" x="235.4" y="659.3" width="15.7" height="15" transform="translate(-111.3 51.9) rotate(-9.9)"/>
      <rect class="cls-9" x="250.3" y="657.3" width="7.2" height="7.4" transform="translate(-110.1 53.6) rotate(-9.9)"/>
      <polyline class="cls-10" points="237.5 597.2 267.1 568.7 267.1 498.6 237 468.8"/>
      <path class="cls-5" d="M192.1,562.8v-59.6h58.5v59.6h-58.5M191,563.9h60.6v-61.7h-60.6v61.7h0Z"/>
      <path class="cls-5" d="M109.1,562.8v-59.6h58.5v59.6h-58.5M108.1,563.9h60.6v-61.7h-60.6v61.7h0Z"/>
      <line class="cls-10" x1="191.3" y1="541" x2="168.3" y2="541"/>
      <line class="cls-10" x1="168.4" y1="524.9" x2="191.2" y2="524.9"/>
      <line class="cls-10" x1="353.1" y1="626.3" x2="353.1" y2="590.8"/>
      <line class="cls-10" x1="367.1" y1="653.7" x2="387.7" y2="653.7"/>
      <line class="cls-10" x1="408.6" y1="659.1" x2="397.4" y2="674.5"/>
      <path class="cls-5" d="M271.9,794.7v-3.2h37.2v3.2h-37.2M270.8,795.8h39.4v-5.3h-39.4v5.3h0Z"/>
      <path class="cls-5" d="M271.9,760.7v-3.2h37.2v3.2h-37.2M270.8,761.7h39.4v-5.3h-39.4v5.3h0Z"/>
      <path class="cls-5" d="M386.6,931.9v-4.3h7.4v4.3h-7.4M385.6,933h9.6v-6.4h-9.6v6.4h0Z"/>
      <path class="cls-5" d="M355.9,931.9v-5.3h9.6v5.3h-9.6M354.8,933h11.7v-7.4h-11.7v7.4h0Z"/>
      <polyline class="cls-10" points="324.9 919.7 340.4 919.7 343.8 932.7"/>
      <path class="cls-5" d="M606.9,904.3v-6.4h4.3v6.4h-4.3M605.9,905.3h6.4v-8.5h-6.4v8.5h0Z"/>
      <path class="cls-5" d="M689.9,944.7v-4.3h6.4v4.3h-6.4M688.8,945.8h8.5v-6.4h-8.5v6.4h0Z"/>
      <path class="cls-5" d="M517.6,824.5v-20.2h14.9v20.2h-14.9M516.5,825.6h17v-22.3h-17v22.3h0Z"/>
      <path class="cls-5" d="M517.6,824.5v-12.8h14.9v12.8h-14.9M516.5,825.6h17v-14.9h-17v14.9h0Z"/>
      <path class="cls-5" d="M595.2,733v-5.3h9.6v5.3h-9.6M594.2,734.1h11.7v-7.4h-11.7v7.4h0Z"/>
      <path class="cls-5" d="M595.2,739.4v-5.3h13.8v5.3h-13.8M594.2,740.5h16v-7.4h-16v7.4h0Z"/>
      <path class="cls-5" d="M595.2,747.9v-13.8h13.8v13.8h-13.8M594.2,749h16v-16h-16v16h0Z"/>
      <path class="cls-5" d="M581,678l-1.5-14.9,14.9-1.5,1.5,14.9-14.9,1.5M580,679.2l17-1.7-1.7-17-17,1.7,1.7,17h0Z"/>
      <path class="cls-5" d="M560.2,663.3l-4.9-2.3,5.6-11.9,4.9,2.3-5.6,11.9M560.8,664.7l6.6-13.8-6.9-3.3-6.6,13.8,6.9,3.3h0Z"/>
      <path class="cls-5" d="M527.2,642.6v-6.4h5.3v6.4h-5.3M526.1,643.7h7.4v-8.5h-7.4v8.5h0Z"/>
      <path class="cls-5" d="M511.2,642.6v-14.9h14.9v14.9h-14.9M510.1,643.7h17v-17h-17v17h0Z"/>
      <path class="cls-5" d="M616.4,681.7l-2.7-12.9,28.1-5.9,2.7,12.9-28.1,5.9M615.7,683l30.2-6.3-3.1-15-30.2,6.3,3.1,15h0Z"/>
      <path class="cls-5" d="M631.4,620.3v-60.6h22.3v4.1h-18.1v56.5h-4.3M630.3,621.3h6.4v-56.5h18.1v-6.3h-24.5v62.8h0Z"/>
      <path class="cls-5" d="M685.7,620.3v-17h13.8v17h-13.8M684.6,621.3h16v-19.1h-16v19.1h0Z"/>
      <path class="cls-5" d="M966.5,445.8v-13.7h28.7v13.7h-28.7M965.4,446.9h30.8v-15.8h-30.8v15.8h0Z"/>
      <path class="cls-5" d="M982.4,445.8v-13.7h12.8v13.7h-12.8M981.4,446.9h14.9v-15.8h-14.9v15.8h0Z"/>
      <path class="cls-5" d="M914.3,370.3v-7.4h64.9v7.4h-64.9M913.3,371.3h67v-9.6h-67v9.6h0Z"/>
      <path class="cls-5" d="M988.8,803.2v-29.8h29.8v29.8h-29.8M987.7,804.3h31.9v-31.9h-31.9v31.9h0Z"/>
      <path class="cls-5" d="M954.8,775.4v-2h33v2h-33M953.7,776.5h35.1v-4.1h-35.1v4.1h0Z"/>
      <path class="cls-5" d="M988.8,657.5v-29.8h29.8v29.8h-29.8M987.7,658.5h31.9v-31.9h-31.9v31.9h0Z"/>
      <path class="cls-5" d="M1016.5,772.4v-113.8h2v113.8h-2M1015.4,773.4h4.1v-115.9h-4.1v115.9h0Z"/>
      <path class="cls-5" d="M935.2,730.8c-9.7,0-17.4-7.9-17.4-17.4s7.9-17.4,17.4-17.4,17.4,7.9,17.4,17.4-7.9,17.4-17.4,17.4M935.2,731.8c10.2,0,18.5-8.3,18.5-18.5s-8.3-18.5-18.5-18.5-18.5,8.3-18.5,18.5,8.2,18.5,18.5,18.5h0Z"/>
      <path class="cls-5" d="M935.2,730.8c-9.7,0-17.4-7.9-17.4-17.4s.4-4.7,1.4-6.9l.3-.6-.5-.5-15.6-15.6,10.4-10.4,16.8,16.8.4.4h.5c1.3-.3,2.4-.5,3.7-.5,9.7,0,17.4,7.9,17.4,17.4s-7.9,17.4-17.4,17.4M935.2,731.8c10.2,0,18.5-8.3,18.5-18.5s-8.3-18.5-18.5-18.5-2.7.1-3.9.4l-17.4-17.6-11.9,11.9,16.4,16.4c-1,2.2-1.5,4.8-1.5,7.3-.1,10.2,8.1,18.5,18.4,18.5h0Z"/>
      <path class="cls-5" d="M935.2,730.8c-9.7,0-17.4-7.9-17.4-17.4s.4-4.7,1.4-6.9l.3-.6-.5-.5-3.5-3.5,10.4-10.4,4.6,4.6.4.4h.5c1.3-.3,2.4-.5,3.7-.5,9.7,0,17.4,7.9,17.4,17.4s-7.8,17.6-17.3,17.6M935.2,731.8c10.2,0,18.5-8.3,18.5-18.5s-8.3-18.5-18.5-18.5-2.7.1-3.9.4l-5.4-5.3-11.9,11.9,4.3,4.3c-1,2.2-1.5,4.8-1.5,7.3,0,10.1,8.2,18.4,18.5,18.4h0Z"/>
      <path class="cls-5" d="M834.6,810.7v-16h13.8v16h-13.8M833.5,811.7h16v-18.1h-16v18.1h0Z"/>
      <path class="cls-5" d="M829.3,810.7v-67h4.3v67h-4.3M828.2,811.7h6.4v-69.1h-6.4v69.1h0Z"/>
      <path class="cls-5" d="M731.4,743.6v-15.8h39.4v15.8h-39.4M730.3,744.7h41.5v-18h-41.5v18h0Z"/>
      <path class="cls-5" d="M738.8,743.6v-16h31.9v16h-31.9M737.8,744.7h34v-18.1h-34v18.1h0Z"/>
      <polyline class="cls-10" points="636.5 582.5 641.5 582.5 643.6 575 653.2 565.4 653.2 564.3"/>
      <rect class="cls-5" x="609.6" y="747.9" width="43.8" height="1.1"/>
      <path class="cls-5" d="M419.9,490.5v-12.8h53v12.8h-53M418.9,491.5h55.1v-14.9h-55.1v14.9h0Z"/>
      <line class="cls-10" x1="428.8" y1="429.5" x2="428.8" y2="415"/>
      <line class="cls-10" x1="453.2" y1="429.3" x2="453.2" y2="415.5"/>
      <polygon class="cls-5" points="912.5 371.3 913.4 371.3 913.4 370.7 912.5 370.7 912.5 371.3"/>
      <path class="cls-5" d="M606.8,863.8v-6.4h6.4v4.3h-3.2v2.1h-3.2M605.8,864.9h5.3v-2.1h3.2v-6.4h-8.5v8.5h0Z"/>
      <rect class="cls-3" x="606.9" y="940.4" width="11.7" height="5.3"/>
      <path class="cls-5" d="M607.9,944.7v-5.3h4.3v2.1h5.3v3.2h-9.6M606.8,945.8h11.7v-5.3h-5.3v-2.1h-6.4v7.4h0Z"/>
      <path class="cls-5" d="M727.5,386.3l-10.3-9.4,2.3-2.7,10.3,9.4-2.3,2.7M727.5,387.8l3.7-4.1-11.9-10.7-3.7,4.1,11.9,10.7h0Z"/>
      <path class="cls-5" d="M203.8,292.6v-6.4h6.4v6.4h-6.4M202.7,293.7h8.5v-8.5h-8.5v8.5h0Z"/>
      <path class="cls-5" d="M120.4,301.1l-1.8-14.9h9.6v14.9h-7.8M119.4,302.2h9.9v-17h-11.9l2,17h0Z"/>
      <path class="cls-5" d="M187.8,377.7v-13.8h13.8v13.8h-13.8M186.8,378.8h16v-16h-16v16h0Z"/>
      <path class="cls-5" d="M592,490.4v-6.3h7.4v6.3h-7.4M591,491.4h9.6v-8.4h-9.6v8.4h0Z"/>
      <path class="cls-5" d="M613.3,475.6v-6.4h6.4v6.4h-6.4M612.3,476.7h8.5v-8.5h-8.5v8.5h0Z"/>
      <path class="cls-5" d="M530.3,505.4v-13.8h25.8l-.6-1.5c-1-2.2-1.5-4.6-1.5-6.9,0-9.4,7.7-17,17-17s12.8,3.9,15.5,10l.3.6h32.9v28.7h-40.5v-7.2l-1.5.6c-2.1.9-4.4,1.4-6.6,1.4-3.3,0-6.6-1-9.4-2.8l-1.6-1.1v9.1l-29.9-.2M529.3,506.4h31.9v-8.3c2.9,1.9,6.3,3,9.9,3s4.9-.5,7-1.4v6.7h42.7v-30.8h-33.2c-2.9-6.3-9.1-10.6-16.5-10.6s-18.1,8.1-18.1,18.1.5,5.1,1.6,7.4h-25.3v16h0Z"/>
      <path class="cls-5" d="M1001.6,725.6v-27.7h13.8v27.7h-13.8M1000.5,726.6h16v-29.8h-16v29.8h0Z"/>
      <path class="cls-5" d="M1019.7,703.2v-7.4h7.4v7.4h-7.4M1018.6,704.3h9.6v-9.6h-9.6v9.6h0Z"/>
      <path class="cls-5" d="M1019.7,694.7v-42.5h14.9v42.5h-14.9M1018.6,695.8h17v-44.7h-17v44.7h0Z"/>
      <path class="cls-5" d="M1019.7,651.1v-6.4h6.4v6.4h-6.4M1018.6,652.2h8.5v-8.5h-8.5v8.5h0Z"/>
      <rect class="cls-5" x="884.6" y="772.4" width="70" height="1.1"/>
      <ellipse class="cls-10" cx="571.2" cy="483" rx="17.6" ry="17.7"/>
      <rect class="cls-5" x="586.8" y="490.4" width="33.5" height="1.1"/>
      <path class="cls-5" d="M495.7,558.6v-12.8h13.8v12.8h-13.8M494.6,559.6h16v-14.9h-16v14.9h0Z"/>
    </g>
    <g id="Outlines">
      <path class="cls-4" d="M393.1,998.9v-67h-56.4s-15.8-15.4-33.5-40.7c-10.6-15.2-21-34.1-31.4-55v-45.7h0v-28.7h0v-52.1h-58.5l-173.4-113.8v-76.6h23.4s36.4-99.1,52.1-108.5v-2.1h27.7v-46.8h-25.4v-30.8l3.1-16v-10.6l-2.1-18.1h122.4l30.7-19.6,33.1-21.1-6.5-11.5v-41.5h-1.2v-76.6s3.9-10.3,25.6-23.9c.6-.4,1.3-.6,2-.7l20.8-2h12.6l11.6,1.6c1.9.2,3.6,1.1,5.1,2.3l39,35.2c1.8,1.6,3.9,3,6.3,3.7,6.2,2.2,20,6.3,40.8,7h10.5v10.5h9.7v-14.9h61.7v-4.3l4.3-8.5c.7-1.5,1.1-3.1,1.1-4.7v-3.9s-2-33.7-13.8-34V9.3h2.1l14.9-8.5h7.4v1.1l79.7,6.4h8.5l130.8,51.1,12.8,64.9v56.4s-.2,7.3,8.6,10.6h12.7s32.1,15.8,39.4,54.4v56.3h127.6v69.1h16v164.9h-34v56.4h41.5v1l54.2,15v201l-29.8,28.7h-123.4l-75.5,43.6h-4.3l-2.1-2.1h-3.2l-23.4,29.9v2l11.7,8.6v3.2l-16,21.3h-183v-10.6h-14.9v10.6h-55.3l-26.6,54.2-118,.3M606.9,893.6h-14.9v14.9h14.9v-14.9M794.1,856.6l-26.6,29.7,7.3,7.3,26.6-29.7-7.3-7.3M784.6,743.6h-101.1v4.3h-30.8v6.4h14.9v16h16v36.2l-10.6,18.1h-77.7v-6.4h-10.6v6.4h-83v9.6h90.4v33h14.9v-9.6h84v5.3h6.4v-5.3h34l13.8,12.8h2.1l36.2-44.7h1.1v-81.9M442.1,824.5h-83v-34h-50v5.3h13.8l26.6,21.3v16h92.5v-8.5M595.2,754.3h0v-35.1h-84v-160.6h-67.7v-16h-23.4v-5.3h8.5v-38.3h-8.5v-21.3h53.8v-48.9h-56v9.6h0v62.8h8.5v34h-8.5v62.9h13.4v43.6h-13.4v7.4h-10v10.6h10.6v97.9h85.1l80.8,29.8v8.5h10.6v-41.6M367.5,650h-4.3v-19.1h-5.3v-5.2h-8.5v108.4l-34,20.2h-6.4v7.4h48.9v-102.1h9.6v-9.6M630.3,747.9h-8.5v6.4h8.5v-6.4M917.5,536.2h-27.7v-4.3h-6.4v4.3h-47.9v43.6s-5.2,32.3-36.2,40.4h-114.9v70.2h101.1v-13.8h2.1s61.4-37.9,68.1-46.8v-2.1l-11.7-11.7v-2.1l20.2-21.3v-1.1h53.2v-55.3M382.9,491.5h-24.5v-65.1h0v-87h-7.9v-24.7l-22.4-36h0l-36.8,23.4-18.4,75.5h-86.2v14.9h55.7v60.6h77.2l28.7,26.6v13.8h32.3v50h-32.3v47.9h9.6v-4.3h24.9v-95.7M671.8,336.2h-63.8v72.3h11.7v97.9h34v59.6h146.9v-113.8l-128.8-115.9M914.3,344.8h-63.8v38.5h0v116.8h33v2.1h6.4v-109.6l24.5-22.3v-25.5M533.4,338.4h-59.6v-127.6h14.9v-9.6h-7.4v-13.8h-9.7v5.3h-53.8v188.3h0v35.1h56v-7.4h59.6v-70.2M400.9,372.4h-23.8v8.5h23.8v-8.5M785.5,232h-12.8v-1.1h-.6c-6.7,0-67.3-2.9-72.9-105.3h-38.3v9.6h9.6v66h-17v10.6h17v45.6l119.1,103.3v10.6h18.1v-119.1c.2,0-3.5-17.2-22.2-20.2M831.3,365h-5.3v6.4h5.3v-6.4M617.5,201.1h-91.5v10.6h9.6v30.8h70.2v-30.8h11.7v-10.6M584.6,125.6h-9.6v9.6h9.6v-9.6M628.2,125.6h-9.6v9.6h9.6v-9.6M392,1000h119.9l.3-.6,26.3-53.6h55.7v-10.6h12.7v10.6h184.7l.3-.4,16-21.3.2-.3v-4.1l-.4-.3-11.3-8.2v-1.1l22.9-29.1h2.1l1.8,1.8.3.3h5.2c0-.1,75.3-43.5,75.3-43.5h123.6l.3-.3,29.8-28.7.3-.3v-202.4l-.9-.2-53.4-14.8v-1.2h-41.5v-54.1h34v-167.1h-16v-69.1h-127.6v-55.3h0c-3.8-20.2-14.5-34.1-22.8-42.3-8.9-8.8-16.9-12.8-17.2-13h-.2c0-.1-12.8-.1-12.8-.1-7.7-3-7.7-9.3-7.7-9.5v-56.4h0v-.2l-12.8-64.9v-.6c-.1,0-.6-.2-.6-.2L647.8,7.6h-.2c0-.1-8.7-.1-8.7-.1l-78.6-6.3h0V0h-9c0,.1-14.7,8.4-14.7,8.4h-3v72.4h1.1c8.8.2,12.2,23.8,12.8,32.9v3.9c0,1.4-.3,2.9-1,4.1l-4.3,8.5v.2c-.1,0-.1,3.4-.1,3.4h-61.7v14.9h-7.4v-10.5h-11.7c-20.5-.7-34.1-4.7-40.4-6.9-2.2-.9-4.1-2-6-3.5l-39-35.2c-1.6-1.4-3.5-2.3-5.6-2.7l-11.1-1.6h0c0-.1-1.1-.1-1.1-.1h-12.8c0,.1-20.2,2-20.2,2-.9.1-1.8.4-2.6.9-21.8,13.6-26,24-26.1,24.5v.2c-.1,0-.1,77.9-.1,77.9h1.2v40.8c.1,0,6.1,10.5,6.1,10.5l-32.2,20.5-30.4,19.4h-123.4v1.3c.1,0,2.2,18,2.2,18v10.4l-3.1,15.8h0v32.1h25.4v44.6h-27.7v2.7c-15.6,10.8-48.2,98.3-51.8,108h-23.7v78.3l.5.3,173.4,113.8.3.2h57.8v80.9h0v45.2c12.3,24.3,22.3,41.7,31.6,55.1,17.6,25.1,33.5,40.7,33.6,41l.3.3h55.7l-.2,67h0ZM605.8,907.4h-12.7v-12.7h12.7v12.7h0ZM800,864l-25.1,28-5.7-5.7,25.1-28,5.7,5.7h0ZM746.8,869.1h-1.2l-13.5-12.4-.3-.3h-35.6v5.3h-4.1v-5.3h-86.3v9.6h-12.7v-33h-90.4v-7.3h83v-6.4h8.4v6.4h79.4l.3-.5,10.6-18.1v-.2c.1,0,.1-37.5.1-37.5h-16v-16h-14.9v-4.1h30.8v-4.3h98.8v79.7h-.5l-.3.4-35.6,44.1h0ZM440.9,831.8h-90.3v-15.4l-.4-.3-26.6-21.3-.3-.2h-13.1v-3.1h47.8v34h83v6.3h0ZM594.1,794.6h-8.4v-8.2l-.7-.2-80.8-29.8h-.2c0-.1-84.1-.1-84.1-.1v-97.9h-10.6v-8.4h10v-7.4h13.4v-45.8h-13.4v-53.1h23.3v16h67.7v160.6h84v35.1h0v39.3h0ZM356.9,760.6h-46.7v-5.2h5.7c0-.1,34-20.3,34-20.3l.5-.3v-108h6.3v5.2h5.3v19.1h4.3v7.3h-9.6v102.1h.1ZM629.2,753.1h-6.3v-4.1h6.3v4.1h0ZM784.5,689.3h-98.8v-68h114c16.4-4.3,25.5-15.3,30.4-23.7,5.2-9.1,6.6-17.2,6.6-17.6h0v-42.7h47.9v-4.3h4.1v4.3h27.7v53.1h-53.2v1.7l-19.9,21-.3.3v3.1l.3.3,11.4,11.4v1.3c-7.3,8.9-62.9,43.4-67.2,46.2h-2.9v13.6h-.1ZM356.9,590.4h-7.3v-45.6h32.3v41.4h-24.9v4.3h-.1ZM799.5,564.8h-144.6v-59.6h-34v-97.9h-11.7v-70.1h62.2l128.1,115.3v112.2h0ZM888.7,501h-4.1v-2.1h-33v-116.8h0v-36.4h61.6v23.9l-24,22-.3.3v109h-.1ZM357.3,492.5h-7.8v-13.2l-.3-.3-28.7-26.6-.3-.3h-76.6v-60.6h-55.7v-12.7h85.9l.2-.9,18.3-75.1,35.4-22.6,21.7,34.8v25.4h8v152h-.1ZM472.8,476.5h-53.7v-46.7h53.7v46.7h0ZM472.8,414.8h-53.7v-35.1h0v-186h53.8v-5.3h7.4v13.8h7.4v7.3h-14.9v129.9h59.6v68h-59.6v7.4h-.1ZM399.8,379.7h-21.6v-6.3h21.6v6.3h0ZM806.9,370.2h-15.8v-10l-.4-.3-118.7-103v-46.3h-17v-8.4h17v-68.2h-9.6v-7.3h36.2c5.9,100.1,64.4,105.1,73.4,105.3v1.1h13.8c17,2.8,21,17.7,21.4,19.3v117.9h-.2ZM830.2,370.2h-3.1v-4.1h3.1v4.1h0ZM604.7,241.5h-68v-30.8h-9.6v-8.4h89.2v8.4h-11.7v30.8h0ZM583.5,134h-7.3v-7.3h7.3v7.3h0ZM627.1,134h-7.3v-7.3h7.3v7.3h0Z"/>
    </g>
    <g id="Callouts">
      <text class="cls-11" transform="translate(319 258.6)"><tspan x="0" y="0">A区 大厅</tspan></text>
      <text class="cls-11" transform="translate(357.5 438.8)"><tspan x="0" y="0">A区 大堂</tspan></text>
      <text class="cls-11" transform="translate(162.6 340.2)"><tspan x="0" y="0">A区 商店</tspan></text>
      <text class="cls-11" transform="translate(259.7 679.9)"><tspan x="0" y="0">黄箱</tspan></text>
      <text class="cls-11" transform="translate(112.6 493.1)"><tspan x="0" y="0">A区 金字塔</tspan></text>
      <text class="cls-11" transform="translate(385.6 525)"><tspan x="0" y="0">中区 木门</tspan></text>
      <text class="cls-11" transform="translate(344.2 612.3)"><tspan x="0" y="0">A区 开关</tspan></text>
      <text class="cls-11" transform="translate(341.2 325)"><tspan x="0" y="0">A区 绳索</tspan></text>
      <text class="cls-11" transform="translate(533.2 696.5)"><tspan x="0" y="0">中区 坡顶</tspan></text>
      <text class="cls-11" transform="translate(709.4 714.4)"><tspan x="0" y="0">B区 隧道</tspan></text>
      <text class="cls-11" transform="translate(604.2 795.2)"><tspan x="0" y="0">中区 高台</tspan></text>
      <text class="cls-11" transform="translate(517.2 485.7)"><tspan x="0" y="0">中区 柱子</tspan></text>
      <text class="cls-11" transform="translate(533.2 378.2)"><tspan x="0" y="0">中区 坡底</tspan></text>
      <text class="cls-11" transform="translate(454.6 428.9)"><tspan x="0" y="0">中区 滑道</tspan></text>
      <text class="cls-11" transform="translate(679.6 343.2)"><tspan x="0" y="0">中区 大炮</tspan></text>
      <text class="cls-11" transform="translate(896.6 336.8)"><tspan x="0" y="0">B区 窗口</tspan></text>
      <text class="cls-11" transform="translate(908.8 479.3)"><tspan x="0" y="0">B区 大道</tspan></text>
      <text class="cls-11" transform="translate(754.3 594.7)"><tspan x="0" y="0">拐角</tspan></text>
      <text class="cls-11" transform="translate(795.1 771.9)"><tspan x="0" y="0">B区 墙</tspan></text>
      <text class="cls-11" transform="translate(647 911.1)"><tspan x="0" y="0">守方 拱门</tspan></text>
      <text class="cls-11" transform="translate(346.1 687.8)"><tspan x="0" y="0">A区 铁门</tspan></text>
      <text class="cls-11" transform="translate(281.8 783)"><tspan x="0" y="0">A区 桥</tspan></text>
      <text class="cls-11" transform="translate(995.5 714.9)"><tspan x="0" y="0">B区 后房</tspan></text>
      <text class="cls-11" transform="translate(740.7 220.1)"><tspan x="0" y="0">攻方 蛇形道</tspan></text>
      <text class="cls-11" transform="translate(450.7 872.2)"><tspan x="0" y="0">守方 重生点</tspan></text>
      <text class="cls-11" transform="translate(562.4 79.6)"><tspan x="0" y="0">攻方 重生点</tspan></text>
      <path class="cls-6" d="M954.4,760.9v-17c0-1.5.9-2.3,2.2-2.3h7.2c4,0,6.6,2.1,6.6,5.4s-1.8,4.4-4,4.7h0c3,.3,5.1,2.4,5.1,5.3s-2.9,6.3-7.6,6.3h-7.3c-1.5,0-2.3-.9-2.2-2.3h0ZM962.1,750.6c2.4,0,3.8-1.1,3.8-2.9s-1.3-2.8-3.3-2.8h-3.7v5.6h3.2ZM962.8,759.8c2.7,0,4-1.2,4-3.2s-1.5-3.1-4.1-3.1h-3.8v6.3h3.9Z"/>
      <path class="cls-6" d="M84.8,566.7c-1.2,0-1.9-.6-2.3-2l-1.2-3.4h-7.9l-1.2,3.4c-.4,1.4-1.1,2-2.3,2s-2.2-.9-2.2-2.1.1-.9.3-1.5l6-16.2c.6-1.8,1.7-2.6,3.5-2.6s2.8.9,3.4,2.6l6,16.2c.2.5.3,1.1.3,1.5-.1,1.3-1,2.1-2.3,2.1h0ZM80.3,557.8l-2.9-8.9h-.1l-2.9,8.9h5.9Z"/>
    </g>
    <g id="Barrier">
      <line class="cls-8" x1="300.3" y1="247.4" x2="324.6" y2="282.4"/>
      <line class="cls-8" x1="358.5" y1="343.7" x2="419.1" y2="343.7"/>
      <line class="cls-8" x1="608" y1="350" x2="533.5" y2="350"/>
      <line class="cls-8" x1="799.5" y1="463.9" x2="852.7" y2="463.9"/>
      <line class="cls-8" x1="855.7" y1="345.8" x2="855.7" y2="300.4"/>
      <line class="cls-7" x1="962.3" y1="582.5" x2="917.5" y2="582.5"/>
      <line class="cls-7" x1="699.5" y1="689.3" x2="699.5" y2="743.5"/>
      <line class="cls-7" x1="590.9" y1="819.2" x2="590.9" y2="794.6"/>
      <line class="cls-7" x1="358" y1="717.2" x2="417.9" y2="717.2"/>
      <line class="cls-7" x1="220.8" y1="446.9" x2="90.2" y2="446.9"/>
      <line class="cls-7" x1="360.7" y1="543.7" x2="360.7" y2="491.5"/>
    </g>
  </g>
</svg>