<?xml version="1.0" encoding="UTF-8"?>
<svg id="_图层_1" data-name="图层 1" xmlns="http://www.w3.org/2000/svg" xmlns:xlink="http://www.w3.org/1999/xlink" version="1.1" viewBox="0 0 1100 1000">
  <defs>
    <style>
      .cls-1, .cls-2, .cls-3, .cls-4, .cls-5, .cls-6, .cls-7 {
        stroke-width: 0px;
      }

      .cls-1, .cls-5 {
        fill: #32343b;
      }

      .cls-2 {
        fill: #575548;
      }

      .cls-3 {
        fill: url(#_未命名的渐变_2);
      }

      .cls-3, .cls-5 {
        opacity: .4;
      }

      .cls-3, .cls-5, .cls-8 {
        isolation: isolate;
      }

      .cls-4 {
        fill: #646568;
      }

      .cls-9 {
        stroke: #814194;
      }

      .cls-9, .cls-10 {
        opacity: .8;
        stroke-width: 10px;
      }

      .cls-9, .cls-10, .cls-11 {
        fill: none;
        stroke-miterlimit: 10;
      }

      .cls-10 {
        stroke: #6bc3c0;
      }

      .cls-11 {
        stroke: #afabae;
        stroke-width: 1px;
      }

      .cls-6 {
        fill: #afabae;
      }

      .cls-7, .cls-8 {
        fill: #fff;
      }

      .cls-8 {
        font-family: SimHei, SimHei;
        font-size: 16px;
      }
    </style>
    <linearGradient id="_未命名的渐变_2" data-name="未命名的渐变 2" x1="3052.5" y1="645.8" x2="3082.7" y2="645.8" gradientTransform="translate(4088 .8) rotate(-180) scale(1 -1)" gradientUnits="userSpaceOnUse">
      <stop offset="0" stop-color="#575548"/>
      <stop offset=".2" stop-color="#32343b"/>
      <stop offset=".7" stop-color="#32343b"/>
      <stop offset="1" stop-color="#575548"/>
    </linearGradient>
  </defs>
  <g id="_防守-幽邃地窟" data-name="防守-幽邃地窟">
    <g id="Body">
      <rect class="cls-1" x="1055.3" y="413.5" width="8.3" height="52.1"/>
      <polygon class="cls-1" points="212.6 818.7 203.3 818.7 203.3 827 203.3 828.1 203.3 835.4 272 835.4 272 827 212.6 827 212.6 818.7"/>
      <path class="cls-1" d="M40.8,568.7v120.8h68.8v34.4h-34.4v68.7h137.5v-34.4h121.9v2.1h-2.1v64.6h2.1v2.1h-36.5v85.4h103.1v86.5h206.2v-86.5h138.5v-119.8h-34.4v-43.8h205.2v-34.4h-17.7v-16.7h150l8.5-16.7h14.4v-189.6h-103.1v-103.1h103.1v-52.1h-59.3v-42.7h-116.8v-50h-2.1v-2.1h6.2v-41.9l36.5-36.2v-59.4h-190.6v34.4h-103.1V1.1h-223.9v137.5h-68.8v-34.4h-137.5v137.5h34.4v86.5h-34.4v-34.4H75.2v34.4h-17.7v34.4h-12.5v34.4h72.9v34.4H40.8v68.7h16.7v68.7h-16.7,0ZM192.4,724h-31.8v-68.8h86.5v-129.2h8.3v11.5l8.3,38.8v76.8h2.1v2.1h-2.1v68.8h-71.3ZM435.5,568.7v-60.4h52.1v43.7h34.4v-29.1c1.9-1.1,3.1-3.1,3.1-5.4s-1.2-4.3-3.1-5.4v-32.7c1.9-1.1,3.1-3.1,3.1-5.4s-1.2-4.3-3.1-5.4v-32.7c1.9-1.1,3.1-3.1,3.1-5.4s-1.2-4.3-3.1-5.4v-62.5h52.2v34.3h-19.9v136.5l-7.3,2.1v32.3l7.3,3.5v27.7h1.1v107.3h-34.4v-107.3l-4.2-5.2h-22.9l-6.2,8.3v4.1l-32.6,49h-159.1v-2.1h2.1v-84.4h137.5,0ZM364.7,827v-2.1h2.1v-64.6h-2.1v-2.1h2.1v-68.7h86.5v34.4l34.4,34.4h103.1v-86.5h86.5v155.3l-16.4,16.6h-294v-16.7h-2.1ZM780.3,714.6v-129.2h51.1v60.4l19.8,19.8v48.9h-70.9ZM915.7,534.4h-187.5v68.7h17.8v34.4h-120.9v-172.9h93.9v-59.4h161.3v-16.7h35.5v145.9h0ZM960.5,328.1v8.3h-103.1v-16.6h8.4v8.2h94.7ZM865.8,243.8v59.5h-8.4v-61.5h8.4v2.1h0ZM788.6,172.9l16.7,16.7v104.1h-34.4v43.6l-25.3,16.9h-60.1v77h-60.4v-69.8h16.7v-67.7h-119.8v16.7h-17.7v-59.4h-8.3v-17.7h8.3v-60.4h69.8v34.4h103.1v-34.4h111.4ZM608.5,35.4v68.8h-69.8V35.4h69.8ZM296,370.8v-16.7h2.1v16.7h-2.1ZM315.5,396.9h16.9v-189.6h103.1v26h9.4v17.7h-9.4v25h-34.4v120.8h86.5v94.8h-103.1v60.4h-52.1v-86.4h-77.1v8.3h-8.3v-8.3h-34.7l-34.1-34.4v-34.4h137.2ZM75.1,500h68.8v68.7h-68.8v-68.7Z"/>
    </g>
    <g id="Bombsite">
      <polygon class="cls-2" points="40.7 638.5 212.6 638.5 212.6 588.2 212.6 568.7 212.6 516.7 143.8 516.7 143.8 568.7 75.2 568.7 75.2 516.7 57.4 516.7 57.4 568.7 40.7 568.7 40.7 638.5"/>
      <rect class="cls-1" x="92.4" y="568.4" width="101.9" height="34.1"/>
      <rect class="cls-1" x="143.4" y="534.9" width="16.5" height="33.5"/>
      <rect class="cls-1" x="160.1" y="552.6" width="34.2" height="15.5"/>
      <rect class="cls-1" x="160" y="544.3" width="16.7" height="8.5"/>
      <rect class="cls-2" x="951" y="595.8" width="95.9" height="84.3"/>
      <rect class="cls-2" x="1018.9" y="552.2" width="28" height="55.1"/>
      <rect class="cls-1" x="1002.9" y="610.4" width="32.6" height="17.9"/>
      <rect class="cls-1" x="1002.5" y="526.9" width="18.4" height="84.1"/>
      <rect class="cls-1" x="1017.6" y="526.8" width="18.4" height="25.4"/>
      <rect class="cls-1" x="987.1" y="594.3" width="15.6" height="16.7"/>
      <circle class="cls-1" cx="982.3" cy="607.6" r="3.8"/>
      <circle class="cls-1" cx="982.3" cy="598.9" r="3.8"/>
      <rect class="cls-5" x="951" y="664.6" width="95.9" height="15.6"/>
      <rect class="cls-5" x="1020.9" y="551.8" width="15.2" height="59.2"/>
      <rect class="cls-3" x="1005.3" y="628.6" width="30.2" height="35.9"/>
    </g>
    <g id="Lines">
      <rect class="cls-6" x="573" y="104" width="1.1" height="69"/>
      <path class="cls-6" d="M925.1,143.8v-30.2h-21.8v-9.4h20.8s12.5,0,12.5,0v39.6h-11.4M924.1,144.8h13.5v-41.7h-12.5s-22.9,0-22.9,0v11.5h21.8v30.2h0Z"/>
      <path class="cls-6" d="M802.8,187.2l-10.6-10.6,23.2-23.2,10.6,10.6-23.2,23.2M802.8,188.7l24.7-24.7-12-12-24.7,24.7,12,12h0Z"/>
      <rect class="cls-6" x="857.4" y="303" width="1.1" height="17"/>
      <path class="cls-6" d="M770.9,327.1v-33.4h33.4v33.4h-33.4M769.9,328.1h35.4v-35.4h-35.4v35.4h0Z"/>
      <rect class="cls-6" x="744.9" y="354" width="1" height="51.6"/>
      <rect class="cls-6" x="960.4" y="335.4" width="52.6" height="1.1"/>
      <path class="cls-6" d="M979.2,353.2v-16.7h14.6v16.7h-14.6M978.2,354.2h16.6v-18.8h-16.6v18.8h0Z"/>
      <path class="cls-6" d="M899,551v-16.6h15.7v16.6h-15.7M898,552.1h17.8v-18.7h-17.8v18.7h0Z"/>
      <path class="cls-6" d="M729.3,662.5v-25h15.7v25h-15.7M728.2,663.5h17.7v-27.1h-17.7v27.1h0Z"/>
      <path class="cls-6" d="M674.3,851.8l-10.9-10.9,10.7-10.7,10.9,10.9-10.7,10.7M674.3,853.3l12.1-12.1-12.3-12.3-12.1,12.1,12.3,12.3h0Z"/>
      <path class="cls-6" d="M565.7,999v-11.5h28.1v11.5h-28.1M564.7,1000h30.2v-13.6h-30.2v13.6h0Z"/>
      <path class="cls-6" d="M488.7,999v-11.5h28.1v11.5h-28.1M487.6,1000h30.2v-13.6h-30.2v13.6h0Z"/>
      <path class="cls-6" d="M424.1,999v-11.5h28.1v11.5h-28.1M423,1000h30.2v-13.6h-30.2v13.6h0Z"/>
      <path class="cls-6" d="M401.2,999v-9.4h6.3v9.4h-6.3M400.1,1000h8.4v-11.5h-8.4v11.5h0Z"/>
      <path class="cls-6" d="M367.8,860.4v-16.7h15.6v16.7h-15.6M366.8,861.4h17.7v-18.8h-17.7v18.8h0Z"/>
      <path class="cls-6" d="M384.5,852.1v-8.4h7.3v8.4h-7.3M383.5,853.1h9.4v-10.5h-9.4v10.5h0Z"/>
      <path class="cls-6" d="M531.4,722.9v-16.7h15.6v16.7h-15.6M530.3,724h17.7v-18.8h-17.7v18.8h0Z"/>
      <path class="cls-6" d="M299.1,670.8v-15.7h15.6v15.7h-15.6M298.1,671.9h17.7v-17.7h-17.7v17.7h0Z"/>
      <path class="cls-6" d="M315.8,662.5v-7.3h7.3v7.3h-7.3M314.7,663.5h9.4v-9.4h-9.4v9.4h0Z"/>
      <path class="cls-6" d="M591.8,516.7v-15.6h33.3v15.6h-33.3M590.8,517.7h35.4v-17.7h-35.4v17.7h0Z"/>
      <path class="cls-6" d="M609.5,500v-7.3h7.3v7.3h-7.3M608.5,501h9.4v-9.4h-9.4v9.4h0Z"/>
      <path class="cls-6" d="M617.8,500v-16.7h7.3v16.7h-7.3M616.8,501h9.4v-18.7h-9.4v18.7h0Z"/>
      <path class="cls-6" d="M522,301.1v-7.3h15.7v7.3h-15.7M520.9,302.1h17.7v-9.4h-17.7v9.4h0Z"/>
      <path class="cls-6" d="M505.3,327.1v-16.7h15.6v16.7h-15.6M504.3,328.1h17.7v-18.8h-17.7v18.8h0Z"/>
      <path class="cls-6" d="M273.1,171.9v-23.9h33.3v23.9h-33.3M272,172.9h35.4v-26h-35.4v26h0Z"/>
      <path class="cls-6" d="M273.1,156.3v-8.3h33.3v8.3h-33.3M272,157.3h35.4v-10.4h-35.4v10.4h0Z"/>
      <path class="cls-6" d="M75.1,327.1v-33.4h76v33.4h-76M74.1,328.2h78.1v-35.5h-78.1v35.5h0Z"/>
      <path class="cls-6" d="M101.2,327.1v-6.3h15.6v6.3h-15.6M100.2,328.2h17.7v-8.3h-17.7v8.3h0Z"/>
      <path class="cls-6" d="M179.3,396.9v-16.6h14.6v16.6h-14.6M178.3,398h16.7v-18.7h-16.7v18.7h0Z"/>
      <path class="cls-6" d="M40.7,446.9v-15.7h33.4v15.7h-33.4M39.7,447.9h35.5v-17.8h-35.5v17.8h0Z"/>
      <path class="cls-6" d="M75.1,792.7v-33.4h33.4v33.4h-33.4M74.1,793.8h35.4v-35.5h-35.4v35.5h0Z"/>
      <path class="cls-6" d="M434.5,363.6h87.7v-1h-68.9v-17.7h-17.7v-16.7h-1v34.4h0v1ZM435.5,345.8h16.7v16.7h-16.7v-16.7Z"/>
      <rect class="cls-6" x="298.1" y="259.4" width="1" height="137.7"/>
      <rect class="cls-6" x="142.8" y="293.3" width="1" height="34.4"/>
      <rect class="cls-6" x="247" y="473.8" width="1" height="52.5"/>
      <path class="cls-6" d="M189.3,465.5l-11.3-11.3,11.6-11.6,11.3,11.4-11.5,11.5M189.3,467l13-13-12.8-12.9-13.1,13.1,12.8,12.8h0Z"/>
      <path class="cls-6" d="M193.9,603.1h1v-51h-17.7v-8.3h-16.7v-9.4h-17.6v1h16.6v32.3h-17.1v1h51.4v33.3h-101v-33.4h-1v34.5h102.1ZM176.2,544.8v7.3h-15.6v-7.3h15.6ZM160.6,567.7v-14.6h33.3v14.6h-33.3Z"/>
      <rect class="cls-6" x="74.4" y="775" width="34.8" height="1"/>
      <rect class="cls-6" x="298" y="895.8" width="103.2" height="1"/>
      <rect class="cls-6" x="538.7" y="912.5" width="69.3" height="1"/>
      <polygon class="cls-6" points="1013.6 663.5 848.8 663.5 849.7 665.6 1013.6 665.6 1013.6 663.5"/>
      <rect class="cls-6" x="1058.4" y="665" width="2.1" height="16.4"/>
      <rect class="cls-6" x="1028.2" y="628.4" width="1" height="35.1"/>
      <rect class="cls-6" x="1012.6" y="628.3" width="1" height="35.6"/>
      <rect class="cls-6" x="1002.2" y="628.1" width="34.4" height="1"/>
      <rect class="cls-6" x="1035.5" y="526.1" width="1" height="102.4"/>
      <rect class="cls-6" x="1002.5" y="526.1" width="33.2" height="1"/>
      <rect class="cls-6" x="1002.2" y="526" width="1" height="102.8"/>
      <rect class="cls-6" x="968.8" y="577.1" width="33.7" height="1"/>
      <rect class="cls-6" x="968.8" y="577.6" width="1" height="17.2"/>
      <rect class="cls-6" x="969.3" y="593.8" width="33.2" height="1"/>
      <rect class="cls-6" x="986.6" y="610.5" width="16.1" height="1"/>
      <rect class="cls-6" x="986.6" y="594.6" width="1" height="16.3"/>
      <circle class="cls-11" cx="982.3" cy="607.6" r="3.9" transform="translate(306.6 1544.3) rotate(-85.9)"/>
      <circle class="cls-11" cx="982.3" cy="598.9" r="3.9" transform="translate(315.2 1536.2) rotate(-85.9)"/>
      <path class="cls-6" d="M898,627.9l-11.3-11.3,11.3-11.3,11.3,11.3-11.3,11.3M898,629.4l12.7-12.7-12.7-12.7-12.7,12.7,12.7,12.7h0Z"/>
      <path class="cls-6" d="M879.7,620.8l-11.3-11.3,11.3-11.3,11.3,11.3-11.3,11.3M879.7,622.2l12.7-12.7-12.7-12.7-12.7,12.7,12.7,12.7h0Z"/>
      <path class="cls-6" d="M775.4,335.9c-1.9,0-3.5-1.6-3.5-3.5s1.6-3.5,3.5-3.5,3.5,1.6,3.5,3.5-1.6,3.5-3.5,3.5M775.4,336.9c2.5,0,4.6-2.1,4.6-4.6s-2.1-4.6-4.6-4.6-4.6,2.1-4.6,4.6,2.1,4.6,4.6,4.6h0Z"/>
      <path class="cls-6" d="M784.6,335.9c-1.9,0-3.5-1.6-3.5-3.5s1.6-3.5,3.5-3.5,3.5,1.6,3.5,3.5-1.6,3.5-3.5,3.5M784.6,336.9c2.5,0,4.6-2.1,4.6-4.6s-2.1-4.6-4.6-4.6-4.6,2.1-4.6,4.6,2.1,4.6,4.6,4.6h0Z"/>
      <rect class="cls-6" x="719.9" y="396.9" width="1" height="8.7"/>
      <rect class="cls-6" x="719.9" y="354.1" width="1" height="8.4"/>
      <rect class="cls-6" x="1028.2" y="663.5" width="44.8" height="2.1"/>
    </g>
    <g id="Outlines">
      <g>
        <path class="cls-4" d="M1055.3,465.6v-52.1h8.3v52.1h-8.3M1054.2,466.7h10.5v-54.3h-10.5v54.3h0Z"/>
        <path class="cls-4" d="M203.3,835.4v-16.7h9.4v8.3h59.4v8.3h-68.7M202.2,836.5h70.9v-10.5h-59.4v-8.3h-11.6v18.9h0Z"/>
        <path class="cls-4" d="M401.2,998.9v-86.5h-103.1v-85.4h36.5v-2.1h-2.1v-64.6h2.1v-2.1h-121.9v34.4H75.2v-68.7h34.4v-34.4H40.8v-120.8h16.7v-68.7h-16.7v-68.7h77.1v-34.4H45v-34.4h12.5v-34.4h17.7v-34.4h137.5v34.4h34.4v-86.5h-34.4V104.2h137.5v34.4h68.8V1.1h223.9v137.5h103.1v-34.4h190.6v59.4l-36.5,36.2v41.9h-6.2v2.1h2.1v50h116.8v42.7h59.3v52.1h-103.1v103.1h103.1v189.6h-14.4l-8.5,16.7h-150v16.7h17.7v34.4h-205.2v43.8h34.4v119.8h-138.5v86.4h-206.2M677.2,671.9h-86.5v86.5h-103.1l-34.4-34.4v-34.4h-86.5v68.7h-2.1v2.1h2.1v64.6h-2.1v2.1h2.1v16.7h294l16.4-16.6v-155.3M265.8,653.1h-2.1v-76.8l-8.3-38.8v-11.5h-8.3v129.2h-86.5v68.8h103.1v-68.8h2.1v-2.1M831.4,585.4h-51.1v129.2h70.9v-48.9l-19.8-19.8v-60.4M555.3,599h-1.1v-27.7l-7.3-3.5v-32.3l7.3-2.1v-136.5h19.9v-34.3h-52.2v62.5c1.9,1.1,3.1,3.1,3.1,5.4s-1.2,4.3-3.1,5.4v32.7c1.9,1.1,3.1,3.1,3.1,5.4s-1.2,4.3-3.1,5.4v32.7c1.9,1.1,3.1,3.1,3.1,5.4s-1.2,4.3-3.1,5.4v29.1h-34.4v-43.7h-52.1v60.4h-137.5v84.4h-2.1v2.1h159.1l32.6-49v-4.1l6.2-8.3h22.9l4.2,5.2v107.3h34.4v-107.3M746,603.1h-17.8v-68.7h187.5v-145.9h-35.5v16.7h-161.3v59.4h-93.9v172.9h120.9v-34.4M143.9,500h-68.8v68.7h68.8v-68.7M487.6,396.9h-86.5v-120.8h34.4v-25h9.4v-17.7h-9.4v-26h-103.1v189.6h-154.1v34.4l34.1,34.4h34.7v8.3h8.3v-8.3h77.1v86.4h52.1v-60.4h103.1v-94.8M788.6,172.9h-111.4v34.4h-103.1v-34.4h-69.8v60.4h-8.3v17.7h8.3v59.4h17.7v-16.7h119.8v67.7h-16.7v69.8h60.4v-77h60.1l25.3-16.9v-43.6h34.4v-104.1l-16.7-16.7M298.1,354.2h-2.1v16.7h2.1v-16.7M960.5,328.1h-94.7v-8.2h-8.4v16.6h103.1v-8.3M865.8,241.7h-8.4v61.5h8.4v-61.5M608.5,35.4h-69.8v68.8h69.8V35.4M400.1,1000h208.4v-86.5h138.5v-122h-34.4v-41.6h205.2v-36.6h-17.7v-14.5h149.5l.3-.6,8.2-16.1h14.8v-191.8h-103.1v-100.9h103.1v-54.3h-59.3v-42.7h-116.8v-49.9h4.2v-42.5l36.1-35.9.3-.3v-60.9h-192.8v34.4h-100.9V0h-226.1v137.5h-66.6v-34.4h-139.7v139.7h34.4v84.3h-32.2v-34.4H74.1v34.4h-17.7v34.4h-12.5v36.6h72.9v32.2H39.7v70.9h16.7v66.6h-16.7v123h68.8v32.2h-34.4v70.9h139.7v-34.4h117.6v66.6h-34.4v87.6h103.1v86.5h0ZM660.4,842.6h-292.5v-16.7h0v-135.3h84.3v33.7l.3.3,34.4,34.4.3.3h104.7v-86.5h84.3v153.7l-15.7,15.9h0ZM262.6,722.9h-100.9v-66.6h86.5v-129.2h6.1v10.5h0c0,.1,8.3,38.8,8.3,38.8v146.4h0ZM850.1,713.5h-68.7v-127h48.9v59.8l.3.3,19.5,19.5v47.4h0ZM554.3,705.1h-32.2v-106.6l-.2-.3-4.2-5.2-.3-.4h-24l-.3.4-6.2,8.3-.2.3v4.2l-32.1,48.2h-155.4v-84.3h137.5v-60.4h49.9v43.7h36.5v-29.6c1.9-1.4,3.1-3.6,3.1-6s-1.2-4.6-3.1-6v-31.5c1.9-1.4,3.1-3.6,3.1-6s-1.2-4.6-3.1-6v-31.5c1.9-1.4,3.1-3.6,3.1-6s-1.2-4.6-3.1-6v-60.8h50v32.2h-19.9v136.7l-6.5,1.9-.8.2v33.8l.6.3,6.7,3.2v28.1h1.1v105.1h0ZM744.9,636.4h-118.7v-170.7h93.9v-59.4h161.3v-16.7h33.3v143.7h-187.5v70.9h17.8v32.2h0ZM142.8,567.7h-66.6v-66.6h66.6v66.6h0ZM383.4,551h-49.9v-86.4h-79.3v8.3h-6.1v-8.3h-35.3l-33.4-33.7v-32.8h154.1v-189.6h100.9v26h9.4v15.5h-9.4v25h-34.4v123h86.5v92.6h-103.1v60.4h0ZM684.4,430.2h-58.2v-67.6h16.7v-69.9h-122v16.7h-15.5v-59.4h-8.3v-15.5h8.3v-60.4h67.6v34.4h105.3v-34.4h109.9l16.1,16.1v102.5h-34.4v44.1l-24.5,16.4h-60.9v77h0ZM959.4,335.4h-101v-14.4h6.3v8.2h94.7v6.1h0ZM864.7,302.1h-6.3v-59.4h6.3v59.4h0ZM607.4,103.1h-67.6V36.5h67.6v66.6h0Z"/>
      </g>
    </g>
    <g id="Callouts">
      <text class="cls-8" transform="translate(457 956.2)"><tspan x="0" y="0">守方 重生点</tspan></text>
      <text class="cls-8" transform="translate(431.8 69.8)"><tspan x="0" y="0">攻方 重生点</tspan></text>
      <text class="cls-8" transform="translate(836 151.4)"><tspan x="0" y="0">B区 大厅</tspan></text>
      <text class="cls-8" transform="translate(933.1 315.2)"><tspan x="0" y="0">B区 高台</tspan></text>
      <text class="cls-8" transform="translate(772.6 370.8)"><tspan x="0" y="0">B区 大道</tspan></text>
      <text class="cls-8" transform="translate(625.5 450.9)"><tspan x="0" y="0">中区 拐角</tspan></text>
      <text class="cls-8" transform="translate(831.7 732.8)"><tspan x="0" y="0">B区 瞭望台</tspan></text>
      <text class="cls-8" transform="translate(537 550.4)"><tspan x="0" y="0">中区 图书馆</tspan></text>
      <text class="cls-8" transform="translate(539.1 327.6)"><tspan x="0" y="0">中区 坡底</tspan></text>
      <text class="cls-8" transform="translate(492.2 739.8)"><tspan x="0" y="0">中区 坡顶</tspan></text>
      <text class="cls-8" transform="translate(691.1 692.1)"><tspan x="0" y="0">B区 小道</tspan></text>
      <text class="cls-8" transform="translate(454.5 466.7)"><tspan x="0" y="0">中区 天桥</tspan></text>
      <text class="cls-8" transform="translate(358.6 532.2)"><tspan x="0" y="0">A区 通风口</tspan></text>
      <text class="cls-8" transform="translate(248.3 500.9)"><tspan x="0" y="0">A区 瞭望台</tspan></text>
      <text class="cls-8" transform="translate(244.5 192.2)"><tspan x="0" y="0">A区 大厅</tspan></text>
      <text class="cls-8" transform="translate(110.2 351.8)"><tspan x="0" y="0">A区 大道</tspan></text>
      <text class="cls-8" transform="translate(27 532.2)"><tspan x="0" y="0">A区 窄桥</tspan></text>
      <text class="cls-8" transform="translate(279.2 709.1)"><tspan x="0" y="0">A区 小道</tspan></text>
      <text class="cls-8" transform="translate(119.5 759.6)"><tspan x="0" y="0">A区 保安室</tspan></text>
      <text class="cls-8" transform="translate(199.5 833.7)"><tspan x="0" y="0">A区 密道</tspan></text>
      <text class="cls-8" transform="translate(999.3 442.2)"><tspan x="0" y="0">中区 险路</tspan></text>
      <path id="B" class="cls-7" d="M927,622.6v-16.6c0-1.5.8-2.3,2.2-2.3h7c4,0,6.5,2.1,6.5,5.3s-1.7,4.3-4,4.6h0c2.9.3,5,2.4,5,5.3s-2.8,6.1-7.4,6.1h-7.2c-1.4,0-2.2-.9-2.2-2.3h0ZM934.7,612.5c2.4,0,3.7-1.1,3.7-2.8s-1.2-2.7-3.3-2.7h-3.7v5.5h3.2,0ZM935.3,621.7c2.6,0,3.9-1.1,3.9-3.1s-1.4-3.1-4.1-3.1h-3.7v6.2h3.8Z"/>
      <path id="A" class="cls-7" d="M74.7,630.5c-1.2,0-1.8-.6-2.3-2l-1.1-3.3h-7.7l-1.1,3.4c-.4,1.4-1.1,2-2.3,2s-2.2-.9-2.2-2.1,0-.8.3-1.4l5.8-15.8c.6-1.7,1.7-2.5,3.4-2.5s2.7.8,3.3,2.5l5.8,15.8c.2.5.3,1.1.3,1.4,0,1.3-.9,2.1-2.3,2.1h0ZM70.3,621.7l-2.8-8.7h-.1l-2.8,8.7h5.7Z"/>
    </g>
    <g id="Barrier">
      <line class="cls-10" x1="896.8" y1="246.5" x2="864.7" y2="246.5"/>
      <line class="cls-10" x1="858.5" y1="288.6" x2="804.2" y2="288.6"/>
      <line class="cls-10" x1="497" y1="243" x2="443.8" y2="243"/>
      <line class="cls-10" x1="333.5" y1="230.2" x2="211.6" y2="230.2"/>
      <line class="cls-9" x1="1073" y1="489.6" x2="914.7" y2="489.6"/>
      <line class="cls-9" x1="592.1" y1="701.3" x2="554.3" y2="701.3"/>
      <line class="cls-9" x1="522" y1="650" x2="454.9" y2="650"/>
      <line class="cls-9" x1="672" y1="673" x2="672" y2="636.4"/>
      <line class="cls-9" x1="179.3" y1="415.2" x2="116.8" y2="415.2"/>
      <line class="cls-9" x1="337.6" y1="569.8" x2="337.6" y2="551"/>
    </g>
  </g>
</svg>