<?xml version="1.0" encoding="UTF-8"?>
<svg id="_图层_1" data-name="图层 1" xmlns="http://www.w3.org/2000/svg" version="1.1" viewBox="0 0 1100 1000">
  <defs>
    <style>
      .cls-1 {
        fill: #32343b;
      }

      .cls-1, .cls-2, .cls-3, .cls-4, .cls-5 {
        stroke-width: 0px;
      }

      .cls-2 {
        fill: #575548;
      }

      .cls-3 {
        fill: #646568;
      }

      .cls-6 {
        opacity: .8;
      }

      .cls-7 {
        stroke: #afabae;
        stroke-width: .5px;
      }

      .cls-7, .cls-8, .cls-9 {
        fill: none;
        stroke-miterlimit: 10;
      }

      .cls-4 {
        fill: #afabae;
      }

      .cls-8 {
        stroke: #814194;
      }

      .cls-8, .cls-9 {
        stroke-width: 10px;
      }

      .cls-9 {
        stroke: #6bc3c0;
      }

      .cls-5, .cls-10 {
        fill: #fff;
      }

      .cls-10 {
        font-family: SimHei, SimHei;
        font-size: 16px;
        isolation: isolate;
      }
    </style>
  </defs>
  <g id="_防守-盐海矿镇" data-name="防守-盐海矿镇">
    <g id="Body">
      <path class="cls-1" d="M197.7,480.7v29.8h-88.3v58.5h29.8v7.3h-29.8v154h59.5v-28.8h7.2v43.1h87.3v29.8h-36v117.1h146.9v-28.8h58.5v80.1h90.4v56.5h65.7v-56.5h78.1v-80.1h118.1v28.8h145.9v-88.3h-36v-28.8h95.5v-58.5h0v-88.3h-88.3v-29.8h28.8v-58.5h-36v-28.8h35.9v-74h-138.6v29.9h-7.2v-74.6h28.8v-116.5h-117.1v-68.8h28.8v-107.3l-126.3-44.3V3.6l-2.6-3.1h-95.5l-2.1,3.1v56.9c-10.6,3.9-17.3,9.3-17.3,9.3l-71.6,46.8v5.6h-36v79.6h28.8v44.7h-117.1v117.1h-117.1v88.3h35.9v28.8h-7.2,0ZM168.9,671.8v-102.7h117.1v58.6h-7.2v-51.4h-102.7v95.5h-7.2ZM307.6,774.5v-29.8h37v-58.5h-117.1v-28.8h117.1v-74h58.5v29.8h74v-95.5h-15.4v-7.2h30.8s28.8,0,28.8,0v4.1h-26.7v54.4h33.9v29.3h-22.6v59.1h29.8v28.8h-74v88.3h-58.5v29.8h-80.1v28.8h-8.2v-58.5h-7.2,0ZM608.5,757v47.3l-30.3,57h-56.5l-30.3-56.5v-88.8h117.1v41h0ZM850.9,803.3h-7.2v29.8h-7.2v-29.8h-139.7v-28.8h-58.5v-66.3h0v-22h-74v-28.8h44.2v-29.8h7.2v22.6h81.1v-22.6h58.6v9.2h0v49.3h29.8v14.4h-29.8v44.2h88.3v29.8h7.2v28.8h0ZM931.1,716h-117.1v-29.8h109.9v-28.8h7.2v58.5h0ZM755.5,341h-29.8v169.5h125.3v28.8h-125.3v59.6h-28.8v-22.6h-37.5l-21.5,22.6h-17.6c0,0-48.7,0-48.7,0v-29.7h37v-88.3h-28.8v-28.8h28.8v-58.5h-28.8v-68.6h0v-19.8h58.6v28.8h117.1v7.2h0ZM461.6,167.9v-9.7h176.7v48.3h0v67.8h-6.2v-27.8h-140.7v88.3h-29.8v-166.9ZM256.2,452v-29.8h29.8v29.8h88.3v-146.9h28.8v58.5h118.1v29.8h-28.8v87.8h-6.2v-29.3h-83.2v58.5h30.3v44.2h-59.1v-44.2h-60.7c-.6-.5-54.9-29.8-54.9-29.8h-9.8v-28.8h7.2Z"/>
    </g>
    <g id="Bombsite">
      <rect class="cls-2" x="176" y="576.2" width="102.8" height="81.2"/>
      <polygon class="cls-2" points="811.9 583.6 811.9 590 796.8 590 796.8 635.1 811.9 635.1 811.9 642 783.4 642 783.4 656.4 811.9 656.4 826.4 656.4 870.6 656.4 870.6 627.5 856.1 627.5 856.1 598.1 870.6 598.1 870.6 568.6 814 568.6 811.9 568.6 783.2 568.6 783.2 583.6 811.9 583.6"/>
    </g>
    <g id="Lines">
      <path class="cls-4" d="M536.4,16.4l-12.1-10.2V.5h24.1v5.6l-12.1,10.2M536.4,17l12.6-10.7V0h-25.1v6.4l12.6,10.7h0Z"/>
      <path class="cls-4" d="M544.4,118.7l-7.5-13.3,7.5-13.3h15l7.5,13.3-7.5,13.3h-15M544.1,119.2h15.6l7.8-13.9-7.8-13.9h-15.6l-7.8,13.9,7.8,13.9h0Z"/>
      <polygon class="cls-7" points="632.5 84.4 641.7 87.7 645.5 77 650.8 72.6 635.8 67.4 636.3 73.7 632.5 84.4"/>
      <polygon class="cls-7" points="455.2 105.7 462.5 100.9 456.4 92.4 455.9 86.5 444.3 94.1 449.2 97.2 455.2 105.7"/>
      <path class="cls-4" d="M502.7,158.2v-5.6h6.2v5.6h-6.2M502.2,158.7h7.2v-6.7h-7.2v6.7h0Z"/>
      <path class="cls-4" d="M722.6,180.3v-4.1h3.1v4.1h-3.1M722,180.8h4.1v-5.1h-4.1v5.1h0Z"/>
      <path class="cls-4" d="M448.3,260.4v-28.8h13.4v28.8h-13.4M447.8,260.9h14.4v-29.8h-14.4v29.8h0Z"/>
      <path class="cls-4" d="M323.5,260.4v-13.9h13.4v13.9h-13.4M323,260.9h14.4v-14.9h-14.4v14.9h0Z"/>
      <path class="cls-4" d="M359.4,319v-13.3h14.9v13.3h-14.9M358.9,319.5h15.9v-14.4h-15.9v14.4h0Z"/>
      <path class="cls-4" d="M491.4,262v-15.4h58.1v15.4h-58.1M490.9,262.5h59.1v-16.5h-59.1v16.5h0Z"/>
      <path class="cls-4" d="M554.3,262c-2.1,0-3.8-1.7-3.8-3.8s1.7-3.8,3.8-3.8,3.8,1.7,3.8,3.8-1.7,3.8-3.8,3.8M554.3,262.5c2.4,0,4.4-2,4.4-4.4s-2-4.4-4.4-4.4-4.4,2-4.4,4.4,2,4.4,4.4,4.4h0Z"/>
      <path class="cls-4" d="M638.3,333.9v-13.9h13.9v13.9h-13.9M637.8,334.4h14.9v-14.9h-14.9v14.9h0Z"/>
      <path class="cls-4" d="M777.5,282v-6.7h14.4v6.7h-14.4M777,282.5h15.4v-7.7h-15.4v7.7h0Z"/>
      <path class="cls-4" d="M564.9,355.9v-13.3h14.9v13.3h-14.9M564.4,356.4h15.9v-14.3h-15.9v14.3h0Z"/>
      <path class="cls-4" d="M220.8,377.5v-13.9h13.3v13.9h-13.3M220.3,378h14.4v-14.9h-14.4v14.9h0Z"/>
      <path class="cls-4" d="M917.2,451.5v-14.9h13.9v14.9h-13.9M916.7,452h14.9v-15.9h-14.9v15.9h0Z"/>
      <path class="cls-4" d="M828.9,510.5v-14.9h14.3v14.9h-14.3M828.4,511.1h15.4v-15.9h-15.4v15.9h0Z"/>
      <path class="cls-4" d="M828.9,659v-2.1h42.1v-29.8h-14.4v-28.8h14.4v-30.3h-42.1v-2h44.2v93h-44.2M828.3,659.5h45.2v-94h-45.2v3.1h42.1v29.3h-14.4v29.8h14.4v28.8h-42.1v3.1h0Z"/>
      <path class="cls-4" d="M492.5,444.3v-14.4h13.4v14.4h-13.4M491.9,444.8h14.4v-15.4h-14.4v15.4h0Z"/>
      <path class="cls-4" d="M521.2,514.1v-3.1h25.2v-58.6h3.1v61.6h-28.2M520.7,514.6h29.3v-62.7h-4.1v58.6h-25.2v4.1h0Z"/>
      <path class="cls-4" d="M539.2,487.4v-13.3h6.2v13.3h-6.2M538.7,487.9h7.2v-14.4h-7.2v14.4h0Z"/>
      <path class="cls-4" d="M763.1,554.2v-14.9h13.4v14.9h-13.4M762.6,554.7h14.4v-15.9h-14.4v15.9h0Z"/>
      <path class="cls-4" d="M975.7,708.3v-14.4h14.9v14.4h-14.9M975.2,708.8h15.9v-15.4h-15.9v15.4h0Z"/>
      <path class="cls-4" d="M917.2,729.8v-13.9h13.3v13.9h-13.3M916.7,730.3h14.4v-14.9h-14.4v14.9h0Z"/>
      <path class="cls-4" d="M844.3,751.4v-13.4h6.2v13.4h-6.2M843.8,751.9h7.2v-14.4h-7.2v14.4h0Z"/>
      <path class="cls-4" d="M535.6,670.8v-7.7h28.8v7.7h-28.8M535.1,671.3h29.8v-8.7h-29.8v8.7h0Z"/>
      <path class="cls-4" d="M286,363.1v-24.6h13.8v14.4h29.8v10.3h-43.6M285.5,363.6h44.7v-11.3h-29.8v-14.4h-14.9v25.7h0Z"/>
      <path class="cls-4" d="M183.3,538.8v-27.7h13.9v27.7h-13.9M182.8,539.3h14.9v-28.8h-14.9v28.8h0Z"/>
      <path class="cls-4" d="M308.6,522.6l-12.7-6.9,6.3-11.5,11.4,6.2h.1c0,0,.1,0,.1,0h.2s1.2,0,1.2,0l-6.6,12.1M308.8,523.3l7.2-13.3h-2.2s-11.8-6.5-11.8-6.5l-6.8,12.4,13.6,7.4h0Z"/>
      <path class="cls-4" d="M154,634.3v-13.3h14.9v13.3h-14.9M153.5,634.8h15.9v-14.4h-15.9v14.4h0Z"/>
      <g>
        <rect class="cls-1" x="175.8" y="613.5" width="14.4" height="13.9"/>
        <path class="cls-4" d="M176.1,627.1v-13.4h13.9v13.4h-13.9M175.6,627.6h14.9v-14.4h-14.9v14.4h0Z"/>
      </g>
      <g>
        <rect class="cls-1" x="227.7" y="642.3" width="13.9" height="15.4"/>
        <path class="cls-4" d="M228,657.4v-14.9h13.3v14.9h-13.3M227.5,657.9h14.4v-15.9h-14.4v15.9h0Z"/>
      </g>
      <path class="cls-4" d="M279.3,701.1v-14.9h13.3v14.9h-13.3M278.8,701.6h14.4v-15.9h-14.4v15.9h0Z"/>
      <rect class="cls-4" x="960.3" y="627.6" width="2.1" height="88.8"/>
      <rect class="cls-4" x="842.2" y="716" width="2" height="28.8"/>
      <polygon class="cls-4" points="785.2 686.2 785.2 680.5 814 680.5 814 686.2 816 686.2 816 678.5 815 678.5 814 678.5 785.2 678.5 783.4 678.5 783.2 678.5 783.2 686.2 785.2 686.2"/>
      <rect class="cls-4" x="167.9" y="537.3" width="15" height="2"/>
      <path class="cls-4" d="M783.7,641.5v-57.5h27.7v5.7h-14.9v46.1h14.9v5.7h-27.7M783.2,642h28.8v-6.7h-14.9v-45.1h14.9v-6.7h-28.8v58.5h0Z"/>
      <polygon class="cls-7" points="520 598.1 505.5 613.1 505.5 598.1 520 598.1"/>
      <path class="cls-4" d="M656.2,333.9c-1.8-.4-3.1-2-3.1-3.8s1.8-3.9,3.9-3.9,3.9,1.8,3.9,3.9-1.3,3.4-3.1,3.8h-1.7M656.1,334.4h1.8c2-.4,3.5-2.2,3.5-4.3s-2-4.4-4.4-4.4-4.4,2-4.4,4.4,1.5,3.9,3.5,4.3h0Z"/>
      <path class="cls-4" d="M554.3,253.8c-2.1,0-3.8-1.6-3.8-3.7s1.2-3.2,3-3.6h1.8c1.7.4,3,1.9,3,3.6s-1.7,3.7-3.8,3.7M554.3,254.3c2.4,0,4.4-1.9,4.4-4.2s-1.5-3.7-3.4-4.1h-1.9c-2,.4-3.4,2.1-3.4,4.1s2,4.2,4.4,4.2h0Z"/>
    </g>
    <g id="Outlines">
      <path class="cls-3" d="M523.3,999.5v-56.5h-90.4v-80.1h-58.5v28.8h-146.9v-117.1h36v-29.8h-87.3v-43.1h-7.2v28.8h-59.5v-154h29.8v-7.3h-29.8v-58.5h88.3v-29.8h7.2v-28.8h-35.9v-88.3h117.1v-117.1h117.1v-44.7h-28.8v-79.6h36v-5.6l71.6-46.8s6.7-5.4,17.3-9.3V3.6l2.1-3.1h95.5l2.6,3.1v51.3l126.3,44.3v107.3h-28.8v68.8h117.1v116.5h-28.8v74.6h7.2v-29.9h138.6v74h-35.9v28.8h36v58.5h-28.8v29.8h88.3v88.3h0v58.5h-95.5v28.8h36v88.3h-145.9v-28.8h-118.1v80.1h-78.1v56.5h-65.7M608.5,716h-117.1v88.8l30.3,56.5h56.5l30.3-57v-88.3M535.6,657.4h-29.8v-59.1h22.6v-29.3h-33.9v-54.4h26.7v-4.1h-28.8s-30.8,0-30.8,0v7.2h15.4v95.5h-74v-29.8h-58.5v74h-117.1v28.8h117.1v58.5h-37v29.8h7.2v58.5h8.2v-28.8h80.1v-29.8h58.5v-88.3h74v-28.8M850.9,774.5h-7.2v-29.8h-88.3v-44.2h29.8v-14.4h-29.8v-49.3h0v-9.2h-58.6v22.6h-81.1v-22.6h-7.2v29.8h-44.2v28.8h74v22h0v66.3h58.5v28.8h139.7v29.8h7.2v-29.8h7.2v-28.8M931.1,657.4h-7.2v28.8h-109.9v29.8h117.1v-58.5M278.8,576.3v51.4h7.2v-58.6h-117.1v102.7h7.2v-95.5h102.7M696.9,576.3v22.6h28.8v-59.6h125.3v-28.8h-125.3v-169.5h29.8v-7.2h-117.1v-28.8h-58.6v19.8h0v68.6h28.8v58.5h-28.8v28.8h28.8v88.3h-37v29.7h48.7c0,0,17.6,0,17.6,0l21.5-22.6h37.5M433.4,510.5h-30.3v-58.5h83.2v29.3h6.2v-87.8h28.8v-29.8h-118.1v-58.5h-28.8v146.9h-88.3v-29.8h-29.8v29.8h-7.2v28.8h9.8s54.2,29.3,54.9,29.8h60.7v44.2h59.1v-44.2M632.1,246.5v27.8h6.2v-67.8h0v-48.3h-176.7v176.7h29.8v-88.3h140.7M522.7,1000h66.8v-56.5h78.1v-80.1h117v28.8h146.9v-89.4h-36v-27.7h95.5v-59.6h0v-88.3h-88.3v-28.7h28.8v-59.6h-36v-27.7h35.9v-75h-139.7v29.9h-6.1v-73.6h28.8v-117.6h-117.1v-67.7h28.8v-108.3h-.4c0-.1-126-44.3-126-44.3V3.4h-.1c0-.1-2.6-3.2-2.6-3.2l-.2-.2h-96.1l-.2.2-2.1,3.1h0v56.8c-10,3.7-16.6,8.9-17,9.2l-71.6,46.8-.2.2v5.4h-36v80.7h28.8v43.6h-117.1v117.1h-117.1v89.4h35.9v27.7h-7.2v29.8h-88.3v59.6h29.8v6.2h-29.8v155.1h60.6v-28.8h6.1v43.1h87.3v28.7h-36v118.2h148v-28.8h57.5v80.1h90.4v56.5h0ZM577.9,860.8h-55.8l-30.1-56.1v-88.2h116v87.7l-30.1,56.6h0ZM322.4,832.5h-7.1v-58.5h-7.2v-28.7h37v-59.6h-117.1v-27.7h117.1v-74h57.5v29.8h75v-96.6h-15.4v-6.1h30.3s28.2,0,28.2,0v3h-26.7v55.5h33.9v28.2h-22.6v60.1h29.8v27.7h-74v88.3h-58.5v29.8h-80.1v28.8h0ZM843.2,832.5h-6.1v-29.8h-139.7v-28.8h-58.5v-66.3h0v-22h-74v-27.7h44.2v-29.8h6.1v22.6h82.2v-22.6h57.5v58.5h29.8v13.3h-29.8v45.2h88.3v29.8h7.2v27.7h-7.2v29.8h0ZM930.5,715.4h-116v-28.7h109.9v-28.8h6.1v57.5h0ZM175.6,671.3h-6.1v-101.7h116v57.5h-6.1v-51.4h-103.8v95.5h0ZM637.6,598.3h-16.8c0,0-48.7,0-48.7,0v-28.6h37v-89.4h-28.8v-27.7h28.8v-59.6h-28.8v-68.6h0v-18.7h57.5v28.8h117.1v6.1h-29.8v170.6h125.3v27.7h-125.3v59.6h-27.7v-22.6h-38.3l-.2.2-21.4,22.4h0ZM432.9,554.2h-58v-44.2h-61.1c-3.2-1.8-46-25-54.8-29.7h-.1c0,0-9.3,0-9.3,0v-27.7h7.2v-29.8h28.7v29.8h89.4v-146.9h27.7v58.5h118.1v28.7h-28.8v87.8h-5.1v-29.3h-84.3v59.6h30.3v43.1h0ZM490.9,334.3h-28.7v-175.6h175.6v48.3h0v66.7h-5.1v-27.8h-141.8v88.3h0Z"/>
    </g>
    <g id="Callouts">
      <text class="cls-10" transform="translate(511.7 917.8)"><tspan x="0" y="0">守方 重生点</tspan></text>
      <text class="cls-10" transform="translate(503.7 86.3)"><tspan x="0" y="0">攻方 重生点</tspan></text>
      <text class="cls-10" transform="translate(241.5 836.8)"><tspan x="0" y="0">A区 吊车</tspan></text>
      <text class="cls-10" transform="translate(111.6 692.2)"><tspan x="0" y="0">A区 拐角</tspan></text>
      <text class="cls-10" transform="translate(115.8 530.3)"><tspan x="0" y="0">A区 死角</tspan></text>
      <text class="cls-10" transform="translate(264.3 552.1)"><tspan x="0" y="0">A区 庭院</tspan></text>
      <text class="cls-10" transform="translate(409.6 592.6)"><tspan x="0" y="0">A区 小道</tspan></text>
      <text class="cls-10" transform="translate(505.4 474.6)"><tspan x="0" y="0">中区 台阶</tspan></text>
      <text class="cls-10" transform="translate(521.9 284.4)"><tspan x="0" y="0">中区 坡底</tspan></text>
      <text class="cls-10" transform="translate(520.1 636.2)"><tspan x="0" y="0">中区 坡顶</tspan></text>
      <text class="cls-10" transform="translate(514.9 707.4)"><tspan x="0" y="0">中区 窗口</tspan></text>
      <text class="cls-10" transform="translate(635.9 623.8)"><tspan x="0" y="0">B区 小道</tspan></text>
      <text class="cls-10" transform="translate(762.9 733.2)"><tspan x="0" y="0">B区 高台</tspan></text>
      <text class="cls-10" transform="translate(855.3 856.2)"><tspan x="0" y="0">B区 拱门</tspan></text>
      <text class="cls-10" transform="translate(921.7 748.8)"><tspan x="0" y="0">B区 拐角</tspan></text>
      <text class="cls-10" transform="translate(837 479.6)"><tspan x="0" y="0">B区 大道</tspan></text>
      <text class="cls-10" transform="translate(699.1 310.8)"><tspan x="0" y="0">B区 大厅</tspan></text>
      <text class="cls-10" transform="translate(252.7 398.3)"><tspan x="0" y="0">A区 大厅</tspan></text>
      <text class="cls-10" transform="translate(320.7 284.7)"><tspan x="0" y="0">A区 大厅</tspan></text>
      <path id="B" class="cls-5" d="M823.1,620.8v-16.4c0-1.4.8-2.3,2.2-2.3h6.9c3.9,0,6.4,2,6.4,5.2s-1.7,4.2-3.9,4.6h0c2.9.3,4.9,2.4,4.9,5.2s-2.8,6-7.3,6h-7.1c-1.4,0-2.2-.8-2.2-2.3h0ZM830.6,610.8c2.3,0,3.7-1,3.7-2.8s-1.2-2.6-3.2-2.6h-3.6v5.5h3.2,0ZM831.2,619.8c2.5,0,3.9-1.1,3.9-3.1s-1.4-3-4-3h-3.7v6.1h3.8Z"/>
      <path id="A" class="cls-5" d="M233.6,626.3c-1.2,0-1.8-.6-2.2-2l-1.1-3.3h-7.6l-1.1,3.3c-.4,1.4-1,1.9-2.3,1.9s-2.2-.9-2.2-2.1,0-.8.3-1.4l5.8-15.6c.6-1.7,1.6-2.5,3.4-2.5s2.7.8,3.3,2.5l5.7,15.6c.2.5.3,1,.3,1.4,0,1.3-.9,2.1-2.2,2.1h0ZM229.3,617.6l-2.7-8.6h-.1l-2.8,8.6h5.6Z"/>
    </g>
    <g id="Barrier" class="cls-6">
      <line class="cls-8" x1="895.9" y1="534" x2="850.4" y2="534"/>
      <line class="cls-8" x1="249.6" y1="479.1" x2="204.3" y2="479.1"/>
      <line class="cls-9" x1="374.9" y1="326.9" x2="285.5" y2="326.9"/>
      <line class="cls-9" x1="785.9" y1="397.7" x2="725.1" y2="397.7"/>
      <line class="cls-8" x1="564.9" y1="678.5" x2="534.8" y2="678.5"/>
      <line class="cls-8" x1="708.4" y1="628.2" x2="708.4" y2="598.3"/>
      <line class="cls-9" x1="633.4" y1="305.6" x2="633.4" y2="246"/>
      <line class="cls-9" x1="476.7" y1="364.2" x2="476.7" y2="334.3"/>
      <line class="cls-8" x1="386.8" y1="584" x2="386.8" y2="554.2"/>
    </g>
  </g>
</svg>